  0
SECTION
  2
HEADER
  9
$ACADVER
  1
AC1009
  9
$EXTMIN
 10
0.0
 20
0.0
 30
0.0
  9
$EXTMAX
 10
1000.0
 20
1000.0
 30
0.0
  9
$FILLMODE
 70
 0
  9
$SPLFRAME
 70
 1
  0
ENDSEC
  0
SECTION
  2
TABLES
  0
TABLE
  2
LAYER
 70
1
  0
LAYER
  2
0
 70
     0
 62
     7
  6
CONTINUOUS
  0
ENDTAB
  0
ENDSEC
  0
SECTION
  2
ENTITIES
  0
LINE
  8
0
 62
     0
 10
297.846
 20
109.619
 30
0.0
 11
298.002
 21
109.612
 31
0.0
  0
LINE
  8
0
 62
     0
 10
298.002
 20
109.612
 30
0.0
 11
298.158
 21
109.594
 31
0.0
  0
LINE
  8
0
 62
     0
 10
298.158
 20
109.594
 30
0.0
 11
298.312
 21
109.564
 31
0.0
  0
LINE
  8
0
 62
     0
 10
298.312
 20
109.564
 30
0.0
 11
298.465
 21
109.521
 31
0.0
  0
LINE
  8
0
 62
     0
 10
298.465
 20
109.521
 30
0.0
 11
298.611
 21
109.466
 31
0.0
  0
LINE
  8
0
 62
     0
 10
298.611
 20
109.466
 30
0.0
 11
298.753
 21
109.401
 31
0.0
  0
LINE
  8
0
 62
     0
 10
298.753
 20
109.401
 30
0.0
 11
298.891
 21
109.324
 31
0.0
  0
LINE
  8
0
 62
     0
 10
298.891
 20
109.324
 30
0.0
 11
299.022
 21
109.237
 31
0.0
  0
LINE
  8
0
 62
     0
 10
299.022
 20
109.237
 30
0.0
 11
299.145
 21
109.139
 31
0.0
  0
LINE
  8
0
 62
     0
 10
299.145
 20
109.139
 30
0.0
 11
299.26
 21
109.033
 31
0.0
  0
LINE
  8
0
 62
     0
 10
299.26
 20
109.033
 30
0.0
 11
299.367
 21
108.917
 31
0.0
  0
LINE
  8
0
 62
     0
 10
299.367
 20
108.917
 30
0.0
 11
299.464
 21
108.795
 31
0.0
  0
LINE
  8
0
 62
     0
 10
299.464
 20
108.795
 30
0.0
 11
299.551
 21
108.664
 31
0.0
  0
LINE
  8
0
 62
     0
 10
299.551
 20
108.664
 30
0.0
 11
299.628
 21
108.526
 31
0.0
  0
LINE
  8
0
 62
     0
 10
299.628
 20
108.526
 30
0.0
 11
299.693
 21
108.384
 31
0.0
  0
LINE
  8
0
 62
     0
 10
299.693
 20
108.384
 30
0.0
 11
299.748
 21
108.238
 31
0.0
  0
LINE
  8
0
 62
     0
 10
299.748
 20
108.238
 30
0.0
 11
299.791
 21
108.085
 31
0.0
  0
LINE
  8
0
 62
     0
 10
299.791
 20
108.085
 30
0.0
 11
299.821
 21
107.932
 31
0.0
  0
LINE
  8
0
 62
     0
 10
299.821
 20
107.932
 30
0.0
 11
299.839
 21
107.775
 31
0.0
  0
LINE
  8
0
 62
     0
 10
299.839
 20
107.775
 30
0.0
 11
299.846
 21
107.618
 31
0.0
  0
LINE
  8
0
 62
     0
 10
299.846
 20
107.618
 30
0.0
 11
299.846
 21
2.36885
 31
0.0
  0
LINE
  8
0
 62
     0
 10
299.846
 20
2.36885
 30
0.0
 11
299.839
 21
2.21175
 31
0.0
  0
LINE
  8
0
 62
     0
 10
299.839
 20
2.21175
 30
0.0
 11
299.821
 21
2.05603
 31
0.0
  0
LINE
  8
0
 62
     0
 10
299.821
 20
2.05603
 30
0.0
 11
299.791
 21
1.90169
 31
0.0
  0
LINE
  8
0
 62
     0
 10
299.791
 20
1.90169
 30
0.0
 11
299.748
 21
1.74873
 31
0.0
  0
LINE
  8
0
 62
     0
 10
299.748
 20
1.74873
 30
0.0
 11
299.693
 21
1.60266
 31
0.0
  0
LINE
  8
0
 62
     0
 10
299.693
 20
1.60266
 30
0.0
 11
299.628
 21
1.46072
 31
0.0
  0
LINE
  8
0
 62
     0
 10
299.628
 20
1.46072
 30
0.0
 11
299.551
 21
1.32292
 31
0.0
  0
LINE
  8
0
 62
     0
 10
299.551
 20
1.32292
 30
0.0
 11
299.464
 21
1.192
 31
0.0
  0
LINE
  8
0
 62
     0
 10
299.464
 20
1.192
 30
0.0
 11
299.367
 21
1.06936
 31
0.0
  0
LINE
  8
0
 62
     0
 10
299.367
 20
1.06936
 30
0.0
 11
299.26
 21
0.953604
 31
0.0
  0
LINE
  8
0
 62
     0
 10
299.26
 20
0.953604
 30
0.0
 11
299.145
 21
0.847492
 31
0.0
  0
LINE
  8
0
 62
     0
 10
299.145
 20
0.847492
 30
0.0
 11
299.022
 21
0.749653
 31
0.0
  0
LINE
  8
0
 62
     0
 10
299.022
 20
0.749653
 30
0.0
 11
298.891
 21
0.662838
 31
0.0
  0
LINE
  8
0
 62
     0
 10
298.891
 20
0.662838
 30
0.0
 11
298.753
 21
0.585668
 31
0.0
  0
LINE
  8
0
 62
     0
 10
298.753
 20
0.585668
 30
0.0
 11
298.611
 21
0.520898
 31
0.0
  0
LINE
  8
0
 62
     0
 10
298.611
 20
0.520898
 30
0.0
 11
298.465
 21
0.465776
 31
0.0
  0
LINE
  8
0
 62
     0
 10
298.465
 20
0.465776
 30
0.0
 11
298.312
 21
0.423058
 31
0.0
  0
LINE
  8
0
 62
     0
 10
298.312
 20
0.423058
 30
0.0
 11
298.158
 21
0.39274
 31
0.0
  0
LINE
  8
0
 62
     0
 10
298.158
 20
0.39274
 30
0.0
 11
298.002
 21
0.374826
 31
0.0
  0
LINE
  8
0
 62
     0
 10
298.002
 20
0.374826
 30
0.0
 11
297.846
 21
0.367937
 31
0.0
  0
LINE
  8
0
 62
     0
 10
297.846
 20
0.367937
 30
0.0
 11
2.096
 21
0.367937
 31
0.0
  0
LINE
  8
0
 62
     0
 10
2.096
 20
0.367937
 30
0.0
 11
1.9389
 21
0.374826
 31
0.0
  0
LINE
  8
0
 62
     0
 10
1.9389
 20
0.374826
 30
0.0
 11
1.7818
 21
0.39274
 31
0.0
  0
LINE
  8
0
 62
     0
 10
1.7818
 20
0.39274
 30
0.0
 11
1.62884
 21
0.423058
 31
0.0
  0
LINE
  8
0
 62
     0
 10
1.62884
 20
0.423058
 30
0.0
 11
1.47588
 21
0.465776
 31
0.0
  0
LINE
  8
0
 62
     0
 10
1.47588
 20
0.465776
 30
0.0
 11
1.32981
 21
0.520898
 31
0.0
  0
LINE
  8
0
 62
     0
 10
1.32981
 20
0.520898
 30
0.0
 11
1.18787
 21
0.585668
 31
0.0
  0
LINE
  8
0
 62
     0
 10
1.18787
 20
0.585668
 30
0.0
 11
1.05006
 21
0.662838
 31
0.0
  0
LINE
  8
0
 62
     0
 10
1.05006
 20
0.662838
 30
0.0
 11
0.919152
 21
0.749653
 31
0.0
  0
LINE
  8
0
 62
     0
 10
0.919152
 20
0.749653
 30
0.0
 11
0.796505
 21
0.847492
 31
0.0
  0
LINE
  8
0
 62
     0
 10
0.796505
 20
0.847492
 30
0.0
 11
0.680752
 21
0.953604
 31
0.0
  0
LINE
  8
0
 62
     0
 10
0.680752
 20
0.953604
 30
0.0
 11
0.574643
 21
1.06936
 31
0.0
  0
LINE
  8
0
 62
     0
 10
0.574643
 20
1.06936
 30
0.0
 11
0.4768
 21
1.192
 31
0.0
  0
LINE
  8
0
 62
     0
 10
0.4768
 20
1.192
 30
0.0
 11
0.389985
 21
1.32292
 31
0.0
  0
LINE
  8
0
 62
     0
 10
0.389985
 20
1.32292
 30
0.0
 11
0.312815
 21
1.46072
 31
0.0
  0
LINE
  8
0
 62
     0
 10
0.312815
 20
1.46072
 30
0.0
 11
0.248047
 21
1.60266
 31
0.0
  0
LINE
  8
0
 62
     0
 10
0.248047
 20
1.60266
 30
0.0
 11
0.192925
 21
1.74873
 31
0.0
  0
LINE
  8
0
 62
     0
 10
0.192925
 20
1.74873
 30
0.0
 11
0.150206
 21
1.90169
 31
0.0
  0
LINE
  8
0
 62
     0
 10
0.150206
 20
1.90169
 30
0.0
 11
0.119889
 21
2.05603
 31
0.0
  0
LINE
  8
0
 62
     0
 10
0.119889
 20
2.05603
 30
0.0
 11
0.101975
 21
2.21175
 31
0.0
  0
LINE
  8
0
 62
     0
 10
0.101975
 20
2.21175
 30
0.0
 11
0.0950846
 21
2.36747
 31
0.0
  0
LINE
  8
0
 62
     0
 10
0.0950846
 20
2.36747
 30
0.0
 11
0.0950846
 21
107.618
 31
0.0
  0
LINE
  8
0
 62
     0
 10
0.0950846
 20
107.618
 30
0.0
 11
0.101975
 21
107.775
 31
0.0
  0
LINE
  8
0
 62
     0
 10
0.101975
 20
107.775
 30
0.0
 11
0.119889
 21
107.932
 31
0.0
  0
LINE
  8
0
 62
     0
 10
0.119889
 20
107.932
 30
0.0
 11
0.150206
 21
108.085
 31
0.0
  0
LINE
  8
0
 62
     0
 10
0.150206
 20
108.085
 30
0.0
 11
0.192925
 21
108.238
 31
0.0
  0
LINE
  8
0
 62
     0
 10
0.192925
 20
108.238
 30
0.0
 11
0.248047
 21
108.384
 31
0.0
  0
LINE
  8
0
 62
     0
 10
0.248047
 20
108.384
 30
0.0
 11
0.312815
 21
108.526
 31
0.0
  0
LINE
  8
0
 62
     0
 10
0.312815
 20
108.526
 30
0.0
 11
0.389985
 21
108.664
 31
0.0
  0
LINE
  8
0
 62
     0
 10
0.389985
 20
108.664
 30
0.0
 11
0.4768
 21
108.795
 31
0.0
  0
LINE
  8
0
 62
     0
 10
0.4768
 20
108.795
 30
0.0
 11
0.574643
 21
108.917
 31
0.0
  0
LINE
  8
0
 62
     0
 10
0.574643
 20
108.917
 30
0.0
 11
0.680752
 21
109.033
 31
0.0
  0
LINE
  8
0
 62
     0
 10
0.680752
 20
109.033
 30
0.0
 11
0.796505
 21
109.139
 31
0.0
  0
LINE
  8
0
 62
     0
 10
0.796505
 20
109.139
 30
0.0
 11
0.919152
 21
109.237
 31
0.0
  0
LINE
  8
0
 62
     0
 10
0.919152
 20
109.237
 30
0.0
 11
1.05006
 21
109.324
 31
0.0
  0
LINE
  8
0
 62
     0
 10
1.05006
 20
109.324
 30
0.0
 11
1.18787
 21
109.401
 31
0.0
  0
LINE
  8
0
 62
     0
 10
1.18787
 20
109.401
 30
0.0
 11
1.32981
 21
109.466
 31
0.0
  0
LINE
  8
0
 62
     0
 10
1.32981
 20
109.466
 30
0.0
 11
1.47588
 21
109.521
 31
0.0
  0
LINE
  8
0
 62
     0
 10
1.47588
 20
109.521
 30
0.0
 11
1.62884
 21
109.564
 31
0.0
  0
LINE
  8
0
 62
     0
 10
1.62884
 20
109.564
 30
0.0
 11
1.7818
 21
109.594
 31
0.0
  0
LINE
  8
0
 62
     0
 10
1.7818
 20
109.594
 30
0.0
 11
1.9389
 21
109.612
 31
0.0
  0
LINE
  8
0
 62
     0
 10
1.9389
 20
109.612
 30
0.0
 11
2.096
 21
109.619
 31
0.0
  0
LINE
  8
0
 62
     0
 10
2.096
 20
109.619
 30
0.0
 11
297.846
 21
109.619
 31
0.0
  0
ENDSEC
  0
EOF
