  0
SECTION
  2
HEADER
  9
$ACADVER
  1
AC1009
  9
$EXTMIN
 10
0.0
 20
0.0
 30
0.0
  9
$EXTMAX
 10
1000.0
 20
1000.0
 30
0.0
  9
$FILLMODE
 70
 0
  9
$SPLFRAME
 70
 1
  0
ENDSEC
  0
SECTION
  2
TABLES
  0
TABLE
  2
LAYER
 70
1
  0
LAYER
  2
0
 70
     0
 62
     7
  6
CONTINUOUS
  0
ENDTAB
  0
ENDSEC
  0
SECTION
  2
ENTITIES
  0
LINE
  8
0
 62
     0
 10
297.846
 20
109.619
 30
0.0
 11
298.002
 21
109.612
 31
0.0
  0
LINE
  8
0
 62
     0
 10
298.002
 20
109.612
 30
0.0
 11
298.158
 21
109.594
 31
0.0
  0
LINE
  8
0
 62
     0
 10
298.158
 20
109.594
 30
0.0
 11
298.312
 21
109.564
 31
0.0
  0
LINE
  8
0
 62
     0
 10
298.312
 20
109.564
 30
0.0
 11
298.465
 21
109.521
 31
0.0
  0
LINE
  8
0
 62
     0
 10
298.465
 20
109.521
 30
0.0
 11
298.611
 21
109.466
 31
0.0
  0
LINE
  8
0
 62
     0
 10
298.611
 20
109.466
 30
0.0
 11
298.753
 21
109.401
 31
0.0
  0
LINE
  8
0
 62
     0
 10
298.753
 20
109.401
 30
0.0
 11
298.891
 21
109.324
 31
0.0
  0
LINE
  8
0
 62
     0
 10
298.891
 20
109.324
 30
0.0
 11
299.022
 21
109.237
 31
0.0
  0
LINE
  8
0
 62
     0
 10
299.022
 20
109.237
 30
0.0
 11
299.145
 21
109.139
 31
0.0
  0
LINE
  8
0
 62
     0
 10
299.145
 20
109.139
 30
0.0
 11
299.26
 21
109.033
 31
0.0
  0
LINE
  8
0
 62
     0
 10
299.26
 20
109.033
 30
0.0
 11
299.367
 21
108.917
 31
0.0
  0
LINE
  8
0
 62
     0
 10
299.367
 20
108.917
 30
0.0
 11
299.464
 21
108.795
 31
0.0
  0
LINE
  8
0
 62
     0
 10
299.464
 20
108.795
 30
0.0
 11
299.551
 21
108.664
 31
0.0
  0
LINE
  8
0
 62
     0
 10
299.551
 20
108.664
 30
0.0
 11
299.628
 21
108.526
 31
0.0
  0
LINE
  8
0
 62
     0
 10
299.628
 20
108.526
 30
0.0
 11
299.693
 21
108.384
 31
0.0
  0
LINE
  8
0
 62
     0
 10
299.693
 20
108.384
 30
0.0
 11
299.748
 21
108.238
 31
0.0
  0
LINE
  8
0
 62
     0
 10
299.748
 20
108.238
 30
0.0
 11
299.791
 21
108.085
 31
0.0
  0
LINE
  8
0
 62
     0
 10
299.791
 20
108.085
 30
0.0
 11
299.821
 21
107.932
 31
0.0
  0
LINE
  8
0
 62
     0
 10
299.821
 20
107.932
 30
0.0
 11
299.839
 21
107.775
 31
0.0
  0
LINE
  8
0
 62
     0
 10
299.839
 20
107.775
 30
0.0
 11
299.846
 21
107.618
 31
0.0
  0
LINE
  8
0
 62
     0
 10
299.846
 20
107.618
 30
0.0
 11
299.846
 21
2.36885
 31
0.0
  0
LINE
  8
0
 62
     0
 10
299.846
 20
2.36885
 30
0.0
 11
299.839
 21
2.21175
 31
0.0
  0
LINE
  8
0
 62
     0
 10
299.839
 20
2.21175
 30
0.0
 11
299.821
 21
2.05603
 31
0.0
  0
LINE
  8
0
 62
     0
 10
299.821
 20
2.05603
 30
0.0
 11
299.791
 21
1.90169
 31
0.0
  0
LINE
  8
0
 62
     0
 10
299.791
 20
1.90169
 30
0.0
 11
299.748
 21
1.74873
 31
0.0
  0
LINE
  8
0
 62
     0
 10
299.748
 20
1.74873
 30
0.0
 11
299.693
 21
1.60266
 31
0.0
  0
LINE
  8
0
 62
     0
 10
299.693
 20
1.60266
 30
0.0
 11
299.628
 21
1.46072
 31
0.0
  0
LINE
  8
0
 62
     0
 10
299.628
 20
1.46072
 30
0.0
 11
299.551
 21
1.32292
 31
0.0
  0
LINE
  8
0
 62
     0
 10
299.551
 20
1.32292
 30
0.0
 11
299.464
 21
1.192
 31
0.0
  0
LINE
  8
0
 62
     0
 10
299.464
 20
1.192
 30
0.0
 11
299.367
 21
1.06936
 31
0.0
  0
LINE
  8
0
 62
     0
 10
299.367
 20
1.06936
 30
0.0
 11
299.26
 21
0.953604
 31
0.0
  0
LINE
  8
0
 62
     0
 10
299.26
 20
0.953604
 30
0.0
 11
299.145
 21
0.847492
 31
0.0
  0
LINE
  8
0
 62
     0
 10
299.145
 20
0.847492
 30
0.0
 11
299.022
 21
0.749653
 31
0.0
  0
LINE
  8
0
 62
     0
 10
299.022
 20
0.749653
 30
0.0
 11
298.891
 21
0.662838
 31
0.0
  0
LINE
  8
0
 62
     0
 10
298.891
 20
0.662838
 30
0.0
 11
298.753
 21
0.585668
 31
0.0
  0
LINE
  8
0
 62
     0
 10
298.753
 20
0.585668
 30
0.0
 11
298.611
 21
0.520898
 31
0.0
  0
LINE
  8
0
 62
     0
 10
298.611
 20
0.520898
 30
0.0
 11
298.465
 21
0.465776
 31
0.0
  0
LINE
  8
0
 62
     0
 10
298.465
 20
0.465776
 30
0.0
 11
298.312
 21
0.423058
 31
0.0
  0
LINE
  8
0
 62
     0
 10
298.312
 20
0.423058
 30
0.0
 11
298.158
 21
0.39274
 31
0.0
  0
LINE
  8
0
 62
     0
 10
298.158
 20
0.39274
 30
0.0
 11
298.002
 21
0.374826
 31
0.0
  0
LINE
  8
0
 62
     0
 10
298.002
 20
0.374826
 30
0.0
 11
297.846
 21
0.367937
 31
0.0
  0
LINE
  8
0
 62
     0
 10
297.846
 20
0.367937
 30
0.0
 11
2.096
 21
0.367937
 31
0.0
  0
LINE
  8
0
 62
     0
 10
2.096
 20
0.367937
 30
0.0
 11
1.9389
 21
0.374826
 31
0.0
  0
LINE
  8
0
 62
     0
 10
1.9389
 20
0.374826
 30
0.0
 11
1.7818
 21
0.39274
 31
0.0
  0
LINE
  8
0
 62
     0
 10
1.7818
 20
0.39274
 30
0.0
 11
1.62884
 21
0.423058
 31
0.0
  0
LINE
  8
0
 62
     0
 10
1.62884
 20
0.423058
 30
0.0
 11
1.47588
 21
0.465776
 31
0.0
  0
LINE
  8
0
 62
     0
 10
1.47588
 20
0.465776
 30
0.0
 11
1.32981
 21
0.520898
 31
0.0
  0
LINE
  8
0
 62
     0
 10
1.32981
 20
0.520898
 30
0.0
 11
1.18787
 21
0.585668
 31
0.0
  0
LINE
  8
0
 62
     0
 10
1.18787
 20
0.585668
 30
0.0
 11
1.05006
 21
0.662838
 31
0.0
  0
LINE
  8
0
 62
     0
 10
1.05006
 20
0.662838
 30
0.0
 11
0.919152
 21
0.749653
 31
0.0
  0
LINE
  8
0
 62
     0
 10
0.919152
 20
0.749653
 30
0.0
 11
0.796505
 21
0.847492
 31
0.0
  0
LINE
  8
0
 62
     0
 10
0.796505
 20
0.847492
 30
0.0
 11
0.680752
 21
0.953604
 31
0.0
  0
LINE
  8
0
 62
     0
 10
0.680752
 20
0.953604
 30
0.0
 11
0.574643
 21
1.06936
 31
0.0
  0
LINE
  8
0
 62
     0
 10
0.574643
 20
1.06936
 30
0.0
 11
0.4768
 21
1.192
 31
0.0
  0
LINE
  8
0
 62
     0
 10
0.4768
 20
1.192
 30
0.0
 11
0.389985
 21
1.32292
 31
0.0
  0
LINE
  8
0
 62
     0
 10
0.389985
 20
1.32292
 30
0.0
 11
0.312815
 21
1.46072
 31
0.0
  0
LINE
  8
0
 62
     0
 10
0.312815
 20
1.46072
 30
0.0
 11
0.248047
 21
1.60266
 31
0.0
  0
LINE
  8
0
 62
     0
 10
0.248047
 20
1.60266
 30
0.0
 11
0.192925
 21
1.74873
 31
0.0
  0
LINE
  8
0
 62
     0
 10
0.192925
 20
1.74873
 30
0.0
 11
0.150206
 21
1.90169
 31
0.0
  0
LINE
  8
0
 62
     0
 10
0.150206
 20
1.90169
 30
0.0
 11
0.119889
 21
2.05603
 31
0.0
  0
LINE
  8
0
 62
     0
 10
0.119889
 20
2.05603
 30
0.0
 11
0.101975
 21
2.21175
 31
0.0
  0
LINE
  8
0
 62
     0
 10
0.101975
 20
2.21175
 30
0.0
 11
0.0950846
 21
2.36747
 31
0.0
  0
LINE
  8
0
 62
     0
 10
0.0950846
 20
2.36747
 30
0.0
 11
0.0950846
 21
107.618
 31
0.0
  0
LINE
  8
0
 62
     0
 10
0.0950846
 20
107.618
 30
0.0
 11
0.101975
 21
107.775
 31
0.0
  0
LINE
  8
0
 62
     0
 10
0.101975
 20
107.775
 30
0.0
 11
0.119889
 21
107.932
 31
0.0
  0
LINE
  8
0
 62
     0
 10
0.119889
 20
107.932
 30
0.0
 11
0.150206
 21
108.085
 31
0.0
  0
LINE
  8
0
 62
     0
 10
0.150206
 20
108.085
 30
0.0
 11
0.192925
 21
108.238
 31
0.0
  0
LINE
  8
0
 62
     0
 10
0.192925
 20
108.238
 30
0.0
 11
0.248047
 21
108.384
 31
0.0
  0
LINE
  8
0
 62
     0
 10
0.248047
 20
108.384
 30
0.0
 11
0.312815
 21
108.526
 31
0.0
  0
LINE
  8
0
 62
     0
 10
0.312815
 20
108.526
 30
0.0
 11
0.389985
 21
108.664
 31
0.0
  0
LINE
  8
0
 62
     0
 10
0.389985
 20
108.664
 30
0.0
 11
0.4768
 21
108.795
 31
0.0
  0
LINE
  8
0
 62
     0
 10
0.4768
 20
108.795
 30
0.0
 11
0.574643
 21
108.917
 31
0.0
  0
LINE
  8
0
 62
     0
 10
0.574643
 20
108.917
 30
0.0
 11
0.680752
 21
109.033
 31
0.0
  0
LINE
  8
0
 62
     0
 10
0.680752
 20
109.033
 30
0.0
 11
0.796505
 21
109.139
 31
0.0
  0
LINE
  8
0
 62
     0
 10
0.796505
 20
109.139
 30
0.0
 11
0.919152
 21
109.237
 31
0.0
  0
LINE
  8
0
 62
     0
 10
0.919152
 20
109.237
 30
0.0
 11
1.05006
 21
109.324
 31
0.0
  0
LINE
  8
0
 62
     0
 10
1.05006
 20
109.324
 30
0.0
 11
1.18787
 21
109.401
 31
0.0
  0
LINE
  8
0
 62
     0
 10
1.18787
 20
109.401
 30
0.0
 11
1.32981
 21
109.466
 31
0.0
  0
LINE
  8
0
 62
     0
 10
1.32981
 20
109.466
 30
0.0
 11
1.47588
 21
109.521
 31
0.0
  0
LINE
  8
0
 62
     0
 10
1.47588
 20
109.521
 30
0.0
 11
1.62884
 21
109.564
 31
0.0
  0
LINE
  8
0
 62
     0
 10
1.62884
 20
109.564
 30
0.0
 11
1.7818
 21
109.594
 31
0.0
  0
LINE
  8
0
 62
     0
 10
1.7818
 20
109.594
 30
0.0
 11
1.9389
 21
109.612
 31
0.0
  0
LINE
  8
0
 62
     0
 10
1.9389
 20
109.612
 30
0.0
 11
2.096
 21
109.619
 31
0.0
  0
LINE
  8
0
 62
     0
 10
2.096
 20
109.619
 30
0.0
 11
297.846
 21
109.619
 31
0.0
  0
LINE
  8
0
 62
     0
 10
142.97
 20
23.8938
 30
0.0
 11
142.97
 21
23.2944
 31
0.0
  0
LINE
  8
0
 62
     0
 10
142.97
 20
23.2944
 30
0.0
 11
142.171
 21
23.2944
 31
0.0
  0
LINE
  8
0
 62
     0
 10
142.171
 20
23.2944
 30
0.0
 11
142.171
 21
19.1933
 31
0.0
  0
LINE
  8
0
 62
     0
 10
142.171
 20
19.1933
 30
0.0
 11
96.1954
 21
19.1933
 31
0.0
  0
LINE
  8
0
 62
     0
 10
96.1954
 20
19.1933
 30
0.0
 11
96.1954
 21
22.4234
 31
0.0
  0
LINE
  8
0
 62
     0
 10
96.1954
 20
22.4234
 30
0.0
 11
89.4457
 21
22.4234
 31
0.0
  0
LINE
  8
0
 62
     0
 10
89.4457
 20
22.4234
 30
0.0
 11
89.4457
 21
19.1933
 31
0.0
  0
LINE
  8
0
 62
     0
 10
89.4457
 20
19.1933
 30
0.0
 11
88.6202
 21
19.1933
 31
0.0
  0
LINE
  8
0
 62
     0
 10
88.6202
 20
19.1933
 30
0.0
 11
88.6202
 21
16.3932
 31
0.0
  0
LINE
  8
0
 62
     0
 10
88.6202
 20
16.3932
 30
0.0
 11
89.4457
 21
16.3932
 31
0.0
  0
LINE
  8
0
 62
     0
 10
89.4457
 20
16.3932
 30
0.0
 11
89.4457
 21
10.1244
 31
0.0
  0
LINE
  8
0
 62
     0
 10
89.4457
 20
10.1244
 30
0.0
 11
91.1712
 21
10.1244
 31
0.0
  0
LINE
  8
0
 62
     0
 10
91.1712
 20
10.1244
 30
0.0
 11
91.1712
 21
8.92281
 31
0.0
  0
LINE
  8
0
 62
     0
 10
91.1712
 20
8.92281
 30
0.0
 11
94.47
 21
8.92281
 31
0.0
  0
LINE
  8
0
 62
     0
 10
94.47
 20
8.92281
 30
0.0
 11
94.47
 21
10.1244
 31
0.0
  0
LINE
  8
0
 62
     0
 10
94.47
 20
10.1244
 30
0.0
 11
96.1954
 21
10.1244
 31
0.0
  0
LINE
  8
0
 62
     0
 10
96.1954
 20
10.1244
 30
0.0
 11
96.1954
 21
14.5948
 31
0.0
  0
LINE
  8
0
 62
     0
 10
96.1954
 20
14.5948
 30
0.0
 11
142.171
 21
14.5948
 31
0.0
  0
LINE
  8
0
 62
     0
 10
142.171
 20
14.5948
 30
0.0
 11
142.171
 21
10.4938
 31
0.0
  0
LINE
  8
0
 62
     0
 10
142.171
 20
10.4938
 30
0.0
 11
142.97
 21
10.4938
 31
0.0
  0
LINE
  8
0
 62
     0
 10
142.97
 20
10.4938
 30
0.0
 11
142.97
 21
9.89295
 31
0.0
  0
LINE
  8
0
 62
     0
 10
142.97
 20
9.89295
 30
0.0
 11
156.971
 21
9.89295
 31
0.0
  0
LINE
  8
0
 62
     0
 10
156.971
 20
9.89295
 30
0.0
 11
156.971
 21
10.4938
 31
0.0
  0
LINE
  8
0
 62
     0
 10
156.971
 20
10.4938
 30
0.0
 11
157.77
 21
10.4938
 31
0.0
  0
LINE
  8
0
 62
     0
 10
157.77
 20
10.4938
 30
0.0
 11
157.77
 21
14.5948
 31
0.0
  0
LINE
  8
0
 62
     0
 10
157.77
 20
14.5948
 30
0.0
 11
203.746
 21
14.5948
 31
0.0
  0
LINE
  8
0
 62
     0
 10
203.746
 20
14.5948
 30
0.0
 11
203.746
 21
10.1244
 31
0.0
  0
LINE
  8
0
 62
     0
 10
203.746
 20
10.1244
 30
0.0
 11
205.471
 21
10.1244
 31
0.0
  0
LINE
  8
0
 62
     0
 10
205.471
 20
10.1244
 30
0.0
 11
205.471
 21
8.92281
 31
0.0
  0
LINE
  8
0
 62
     0
 10
205.471
 20
8.92281
 30
0.0
 11
208.77
 21
8.92281
 31
0.0
  0
LINE
  8
0
 62
     0
 10
208.77
 20
8.92281
 30
0.0
 11
208.77
 21
10.1244
 31
0.0
  0
LINE
  8
0
 62
     0
 10
208.77
 20
10.1244
 30
0.0
 11
210.495
 21
10.1244
 31
0.0
  0
LINE
  8
0
 62
     0
 10
210.495
 20
10.1244
 30
0.0
 11
210.495
 21
16.3932
 31
0.0
  0
LINE
  8
0
 62
     0
 10
210.495
 20
16.3932
 30
0.0
 11
211.321
 21
16.3932
 31
0.0
  0
LINE
  8
0
 62
     0
 10
211.321
 20
16.3932
 30
0.0
 11
211.321
 21
19.1933
 31
0.0
  0
LINE
  8
0
 62
     0
 10
211.321
 20
19.1933
 30
0.0
 11
210.495
 21
19.1933
 31
0.0
  0
LINE
  8
0
 62
     0
 10
210.495
 20
19.1933
 30
0.0
 11
210.495
 21
22.4234
 31
0.0
  0
LINE
  8
0
 62
     0
 10
210.495
 20
22.4234
 30
0.0
 11
203.746
 21
22.4234
 31
0.0
  0
LINE
  8
0
 62
     0
 10
203.746
 20
22.4234
 30
0.0
 11
203.746
 21
19.1933
 31
0.0
  0
LINE
  8
0
 62
     0
 10
203.746
 20
19.1933
 30
0.0
 11
157.77
 21
19.1933
 31
0.0
  0
LINE
  8
0
 62
     0
 10
157.77
 20
19.1933
 30
0.0
 11
157.77
 21
23.2944
 31
0.0
  0
LINE
  8
0
 62
     0
 10
157.77
 20
23.2944
 30
0.0
 11
156.971
 21
23.2944
 31
0.0
  0
LINE
  8
0
 62
     0
 10
156.971
 20
23.2944
 30
0.0
 11
156.971
 21
23.8938
 31
0.0
  0
LINE
  8
0
 62
     0
 10
156.971
 20
23.8938
 30
0.0
 11
142.97
 21
23.8938
 31
0.0
  0
LINE
  8
0
 62
     0
 10
245.364
 20
23.8938
 30
0.0
 11
245.364
 21
23.2944
 31
0.0
  0
LINE
  8
0
 62
     0
 10
245.364
 20
23.2944
 30
0.0
 11
244.563
 21
23.2944
 31
0.0
  0
LINE
  8
0
 62
     0
 10
244.563
 20
23.2944
 30
0.0
 11
244.563
 21
10.4938
 31
0.0
  0
LINE
  8
0
 62
     0
 10
244.563
 20
10.4938
 30
0.0
 11
245.364
 21
10.4938
 31
0.0
  0
LINE
  8
0
 62
     0
 10
245.364
 20
10.4938
 30
0.0
 11
245.364
 21
9.89295
 31
0.0
  0
LINE
  8
0
 62
     0
 10
245.364
 20
9.89295
 30
0.0
 11
259.363
 21
9.89295
 31
0.0
  0
LINE
  8
0
 62
     0
 10
259.363
 20
9.89295
 30
0.0
 11
259.363
 21
10.4938
 31
0.0
  0
LINE
  8
0
 62
     0
 10
259.363
 20
10.4938
 30
0.0
 11
260.164
 21
10.4938
 31
0.0
  0
LINE
  8
0
 62
     0
 10
260.164
 20
10.4938
 30
0.0
 11
260.164
 21
23.2944
 31
0.0
  0
LINE
  8
0
 62
     0
 10
260.164
 20
23.2944
 30
0.0
 11
259.363
 21
23.2944
 31
0.0
  0
LINE
  8
0
 62
     0
 10
259.363
 20
23.2944
 30
0.0
 11
259.363
 21
23.8938
 31
0.0
  0
LINE
  8
0
 62
     0
 10
259.363
 20
23.8938
 30
0.0
 11
245.364
 21
23.8938
 31
0.0
  0
LINE
  8
0
 62
     0
 10
221.552
 20
23.8938
 30
0.0
 11
221.552
 21
23.2944
 31
0.0
  0
LINE
  8
0
 62
     0
 10
221.552
 20
23.2944
 30
0.0
 11
220.752
 21
23.2944
 31
0.0
  0
LINE
  8
0
 62
     0
 10
220.752
 20
23.2944
 30
0.0
 11
220.752
 21
10.4938
 31
0.0
  0
LINE
  8
0
 62
     0
 10
220.752
 20
10.4938
 30
0.0
 11
221.552
 21
10.4938
 31
0.0
  0
LINE
  8
0
 62
     0
 10
221.552
 20
10.4938
 30
0.0
 11
221.552
 21
9.89295
 31
0.0
  0
LINE
  8
0
 62
     0
 10
221.552
 20
9.89295
 30
0.0
 11
235.551
 21
9.89295
 31
0.0
  0
LINE
  8
0
 62
     0
 10
235.551
 20
9.89295
 30
0.0
 11
235.551
 21
10.4938
 31
0.0
  0
LINE
  8
0
 62
     0
 10
235.551
 20
10.4938
 30
0.0
 11
236.352
 21
10.4938
 31
0.0
  0
LINE
  8
0
 62
     0
 10
236.352
 20
10.4938
 30
0.0
 11
236.352
 21
23.2944
 31
0.0
  0
LINE
  8
0
 62
     0
 10
236.352
 20
23.2944
 30
0.0
 11
235.551
 21
23.2944
 31
0.0
  0
LINE
  8
0
 62
     0
 10
235.551
 20
23.2944
 30
0.0
 11
235.551
 21
23.8938
 31
0.0
  0
LINE
  8
0
 62
     0
 10
235.551
 20
23.8938
 30
0.0
 11
221.552
 21
23.8938
 31
0.0
  0
LINE
  8
0
 62
     0
 10
64.389
 20
23.8938
 30
0.0
 11
64.389
 21
23.2944
 31
0.0
  0
LINE
  8
0
 62
     0
 10
64.389
 20
23.2944
 30
0.0
 11
63.5882
 21
23.2944
 31
0.0
  0
LINE
  8
0
 62
     0
 10
63.5882
 20
23.2944
 30
0.0
 11
63.5882
 21
10.4938
 31
0.0
  0
LINE
  8
0
 62
     0
 10
63.5882
 20
10.4938
 30
0.0
 11
64.389
 21
10.4938
 31
0.0
  0
LINE
  8
0
 62
     0
 10
64.389
 20
10.4938
 30
0.0
 11
64.389
 21
9.89295
 31
0.0
  0
LINE
  8
0
 62
     0
 10
64.389
 20
9.89295
 30
0.0
 11
78.3883
 21
9.89295
 31
0.0
  0
LINE
  8
0
 62
     0
 10
78.3883
 20
9.89295
 30
0.0
 11
78.3883
 21
10.4938
 31
0.0
  0
LINE
  8
0
 62
     0
 10
78.3883
 20
10.4938
 30
0.0
 11
79.1891
 21
10.4938
 31
0.0
  0
LINE
  8
0
 62
     0
 10
79.1891
 20
10.4938
 30
0.0
 11
79.1891
 21
23.2944
 31
0.0
  0
LINE
  8
0
 62
     0
 10
79.1891
 20
23.2944
 30
0.0
 11
78.3883
 21
23.2944
 31
0.0
  0
LINE
  8
0
 62
     0
 10
78.3883
 20
23.2944
 30
0.0
 11
78.3883
 21
23.8938
 31
0.0
  0
LINE
  8
0
 62
     0
 10
78.3883
 20
23.8938
 30
0.0
 11
64.389
 21
23.8938
 31
0.0
  0
LINE
  8
0
 62
     0
 10
40.5765
 20
23.8938
 30
0.0
 11
40.5765
 21
23.2944
 31
0.0
  0
LINE
  8
0
 62
     0
 10
40.5765
 20
23.2944
 30
0.0
 11
39.7771
 21
23.2944
 31
0.0
  0
LINE
  8
0
 62
     0
 10
39.7771
 20
23.2944
 30
0.0
 11
39.7771
 21
10.4938
 31
0.0
  0
LINE
  8
0
 62
     0
 10
39.7771
 20
10.4938
 30
0.0
 11
40.5765
 21
10.4938
 31
0.0
  0
LINE
  8
0
 62
     0
 10
40.5765
 20
10.4938
 30
0.0
 11
40.5765
 21
9.89295
 31
0.0
  0
LINE
  8
0
 62
     0
 10
40.5765
 20
9.89295
 30
0.0
 11
54.5758
 21
9.89295
 31
0.0
  0
LINE
  8
0
 62
     0
 10
54.5758
 20
9.89295
 30
0.0
 11
54.5758
 21
10.4938
 31
0.0
  0
LINE
  8
0
 62
     0
 10
54.5758
 20
10.4938
 30
0.0
 11
55.3766
 21
10.4938
 31
0.0
  0
LINE
  8
0
 62
     0
 10
55.3766
 20
10.4938
 30
0.0
 11
55.3766
 21
23.2944
 31
0.0
  0
LINE
  8
0
 62
     0
 10
55.3766
 20
23.2944
 30
0.0
 11
54.5758
 21
23.2944
 31
0.0
  0
LINE
  8
0
 62
     0
 10
54.5758
 20
23.2944
 30
0.0
 11
54.5758
 21
23.8938
 31
0.0
  0
LINE
  8
0
 62
     0
 10
54.5758
 20
23.8938
 30
0.0
 11
40.5765
 21
23.8938
 31
0.0
  0
LINE
  8
0
 62
     0
 10
259.652
 20
42.9436
 30
0.0
 11
259.652
 21
42.3443
 31
0.0
  0
LINE
  8
0
 62
     0
 10
259.652
 20
42.3443
 30
0.0
 11
258.852
 21
42.3443
 31
0.0
  0
LINE
  8
0
 62
     0
 10
258.852
 20
42.3443
 30
0.0
 11
258.852
 21
38.2432
 31
0.0
  0
LINE
  8
0
 62
     0
 10
258.852
 20
38.2432
 30
0.0
 11
258.126
 21
38.2432
 31
0.0
  0
LINE
  8
0
 62
     0
 10
258.126
 20
38.2432
 30
0.0
 11
258.126
 21
41.4736
 31
0.0
  0
LINE
  8
0
 62
     0
 10
258.126
 20
41.4736
 30
0.0
 11
251.376
 21
41.4736
 31
0.0
  0
LINE
  8
0
 62
     0
 10
251.376
 20
41.4736
 30
0.0
 11
251.376
 21
38.2432
 31
0.0
  0
LINE
  8
0
 62
     0
 10
251.376
 20
38.2432
 30
0.0
 11
250.552
 21
38.2432
 31
0.0
  0
LINE
  8
0
 62
     0
 10
250.552
 20
38.2432
 30
0.0
 11
250.552
 21
35.4432
 31
0.0
  0
LINE
  8
0
 62
     0
 10
250.552
 20
35.4432
 30
0.0
 11
251.376
 21
35.4432
 31
0.0
  0
LINE
  8
0
 62
     0
 10
251.376
 20
35.4432
 30
0.0
 11
251.376
 21
29.1731
 31
0.0
  0
LINE
  8
0
 62
     0
 10
251.376
 20
29.1731
 30
0.0
 11
253.1
 21
29.1731
 31
0.0
  0
LINE
  8
0
 62
     0
 10
253.1
 20
29.1731
 30
0.0
 11
253.1
 21
27.9728
 31
0.0
  0
LINE
  8
0
 62
     0
 10
253.1
 20
27.9728
 30
0.0
 11
256.401
 21
27.9728
 31
0.0
  0
LINE
  8
0
 62
     0
 10
256.401
 20
27.9728
 30
0.0
 11
256.401
 21
29.1731
 31
0.0
  0
LINE
  8
0
 62
     0
 10
256.401
 20
29.1731
 30
0.0
 11
258.126
 21
29.1731
 31
0.0
  0
LINE
  8
0
 62
     0
 10
258.126
 20
29.1731
 30
0.0
 11
258.126
 21
33.6434
 31
0.0
  0
LINE
  8
0
 62
     0
 10
258.126
 20
33.6434
 30
0.0
 11
258.852
 21
33.6434
 31
0.0
  0
LINE
  8
0
 62
     0
 10
258.852
 20
33.6434
 30
0.0
 11
258.852
 21
29.5438
 31
0.0
  0
LINE
  8
0
 62
     0
 10
258.852
 20
29.5438
 30
0.0
 11
259.652
 21
29.5438
 31
0.0
  0
LINE
  8
0
 62
     0
 10
259.652
 20
29.5438
 30
0.0
 11
259.652
 21
28.9429
 31
0.0
  0
LINE
  8
0
 62
     0
 10
259.652
 20
28.9429
 30
0.0
 11
273.651
 21
28.9429
 31
0.0
  0
LINE
  8
0
 62
     0
 10
273.651
 20
28.9429
 30
0.0
 11
273.651
 21
29.5438
 31
0.0
  0
LINE
  8
0
 62
     0
 10
273.651
 20
29.5438
 30
0.0
 11
274.452
 21
29.5438
 31
0.0
  0
LINE
  8
0
 62
     0
 10
274.452
 20
29.5438
 30
0.0
 11
274.452
 21
33.6434
 31
0.0
  0
LINE
  8
0
 62
     0
 10
274.452
 20
33.6434
 30
0.0
 11
275.176
 21
33.6434
 31
0.0
  0
LINE
  8
0
 62
     0
 10
275.176
 20
33.6434
 30
0.0
 11
275.176
 21
29.1731
 31
0.0
  0
LINE
  8
0
 62
     0
 10
275.176
 20
29.1731
 30
0.0
 11
276.902
 21
29.1731
 31
0.0
  0
LINE
  8
0
 62
     0
 10
276.902
 20
29.1731
 30
0.0
 11
276.902
 21
27.9728
 31
0.0
  0
LINE
  8
0
 62
     0
 10
276.902
 20
27.9728
 30
0.0
 11
280.202
 21
27.9728
 31
0.0
  0
LINE
  8
0
 62
     0
 10
280.202
 20
27.9728
 30
0.0
 11
280.202
 21
29.1731
 31
0.0
  0
LINE
  8
0
 62
     0
 10
280.202
 20
29.1731
 30
0.0
 11
281.926
 21
29.1731
 31
0.0
  0
LINE
  8
0
 62
     0
 10
281.926
 20
29.1731
 30
0.0
 11
281.926
 21
35.4432
 31
0.0
  0
LINE
  8
0
 62
     0
 10
281.926
 20
35.4432
 30
0.0
 11
282.751
 21
35.4432
 31
0.0
  0
LINE
  8
0
 62
     0
 10
282.751
 20
35.4432
 30
0.0
 11
282.751
 21
38.2432
 31
0.0
  0
LINE
  8
0
 62
     0
 10
282.751
 20
38.2432
 30
0.0
 11
281.926
 21
38.2432
 31
0.0
  0
LINE
  8
0
 62
     0
 10
281.926
 20
38.2432
 30
0.0
 11
281.926
 21
41.4736
 31
0.0
  0
LINE
  8
0
 62
     0
 10
281.926
 20
41.4736
 30
0.0
 11
275.176
 21
41.4736
 31
0.0
  0
LINE
  8
0
 62
     0
 10
275.176
 20
41.4736
 30
0.0
 11
275.176
 21
38.2432
 31
0.0
  0
LINE
  8
0
 62
     0
 10
275.176
 20
38.2432
 30
0.0
 11
274.452
 21
38.2432
 31
0.0
  0
LINE
  8
0
 62
     0
 10
274.452
 20
38.2432
 30
0.0
 11
274.452
 21
42.3443
 31
0.0
  0
LINE
  8
0
 62
     0
 10
274.452
 20
42.3443
 30
0.0
 11
273.651
 21
42.3443
 31
0.0
  0
LINE
  8
0
 62
     0
 10
273.651
 20
42.3443
 30
0.0
 11
273.651
 21
42.9436
 31
0.0
  0
LINE
  8
0
 62
     0
 10
273.651
 20
42.9436
 30
0.0
 11
259.652
 21
42.9436
 31
0.0
  0
LINE
  8
0
 62
     0
 10
21.5263
 20
42.9436
 30
0.0
 11
21.5263
 21
42.3443
 31
0.0
  0
LINE
  8
0
 62
     0
 10
21.5263
 20
42.3443
 30
0.0
 11
20.7271
 21
42.3443
 31
0.0
  0
LINE
  8
0
 62
     0
 10
20.7271
 20
42.3443
 30
0.0
 11
20.7271
 21
38.2432
 31
0.0
  0
LINE
  8
0
 62
     0
 10
20.7271
 20
38.2432
 30
0.0
 11
20.0008
 21
38.2432
 31
0.0
  0
LINE
  8
0
 62
     0
 10
20.0008
 20
38.2432
 30
0.0
 11
20.0008
 21
41.4736
 31
0.0
  0
LINE
  8
0
 62
     0
 10
20.0008
 20
41.4736
 30
0.0
 11
13.2512
 21
41.4736
 31
0.0
  0
LINE
  8
0
 62
     0
 10
13.2512
 20
41.4736
 30
0.0
 11
13.2512
 21
38.2432
 31
0.0
  0
LINE
  8
0
 62
     0
 10
13.2512
 20
38.2432
 30
0.0
 11
12.4272
 21
38.2432
 31
0.0
  0
LINE
  8
0
 62
     0
 10
12.4272
 20
38.2432
 30
0.0
 11
12.4272
 21
35.4432
 31
0.0
  0
LINE
  8
0
 62
     0
 10
12.4272
 20
35.4432
 30
0.0
 11
13.2512
 21
35.4432
 31
0.0
  0
LINE
  8
0
 62
     0
 10
13.2512
 20
35.4432
 30
0.0
 11
13.2512
 21
29.1731
 31
0.0
  0
LINE
  8
0
 62
     0
 10
13.2512
 20
29.1731
 30
0.0
 11
14.9765
 21
29.1731
 31
0.0
  0
LINE
  8
0
 62
     0
 10
14.9765
 20
29.1731
 30
0.0
 11
14.9765
 21
27.9728
 31
0.0
  0
LINE
  8
0
 62
     0
 10
14.9765
 20
27.9728
 30
0.0
 11
18.2769
 21
27.9728
 31
0.0
  0
LINE
  8
0
 62
     0
 10
18.2769
 20
27.9728
 30
0.0
 11
18.2769
 21
29.1731
 31
0.0
  0
LINE
  8
0
 62
     0
 10
18.2769
 20
29.1731
 30
0.0
 11
20.0008
 21
29.1731
 31
0.0
  0
LINE
  8
0
 62
     0
 10
20.0008
 20
29.1731
 30
0.0
 11
20.0008
 21
33.6434
 31
0.0
  0
LINE
  8
0
 62
     0
 10
20.0008
 20
33.6434
 30
0.0
 11
20.7271
 21
33.6434
 31
0.0
  0
LINE
  8
0
 62
     0
 10
20.7271
 20
33.6434
 30
0.0
 11
20.7271
 21
29.5438
 31
0.0
  0
LINE
  8
0
 62
     0
 10
20.7271
 20
29.5438
 30
0.0
 11
21.5263
 21
29.5438
 31
0.0
  0
LINE
  8
0
 62
     0
 10
21.5263
 20
29.5438
 30
0.0
 11
21.5263
 21
28.9429
 31
0.0
  0
LINE
  8
0
 62
     0
 10
21.5263
 20
28.9429
 30
0.0
 11
35.5258
 21
28.9429
 31
0.0
  0
LINE
  8
0
 62
     0
 10
35.5258
 20
28.9429
 30
0.0
 11
35.5258
 21
29.5438
 31
0.0
  0
LINE
  8
0
 62
     0
 10
35.5258
 20
29.5438
 30
0.0
 11
36.3266
 21
29.5438
 31
0.0
  0
LINE
  8
0
 62
     0
 10
36.3266
 20
29.5438
 30
0.0
 11
36.3266
 21
33.6434
 31
0.0
  0
LINE
  8
0
 62
     0
 10
36.3266
 20
33.6434
 30
0.0
 11
37.0512
 21
33.6434
 31
0.0
  0
LINE
  8
0
 62
     0
 10
37.0512
 20
33.6434
 30
0.0
 11
37.0512
 21
29.1731
 31
0.0
  0
LINE
  8
0
 62
     0
 10
37.0512
 20
29.1731
 30
0.0
 11
38.7766
 21
29.1731
 31
0.0
  0
LINE
  8
0
 62
     0
 10
38.7766
 20
29.1731
 30
0.0
 11
38.7766
 21
27.9728
 31
0.0
  0
LINE
  8
0
 62
     0
 10
38.7766
 20
27.9728
 30
0.0
 11
42.0769
 21
27.9728
 31
0.0
  0
LINE
  8
0
 62
     0
 10
42.0769
 20
27.9728
 30
0.0
 11
42.0769
 21
29.1731
 31
0.0
  0
LINE
  8
0
 62
     0
 10
42.0769
 20
29.1731
 30
0.0
 11
43.8009
 21
29.1731
 31
0.0
  0
LINE
  8
0
 62
     0
 10
43.8009
 20
29.1731
 30
0.0
 11
43.8009
 21
35.4432
 31
0.0
  0
LINE
  8
0
 62
     0
 10
43.8009
 20
35.4432
 30
0.0
 11
44.6264
 21
35.4432
 31
0.0
  0
LINE
  8
0
 62
     0
 10
44.6264
 20
35.4432
 30
0.0
 11
44.6264
 21
38.2432
 31
0.0
  0
LINE
  8
0
 62
     0
 10
44.6264
 20
38.2432
 30
0.0
 11
43.8009
 21
38.2432
 31
0.0
  0
LINE
  8
0
 62
     0
 10
43.8009
 20
38.2432
 30
0.0
 11
43.8009
 21
41.4736
 31
0.0
  0
LINE
  8
0
 62
     0
 10
43.8009
 20
41.4736
 30
0.0
 11
37.0512
 21
41.4736
 31
0.0
  0
LINE
  8
0
 62
     0
 10
37.0512
 20
41.4736
 30
0.0
 11
37.0512
 21
38.2432
 31
0.0
  0
LINE
  8
0
 62
     0
 10
37.0512
 20
38.2432
 30
0.0
 11
36.3266
 21
38.2432
 31
0.0
  0
LINE
  8
0
 62
     0
 10
36.3266
 20
38.2432
 30
0.0
 11
36.3266
 21
42.3443
 31
0.0
  0
LINE
  8
0
 62
     0
 10
36.3266
 20
42.3443
 30
0.0
 11
35.5258
 21
42.3443
 31
0.0
  0
LINE
  8
0
 62
     0
 10
35.5258
 20
42.3443
 30
0.0
 11
35.5258
 21
42.9436
 31
0.0
  0
LINE
  8
0
 62
     0
 10
35.5258
 20
42.9436
 30
0.0
 11
21.5263
 21
42.9436
 31
0.0
  0
LINE
  8
0
 62
     0
 10
223.933
 20
42.9436
 30
0.0
 11
223.933
 21
42.3443
 31
0.0
  0
LINE
  8
0
 62
     0
 10
223.933
 20
42.3443
 30
0.0
 11
223.132
 21
42.3443
 31
0.0
  0
LINE
  8
0
 62
     0
 10
223.132
 20
42.3443
 30
0.0
 11
223.132
 21
29.5438
 31
0.0
  0
LINE
  8
0
 62
     0
 10
223.132
 20
29.5438
 30
0.0
 11
223.933
 21
29.5438
 31
0.0
  0
LINE
  8
0
 62
     0
 10
223.933
 20
29.5438
 30
0.0
 11
223.933
 21
28.9429
 31
0.0
  0
LINE
  8
0
 62
     0
 10
223.933
 20
28.9429
 30
0.0
 11
237.932
 21
28.9429
 31
0.0
  0
LINE
  8
0
 62
     0
 10
237.932
 20
28.9429
 30
0.0
 11
237.932
 21
29.5438
 31
0.0
  0
LINE
  8
0
 62
     0
 10
237.932
 20
29.5438
 30
0.0
 11
238.733
 21
29.5438
 31
0.0
  0
LINE
  8
0
 62
     0
 10
238.733
 20
29.5438
 30
0.0
 11
238.733
 21
42.3443
 31
0.0
  0
LINE
  8
0
 62
     0
 10
238.733
 20
42.3443
 30
0.0
 11
237.932
 21
42.3443
 31
0.0
  0
LINE
  8
0
 62
     0
 10
237.932
 20
42.3443
 30
0.0
 11
237.932
 21
42.9436
 31
0.0
  0
LINE
  8
0
 62
     0
 10
237.932
 20
42.9436
 30
0.0
 11
223.933
 21
42.9436
 31
0.0
  0
LINE
  8
0
 62
     0
 10
204.883
 20
42.9436
 30
0.0
 11
204.883
 21
42.3443
 31
0.0
  0
LINE
  8
0
 62
     0
 10
204.883
 20
42.3443
 30
0.0
 11
204.082
 21
42.3443
 31
0.0
  0
LINE
  8
0
 62
     0
 10
204.082
 20
42.3443
 30
0.0
 11
204.082
 21
29.5438
 31
0.0
  0
LINE
  8
0
 62
     0
 10
204.082
 20
29.5438
 30
0.0
 11
204.883
 21
29.5438
 31
0.0
  0
LINE
  8
0
 62
     0
 10
204.883
 20
29.5438
 30
0.0
 11
204.883
 21
28.9429
 31
0.0
  0
LINE
  8
0
 62
     0
 10
204.883
 20
28.9429
 30
0.0
 11
218.882
 21
28.9429
 31
0.0
  0
LINE
  8
0
 62
     0
 10
218.882
 20
28.9429
 30
0.0
 11
218.882
 21
29.5438
 31
0.0
  0
LINE
  8
0
 62
     0
 10
218.882
 20
29.5438
 30
0.0
 11
219.683
 21
29.5438
 31
0.0
  0
LINE
  8
0
 62
     0
 10
219.683
 20
29.5438
 30
0.0
 11
219.683
 21
42.3443
 31
0.0
  0
LINE
  8
0
 62
     0
 10
219.683
 20
42.3443
 30
0.0
 11
218.882
 21
42.3443
 31
0.0
  0
LINE
  8
0
 62
     0
 10
218.882
 20
42.3443
 30
0.0
 11
218.882
 21
42.9436
 31
0.0
  0
LINE
  8
0
 62
     0
 10
218.882
 20
42.9436
 30
0.0
 11
204.883
 21
42.9436
 31
0.0
  0
LINE
  8
0
 62
     0
 10
185.833
 20
42.9436
 30
0.0
 11
185.833
 21
42.3443
 31
0.0
  0
LINE
  8
0
 62
     0
 10
185.833
 20
42.3443
 30
0.0
 11
185.032
 21
42.3443
 31
0.0
  0
LINE
  8
0
 62
     0
 10
185.032
 20
42.3443
 30
0.0
 11
185.032
 21
29.5438
 31
0.0
  0
LINE
  8
0
 62
     0
 10
185.032
 20
29.5438
 30
0.0
 11
185.833
 21
29.5438
 31
0.0
  0
LINE
  8
0
 62
     0
 10
185.833
 20
29.5438
 30
0.0
 11
185.833
 21
28.9429
 31
0.0
  0
LINE
  8
0
 62
     0
 10
185.833
 20
28.9429
 30
0.0
 11
199.832
 21
28.9429
 31
0.0
  0
LINE
  8
0
 62
     0
 10
199.832
 20
28.9429
 30
0.0
 11
199.832
 21
29.5438
 31
0.0
  0
LINE
  8
0
 62
     0
 10
199.832
 20
29.5438
 30
0.0
 11
200.633
 21
29.5438
 31
0.0
  0
LINE
  8
0
 62
     0
 10
200.633
 20
29.5438
 30
0.0
 11
200.633
 21
42.3443
 31
0.0
  0
LINE
  8
0
 62
     0
 10
200.633
 20
42.3443
 30
0.0
 11
199.832
 21
42.3443
 31
0.0
  0
LINE
  8
0
 62
     0
 10
199.832
 20
42.3443
 30
0.0
 11
199.832
 21
42.9436
 31
0.0
  0
LINE
  8
0
 62
     0
 10
199.832
 20
42.9436
 30
0.0
 11
185.833
 21
42.9436
 31
0.0
  0
LINE
  8
0
 62
     0
 10
166.783
 20
42.9436
 30
0.0
 11
166.783
 21
42.3443
 31
0.0
  0
LINE
  8
0
 62
     0
 10
166.783
 20
42.3443
 30
0.0
 11
165.982
 21
42.3443
 31
0.0
  0
LINE
  8
0
 62
     0
 10
165.982
 20
42.3443
 30
0.0
 11
165.982
 21
29.5438
 31
0.0
  0
LINE
  8
0
 62
     0
 10
165.982
 20
29.5438
 30
0.0
 11
166.783
 21
29.5438
 31
0.0
  0
LINE
  8
0
 62
     0
 10
166.783
 20
29.5438
 30
0.0
 11
166.783
 21
28.9429
 31
0.0
  0
LINE
  8
0
 62
     0
 10
166.783
 20
28.9429
 30
0.0
 11
180.782
 21
28.9429
 31
0.0
  0
LINE
  8
0
 62
     0
 10
180.782
 20
28.9429
 30
0.0
 11
180.782
 21
29.5438
 31
0.0
  0
LINE
  8
0
 62
     0
 10
180.782
 20
29.5438
 30
0.0
 11
181.583
 21
29.5438
 31
0.0
  0
LINE
  8
0
 62
     0
 10
181.583
 20
29.5438
 30
0.0
 11
181.583
 21
42.3443
 31
0.0
  0
LINE
  8
0
 62
     0
 10
181.583
 20
42.3443
 30
0.0
 11
180.782
 21
42.3443
 31
0.0
  0
LINE
  8
0
 62
     0
 10
180.782
 20
42.3443
 30
0.0
 11
180.782
 21
42.9436
 31
0.0
  0
LINE
  8
0
 62
     0
 10
180.782
 20
42.9436
 30
0.0
 11
166.783
 21
42.9436
 31
0.0
  0
LINE
  8
0
 62
     0
 10
147.733
 20
42.9436
 30
0.0
 11
147.733
 21
42.3443
 31
0.0
  0
LINE
  8
0
 62
     0
 10
147.733
 20
42.3443
 30
0.0
 11
146.932
 21
42.3443
 31
0.0
  0
LINE
  8
0
 62
     0
 10
146.932
 20
42.3443
 30
0.0
 11
146.932
 21
29.5438
 31
0.0
  0
LINE
  8
0
 62
     0
 10
146.932
 20
29.5438
 30
0.0
 11
147.733
 21
29.5438
 31
0.0
  0
LINE
  8
0
 62
     0
 10
147.733
 20
29.5438
 30
0.0
 11
147.733
 21
28.9429
 31
0.0
  0
LINE
  8
0
 62
     0
 10
147.733
 20
28.9429
 30
0.0
 11
161.732
 21
28.9429
 31
0.0
  0
LINE
  8
0
 62
     0
 10
161.732
 20
28.9429
 30
0.0
 11
161.732
 21
29.5438
 31
0.0
  0
LINE
  8
0
 62
     0
 10
161.732
 20
29.5438
 30
0.0
 11
162.533
 21
29.5438
 31
0.0
  0
LINE
  8
0
 62
     0
 10
162.533
 20
29.5438
 30
0.0
 11
162.533
 21
42.3443
 31
0.0
  0
LINE
  8
0
 62
     0
 10
162.533
 20
42.3443
 30
0.0
 11
161.732
 21
42.3443
 31
0.0
  0
LINE
  8
0
 62
     0
 10
161.732
 20
42.3443
 30
0.0
 11
161.732
 21
42.9436
 31
0.0
  0
LINE
  8
0
 62
     0
 10
161.732
 20
42.9436
 30
0.0
 11
147.733
 21
42.9436
 31
0.0
  0
LINE
  8
0
 62
     0
 10
128.683
 20
42.9436
 30
0.0
 11
128.683
 21
42.3443
 31
0.0
  0
LINE
  8
0
 62
     0
 10
128.683
 20
42.3443
 30
0.0
 11
127.882
 21
42.3443
 31
0.0
  0
LINE
  8
0
 62
     0
 10
127.882
 20
42.3443
 30
0.0
 11
127.882
 21
29.5438
 31
0.0
  0
LINE
  8
0
 62
     0
 10
127.882
 20
29.5438
 30
0.0
 11
128.683
 21
29.5438
 31
0.0
  0
LINE
  8
0
 62
     0
 10
128.683
 20
29.5438
 30
0.0
 11
128.683
 21
28.9429
 31
0.0
  0
LINE
  8
0
 62
     0
 10
128.683
 20
28.9429
 30
0.0
 11
142.682
 21
28.9429
 31
0.0
  0
LINE
  8
0
 62
     0
 10
142.682
 20
28.9429
 30
0.0
 11
142.682
 21
29.5438
 31
0.0
  0
LINE
  8
0
 62
     0
 10
142.682
 20
29.5438
 30
0.0
 11
143.483
 21
29.5438
 31
0.0
  0
LINE
  8
0
 62
     0
 10
143.483
 20
29.5438
 30
0.0
 11
143.483
 21
42.3443
 31
0.0
  0
LINE
  8
0
 62
     0
 10
143.483
 20
42.3443
 30
0.0
 11
142.682
 21
42.3443
 31
0.0
  0
LINE
  8
0
 62
     0
 10
142.682
 20
42.3443
 30
0.0
 11
142.682
 21
42.9436
 31
0.0
  0
LINE
  8
0
 62
     0
 10
142.682
 20
42.9436
 30
0.0
 11
128.683
 21
42.9436
 31
0.0
  0
LINE
  8
0
 62
     0
 10
109.633
 20
42.9436
 30
0.0
 11
109.633
 21
42.3443
 31
0.0
  0
LINE
  8
0
 62
     0
 10
109.633
 20
42.3443
 30
0.0
 11
108.832
 21
42.3443
 31
0.0
  0
LINE
  8
0
 62
     0
 10
108.832
 20
42.3443
 30
0.0
 11
108.832
 21
29.5438
 31
0.0
  0
LINE
  8
0
 62
     0
 10
108.832
 20
29.5438
 30
0.0
 11
109.633
 21
29.5438
 31
0.0
  0
LINE
  8
0
 62
     0
 10
109.633
 20
29.5438
 30
0.0
 11
109.633
 21
28.9429
 31
0.0
  0
LINE
  8
0
 62
     0
 10
109.633
 20
28.9429
 30
0.0
 11
123.632
 21
28.9429
 31
0.0
  0
LINE
  8
0
 62
     0
 10
123.632
 20
28.9429
 30
0.0
 11
123.632
 21
29.5438
 31
0.0
  0
LINE
  8
0
 62
     0
 10
123.632
 20
29.5438
 30
0.0
 11
124.431
 21
29.5438
 31
0.0
  0
LINE
  8
0
 62
     0
 10
124.431
 20
29.5438
 30
0.0
 11
124.431
 21
42.3443
 31
0.0
  0
LINE
  8
0
 62
     0
 10
124.431
 20
42.3443
 30
0.0
 11
123.632
 21
42.3443
 31
0.0
  0
LINE
  8
0
 62
     0
 10
123.632
 20
42.3443
 30
0.0
 11
123.632
 21
42.9436
 31
0.0
  0
LINE
  8
0
 62
     0
 10
123.632
 20
42.9436
 30
0.0
 11
109.633
 21
42.9436
 31
0.0
  0
LINE
  8
0
 62
     0
 10
90.5827
 20
42.9436
 30
0.0
 11
90.5827
 21
42.3443
 31
0.0
  0
LINE
  8
0
 62
     0
 10
90.5827
 20
42.3443
 30
0.0
 11
89.7819
 21
42.3443
 31
0.0
  0
LINE
  8
0
 62
     0
 10
89.7819
 20
42.3443
 30
0.0
 11
89.7819
 21
29.5438
 31
0.0
  0
LINE
  8
0
 62
     0
 10
89.7819
 20
29.5438
 30
0.0
 11
90.5827
 21
29.5438
 31
0.0
  0
LINE
  8
0
 62
     0
 10
90.5827
 20
29.5438
 30
0.0
 11
90.5827
 21
28.9429
 31
0.0
  0
LINE
  8
0
 62
     0
 10
90.5827
 20
28.9429
 30
0.0
 11
104.582
 21
28.9429
 31
0.0
  0
LINE
  8
0
 62
     0
 10
104.582
 20
28.9429
 30
0.0
 11
104.582
 21
29.5438
 31
0.0
  0
LINE
  8
0
 62
     0
 10
104.582
 20
29.5438
 30
0.0
 11
105.383
 21
29.5438
 31
0.0
  0
LINE
  8
0
 62
     0
 10
105.383
 20
29.5438
 30
0.0
 11
105.383
 21
42.3443
 31
0.0
  0
LINE
  8
0
 62
     0
 10
105.383
 20
42.3443
 30
0.0
 11
104.582
 21
42.3443
 31
0.0
  0
LINE
  8
0
 62
     0
 10
104.582
 20
42.3443
 30
0.0
 11
104.582
 21
42.9436
 31
0.0
  0
LINE
  8
0
 62
     0
 10
104.582
 20
42.9436
 30
0.0
 11
90.5827
 21
42.9436
 31
0.0
  0
LINE
  8
0
 62
     0
 10
71.5328
 20
42.9436
 30
0.0
 11
71.5328
 21
42.3443
 31
0.0
  0
LINE
  8
0
 62
     0
 10
71.5328
 20
42.3443
 30
0.0
 11
70.7319
 21
42.3443
 31
0.0
  0
LINE
  8
0
 62
     0
 10
70.7319
 20
42.3443
 30
0.0
 11
70.7319
 21
29.5438
 31
0.0
  0
LINE
  8
0
 62
     0
 10
70.7319
 20
29.5438
 30
0.0
 11
71.5328
 21
29.5438
 31
0.0
  0
LINE
  8
0
 62
     0
 10
71.5328
 20
29.5438
 30
0.0
 11
71.5328
 21
28.9429
 31
0.0
  0
LINE
  8
0
 62
     0
 10
71.5328
 20
28.9429
 30
0.0
 11
85.532
 21
28.9429
 31
0.0
  0
LINE
  8
0
 62
     0
 10
85.532
 20
28.9429
 30
0.0
 11
85.532
 21
29.5438
 31
0.0
  0
LINE
  8
0
 62
     0
 10
85.532
 20
29.5438
 30
0.0
 11
86.3328
 21
29.5438
 31
0.0
  0
LINE
  8
0
 62
     0
 10
86.3328
 20
29.5438
 30
0.0
 11
86.3328
 21
42.3443
 31
0.0
  0
LINE
  8
0
 62
     0
 10
86.3328
 20
42.3443
 30
0.0
 11
85.532
 21
42.3443
 31
0.0
  0
LINE
  8
0
 62
     0
 10
85.532
 20
42.3443
 30
0.0
 11
85.532
 21
42.9436
 31
0.0
  0
LINE
  8
0
 62
     0
 10
85.532
 20
42.9436
 30
0.0
 11
71.5328
 21
42.9436
 31
0.0
  0
LINE
  8
0
 62
     0
 10
52.4828
 20
42.9436
 30
0.0
 11
52.4828
 21
42.3443
 31
0.0
  0
LINE
  8
0
 62
     0
 10
52.4828
 20
42.3443
 30
0.0
 11
51.6819
 21
42.3443
 31
0.0
  0
LINE
  8
0
 62
     0
 10
51.6819
 20
42.3443
 30
0.0
 11
51.6819
 21
29.5438
 31
0.0
  0
LINE
  8
0
 62
     0
 10
51.6819
 20
29.5438
 30
0.0
 11
52.4828
 21
29.5438
 31
0.0
  0
LINE
  8
0
 62
     0
 10
52.4828
 20
29.5438
 30
0.0
 11
52.4828
 21
28.9429
 31
0.0
  0
LINE
  8
0
 62
     0
 10
52.4828
 20
28.9429
 30
0.0
 11
66.482
 21
28.9429
 31
0.0
  0
LINE
  8
0
 62
     0
 10
66.482
 20
28.9429
 30
0.0
 11
66.482
 21
29.5438
 31
0.0
  0
LINE
  8
0
 62
     0
 10
66.482
 20
29.5438
 30
0.0
 11
67.2828
 21
29.5438
 31
0.0
  0
LINE
  8
0
 62
     0
 10
67.2828
 20
29.5438
 30
0.0
 11
67.2828
 21
42.3443
 31
0.0
  0
LINE
  8
0
 62
     0
 10
67.2828
 20
42.3443
 30
0.0
 11
66.482
 21
42.3443
 31
0.0
  0
LINE
  8
0
 62
     0
 10
66.482
 20
42.3443
 30
0.0
 11
66.482
 21
42.9436
 31
0.0
  0
LINE
  8
0
 62
     0
 10
66.482
 20
42.9436
 30
0.0
 11
52.4828
 21
42.9436
 31
0.0
  0
LINE
  8
0
 62
     0
 10
264.414
 20
61.9936
 30
0.0
 11
264.414
 21
61.3929
 31
0.0
  0
LINE
  8
0
 62
     0
 10
264.414
 20
61.3929
 30
0.0
 11
263.613
 21
61.3929
 31
0.0
  0
LINE
  8
0
 62
     0
 10
263.613
 20
61.3929
 30
0.0
 11
263.613
 21
57.2932
 31
0.0
  0
LINE
  8
0
 62
     0
 10
263.613
 20
57.2932
 30
0.0
 11
262.888
 21
57.2932
 31
0.0
  0
LINE
  8
0
 62
     0
 10
262.888
 20
57.2932
 30
0.0
 11
262.888
 21
60.5236
 31
0.0
  0
LINE
  8
0
 62
     0
 10
262.888
 20
60.5236
 30
0.0
 11
256.139
 21
60.5236
 31
0.0
  0
LINE
  8
0
 62
     0
 10
256.139
 20
60.5236
 30
0.0
 11
256.139
 21
57.2932
 31
0.0
  0
LINE
  8
0
 62
     0
 10
256.139
 20
57.2932
 30
0.0
 11
255.313
 21
57.2932
 31
0.0
  0
LINE
  8
0
 62
     0
 10
255.313
 20
57.2932
 30
0.0
 11
255.313
 21
54.4932
 31
0.0
  0
LINE
  8
0
 62
     0
 10
255.313
 20
54.4932
 30
0.0
 11
256.139
 21
54.4932
 31
0.0
  0
LINE
  8
0
 62
     0
 10
256.139
 20
54.4932
 30
0.0
 11
256.139
 21
48.223
 31
0.0
  0
LINE
  8
0
 62
     0
 10
256.139
 20
48.223
 30
0.0
 11
257.864
 21
48.223
 31
0.0
  0
LINE
  8
0
 62
     0
 10
257.864
 20
48.223
 30
0.0
 11
257.864
 21
47.0228
 31
0.0
  0
LINE
  8
0
 62
     0
 10
257.864
 20
47.0228
 30
0.0
 11
261.163
 21
47.0228
 31
0.0
  0
LINE
  8
0
 62
     0
 10
261.163
 20
47.0228
 30
0.0
 11
261.163
 21
48.223
 31
0.0
  0
LINE
  8
0
 62
     0
 10
261.163
 20
48.223
 30
0.0
 11
262.888
 21
48.223
 31
0.0
  0
LINE
  8
0
 62
     0
 10
262.888
 20
48.223
 30
0.0
 11
262.888
 21
52.6934
 31
0.0
  0
LINE
  8
0
 62
     0
 10
262.888
 20
52.6934
 30
0.0
 11
263.613
 21
52.6934
 31
0.0
  0
LINE
  8
0
 62
     0
 10
263.613
 20
52.6934
 30
0.0
 11
263.613
 21
48.5937
 31
0.0
  0
LINE
  8
0
 62
     0
 10
263.613
 20
48.5937
 30
0.0
 11
264.414
 21
48.5937
 31
0.0
  0
LINE
  8
0
 62
     0
 10
264.414
 20
48.5937
 30
0.0
 11
264.414
 21
47.9929
 31
0.0
  0
LINE
  8
0
 62
     0
 10
264.414
 20
47.9929
 30
0.0
 11
278.413
 21
47.9929
 31
0.0
  0
LINE
  8
0
 62
     0
 10
278.413
 20
47.9929
 30
0.0
 11
278.413
 21
48.5937
 31
0.0
  0
LINE
  8
0
 62
     0
 10
278.413
 20
48.5937
 30
0.0
 11
279.214
 21
48.5937
 31
0.0
  0
LINE
  8
0
 62
     0
 10
279.214
 20
48.5937
 30
0.0
 11
279.214
 21
52.6934
 31
0.0
  0
LINE
  8
0
 62
     0
 10
279.214
 20
52.6934
 30
0.0
 11
279.939
 21
52.6934
 31
0.0
  0
LINE
  8
0
 62
     0
 10
279.939
 20
52.6934
 30
0.0
 11
279.939
 21
48.223
 31
0.0
  0
LINE
  8
0
 62
     0
 10
279.939
 20
48.223
 30
0.0
 11
281.664
 21
48.223
 31
0.0
  0
LINE
  8
0
 62
     0
 10
281.664
 20
48.223
 30
0.0
 11
281.664
 21
47.0228
 31
0.0
  0
LINE
  8
0
 62
     0
 10
281.664
 20
47.0228
 30
0.0
 11
284.963
 21
47.0228
 31
0.0
  0
LINE
  8
0
 62
     0
 10
284.963
 20
47.0228
 30
0.0
 11
284.963
 21
48.223
 31
0.0
  0
LINE
  8
0
 62
     0
 10
284.963
 20
48.223
 30
0.0
 11
286.688
 21
48.223
 31
0.0
  0
LINE
  8
0
 62
     0
 10
286.688
 20
48.223
 30
0.0
 11
286.688
 21
54.4932
 31
0.0
  0
LINE
  8
0
 62
     0
 10
286.688
 20
54.4932
 30
0.0
 11
287.514
 21
54.4932
 31
0.0
  0
LINE
  8
0
 62
     0
 10
287.514
 20
54.4932
 30
0.0
 11
287.514
 21
57.2932
 31
0.0
  0
LINE
  8
0
 62
     0
 10
287.514
 20
57.2932
 30
0.0
 11
286.688
 21
57.2932
 31
0.0
  0
LINE
  8
0
 62
     0
 10
286.688
 20
57.2932
 30
0.0
 11
286.688
 21
60.5236
 31
0.0
  0
LINE
  8
0
 62
     0
 10
286.688
 20
60.5236
 30
0.0
 11
279.939
 21
60.5236
 31
0.0
  0
LINE
  8
0
 62
     0
 10
279.939
 20
60.5236
 30
0.0
 11
279.939
 21
57.2932
 31
0.0
  0
LINE
  8
0
 62
     0
 10
279.939
 20
57.2932
 30
0.0
 11
279.214
 21
57.2932
 31
0.0
  0
LINE
  8
0
 62
     0
 10
279.214
 20
57.2932
 30
0.0
 11
279.214
 21
61.3929
 31
0.0
  0
LINE
  8
0
 62
     0
 10
279.214
 20
61.3929
 30
0.0
 11
278.413
 21
61.3929
 31
0.0
  0
LINE
  8
0
 62
     0
 10
278.413
 20
61.3929
 30
0.0
 11
278.413
 21
61.9936
 31
0.0
  0
LINE
  8
0
 62
     0
 10
278.413
 20
61.9936
 30
0.0
 11
264.414
 21
61.9936
 31
0.0
  0
LINE
  8
0
 62
     0
 10
233.458
 20
61.9936
 30
0.0
 11
233.458
 21
61.3929
 31
0.0
  0
LINE
  8
0
 62
     0
 10
233.458
 20
61.3929
 30
0.0
 11
232.657
 21
61.3929
 31
0.0
  0
LINE
  8
0
 62
     0
 10
232.657
 20
61.3929
 30
0.0
 11
232.657
 21
48.5937
 31
0.0
  0
LINE
  8
0
 62
     0
 10
232.657
 20
48.5937
 30
0.0
 11
233.458
 21
48.5937
 31
0.0
  0
LINE
  8
0
 62
     0
 10
233.458
 20
48.5937
 30
0.0
 11
233.458
 21
47.9929
 31
0.0
  0
LINE
  8
0
 62
     0
 10
233.458
 20
47.9929
 30
0.0
 11
247.457
 21
47.9929
 31
0.0
  0
LINE
  8
0
 62
     0
 10
247.457
 20
47.9929
 30
0.0
 11
247.457
 21
48.5937
 31
0.0
  0
LINE
  8
0
 62
     0
 10
247.457
 20
48.5937
 30
0.0
 11
248.258
 21
48.5937
 31
0.0
  0
LINE
  8
0
 62
     0
 10
248.258
 20
48.5937
 30
0.0
 11
248.258
 21
61.3929
 31
0.0
  0
LINE
  8
0
 62
     0
 10
248.258
 20
61.3929
 30
0.0
 11
247.457
 21
61.3929
 31
0.0
  0
LINE
  8
0
 62
     0
 10
247.457
 20
61.3929
 30
0.0
 11
247.457
 21
61.9936
 31
0.0
  0
LINE
  8
0
 62
     0
 10
247.457
 20
61.9936
 30
0.0
 11
233.458
 21
61.9936
 31
0.0
  0
LINE
  8
0
 62
     0
 10
214.408
 20
61.9936
 30
0.0
 11
214.408
 21
61.3929
 31
0.0
  0
LINE
  8
0
 62
     0
 10
214.408
 20
61.3929
 30
0.0
 11
213.607
 21
61.3929
 31
0.0
  0
LINE
  8
0
 62
     0
 10
213.607
 20
61.3929
 30
0.0
 11
213.607
 21
48.5937
 31
0.0
  0
LINE
  8
0
 62
     0
 10
213.607
 20
48.5937
 30
0.0
 11
214.408
 21
48.5937
 31
0.0
  0
LINE
  8
0
 62
     0
 10
214.408
 20
48.5937
 30
0.0
 11
214.408
 21
47.9929
 31
0.0
  0
LINE
  8
0
 62
     0
 10
214.408
 20
47.9929
 30
0.0
 11
228.407
 21
47.9929
 31
0.0
  0
LINE
  8
0
 62
     0
 10
228.407
 20
47.9929
 30
0.0
 11
228.407
 21
48.5937
 31
0.0
  0
LINE
  8
0
 62
     0
 10
228.407
 20
48.5937
 30
0.0
 11
229.208
 21
48.5937
 31
0.0
  0
LINE
  8
0
 62
     0
 10
229.208
 20
48.5937
 30
0.0
 11
229.208
 21
61.3929
 31
0.0
  0
LINE
  8
0
 62
     0
 10
229.208
 20
61.3929
 30
0.0
 11
228.407
 21
61.3929
 31
0.0
  0
LINE
  8
0
 62
     0
 10
228.407
 20
61.3929
 30
0.0
 11
228.407
 21
61.9936
 31
0.0
  0
LINE
  8
0
 62
     0
 10
228.407
 20
61.9936
 30
0.0
 11
214.408
 21
61.9936
 31
0.0
  0
LINE
  8
0
 62
     0
 10
195.358
 20
61.9936
 30
0.0
 11
195.358
 21
61.3929
 31
0.0
  0
LINE
  8
0
 62
     0
 10
195.358
 20
61.3929
 30
0.0
 11
194.557
 21
61.3929
 31
0.0
  0
LINE
  8
0
 62
     0
 10
194.557
 20
61.3929
 30
0.0
 11
194.557
 21
48.5937
 31
0.0
  0
LINE
  8
0
 62
     0
 10
194.557
 20
48.5937
 30
0.0
 11
195.358
 21
48.5937
 31
0.0
  0
LINE
  8
0
 62
     0
 10
195.358
 20
48.5937
 30
0.0
 11
195.358
 21
47.9929
 31
0.0
  0
LINE
  8
0
 62
     0
 10
195.358
 20
47.9929
 30
0.0
 11
209.357
 21
47.9929
 31
0.0
  0
LINE
  8
0
 62
     0
 10
209.357
 20
47.9929
 30
0.0
 11
209.357
 21
48.5937
 31
0.0
  0
LINE
  8
0
 62
     0
 10
209.357
 20
48.5937
 30
0.0
 11
210.158
 21
48.5937
 31
0.0
  0
LINE
  8
0
 62
     0
 10
210.158
 20
48.5937
 30
0.0
 11
210.158
 21
61.3929
 31
0.0
  0
LINE
  8
0
 62
     0
 10
210.158
 20
61.3929
 30
0.0
 11
209.357
 21
61.3929
 31
0.0
  0
LINE
  8
0
 62
     0
 10
209.357
 20
61.3929
 30
0.0
 11
209.357
 21
61.9936
 31
0.0
  0
LINE
  8
0
 62
     0
 10
209.357
 20
61.9936
 30
0.0
 11
195.358
 21
61.9936
 31
0.0
  0
LINE
  8
0
 62
     0
 10
176.308
 20
61.9936
 30
0.0
 11
176.308
 21
61.3929
 31
0.0
  0
LINE
  8
0
 62
     0
 10
176.308
 20
61.3929
 30
0.0
 11
175.507
 21
61.3929
 31
0.0
  0
LINE
  8
0
 62
     0
 10
175.507
 20
61.3929
 30
0.0
 11
175.507
 21
48.5937
 31
0.0
  0
LINE
  8
0
 62
     0
 10
175.507
 20
48.5937
 30
0.0
 11
176.308
 21
48.5937
 31
0.0
  0
LINE
  8
0
 62
     0
 10
176.308
 20
48.5937
 30
0.0
 11
176.308
 21
47.9929
 31
0.0
  0
LINE
  8
0
 62
     0
 10
176.308
 20
47.9929
 30
0.0
 11
190.307
 21
47.9929
 31
0.0
  0
LINE
  8
0
 62
     0
 10
190.307
 20
47.9929
 30
0.0
 11
190.307
 21
48.5937
 31
0.0
  0
LINE
  8
0
 62
     0
 10
190.307
 20
48.5937
 30
0.0
 11
191.108
 21
48.5937
 31
0.0
  0
LINE
  8
0
 62
     0
 10
191.108
 20
48.5937
 30
0.0
 11
191.108
 21
61.3929
 31
0.0
  0
LINE
  8
0
 62
     0
 10
191.108
 20
61.3929
 30
0.0
 11
190.307
 21
61.3929
 31
0.0
  0
LINE
  8
0
 62
     0
 10
190.307
 20
61.3929
 30
0.0
 11
190.307
 21
61.9936
 31
0.0
  0
LINE
  8
0
 62
     0
 10
190.307
 20
61.9936
 30
0.0
 11
176.308
 21
61.9936
 31
0.0
  0
LINE
  8
0
 62
     0
 10
157.258
 20
61.9936
 30
0.0
 11
157.258
 21
61.3929
 31
0.0
  0
LINE
  8
0
 62
     0
 10
157.258
 20
61.3929
 30
0.0
 11
156.457
 21
61.3929
 31
0.0
  0
LINE
  8
0
 62
     0
 10
156.457
 20
61.3929
 30
0.0
 11
156.457
 21
48.5937
 31
0.0
  0
LINE
  8
0
 62
     0
 10
156.457
 20
48.5937
 30
0.0
 11
157.258
 21
48.5937
 31
0.0
  0
LINE
  8
0
 62
     0
 10
157.258
 20
48.5937
 30
0.0
 11
157.258
 21
47.9929
 31
0.0
  0
LINE
  8
0
 62
     0
 10
157.258
 20
47.9929
 30
0.0
 11
171.257
 21
47.9929
 31
0.0
  0
LINE
  8
0
 62
     0
 10
171.257
 20
47.9929
 30
0.0
 11
171.257
 21
48.5937
 31
0.0
  0
LINE
  8
0
 62
     0
 10
171.257
 20
48.5937
 30
0.0
 11
172.058
 21
48.5937
 31
0.0
  0
LINE
  8
0
 62
     0
 10
172.058
 20
48.5937
 30
0.0
 11
172.058
 21
61.3929
 31
0.0
  0
LINE
  8
0
 62
     0
 10
172.058
 20
61.3929
 30
0.0
 11
171.257
 21
61.3929
 31
0.0
  0
LINE
  8
0
 62
     0
 10
171.257
 20
61.3929
 30
0.0
 11
171.257
 21
61.9936
 31
0.0
  0
LINE
  8
0
 62
     0
 10
171.257
 20
61.9936
 30
0.0
 11
157.258
 21
61.9936
 31
0.0
  0
LINE
  8
0
 62
     0
 10
138.208
 20
61.9936
 30
0.0
 11
138.208
 21
61.3929
 31
0.0
  0
LINE
  8
0
 62
     0
 10
138.208
 20
61.3929
 30
0.0
 11
137.407
 21
61.3929
 31
0.0
  0
LINE
  8
0
 62
     0
 10
137.407
 20
61.3929
 30
0.0
 11
137.407
 21
48.5937
 31
0.0
  0
LINE
  8
0
 62
     0
 10
137.407
 20
48.5937
 30
0.0
 11
138.208
 21
48.5937
 31
0.0
  0
LINE
  8
0
 62
     0
 10
138.208
 20
48.5937
 30
0.0
 11
138.208
 21
47.9929
 31
0.0
  0
LINE
  8
0
 62
     0
 10
138.208
 20
47.9929
 30
0.0
 11
152.207
 21
47.9929
 31
0.0
  0
LINE
  8
0
 62
     0
 10
152.207
 20
47.9929
 30
0.0
 11
152.207
 21
48.5937
 31
0.0
  0
LINE
  8
0
 62
     0
 10
152.207
 20
48.5937
 30
0.0
 11
153.008
 21
48.5937
 31
0.0
  0
LINE
  8
0
 62
     0
 10
153.008
 20
48.5937
 30
0.0
 11
153.008
 21
61.3929
 31
0.0
  0
LINE
  8
0
 62
     0
 10
153.008
 20
61.3929
 30
0.0
 11
152.207
 21
61.3929
 31
0.0
  0
LINE
  8
0
 62
     0
 10
152.207
 20
61.3929
 30
0.0
 11
152.207
 21
61.9936
 31
0.0
  0
LINE
  8
0
 62
     0
 10
152.207
 20
61.9936
 30
0.0
 11
138.208
 21
61.9936
 31
0.0
  0
LINE
  8
0
 62
     0
 10
119.158
 20
61.9936
 30
0.0
 11
119.158
 21
61.3929
 31
0.0
  0
LINE
  8
0
 62
     0
 10
119.158
 20
61.3929
 30
0.0
 11
118.357
 21
61.3929
 31
0.0
  0
LINE
  8
0
 62
     0
 10
118.357
 20
61.3929
 30
0.0
 11
118.357
 21
48.5937
 31
0.0
  0
LINE
  8
0
 62
     0
 10
118.357
 20
48.5937
 30
0.0
 11
119.158
 21
48.5937
 31
0.0
  0
LINE
  8
0
 62
     0
 10
119.158
 20
48.5937
 30
0.0
 11
119.158
 21
47.9929
 31
0.0
  0
LINE
  8
0
 62
     0
 10
119.158
 20
47.9929
 30
0.0
 11
133.157
 21
47.9929
 31
0.0
  0
LINE
  8
0
 62
     0
 10
133.157
 20
47.9929
 30
0.0
 11
133.157
 21
48.5937
 31
0.0
  0
LINE
  8
0
 62
     0
 10
133.157
 20
48.5937
 30
0.0
 11
133.958
 21
48.5937
 31
0.0
  0
LINE
  8
0
 62
     0
 10
133.958
 20
48.5937
 30
0.0
 11
133.958
 21
61.3929
 31
0.0
  0
LINE
  8
0
 62
     0
 10
133.958
 20
61.3929
 30
0.0
 11
133.157
 21
61.3929
 31
0.0
  0
LINE
  8
0
 62
     0
 10
133.157
 20
61.3929
 30
0.0
 11
133.157
 21
61.9936
 31
0.0
  0
LINE
  8
0
 62
     0
 10
133.157
 20
61.9936
 30
0.0
 11
119.158
 21
61.9936
 31
0.0
  0
LINE
  8
0
 62
     0
 10
100.108
 20
61.9936
 30
0.0
 11
100.108
 21
61.3929
 31
0.0
  0
LINE
  8
0
 62
     0
 10
100.108
 20
61.3929
 30
0.0
 11
99.3069
 21
61.3929
 31
0.0
  0
LINE
  8
0
 62
     0
 10
99.3069
 20
61.3929
 30
0.0
 11
99.3069
 21
48.5937
 31
0.0
  0
LINE
  8
0
 62
     0
 10
99.3069
 20
48.5937
 30
0.0
 11
100.108
 21
48.5937
 31
0.0
  0
LINE
  8
0
 62
     0
 10
100.108
 20
48.5937
 30
0.0
 11
100.108
 21
47.9929
 31
0.0
  0
LINE
  8
0
 62
     0
 10
100.108
 20
47.9929
 30
0.0
 11
114.107
 21
47.9929
 31
0.0
  0
LINE
  8
0
 62
     0
 10
114.107
 20
47.9929
 30
0.0
 11
114.107
 21
48.5937
 31
0.0
  0
LINE
  8
0
 62
     0
 10
114.107
 20
48.5937
 30
0.0
 11
114.908
 21
48.5937
 31
0.0
  0
LINE
  8
0
 62
     0
 10
114.908
 20
48.5937
 30
0.0
 11
114.908
 21
61.3929
 31
0.0
  0
LINE
  8
0
 62
     0
 10
114.908
 20
61.3929
 30
0.0
 11
114.107
 21
61.3929
 31
0.0
  0
LINE
  8
0
 62
     0
 10
114.107
 20
61.3929
 30
0.0
 11
114.107
 21
61.9936
 31
0.0
  0
LINE
  8
0
 62
     0
 10
114.107
 20
61.9936
 30
0.0
 11
100.108
 21
61.9936
 31
0.0
  0
LINE
  8
0
 62
     0
 10
81.0578
 20
61.9936
 30
0.0
 11
81.0578
 21
61.3929
 31
0.0
  0
LINE
  8
0
 62
     0
 10
81.0578
 20
61.3929
 30
0.0
 11
80.2569
 21
61.3929
 31
0.0
  0
LINE
  8
0
 62
     0
 10
80.2569
 20
61.3929
 30
0.0
 11
80.2569
 21
48.5937
 31
0.0
  0
LINE
  8
0
 62
     0
 10
80.2569
 20
48.5937
 30
0.0
 11
81.0578
 21
48.5937
 31
0.0
  0
LINE
  8
0
 62
     0
 10
81.0578
 20
48.5937
 30
0.0
 11
81.0578
 21
47.9929
 31
0.0
  0
LINE
  8
0
 62
     0
 10
81.0578
 20
47.9929
 30
0.0
 11
95.057
 21
47.9929
 31
0.0
  0
LINE
  8
0
 62
     0
 10
95.057
 20
47.9929
 30
0.0
 11
95.057
 21
48.5937
 31
0.0
  0
LINE
  8
0
 62
     0
 10
95.057
 20
48.5937
 30
0.0
 11
95.8578
 21
48.5937
 31
0.0
  0
LINE
  8
0
 62
     0
 10
95.8578
 20
48.5937
 30
0.0
 11
95.8578
 21
61.3929
 31
0.0
  0
LINE
  8
0
 62
     0
 10
95.8578
 20
61.3929
 30
0.0
 11
95.057
 21
61.3929
 31
0.0
  0
LINE
  8
0
 62
     0
 10
95.057
 20
61.3929
 30
0.0
 11
95.057
 21
61.9936
 31
0.0
  0
LINE
  8
0
 62
     0
 10
95.057
 20
61.9936
 30
0.0
 11
81.0578
 21
61.9936
 31
0.0
  0
LINE
  8
0
 62
     0
 10
62.0078
 20
61.9936
 30
0.0
 11
62.0078
 21
61.3929
 31
0.0
  0
LINE
  8
0
 62
     0
 10
62.0078
 20
61.3929
 30
0.0
 11
61.2069
 21
61.3929
 31
0.0
  0
LINE
  8
0
 62
     0
 10
61.2069
 20
61.3929
 30
0.0
 11
61.2069
 21
48.5937
 31
0.0
  0
LINE
  8
0
 62
     0
 10
61.2069
 20
48.5937
 30
0.0
 11
62.0078
 21
48.5937
 31
0.0
  0
LINE
  8
0
 62
     0
 10
62.0078
 20
48.5937
 30
0.0
 11
62.0078
 21
47.9929
 31
0.0
  0
LINE
  8
0
 62
     0
 10
62.0078
 20
47.9929
 30
0.0
 11
76.007
 21
47.9929
 31
0.0
  0
LINE
  8
0
 62
     0
 10
76.007
 20
47.9929
 30
0.0
 11
76.007
 21
48.5937
 31
0.0
  0
LINE
  8
0
 62
     0
 10
76.007
 20
48.5937
 30
0.0
 11
76.8078
 21
48.5937
 31
0.0
  0
LINE
  8
0
 62
     0
 10
76.8078
 20
48.5937
 30
0.0
 11
76.8078
 21
61.3929
 31
0.0
  0
LINE
  8
0
 62
     0
 10
76.8078
 20
61.3929
 30
0.0
 11
76.007
 21
61.3929
 31
0.0
  0
LINE
  8
0
 62
     0
 10
76.007
 20
61.3929
 30
0.0
 11
76.007
 21
61.9936
 31
0.0
  0
LINE
  8
0
 62
     0
 10
76.007
 20
61.9936
 30
0.0
 11
62.0078
 21
61.9936
 31
0.0
  0
LINE
  8
0
 62
     0
 10
42.9577
 20
61.9936
 30
0.0
 11
42.9577
 21
61.3929
 31
0.0
  0
LINE
  8
0
 62
     0
 10
42.9577
 20
61.3929
 30
0.0
 11
42.1569
 21
61.3929
 31
0.0
  0
LINE
  8
0
 62
     0
 10
42.1569
 20
61.3929
 30
0.0
 11
42.1569
 21
48.5937
 31
0.0
  0
LINE
  8
0
 62
     0
 10
42.1569
 20
48.5937
 30
0.0
 11
42.9577
 21
48.5937
 31
0.0
  0
LINE
  8
0
 62
     0
 10
42.9577
 20
48.5937
 30
0.0
 11
42.9577
 21
47.9929
 31
0.0
  0
LINE
  8
0
 62
     0
 10
42.9577
 20
47.9929
 30
0.0
 11
56.957
 21
47.9929
 31
0.0
  0
LINE
  8
0
 62
     0
 10
56.957
 20
47.9929
 30
0.0
 11
56.957
 21
48.5937
 31
0.0
  0
LINE
  8
0
 62
     0
 10
56.957
 20
48.5937
 30
0.0
 11
57.7578
 21
48.5937
 31
0.0
  0
LINE
  8
0
 62
     0
 10
57.7578
 20
48.5937
 30
0.0
 11
57.7578
 21
61.3929
 31
0.0
  0
LINE
  8
0
 62
     0
 10
57.7578
 20
61.3929
 30
0.0
 11
56.957
 21
61.3929
 31
0.0
  0
LINE
  8
0
 62
     0
 10
56.957
 20
61.3929
 30
0.0
 11
56.957
 21
61.9936
 31
0.0
  0
LINE
  8
0
 62
     0
 10
56.957
 20
61.9936
 30
0.0
 11
42.9577
 21
61.9936
 31
0.0
  0
LINE
  8
0
 62
     0
 10
12.0013
 20
61.9936
 30
0.0
 11
12.0013
 21
61.3929
 31
0.0
  0
LINE
  8
0
 62
     0
 10
12.0013
 20
61.3929
 30
0.0
 11
11.2021
 21
61.3929
 31
0.0
  0
LINE
  8
0
 62
     0
 10
11.2021
 20
61.3929
 30
0.0
 11
11.2021
 21
48.5937
 31
0.0
  0
LINE
  8
0
 62
     0
 10
11.2021
 20
48.5937
 30
0.0
 11
12.0013
 21
48.5937
 31
0.0
  0
LINE
  8
0
 62
     0
 10
12.0013
 20
48.5937
 30
0.0
 11
12.0013
 21
47.9929
 31
0.0
  0
LINE
  8
0
 62
     0
 10
12.0013
 20
47.9929
 30
0.0
 11
26.0008
 21
47.9929
 31
0.0
  0
LINE
  8
0
 62
     0
 10
26.0008
 20
47.9929
 30
0.0
 11
26.0008
 21
48.5937
 31
0.0
  0
LINE
  8
0
 62
     0
 10
26.0008
 20
48.5937
 30
0.0
 11
26.8015
 21
48.5937
 31
0.0
  0
LINE
  8
0
 62
     0
 10
26.8015
 20
48.5937
 30
0.0
 11
26.8015
 21
61.3929
 31
0.0
  0
LINE
  8
0
 62
     0
 10
26.8015
 20
61.3929
 30
0.0
 11
26.0008
 21
61.3929
 31
0.0
  0
LINE
  8
0
 62
     0
 10
26.0008
 20
61.3929
 30
0.0
 11
26.0008
 21
61.9936
 31
0.0
  0
LINE
  8
0
 62
     0
 10
26.0008
 20
61.9936
 30
0.0
 11
12.0013
 21
61.9936
 31
0.0
  0
LINE
  8
0
 62
     0
 10
271.558
 20
81.0436
 30
0.0
 11
271.558
 21
80.4429
 31
0.0
  0
LINE
  8
0
 62
     0
 10
271.558
 20
80.4429
 30
0.0
 11
270.757
 21
80.4429
 31
0.0
  0
LINE
  8
0
 62
     0
 10
270.757
 20
80.4429
 30
0.0
 11
270.757
 21
67.6437
 31
0.0
  0
LINE
  8
0
 62
     0
 10
270.757
 20
67.6437
 30
0.0
 11
271.558
 21
67.6437
 31
0.0
  0
LINE
  8
0
 62
     0
 10
271.558
 20
67.6437
 30
0.0
 11
271.558
 21
67.0429
 31
0.0
  0
LINE
  8
0
 62
     0
 10
271.558
 20
67.0429
 30
0.0
 11
285.557
 21
67.0429
 31
0.0
  0
LINE
  8
0
 62
     0
 10
285.557
 20
67.0429
 30
0.0
 11
285.557
 21
67.6437
 31
0.0
  0
LINE
  8
0
 62
     0
 10
285.557
 20
67.6437
 30
0.0
 11
286.358
 21
67.6437
 31
0.0
  0
LINE
  8
0
 62
     0
 10
286.358
 20
67.6437
 30
0.0
 11
286.358
 21
80.4429
 31
0.0
  0
LINE
  8
0
 62
     0
 10
286.358
 20
80.4429
 30
0.0
 11
285.557
 21
80.4429
 31
0.0
  0
LINE
  8
0
 62
     0
 10
285.557
 20
80.4429
 30
0.0
 11
285.557
 21
81.0436
 31
0.0
  0
LINE
  8
0
 62
     0
 10
285.557
 20
81.0436
 30
0.0
 11
271.558
 21
81.0436
 31
0.0
  0
LINE
  8
0
 62
     0
 10
247.745
 20
81.0436
 30
0.0
 11
247.745
 21
80.4429
 31
0.0
  0
LINE
  8
0
 62
     0
 10
247.745
 20
80.4429
 30
0.0
 11
246.946
 21
80.4429
 31
0.0
  0
LINE
  8
0
 62
     0
 10
246.946
 20
80.4429
 30
0.0
 11
246.946
 21
67.6437
 31
0.0
  0
LINE
  8
0
 62
     0
 10
246.946
 20
67.6437
 30
0.0
 11
247.745
 21
67.6437
 31
0.0
  0
LINE
  8
0
 62
     0
 10
247.745
 20
67.6437
 30
0.0
 11
247.745
 21
67.0429
 31
0.0
  0
LINE
  8
0
 62
     0
 10
247.745
 20
67.0429
 30
0.0
 11
261.746
 21
67.0429
 31
0.0
  0
LINE
  8
0
 62
     0
 10
261.746
 20
67.0429
 30
0.0
 11
261.746
 21
67.6437
 31
0.0
  0
LINE
  8
0
 62
     0
 10
261.746
 20
67.6437
 30
0.0
 11
262.545
 21
67.6437
 31
0.0
  0
LINE
  8
0
 62
     0
 10
262.545
 20
67.6437
 30
0.0
 11
262.545
 21
80.4429
 31
0.0
  0
LINE
  8
0
 62
     0
 10
262.545
 20
80.4429
 30
0.0
 11
261.746
 21
80.4429
 31
0.0
  0
LINE
  8
0
 62
     0
 10
261.746
 20
80.4429
 30
0.0
 11
261.746
 21
81.0436
 31
0.0
  0
LINE
  8
0
 62
     0
 10
261.746
 20
81.0436
 30
0.0
 11
247.745
 21
81.0436
 31
0.0
  0
LINE
  8
0
 62
     0
 10
228.695
 20
81.0436
 30
0.0
 11
228.695
 21
80.4429
 31
0.0
  0
LINE
  8
0
 62
     0
 10
228.695
 20
80.4429
 30
0.0
 11
227.896
 21
80.4429
 31
0.0
  0
LINE
  8
0
 62
     0
 10
227.896
 20
80.4429
 30
0.0
 11
227.896
 21
67.6437
 31
0.0
  0
LINE
  8
0
 62
     0
 10
227.896
 20
67.6437
 30
0.0
 11
228.695
 21
67.6437
 31
0.0
  0
LINE
  8
0
 62
     0
 10
228.695
 20
67.6437
 30
0.0
 11
228.695
 21
67.0429
 31
0.0
  0
LINE
  8
0
 62
     0
 10
228.695
 20
67.0429
 30
0.0
 11
242.696
 21
67.0429
 31
0.0
  0
LINE
  8
0
 62
     0
 10
242.696
 20
67.0429
 30
0.0
 11
242.696
 21
67.6437
 31
0.0
  0
LINE
  8
0
 62
     0
 10
242.696
 20
67.6437
 30
0.0
 11
243.495
 21
67.6437
 31
0.0
  0
LINE
  8
0
 62
     0
 10
243.495
 20
67.6437
 30
0.0
 11
243.495
 21
80.4429
 31
0.0
  0
LINE
  8
0
 62
     0
 10
243.495
 20
80.4429
 30
0.0
 11
242.696
 21
80.4429
 31
0.0
  0
LINE
  8
0
 62
     0
 10
242.696
 20
80.4429
 30
0.0
 11
242.696
 21
81.0436
 31
0.0
  0
LINE
  8
0
 62
     0
 10
242.696
 20
81.0436
 30
0.0
 11
228.695
 21
81.0436
 31
0.0
  0
LINE
  8
0
 62
     0
 10
209.645
 20
81.0436
 30
0.0
 11
209.645
 21
80.4429
 31
0.0
  0
LINE
  8
0
 62
     0
 10
209.645
 20
80.4429
 30
0.0
 11
208.846
 21
80.4429
 31
0.0
  0
LINE
  8
0
 62
     0
 10
208.846
 20
80.4429
 30
0.0
 11
208.846
 21
67.6437
 31
0.0
  0
LINE
  8
0
 62
     0
 10
208.846
 20
67.6437
 30
0.0
 11
209.645
 21
67.6437
 31
0.0
  0
LINE
  8
0
 62
     0
 10
209.645
 20
67.6437
 30
0.0
 11
209.645
 21
67.0429
 31
0.0
  0
LINE
  8
0
 62
     0
 10
209.645
 20
67.0429
 30
0.0
 11
223.646
 21
67.0429
 31
0.0
  0
LINE
  8
0
 62
     0
 10
223.646
 20
67.0429
 30
0.0
 11
223.646
 21
67.6437
 31
0.0
  0
LINE
  8
0
 62
     0
 10
223.646
 20
67.6437
 30
0.0
 11
224.445
 21
67.6437
 31
0.0
  0
LINE
  8
0
 62
     0
 10
224.445
 20
67.6437
 30
0.0
 11
224.445
 21
80.4429
 31
0.0
  0
LINE
  8
0
 62
     0
 10
224.445
 20
80.4429
 30
0.0
 11
223.646
 21
80.4429
 31
0.0
  0
LINE
  8
0
 62
     0
 10
223.646
 20
80.4429
 30
0.0
 11
223.646
 21
81.0436
 31
0.0
  0
LINE
  8
0
 62
     0
 10
223.646
 20
81.0436
 30
0.0
 11
209.645
 21
81.0436
 31
0.0
  0
LINE
  8
0
 62
     0
 10
190.595
 20
81.0436
 30
0.0
 11
190.595
 21
80.4429
 31
0.0
  0
LINE
  8
0
 62
     0
 10
190.595
 20
80.4429
 30
0.0
 11
189.796
 21
80.4429
 31
0.0
  0
LINE
  8
0
 62
     0
 10
189.796
 20
80.4429
 30
0.0
 11
189.796
 21
67.6437
 31
0.0
  0
LINE
  8
0
 62
     0
 10
189.796
 20
67.6437
 30
0.0
 11
190.595
 21
67.6437
 31
0.0
  0
LINE
  8
0
 62
     0
 10
190.595
 20
67.6437
 30
0.0
 11
190.595
 21
67.0429
 31
0.0
  0
LINE
  8
0
 62
     0
 10
190.595
 20
67.0429
 30
0.0
 11
204.596
 21
67.0429
 31
0.0
  0
LINE
  8
0
 62
     0
 10
204.596
 20
67.0429
 30
0.0
 11
204.596
 21
67.6437
 31
0.0
  0
LINE
  8
0
 62
     0
 10
204.596
 20
67.6437
 30
0.0
 11
205.395
 21
67.6437
 31
0.0
  0
LINE
  8
0
 62
     0
 10
205.395
 20
67.6437
 30
0.0
 11
205.395
 21
80.4429
 31
0.0
  0
LINE
  8
0
 62
     0
 10
205.395
 20
80.4429
 30
0.0
 11
204.596
 21
80.4429
 31
0.0
  0
LINE
  8
0
 62
     0
 10
204.596
 20
80.4429
 30
0.0
 11
204.596
 21
81.0436
 31
0.0
  0
LINE
  8
0
 62
     0
 10
204.596
 20
81.0436
 30
0.0
 11
190.595
 21
81.0436
 31
0.0
  0
LINE
  8
0
 62
     0
 10
171.545
 20
81.0436
 30
0.0
 11
171.545
 21
80.4429
 31
0.0
  0
LINE
  8
0
 62
     0
 10
171.545
 20
80.4429
 30
0.0
 11
170.746
 21
80.4429
 31
0.0
  0
LINE
  8
0
 62
     0
 10
170.746
 20
80.4429
 30
0.0
 11
170.746
 21
67.6437
 31
0.0
  0
LINE
  8
0
 62
     0
 10
170.746
 20
67.6437
 30
0.0
 11
171.545
 21
67.6437
 31
0.0
  0
LINE
  8
0
 62
     0
 10
171.545
 20
67.6437
 30
0.0
 11
171.545
 21
67.0429
 31
0.0
  0
LINE
  8
0
 62
     0
 10
171.545
 20
67.0429
 30
0.0
 11
185.546
 21
67.0429
 31
0.0
  0
LINE
  8
0
 62
     0
 10
185.546
 20
67.0429
 30
0.0
 11
185.546
 21
67.6437
 31
0.0
  0
LINE
  8
0
 62
     0
 10
185.546
 20
67.6437
 30
0.0
 11
186.345
 21
67.6437
 31
0.0
  0
LINE
  8
0
 62
     0
 10
186.345
 20
67.6437
 30
0.0
 11
186.345
 21
80.4429
 31
0.0
  0
LINE
  8
0
 62
     0
 10
186.345
 20
80.4429
 30
0.0
 11
185.546
 21
80.4429
 31
0.0
  0
LINE
  8
0
 62
     0
 10
185.546
 20
80.4429
 30
0.0
 11
185.546
 21
81.0436
 31
0.0
  0
LINE
  8
0
 62
     0
 10
185.546
 20
81.0436
 30
0.0
 11
171.545
 21
81.0436
 31
0.0
  0
LINE
  8
0
 62
     0
 10
152.495
 20
81.0436
 30
0.0
 11
152.495
 21
80.4429
 31
0.0
  0
LINE
  8
0
 62
     0
 10
152.495
 20
80.4429
 30
0.0
 11
151.696
 21
80.4429
 31
0.0
  0
LINE
  8
0
 62
     0
 10
151.696
 20
80.4429
 30
0.0
 11
151.696
 21
67.6437
 31
0.0
  0
LINE
  8
0
 62
     0
 10
151.696
 20
67.6437
 30
0.0
 11
152.495
 21
67.6437
 31
0.0
  0
LINE
  8
0
 62
     0
 10
152.495
 20
67.6437
 30
0.0
 11
152.495
 21
67.0429
 31
0.0
  0
LINE
  8
0
 62
     0
 10
152.495
 20
67.0429
 30
0.0
 11
166.496
 21
67.0429
 31
0.0
  0
LINE
  8
0
 62
     0
 10
166.496
 20
67.0429
 30
0.0
 11
166.496
 21
67.6437
 31
0.0
  0
LINE
  8
0
 62
     0
 10
166.496
 20
67.6437
 30
0.0
 11
167.295
 21
67.6437
 31
0.0
  0
LINE
  8
0
 62
     0
 10
167.295
 20
67.6437
 30
0.0
 11
167.295
 21
80.4429
 31
0.0
  0
LINE
  8
0
 62
     0
 10
167.295
 20
80.4429
 30
0.0
 11
166.496
 21
80.4429
 31
0.0
  0
LINE
  8
0
 62
     0
 10
166.496
 20
80.4429
 30
0.0
 11
166.496
 21
81.0436
 31
0.0
  0
LINE
  8
0
 62
     0
 10
166.496
 20
81.0436
 30
0.0
 11
152.495
 21
81.0436
 31
0.0
  0
LINE
  8
0
 62
     0
 10
133.445
 20
81.0436
 30
0.0
 11
133.445
 21
80.4429
 31
0.0
  0
LINE
  8
0
 62
     0
 10
133.445
 20
80.4429
 30
0.0
 11
132.644
 21
80.4429
 31
0.0
  0
LINE
  8
0
 62
     0
 10
132.644
 20
80.4429
 30
0.0
 11
132.644
 21
67.6437
 31
0.0
  0
LINE
  8
0
 62
     0
 10
132.644
 20
67.6437
 30
0.0
 11
133.445
 21
67.6437
 31
0.0
  0
LINE
  8
0
 62
     0
 10
133.445
 20
67.6437
 30
0.0
 11
133.445
 21
67.0429
 31
0.0
  0
LINE
  8
0
 62
     0
 10
133.445
 20
67.0429
 30
0.0
 11
147.446
 21
67.0429
 31
0.0
  0
LINE
  8
0
 62
     0
 10
147.446
 20
67.0429
 30
0.0
 11
147.446
 21
67.6437
 31
0.0
  0
LINE
  8
0
 62
     0
 10
147.446
 20
67.6437
 30
0.0
 11
148.245
 21
67.6437
 31
0.0
  0
LINE
  8
0
 62
     0
 10
148.245
 20
67.6437
 30
0.0
 11
148.245
 21
80.4429
 31
0.0
  0
LINE
  8
0
 62
     0
 10
148.245
 20
80.4429
 30
0.0
 11
147.446
 21
80.4429
 31
0.0
  0
LINE
  8
0
 62
     0
 10
147.446
 20
80.4429
 30
0.0
 11
147.446
 21
81.0436
 31
0.0
  0
LINE
  8
0
 62
     0
 10
147.446
 20
81.0436
 30
0.0
 11
133.445
 21
81.0436
 31
0.0
  0
LINE
  8
0
 62
     0
 10
114.395
 20
81.0436
 30
0.0
 11
114.395
 21
80.4429
 31
0.0
  0
LINE
  8
0
 62
     0
 10
114.395
 20
80.4429
 30
0.0
 11
113.596
 21
80.4429
 31
0.0
  0
LINE
  8
0
 62
     0
 10
113.596
 20
80.4429
 30
0.0
 11
113.596
 21
67.6437
 31
0.0
  0
LINE
  8
0
 62
     0
 10
113.596
 20
67.6437
 30
0.0
 11
114.395
 21
67.6437
 31
0.0
  0
LINE
  8
0
 62
     0
 10
114.395
 20
67.6437
 30
0.0
 11
114.395
 21
67.0429
 31
0.0
  0
LINE
  8
0
 62
     0
 10
114.395
 20
67.0429
 30
0.0
 11
128.396
 21
67.0429
 31
0.0
  0
LINE
  8
0
 62
     0
 10
128.396
 20
67.0429
 30
0.0
 11
128.396
 21
67.6437
 31
0.0
  0
LINE
  8
0
 62
     0
 10
128.396
 20
67.6437
 30
0.0
 11
129.195
 21
67.6437
 31
0.0
  0
LINE
  8
0
 62
     0
 10
129.195
 20
67.6437
 30
0.0
 11
129.195
 21
80.4429
 31
0.0
  0
LINE
  8
0
 62
     0
 10
129.195
 20
80.4429
 30
0.0
 11
128.396
 21
80.4429
 31
0.0
  0
LINE
  8
0
 62
     0
 10
128.396
 20
80.4429
 30
0.0
 11
128.396
 21
81.0436
 31
0.0
  0
LINE
  8
0
 62
     0
 10
128.396
 20
81.0436
 30
0.0
 11
114.395
 21
81.0436
 31
0.0
  0
LINE
  8
0
 62
     0
 10
95.3452
 20
81.0436
 30
0.0
 11
95.3452
 21
80.4429
 31
0.0
  0
LINE
  8
0
 62
     0
 10
95.3452
 20
80.4429
 30
0.0
 11
94.5459
 21
80.4429
 31
0.0
  0
LINE
  8
0
 62
     0
 10
94.5459
 20
80.4429
 30
0.0
 11
94.5459
 21
67.6437
 31
0.0
  0
LINE
  8
0
 62
     0
 10
94.5459
 20
67.6437
 30
0.0
 11
95.3452
 21
67.6437
 31
0.0
  0
LINE
  8
0
 62
     0
 10
95.3452
 20
67.6437
 30
0.0
 11
95.3452
 21
67.0429
 31
0.0
  0
LINE
  8
0
 62
     0
 10
95.3452
 20
67.0429
 30
0.0
 11
109.346
 21
67.0429
 31
0.0
  0
LINE
  8
0
 62
     0
 10
109.346
 20
67.0429
 30
0.0
 11
109.346
 21
67.6437
 31
0.0
  0
LINE
  8
0
 62
     0
 10
109.346
 20
67.6437
 30
0.0
 11
110.145
 21
67.6437
 31
0.0
  0
LINE
  8
0
 62
     0
 10
110.145
 20
67.6437
 30
0.0
 11
110.145
 21
80.4429
 31
0.0
  0
LINE
  8
0
 62
     0
 10
110.145
 20
80.4429
 30
0.0
 11
109.346
 21
80.4429
 31
0.0
  0
LINE
  8
0
 62
     0
 10
109.346
 20
80.4429
 30
0.0
 11
109.346
 21
81.0436
 31
0.0
  0
LINE
  8
0
 62
     0
 10
109.346
 20
81.0436
 30
0.0
 11
95.3452
 21
81.0436
 31
0.0
  0
LINE
  8
0
 62
     0
 10
76.2953
 20
81.0436
 30
0.0
 11
76.2953
 21
80.4429
 31
0.0
  0
LINE
  8
0
 62
     0
 10
76.2953
 20
80.4429
 30
0.0
 11
75.4959
 21
80.4429
 31
0.0
  0
LINE
  8
0
 62
     0
 10
75.4959
 20
80.4429
 30
0.0
 11
75.4959
 21
67.6437
 31
0.0
  0
LINE
  8
0
 62
     0
 10
75.4959
 20
67.6437
 30
0.0
 11
76.2953
 21
67.6437
 31
0.0
  0
LINE
  8
0
 62
     0
 10
76.2953
 20
67.6437
 30
0.0
 11
76.2953
 21
67.0429
 31
0.0
  0
LINE
  8
0
 62
     0
 10
76.2953
 20
67.0429
 30
0.0
 11
90.2959
 21
67.0429
 31
0.0
  0
LINE
  8
0
 62
     0
 10
90.2959
 20
67.0429
 30
0.0
 11
90.2959
 21
67.6437
 31
0.0
  0
LINE
  8
0
 62
     0
 10
90.2959
 20
67.6437
 30
0.0
 11
91.0953
 21
67.6437
 31
0.0
  0
LINE
  8
0
 62
     0
 10
91.0953
 20
67.6437
 30
0.0
 11
91.0953
 21
80.4429
 31
0.0
  0
LINE
  8
0
 62
     0
 10
91.0953
 20
80.4429
 30
0.0
 11
90.2959
 21
80.4429
 31
0.0
  0
LINE
  8
0
 62
     0
 10
90.2959
 20
80.4429
 30
0.0
 11
90.2959
 21
81.0436
 31
0.0
  0
LINE
  8
0
 62
     0
 10
90.2959
 20
81.0436
 30
0.0
 11
76.2953
 21
81.0436
 31
0.0
  0
LINE
  8
0
 62
     0
 10
57.2453
 20
81.0436
 30
0.0
 11
57.2453
 21
80.4429
 31
0.0
  0
LINE
  8
0
 62
     0
 10
57.2453
 20
80.4429
 30
0.0
 11
56.4459
 21
80.4429
 31
0.0
  0
LINE
  8
0
 62
     0
 10
56.4459
 20
80.4429
 30
0.0
 11
56.4459
 21
67.6437
 31
0.0
  0
LINE
  8
0
 62
     0
 10
56.4459
 20
67.6437
 30
0.0
 11
57.2453
 21
67.6437
 31
0.0
  0
LINE
  8
0
 62
     0
 10
57.2453
 20
67.6437
 30
0.0
 11
57.2453
 21
67.0429
 31
0.0
  0
LINE
  8
0
 62
     0
 10
57.2453
 20
67.0429
 30
0.0
 11
71.2459
 21
67.0429
 31
0.0
  0
LINE
  8
0
 62
     0
 10
71.2459
 20
67.0429
 30
0.0
 11
71.2459
 21
67.6437
 31
0.0
  0
LINE
  8
0
 62
     0
 10
71.2459
 20
67.6437
 30
0.0
 11
72.0453
 21
67.6437
 31
0.0
  0
LINE
  8
0
 62
     0
 10
72.0453
 20
67.6437
 30
0.0
 11
72.0453
 21
80.4429
 31
0.0
  0
LINE
  8
0
 62
     0
 10
72.0453
 20
80.4429
 30
0.0
 11
71.2459
 21
80.4429
 31
0.0
  0
LINE
  8
0
 62
     0
 10
71.2459
 20
80.4429
 30
0.0
 11
71.2459
 21
81.0436
 31
0.0
  0
LINE
  8
0
 62
     0
 10
71.2459
 20
81.0436
 30
0.0
 11
57.2453
 21
81.0436
 31
0.0
  0
LINE
  8
0
 62
     0
 10
38.1952
 20
81.0436
 30
0.0
 11
38.1952
 21
80.4429
 31
0.0
  0
LINE
  8
0
 62
     0
 10
38.1952
 20
80.4429
 30
0.0
 11
37.3959
 21
80.4429
 31
0.0
  0
LINE
  8
0
 62
     0
 10
37.3959
 20
80.4429
 30
0.0
 11
37.3959
 21
67.6437
 31
0.0
  0
LINE
  8
0
 62
     0
 10
37.3959
 20
67.6437
 30
0.0
 11
38.1952
 21
67.6437
 31
0.0
  0
LINE
  8
0
 62
     0
 10
38.1952
 20
67.6437
 30
0.0
 11
38.1952
 21
67.0429
 31
0.0
  0
LINE
  8
0
 62
     0
 10
38.1952
 20
67.0429
 30
0.0
 11
52.1959
 21
67.0429
 31
0.0
  0
LINE
  8
0
 62
     0
 10
52.1959
 20
67.0429
 30
0.0
 11
52.1959
 21
67.6437
 31
0.0
  0
LINE
  8
0
 62
     0
 10
52.1959
 20
67.6437
 30
0.0
 11
52.9953
 21
67.6437
 31
0.0
  0
LINE
  8
0
 62
     0
 10
52.9953
 20
67.6437
 30
0.0
 11
52.9953
 21
80.4429
 31
0.0
  0
LINE
  8
0
 62
     0
 10
52.9953
 20
80.4429
 30
0.0
 11
52.1959
 21
80.4429
 31
0.0
  0
LINE
  8
0
 62
     0
 10
52.1959
 20
80.4429
 30
0.0
 11
52.1959
 21
81.0436
 31
0.0
  0
LINE
  8
0
 62
     0
 10
52.1959
 20
81.0436
 30
0.0
 11
38.1952
 21
81.0436
 31
0.0
  0
LINE
  8
0
 62
     0
 10
14.3826
 20
81.0436
 30
0.0
 11
14.3826
 21
80.4429
 31
0.0
  0
LINE
  8
0
 62
     0
 10
14.3826
 20
80.4429
 30
0.0
 11
13.5819
 21
80.4429
 31
0.0
  0
LINE
  8
0
 62
     0
 10
13.5819
 20
80.4429
 30
0.0
 11
13.5819
 21
67.6437
 31
0.0
  0
LINE
  8
0
 62
     0
 10
13.5819
 20
67.6437
 30
0.0
 11
14.3826
 21
67.6437
 31
0.0
  0
LINE
  8
0
 62
     0
 10
14.3826
 20
67.6437
 30
0.0
 11
14.3826
 21
67.0429
 31
0.0
  0
LINE
  8
0
 62
     0
 10
14.3826
 20
67.0429
 30
0.0
 11
28.3821
 21
67.0429
 31
0.0
  0
LINE
  8
0
 62
     0
 10
28.3821
 20
67.0429
 30
0.0
 11
28.3821
 21
67.6437
 31
0.0
  0
LINE
  8
0
 62
     0
 10
28.3821
 20
67.6437
 30
0.0
 11
29.1827
 21
67.6437
 31
0.0
  0
LINE
  8
0
 62
     0
 10
29.1827
 20
67.6437
 30
0.0
 11
29.1827
 21
80.4429
 31
0.0
  0
LINE
  8
0
 62
     0
 10
29.1827
 20
80.4429
 30
0.0
 11
28.3821
 21
80.4429
 31
0.0
  0
LINE
  8
0
 62
     0
 10
28.3821
 20
80.4429
 30
0.0
 11
28.3821
 21
81.0436
 31
0.0
  0
LINE
  8
0
 62
     0
 10
28.3821
 20
81.0436
 30
0.0
 11
14.3826
 21
81.0436
 31
0.0
  0
LINE
  8
0
 62
     0
 10
266.795
 20
100.094
 30
0.0
 11
266.795
 21
99.4943
 31
0.0
  0
LINE
  8
0
 62
     0
 10
266.795
 20
99.4943
 30
0.0
 11
265.996
 21
99.4943
 31
0.0
  0
LINE
  8
0
 62
     0
 10
265.996
 20
99.4943
 30
0.0
 11
265.996
 21
95.3946
 31
0.0
  0
LINE
  8
0
 62
     0
 10
265.996
 20
95.3946
 30
0.0
 11
265.271
 21
95.3946
 31
0.0
  0
LINE
  8
0
 62
     0
 10
265.271
 20
95.3946
 30
0.0
 11
265.271
 21
98.6247
 31
0.0
  0
LINE
  8
0
 62
     0
 10
265.271
 20
98.6247
 30
0.0
 11
258.52
 21
98.6247
 31
0.0
  0
LINE
  8
0
 62
     0
 10
258.52
 20
98.6247
 30
0.0
 11
258.52
 21
95.3946
 31
0.0
  0
LINE
  8
0
 62
     0
 10
258.52
 20
95.3946
 30
0.0
 11
257.696
 21
95.3946
 31
0.0
  0
LINE
  8
0
 62
     0
 10
257.696
 20
95.3946
 30
0.0
 11
257.696
 21
92.5932
 31
0.0
  0
LINE
  8
0
 62
     0
 10
257.696
 20
92.5932
 30
0.0
 11
258.52
 21
92.5932
 31
0.0
  0
LINE
  8
0
 62
     0
 10
258.52
 20
92.5932
 30
0.0
 11
258.52
 21
86.3244
 31
0.0
  0
LINE
  8
0
 62
     0
 10
258.52
 20
86.3244
 30
0.0
 11
260.245
 21
86.3244
 31
0.0
  0
LINE
  8
0
 62
     0
 10
260.245
 20
86.3244
 30
0.0
 11
260.245
 21
85.1242
 31
0.0
  0
LINE
  8
0
 62
     0
 10
260.245
 20
85.1242
 30
0.0
 11
263.546
 21
85.1242
 31
0.0
  0
LINE
  8
0
 62
     0
 10
263.546
 20
85.1242
 30
0.0
 11
263.546
 21
86.3244
 31
0.0
  0
LINE
  8
0
 62
     0
 10
263.546
 20
86.3244
 30
0.0
 11
265.271
 21
86.3244
 31
0.0
  0
LINE
  8
0
 62
     0
 10
265.271
 20
86.3244
 30
0.0
 11
265.271
 21
90.7934
 31
0.0
  0
LINE
  8
0
 62
     0
 10
265.271
 20
90.7934
 30
0.0
 11
265.996
 21
90.7934
 31
0.0
  0
LINE
  8
0
 62
     0
 10
265.996
 20
90.7934
 30
0.0
 11
265.996
 21
86.6937
 31
0.0
  0
LINE
  8
0
 62
     0
 10
265.996
 20
86.6937
 30
0.0
 11
266.795
 21
86.6937
 31
0.0
  0
LINE
  8
0
 62
     0
 10
266.795
 20
86.6937
 30
0.0
 11
266.795
 21
86.0929
 31
0.0
  0
LINE
  8
0
 62
     0
 10
266.795
 20
86.0929
 30
0.0
 11
280.796
 21
86.0929
 31
0.0
  0
LINE
  8
0
 62
     0
 10
280.796
 20
86.0929
 30
0.0
 11
280.796
 21
86.6937
 31
0.0
  0
LINE
  8
0
 62
     0
 10
280.796
 20
86.6937
 30
0.0
 11
281.595
 21
86.6937
 31
0.0
  0
LINE
  8
0
 62
     0
 10
281.595
 20
86.6937
 30
0.0
 11
281.595
 21
90.7934
 31
0.0
  0
LINE
  8
0
 62
     0
 10
281.595
 20
90.7934
 30
0.0
 11
282.32
 21
90.7934
 31
0.0
  0
LINE
  8
0
 62
     0
 10
282.32
 20
90.7934
 30
0.0
 11
282.32
 21
86.3244
 31
0.0
  0
LINE
  8
0
 62
     0
 10
282.32
 20
86.3244
 30
0.0
 11
284.045
 21
86.3244
 31
0.0
  0
LINE
  8
0
 62
     0
 10
284.045
 20
86.3244
 30
0.0
 11
284.045
 21
85.1242
 31
0.0
  0
LINE
  8
0
 62
     0
 10
284.045
 20
85.1242
 30
0.0
 11
287.346
 21
85.1242
 31
0.0
  0
LINE
  8
0
 62
     0
 10
287.346
 20
85.1242
 30
0.0
 11
287.346
 21
86.3244
 31
0.0
  0
LINE
  8
0
 62
     0
 10
287.346
 20
86.3244
 30
0.0
 11
289.071
 21
86.3244
 31
0.0
  0
LINE
  8
0
 62
     0
 10
289.071
 20
86.3244
 30
0.0
 11
289.071
 21
92.5932
 31
0.0
  0
LINE
  8
0
 62
     0
 10
289.071
 20
92.5932
 30
0.0
 11
289.895
 21
92.5932
 31
0.0
  0
LINE
  8
0
 62
     0
 10
289.895
 20
92.5932
 30
0.0
 11
289.895
 21
95.3946
 31
0.0
  0
LINE
  8
0
 62
     0
 10
289.895
 20
95.3946
 30
0.0
 11
289.071
 21
95.3946
 31
0.0
  0
LINE
  8
0
 62
     0
 10
289.071
 20
95.3946
 30
0.0
 11
289.071
 21
98.6247
 31
0.0
  0
LINE
  8
0
 62
     0
 10
289.071
 20
98.6247
 30
0.0
 11
282.32
 21
98.6247
 31
0.0
  0
LINE
  8
0
 62
     0
 10
282.32
 20
98.6247
 30
0.0
 11
282.32
 21
95.3946
 31
0.0
  0
LINE
  8
0
 62
     0
 10
282.32
 20
95.3946
 30
0.0
 11
281.595
 21
95.3946
 31
0.0
  0
LINE
  8
0
 62
     0
 10
281.595
 20
95.3946
 30
0.0
 11
281.595
 21
99.4943
 31
0.0
  0
LINE
  8
0
 62
     0
 10
281.595
 20
99.4943
 30
0.0
 11
280.796
 21
99.4943
 31
0.0
  0
LINE
  8
0
 62
     0
 10
280.796
 20
99.4943
 30
0.0
 11
280.796
 21
100.094
 31
0.0
  0
LINE
  8
0
 62
     0
 10
280.796
 20
100.094
 30
0.0
 11
266.795
 21
100.094
 31
0.0
  0
LINE
  8
0
 62
     0
 10
238.22
 20
100.094
 30
0.0
 11
238.22
 21
99.4943
 31
0.0
  0
LINE
  8
0
 62
     0
 10
238.22
 20
99.4943
 30
0.0
 11
237.421
 21
99.4943
 31
0.0
  0
LINE
  8
0
 62
     0
 10
237.421
 20
99.4943
 30
0.0
 11
237.421
 21
86.6937
 31
0.0
  0
LINE
  8
0
 62
     0
 10
237.421
 20
86.6937
 30
0.0
 11
238.22
 21
86.6937
 31
0.0
  0
LINE
  8
0
 62
     0
 10
238.22
 20
86.6937
 30
0.0
 11
238.22
 21
86.0929
 31
0.0
  0
LINE
  8
0
 62
     0
 10
238.22
 20
86.0929
 30
0.0
 11
252.221
 21
86.0929
 31
0.0
  0
LINE
  8
0
 62
     0
 10
252.221
 20
86.0929
 30
0.0
 11
252.221
 21
86.6937
 31
0.0
  0
LINE
  8
0
 62
     0
 10
252.221
 20
86.6937
 30
0.0
 11
253.02
 21
86.6937
 31
0.0
  0
LINE
  8
0
 62
     0
 10
253.02
 20
86.6937
 30
0.0
 11
253.02
 21
99.4943
 31
0.0
  0
LINE
  8
0
 62
     0
 10
253.02
 20
99.4943
 30
0.0
 11
252.221
 21
99.4943
 31
0.0
  0
LINE
  8
0
 62
     0
 10
252.221
 20
99.4943
 30
0.0
 11
252.221
 21
100.094
 31
0.0
  0
LINE
  8
0
 62
     0
 10
252.221
 20
100.094
 30
0.0
 11
238.22
 21
100.094
 31
0.0
  0
LINE
  8
0
 62
     0
 10
219.17
 20
100.094
 30
0.0
 11
219.17
 21
99.4943
 31
0.0
  0
LINE
  8
0
 62
     0
 10
219.17
 20
99.4943
 30
0.0
 11
218.371
 21
99.4943
 31
0.0
  0
LINE
  8
0
 62
     0
 10
218.371
 20
99.4943
 30
0.0
 11
218.371
 21
86.6937
 31
0.0
  0
LINE
  8
0
 62
     0
 10
218.371
 20
86.6937
 30
0.0
 11
219.17
 21
86.6937
 31
0.0
  0
LINE
  8
0
 62
     0
 10
219.17
 20
86.6937
 30
0.0
 11
219.17
 21
86.0929
 31
0.0
  0
LINE
  8
0
 62
     0
 10
219.17
 20
86.0929
 30
0.0
 11
233.171
 21
86.0929
 31
0.0
  0
LINE
  8
0
 62
     0
 10
233.171
 20
86.0929
 30
0.0
 11
233.171
 21
86.6937
 31
0.0
  0
LINE
  8
0
 62
     0
 10
233.171
 20
86.6937
 30
0.0
 11
233.97
 21
86.6937
 31
0.0
  0
LINE
  8
0
 62
     0
 10
233.97
 20
86.6937
 30
0.0
 11
233.97
 21
99.4943
 31
0.0
  0
LINE
  8
0
 62
     0
 10
233.97
 20
99.4943
 30
0.0
 11
233.171
 21
99.4943
 31
0.0
  0
LINE
  8
0
 62
     0
 10
233.171
 20
99.4943
 30
0.0
 11
233.171
 21
100.094
 31
0.0
  0
LINE
  8
0
 62
     0
 10
233.171
 20
100.094
 30
0.0
 11
219.17
 21
100.094
 31
0.0
  0
LINE
  8
0
 62
     0
 10
200.12
 20
100.094
 30
0.0
 11
200.12
 21
99.4943
 31
0.0
  0
LINE
  8
0
 62
     0
 10
200.12
 20
99.4943
 30
0.0
 11
199.321
 21
99.4943
 31
0.0
  0
LINE
  8
0
 62
     0
 10
199.321
 20
99.4943
 30
0.0
 11
199.321
 21
86.6937
 31
0.0
  0
LINE
  8
0
 62
     0
 10
199.321
 20
86.6937
 30
0.0
 11
200.12
 21
86.6937
 31
0.0
  0
LINE
  8
0
 62
     0
 10
200.12
 20
86.6937
 30
0.0
 11
200.12
 21
86.0929
 31
0.0
  0
LINE
  8
0
 62
     0
 10
200.12
 20
86.0929
 30
0.0
 11
214.121
 21
86.0929
 31
0.0
  0
LINE
  8
0
 62
     0
 10
214.121
 20
86.0929
 30
0.0
 11
214.121
 21
86.6937
 31
0.0
  0
LINE
  8
0
 62
     0
 10
214.121
 20
86.6937
 30
0.0
 11
214.92
 21
86.6937
 31
0.0
  0
LINE
  8
0
 62
     0
 10
214.92
 20
86.6937
 30
0.0
 11
214.92
 21
99.4943
 31
0.0
  0
LINE
  8
0
 62
     0
 10
214.92
 20
99.4943
 30
0.0
 11
214.121
 21
99.4943
 31
0.0
  0
LINE
  8
0
 62
     0
 10
214.121
 20
99.4943
 30
0.0
 11
214.121
 21
100.094
 31
0.0
  0
LINE
  8
0
 62
     0
 10
214.121
 20
100.094
 30
0.0
 11
200.12
 21
100.094
 31
0.0
  0
LINE
  8
0
 62
     0
 10
181.07
 20
100.094
 30
0.0
 11
181.07
 21
99.4943
 31
0.0
  0
LINE
  8
0
 62
     0
 10
181.07
 20
99.4943
 30
0.0
 11
180.271
 21
99.4943
 31
0.0
  0
LINE
  8
0
 62
     0
 10
180.271
 20
99.4943
 30
0.0
 11
180.271
 21
86.6937
 31
0.0
  0
LINE
  8
0
 62
     0
 10
180.271
 20
86.6937
 30
0.0
 11
181.07
 21
86.6937
 31
0.0
  0
LINE
  8
0
 62
     0
 10
181.07
 20
86.6937
 30
0.0
 11
181.07
 21
86.0929
 31
0.0
  0
LINE
  8
0
 62
     0
 10
181.07
 20
86.0929
 30
0.0
 11
195.071
 21
86.0929
 31
0.0
  0
LINE
  8
0
 62
     0
 10
195.071
 20
86.0929
 30
0.0
 11
195.071
 21
86.6937
 31
0.0
  0
LINE
  8
0
 62
     0
 10
195.071
 20
86.6937
 30
0.0
 11
195.87
 21
86.6937
 31
0.0
  0
LINE
  8
0
 62
     0
 10
195.87
 20
86.6937
 30
0.0
 11
195.87
 21
99.4943
 31
0.0
  0
LINE
  8
0
 62
     0
 10
195.87
 20
99.4943
 30
0.0
 11
195.071
 21
99.4943
 31
0.0
  0
LINE
  8
0
 62
     0
 10
195.071
 20
99.4943
 30
0.0
 11
195.071
 21
100.094
 31
0.0
  0
LINE
  8
0
 62
     0
 10
195.071
 20
100.094
 30
0.0
 11
181.07
 21
100.094
 31
0.0
  0
LINE
  8
0
 62
     0
 10
162.02
 20
100.094
 30
0.0
 11
162.02
 21
99.4943
 31
0.0
  0
LINE
  8
0
 62
     0
 10
162.02
 20
99.4943
 30
0.0
 11
161.221
 21
99.4943
 31
0.0
  0
LINE
  8
0
 62
     0
 10
161.221
 20
99.4943
 30
0.0
 11
161.221
 21
86.6937
 31
0.0
  0
LINE
  8
0
 62
     0
 10
161.221
 20
86.6937
 30
0.0
 11
162.02
 21
86.6937
 31
0.0
  0
LINE
  8
0
 62
     0
 10
162.02
 20
86.6937
 30
0.0
 11
162.02
 21
86.0929
 31
0.0
  0
LINE
  8
0
 62
     0
 10
162.02
 20
86.0929
 30
0.0
 11
176.021
 21
86.0929
 31
0.0
  0
LINE
  8
0
 62
     0
 10
176.021
 20
86.0929
 30
0.0
 11
176.021
 21
86.6937
 31
0.0
  0
LINE
  8
0
 62
     0
 10
176.021
 20
86.6937
 30
0.0
 11
176.82
 21
86.6937
 31
0.0
  0
LINE
  8
0
 62
     0
 10
176.82
 20
86.6937
 30
0.0
 11
176.82
 21
99.4943
 31
0.0
  0
LINE
  8
0
 62
     0
 10
176.82
 20
99.4943
 30
0.0
 11
176.021
 21
99.4943
 31
0.0
  0
LINE
  8
0
 62
     0
 10
176.021
 20
99.4943
 30
0.0
 11
176.021
 21
100.094
 31
0.0
  0
LINE
  8
0
 62
     0
 10
176.021
 20
100.094
 30
0.0
 11
162.02
 21
100.094
 31
0.0
  0
LINE
  8
0
 62
     0
 10
142.97
 20
100.094
 30
0.0
 11
142.97
 21
99.4943
 31
0.0
  0
LINE
  8
0
 62
     0
 10
142.97
 20
99.4943
 30
0.0
 11
142.171
 21
99.4943
 31
0.0
  0
LINE
  8
0
 62
     0
 10
142.171
 20
99.4943
 30
0.0
 11
142.171
 21
86.6937
 31
0.0
  0
LINE
  8
0
 62
     0
 10
142.171
 20
86.6937
 30
0.0
 11
142.97
 21
86.6937
 31
0.0
  0
LINE
  8
0
 62
     0
 10
142.97
 20
86.6937
 30
0.0
 11
142.97
 21
86.0929
 31
0.0
  0
LINE
  8
0
 62
     0
 10
142.97
 20
86.0929
 30
0.0
 11
156.971
 21
86.0929
 31
0.0
  0
LINE
  8
0
 62
     0
 10
156.971
 20
86.0929
 30
0.0
 11
156.971
 21
86.6937
 31
0.0
  0
LINE
  8
0
 62
     0
 10
156.971
 20
86.6937
 30
0.0
 11
157.77
 21
86.6937
 31
0.0
  0
LINE
  8
0
 62
     0
 10
157.77
 20
86.6937
 30
0.0
 11
157.77
 21
99.4943
 31
0.0
  0
LINE
  8
0
 62
     0
 10
157.77
 20
99.4943
 30
0.0
 11
156.971
 21
99.4943
 31
0.0
  0
LINE
  8
0
 62
     0
 10
156.971
 20
99.4943
 30
0.0
 11
156.971
 21
100.094
 31
0.0
  0
LINE
  8
0
 62
     0
 10
156.971
 20
100.094
 30
0.0
 11
142.97
 21
100.094
 31
0.0
  0
LINE
  8
0
 62
     0
 10
123.92
 20
100.094
 30
0.0
 11
123.92
 21
99.4943
 31
0.0
  0
LINE
  8
0
 62
     0
 10
123.92
 20
99.4943
 30
0.0
 11
123.119
 21
99.4943
 31
0.0
  0
LINE
  8
0
 62
     0
 10
123.119
 20
99.4943
 30
0.0
 11
123.119
 21
86.6937
 31
0.0
  0
LINE
  8
0
 62
     0
 10
123.119
 20
86.6937
 30
0.0
 11
123.92
 21
86.6937
 31
0.0
  0
LINE
  8
0
 62
     0
 10
123.92
 20
86.6937
 30
0.0
 11
123.92
 21
86.0929
 31
0.0
  0
LINE
  8
0
 62
     0
 10
123.92
 20
86.0929
 30
0.0
 11
137.921
 21
86.0929
 31
0.0
  0
LINE
  8
0
 62
     0
 10
137.921
 20
86.0929
 30
0.0
 11
137.921
 21
86.6937
 31
0.0
  0
LINE
  8
0
 62
     0
 10
137.921
 20
86.6937
 30
0.0
 11
138.72
 21
86.6937
 31
0.0
  0
LINE
  8
0
 62
     0
 10
138.72
 20
86.6937
 30
0.0
 11
138.72
 21
99.4943
 31
0.0
  0
LINE
  8
0
 62
     0
 10
138.72
 20
99.4943
 30
0.0
 11
137.921
 21
99.4943
 31
0.0
  0
LINE
  8
0
 62
     0
 10
137.921
 20
99.4943
 30
0.0
 11
137.921
 21
100.094
 31
0.0
  0
LINE
  8
0
 62
     0
 10
137.921
 20
100.094
 30
0.0
 11
123.92
 21
100.094
 31
0.0
  0
LINE
  8
0
 62
     0
 10
104.87
 20
100.094
 30
0.0
 11
104.87
 21
99.4943
 31
0.0
  0
LINE
  8
0
 62
     0
 10
104.87
 20
99.4943
 30
0.0
 11
104.071
 21
99.4943
 31
0.0
  0
LINE
  8
0
 62
     0
 10
104.071
 20
99.4943
 30
0.0
 11
104.071
 21
86.6937
 31
0.0
  0
LINE
  8
0
 62
     0
 10
104.071
 20
86.6937
 30
0.0
 11
104.87
 21
86.6937
 31
0.0
  0
LINE
  8
0
 62
     0
 10
104.87
 20
86.6937
 30
0.0
 11
104.87
 21
86.0929
 31
0.0
  0
LINE
  8
0
 62
     0
 10
104.87
 20
86.0929
 30
0.0
 11
118.87
 21
86.0929
 31
0.0
  0
LINE
  8
0
 62
     0
 10
118.87
 20
86.0929
 30
0.0
 11
118.87
 21
86.6937
 31
0.0
  0
LINE
  8
0
 62
     0
 10
118.87
 20
86.6937
 30
0.0
 11
119.669
 21
86.6937
 31
0.0
  0
LINE
  8
0
 62
     0
 10
119.669
 20
86.6937
 30
0.0
 11
119.669
 21
99.4943
 31
0.0
  0
LINE
  8
0
 62
     0
 10
119.669
 20
99.4943
 30
0.0
 11
118.87
 21
99.4943
 31
0.0
  0
LINE
  8
0
 62
     0
 10
118.87
 20
99.4943
 30
0.0
 11
118.87
 21
100.094
 31
0.0
  0
LINE
  8
0
 62
     0
 10
118.87
 20
100.094
 30
0.0
 11
104.87
 21
100.094
 31
0.0
  0
LINE
  8
0
 62
     0
 10
85.8203
 20
100.094
 30
0.0
 11
85.8203
 21
99.4943
 31
0.0
  0
LINE
  8
0
 62
     0
 10
85.8203
 20
99.4943
 30
0.0
 11
85.0209
 21
99.4943
 31
0.0
  0
LINE
  8
0
 62
     0
 10
85.0209
 20
99.4943
 30
0.0
 11
85.0209
 21
86.6937
 31
0.0
  0
LINE
  8
0
 62
     0
 10
85.0209
 20
86.6937
 30
0.0
 11
85.8203
 21
86.6937
 31
0.0
  0
LINE
  8
0
 62
     0
 10
85.8203
 20
86.6937
 30
0.0
 11
85.8203
 21
86.0929
 31
0.0
  0
LINE
  8
0
 62
     0
 10
85.8203
 20
86.0929
 30
0.0
 11
99.8209
 21
86.0929
 31
0.0
  0
LINE
  8
0
 62
     0
 10
99.8209
 20
86.0929
 30
0.0
 11
99.8209
 21
86.6937
 31
0.0
  0
LINE
  8
0
 62
     0
 10
99.8209
 20
86.6937
 30
0.0
 11
100.619
 21
86.6937
 31
0.0
  0
LINE
  8
0
 62
     0
 10
100.619
 20
86.6937
 30
0.0
 11
100.619
 21
99.4943
 31
0.0
  0
LINE
  8
0
 62
     0
 10
100.619
 20
99.4943
 30
0.0
 11
99.8209
 21
99.4943
 31
0.0
  0
LINE
  8
0
 62
     0
 10
99.8209
 20
99.4943
 30
0.0
 11
99.8209
 21
100.094
 31
0.0
  0
LINE
  8
0
 62
     0
 10
99.8209
 20
100.094
 30
0.0
 11
85.8203
 21
100.094
 31
0.0
  0
LINE
  8
0
 62
     0
 10
66.7703
 20
100.094
 30
0.0
 11
66.7703
 21
99.4943
 31
0.0
  0
LINE
  8
0
 62
     0
 10
66.7703
 20
99.4943
 30
0.0
 11
65.9709
 21
99.4943
 31
0.0
  0
LINE
  8
0
 62
     0
 10
65.9709
 20
99.4943
 30
0.0
 11
65.9709
 21
86.6937
 31
0.0
  0
LINE
  8
0
 62
     0
 10
65.9709
 20
86.6937
 30
0.0
 11
66.7703
 21
86.6937
 31
0.0
  0
LINE
  8
0
 62
     0
 10
66.7703
 20
86.6937
 30
0.0
 11
66.7703
 21
86.0929
 31
0.0
  0
LINE
  8
0
 62
     0
 10
66.7703
 20
86.0929
 30
0.0
 11
80.7709
 21
86.0929
 31
0.0
  0
LINE
  8
0
 62
     0
 10
80.7709
 20
86.0929
 30
0.0
 11
80.7709
 21
86.6937
 31
0.0
  0
LINE
  8
0
 62
     0
 10
80.7709
 20
86.6937
 30
0.0
 11
81.5703
 21
86.6937
 31
0.0
  0
LINE
  8
0
 62
     0
 10
81.5703
 20
86.6937
 30
0.0
 11
81.5703
 21
99.4943
 31
0.0
  0
LINE
  8
0
 62
     0
 10
81.5703
 20
99.4943
 30
0.0
 11
80.7709
 21
99.4943
 31
0.0
  0
LINE
  8
0
 62
     0
 10
80.7709
 20
99.4943
 30
0.0
 11
80.7709
 21
100.094
 31
0.0
  0
LINE
  8
0
 62
     0
 10
80.7709
 20
100.094
 30
0.0
 11
66.7703
 21
100.094
 31
0.0
  0
LINE
  8
0
 62
     0
 10
47.7203
 20
100.094
 30
0.0
 11
47.7203
 21
99.4943
 31
0.0
  0
LINE
  8
0
 62
     0
 10
47.7203
 20
99.4943
 30
0.0
 11
46.9209
 21
99.4943
 31
0.0
  0
LINE
  8
0
 62
     0
 10
46.9209
 20
99.4943
 30
0.0
 11
46.9209
 21
86.6937
 31
0.0
  0
LINE
  8
0
 62
     0
 10
46.9209
 20
86.6937
 30
0.0
 11
47.7203
 21
86.6937
 31
0.0
  0
LINE
  8
0
 62
     0
 10
47.7203
 20
86.6937
 30
0.0
 11
47.7203
 21
86.0929
 31
0.0
  0
LINE
  8
0
 62
     0
 10
47.7203
 20
86.0929
 30
0.0
 11
61.7209
 21
86.0929
 31
0.0
  0
LINE
  8
0
 62
     0
 10
61.7209
 20
86.0929
 30
0.0
 11
61.7209
 21
86.6937
 31
0.0
  0
LINE
  8
0
 62
     0
 10
61.7209
 20
86.6937
 30
0.0
 11
62.5203
 21
86.6937
 31
0.0
  0
LINE
  8
0
 62
     0
 10
62.5203
 20
86.6937
 30
0.0
 11
62.5203
 21
99.4943
 31
0.0
  0
LINE
  8
0
 62
     0
 10
62.5203
 20
99.4943
 30
0.0
 11
61.7209
 21
99.4943
 31
0.0
  0
LINE
  8
0
 62
     0
 10
61.7209
 20
99.4943
 30
0.0
 11
61.7209
 21
100.094
 31
0.0
  0
LINE
  8
0
 62
     0
 10
61.7209
 20
100.094
 30
0.0
 11
47.7203
 21
100.094
 31
0.0
  0
LINE
  8
0
 62
     0
 10
28.6701
 20
100.094
 30
0.0
 11
28.6701
 21
99.4943
 31
0.0
  0
LINE
  8
0
 62
     0
 10
28.6701
 20
99.4943
 30
0.0
 11
27.8708
 21
99.4943
 31
0.0
  0
LINE
  8
0
 62
     0
 10
27.8708
 20
99.4943
 30
0.0
 11
27.8708
 21
86.6937
 31
0.0
  0
LINE
  8
0
 62
     0
 10
27.8708
 20
86.6937
 30
0.0
 11
28.6701
 21
86.6937
 31
0.0
  0
LINE
  8
0
 62
     0
 10
28.6701
 20
86.6937
 30
0.0
 11
28.6701
 21
86.0929
 31
0.0
  0
LINE
  8
0
 62
     0
 10
28.6701
 20
86.0929
 30
0.0
 11
42.6709
 21
86.0929
 31
0.0
  0
LINE
  8
0
 62
     0
 10
42.6709
 20
86.0929
 30
0.0
 11
42.6709
 21
86.6937
 31
0.0
  0
LINE
  8
0
 62
     0
 10
42.6709
 20
86.6937
 30
0.0
 11
43.4703
 21
86.6937
 31
0.0
  0
LINE
  8
0
 62
     0
 10
43.4703
 20
86.6937
 30
0.0
 11
43.4703
 21
99.4943
 31
0.0
  0
LINE
  8
0
 62
     0
 10
43.4703
 20
99.4943
 30
0.0
 11
42.6709
 21
99.4943
 31
0.0
  0
LINE
  8
0
 62
     0
 10
42.6709
 20
99.4943
 30
0.0
 11
42.6709
 21
100.094
 31
0.0
  0
LINE
  8
0
 62
     0
 10
42.6709
 20
100.094
 30
0.0
 11
28.6701
 21
100.094
 31
0.0
  0
LINE
  8
0
 62
     0
 10
9.62007
 20
100.094
 30
0.0
 11
9.62007
 21
99.4943
 31
0.0
  0
LINE
  8
0
 62
     0
 10
9.62007
 20
99.4943
 30
0.0
 11
8.81944
 21
99.4943
 31
0.0
  0
LINE
  8
0
 62
     0
 10
8.81944
 20
99.4943
 30
0.0
 11
8.81944
 21
86.6937
 31
0.0
  0
LINE
  8
0
 62
     0
 10
8.81944
 20
86.6937
 30
0.0
 11
9.62007
 21
86.6937
 31
0.0
  0
LINE
  8
0
 62
     0
 10
9.62007
 20
86.6937
 30
0.0
 11
9.62007
 21
86.0929
 31
0.0
  0
LINE
  8
0
 62
     0
 10
9.62007
 20
86.0929
 30
0.0
 11
23.6209
 21
86.0929
 31
0.0
  0
LINE
  8
0
 62
     0
 10
23.6209
 20
86.0929
 30
0.0
 11
23.6209
 21
86.6937
 31
0.0
  0
LINE
  8
0
 62
     0
 10
23.6209
 20
86.6937
 30
0.0
 11
24.4202
 21
86.6937
 31
0.0
  0
LINE
  8
0
 62
     0
 10
24.4202
 20
86.6937
 30
0.0
 11
24.4202
 21
99.4943
 31
0.0
  0
LINE
  8
0
 62
     0
 10
24.4202
 20
99.4943
 30
0.0
 11
23.6209
 21
99.4943
 31
0.0
  0
LINE
  8
0
 62
     0
 10
23.6209
 20
99.4943
 30
0.0
 11
23.6209
 21
100.094
 31
0.0
  0
LINE
  8
0
 62
     0
 10
23.6209
 20
100.094
 30
0.0
 11
9.62007
 21
100.094
 31
0.0
  0
ENDSEC
  0
EOF
