<?xml version="1.0" encoding="UTF-8"?>
<!-- Generated by SVGo -->
<svg width="309.752mm" height="119.251mm" viewBox="0.000 0.000 309.752 119.251" xmlns="http://www.w3.org/2000/svg" xmlns:xlink="http://www.w3.org/1999/xlink">
<polygon points="302.752,5.001 302.908,5.007 303.064,5.025 303.218,5.056 303.370,5.098 303.517,5.153 303.659,5.218 303.796,5.295 303.927,5.382 304.050,5.480 304.166,5.586 304.272,5.702 304.370,5.825 304.457,5.956 304.534,6.093 304.599,6.235 304.654,6.382 304.696,6.534 304.727,6.688 304.745,6.844 304.752,7.001 304.752,112.251 304.745,112.408 304.727,112.564 304.696,112.718 304.654,112.870 304.599,113.017 304.534,113.159 304.457,113.296 304.370,113.427 304.272,113.550 304.166,113.666 304.050,113.772 303.927,113.870 303.796,113.957 303.659,114.034 303.517,114.099 303.370,114.154 303.218,114.196 303.064,114.227 302.908,114.245 302.752,114.251 7.001,114.251 6.844,114.245 6.688,114.227 6.534,114.196 6.382,114.154 6.235,114.099 6.093,114.034 5.956,113.957 5.825,113.870 5.702,113.772 5.586,113.666 5.480,113.550 5.382,113.427 5.295,113.296 5.218,113.159 5.153,113.017 5.098,112.870 5.056,112.718 5.025,112.564 5.007,112.408 5.000,112.252 5.001,7.001 5.007,6.844 5.025,6.688 5.056,6.534 5.098,6.382 5.153,6.235 5.218,6.093 5.295,5.956 5.382,5.825 5.480,5.702 5.586,5.586 5.702,5.480 5.825,5.382 5.956,5.295 6.093,5.218 6.235,5.153 6.382,5.098 6.534,5.056 6.688,5.025 6.844,5.007 7.001,5.000" style="fill:none;stroke-width:0.050000mm;stroke:black"/>
<polygon points="147.876,90.726 147.876,91.325 147.076,91.325 147.076,95.426 101.101,95.426 101.101,92.196 94.351,92.196 94.351,95.426 93.526,95.426 93.526,98.226 94.351,98.226 94.351,104.495 96.076,104.495 96.076,105.696 99.376,105.696 99.376,104.495 101.101,104.495 101.101,100.025 147.076,100.025 147.076,104.126 147.876,104.126 147.876,104.726 161.876,104.726 161.876,104.126 162.676,104.126 162.676,100.025 208.651,100.025 208.651,104.495 210.376,104.495 210.376,105.696 213.676,105.696 213.676,104.495 215.401,104.495 215.401,98.226 216.226,98.226 216.226,95.426 215.401,95.426 215.401,92.196 208.651,92.196 208.651,95.426 162.676,95.426 162.676,91.325 161.876,91.325 161.876,90.726" style="fill:none;stroke-width:0.050000mm;stroke:black"/>
<polygon points="250.269,90.726 250.269,91.325 249.469,91.325 249.469,104.126 250.269,104.126 250.269,104.726 264.269,104.726 264.269,104.126 265.069,104.126 265.069,91.325 264.269,91.325 264.269,90.726" style="fill:none;stroke-width:0.050000mm;stroke:black"/>
<polygon points="226.457,90.726 226.457,91.325 225.657,91.325 225.657,104.126 226.457,104.126 226.457,104.726 240.457,104.726 240.457,104.126 241.257,104.126 241.257,91.325 240.457,91.325 240.457,90.726" style="fill:none;stroke-width:0.050000mm;stroke:black"/>
<polygon points="69.294,90.726 69.294,91.325 68.494,91.325 68.494,104.126 69.294,104.126 69.294,104.726 83.294,104.726 83.294,104.126 84.094,104.126 84.094,91.325 83.294,91.325 83.294,90.726" style="fill:none;stroke-width:0.050000mm;stroke:black"/>
<polygon points="45.482,90.726 45.482,91.325 44.682,91.325 44.682,104.126 45.482,104.126 45.482,104.726 59.482,104.726 59.482,104.126 60.282,104.126 60.282,91.325 59.482,91.325 59.482,90.726" style="fill:none;stroke-width:0.050000mm;stroke:black"/>
<polygon points="264.557,71.676 264.557,72.275 263.757,72.275 263.757,76.376 263.032,76.376 263.032,73.146 256.282,73.146 256.282,76.376 255.457,76.376 255.457,79.176 256.282,79.176 256.282,85.446 258.006,85.446 258.006,86.646 261.306,86.646 261.306,85.446 263.032,85.446 263.032,80.976 263.757,80.976 263.757,85.076 264.557,85.076 264.557,85.676 278.557,85.676 278.557,85.076 279.357,85.076 279.357,80.976 280.082,80.976 280.082,85.446 281.807,85.446 281.807,86.646 285.107,86.646 285.107,85.446 286.832,85.446 286.832,79.176 287.657,79.176 287.657,76.376 286.832,76.376 286.832,73.146 280.082,73.146 280.082,76.376 279.357,76.376 279.357,72.275 278.557,72.275 278.557,71.676" style="fill:none;stroke-width:0.050000mm;stroke:black"/>
<polygon points="26.432,71.676 26.432,72.275 25.632,72.275 25.632,76.376 24.907,76.376 24.907,73.146 18.157,73.146 18.157,76.376 17.332,76.376 17.332,79.176 18.157,79.176 18.157,85.446 19.882,85.446 19.882,86.646 23.182,86.646 23.182,85.446 24.907,85.446 24.907,80.976 25.632,80.976 25.632,85.076 26.432,85.076 26.432,85.676 40.432,85.676 40.432,85.076 41.232,85.076 41.232,80.976 41.957,80.976 41.957,85.446 43.682,85.446 43.682,86.646 46.982,86.646 46.982,85.446 48.707,85.446 48.707,79.176 49.532,79.176 49.532,76.376 48.707,76.376 48.707,73.146 41.957,73.146 41.957,76.376 41.232,76.376 41.232,72.275 40.432,72.275 40.432,71.676" style="fill:none;stroke-width:0.050000mm;stroke:black"/>
<polygon points="228.838,71.676 228.838,72.275 228.038,72.275 228.038,85.076 228.838,85.076 228.838,85.676 242.838,85.676 242.838,85.076 243.638,85.076 243.638,72.275 242.838,72.275 242.838,71.676" style="fill:none;stroke-width:0.050000mm;stroke:black"/>
<polygon points="209.788,71.676 209.788,72.275 208.988,72.275 208.988,85.076 209.788,85.076 209.788,85.676 223.788,85.676 223.788,85.076 224.588,85.076 224.588,72.275 223.788,72.275 223.788,71.676" style="fill:none;stroke-width:0.050000mm;stroke:black"/>
<polygon points="190.738,71.676 190.738,72.275 189.938,72.275 189.938,85.076 190.738,85.076 190.738,85.676 204.738,85.676 204.738,85.076 205.538,85.076 205.538,72.275 204.738,72.275 204.738,71.676" style="fill:none;stroke-width:0.050000mm;stroke:black"/>
<polygon points="171.688,71.676 171.688,72.275 170.888,72.275 170.888,85.076 171.688,85.076 171.688,85.676 185.688,85.676 185.688,85.076 186.488,85.076 186.488,72.275 185.688,72.275 185.688,71.676" style="fill:none;stroke-width:0.050000mm;stroke:black"/>
<polygon points="152.638,71.676 152.638,72.275 151.838,72.275 151.838,85.076 152.638,85.076 152.638,85.676 166.638,85.676 166.638,85.076 167.438,85.076 167.438,72.275 166.638,72.275 166.638,71.676" style="fill:none;stroke-width:0.050000mm;stroke:black"/>
<polygon points="133.588,71.676 133.588,72.275 132.788,72.275 132.788,85.076 133.588,85.076 133.588,85.676 147.588,85.676 147.588,85.076 148.388,85.076 148.388,72.275 147.588,72.275 147.588,71.676" style="fill:none;stroke-width:0.050000mm;stroke:black"/>
<polygon points="114.538,71.676 114.538,72.275 113.738,72.275 113.738,85.076 114.538,85.076 114.538,85.676 128.538,85.676 128.538,85.076 129.337,85.076 129.337,72.275 128.538,72.275 128.538,71.676" style="fill:none;stroke-width:0.050000mm;stroke:black"/>
<polygon points="95.488,71.676 95.488,72.275 94.688,72.275 94.688,85.076 95.488,85.076 95.488,85.676 109.488,85.676 109.488,85.076 110.288,85.076 110.288,72.275 109.488,72.275 109.488,71.676" style="fill:none;stroke-width:0.050000mm;stroke:black"/>
<polygon points="76.438,71.676 76.438,72.275 75.638,72.275 75.638,85.076 76.438,85.076 76.438,85.676 90.438,85.676 90.438,85.076 91.238,85.076 91.238,72.275 90.438,72.275 90.438,71.676" style="fill:none;stroke-width:0.050000mm;stroke:black"/>
<polygon points="57.388,71.676 57.388,72.275 56.588,72.275 56.588,85.076 57.388,85.076 57.388,85.676 71.388,85.676 71.388,85.076 72.188,85.076 72.188,72.275 71.388,72.275 71.388,71.676" style="fill:none;stroke-width:0.050000mm;stroke:black"/>
<polygon points="269.319,52.626 269.319,53.226 268.519,53.226 268.519,57.326 267.794,57.326 267.794,54.096 261.044,54.096 261.044,57.326 260.219,57.326 260.219,60.126 261.044,60.126 261.044,66.396 262.769,66.396 262.769,67.596 266.069,67.596 266.069,66.396 267.794,66.396 267.794,61.926 268.519,61.926 268.519,66.026 269.319,66.026 269.319,66.626 283.319,66.626 283.319,66.026 284.119,66.026 284.119,61.926 284.844,61.926 284.844,66.396 286.569,66.396 286.569,67.596 289.869,67.596 289.869,66.396 291.594,66.396 291.594,60.126 292.419,60.126 292.419,57.326 291.594,57.326 291.594,54.096 284.844,54.096 284.844,57.326 284.119,57.326 284.119,53.226 283.319,53.226 283.319,52.626" style="fill:none;stroke-width:0.050000mm;stroke:black"/>
<polygon points="238.363,52.626 238.363,53.226 237.563,53.226 237.563,66.026 238.363,66.026 238.363,66.626 252.363,66.626 252.363,66.026 253.163,66.026 253.163,53.226 252.363,53.226 252.363,52.626" style="fill:none;stroke-width:0.050000mm;stroke:black"/>
<polygon points="219.313,52.626 219.313,53.226 218.513,53.226 218.513,66.026 219.313,66.026 219.313,66.626 233.313,66.626 233.313,66.026 234.113,66.026 234.113,53.226 233.313,53.226 233.313,52.626" style="fill:none;stroke-width:0.050000mm;stroke:black"/>
<polygon points="200.263,52.626 200.263,53.226 199.463,53.226 199.463,66.026 200.263,66.026 200.263,66.626 214.263,66.626 214.263,66.026 215.063,66.026 215.063,53.226 214.263,53.226 214.263,52.626" style="fill:none;stroke-width:0.050000mm;stroke:black"/>
<polygon points="181.213,52.626 181.213,53.226 180.413,53.226 180.413,66.026 181.213,66.026 181.213,66.626 195.213,66.626 195.213,66.026 196.013,66.026 196.013,53.226 195.213,53.226 195.213,52.626" style="fill:none;stroke-width:0.050000mm;stroke:black"/>
<polygon points="162.163,52.626 162.163,53.226 161.363,53.226 161.363,66.026 162.163,66.026 162.163,66.626 176.163,66.626 176.163,66.026 176.963,66.026 176.963,53.226 176.163,53.226 176.163,52.626" style="fill:none;stroke-width:0.050000mm;stroke:black"/>
<polygon points="143.113,52.626 143.113,53.226 142.313,53.226 142.313,66.026 143.113,66.026 143.113,66.626 157.113,66.626 157.113,66.026 157.913,66.026 157.913,53.226 157.113,53.226 157.113,52.626" style="fill:none;stroke-width:0.050000mm;stroke:black"/>
<polygon points="124.063,52.626 124.063,53.226 123.263,53.226 123.263,66.026 124.063,66.026 124.063,66.626 138.063,66.626 138.063,66.026 138.863,66.026 138.863,53.226 138.063,53.226 138.063,52.626" style="fill:none;stroke-width:0.050000mm;stroke:black"/>
<polygon points="105.013,52.626 105.013,53.226 104.213,53.226 104.213,66.026 105.013,66.026 105.013,66.626 119.013,66.626 119.013,66.026 119.813,66.026 119.813,53.226 119.013,53.226 119.013,52.626" style="fill:none;stroke-width:0.050000mm;stroke:black"/>
<polygon points="85.963,52.626 85.963,53.226 85.163,53.226 85.163,66.026 85.963,66.026 85.963,66.626 99.963,66.626 99.963,66.026 100.763,66.026 100.763,53.226 99.963,53.226 99.963,52.626" style="fill:none;stroke-width:0.050000mm;stroke:black"/>
<polygon points="66.913,52.626 66.913,53.226 66.113,53.226 66.113,66.026 66.913,66.026 66.913,66.626 80.913,66.626 80.913,66.026 81.713,66.026 81.713,53.226 80.913,53.226 80.913,52.626" style="fill:none;stroke-width:0.050000mm;stroke:black"/>
<polygon points="47.863,52.626 47.863,53.226 47.063,53.226 47.063,66.026 47.863,66.026 47.863,66.626 61.863,66.626 61.863,66.026 62.663,66.026 62.663,53.226 61.863,53.226 61.863,52.626" style="fill:none;stroke-width:0.050000mm;stroke:black"/>
<polygon points="16.907,52.626 16.907,53.226 16.107,53.226 16.107,66.026 16.907,66.026 16.907,66.626 30.907,66.626 30.907,66.026 31.707,66.026 31.707,53.226 30.907,53.226 30.907,52.626" style="fill:none;stroke-width:0.050000mm;stroke:black"/>
<polygon points="276.463,33.576 276.463,34.176 275.663,34.176 275.663,46.976 276.463,46.976 276.463,47.576 290.463,47.576 290.463,46.976 291.263,46.976 291.263,34.176 290.463,34.176 290.463,33.576" style="fill:none;stroke-width:0.050000mm;stroke:black"/>
<polygon points="252.651,33.576 252.651,34.176 251.851,34.176 251.851,46.976 252.651,46.976 252.651,47.576 266.651,47.576 266.651,46.976 267.451,46.976 267.451,34.176 266.651,34.176 266.651,33.576" style="fill:none;stroke-width:0.050000mm;stroke:black"/>
<polygon points="233.601,33.576 233.601,34.176 232.801,34.176 232.801,46.976 233.601,46.976 233.601,47.576 247.601,47.576 247.601,46.976 248.401,46.976 248.401,34.176 247.601,34.176 247.601,33.576" style="fill:none;stroke-width:0.050000mm;stroke:black"/>
<polygon points="214.551,33.576 214.551,34.176 213.751,34.176 213.751,46.976 214.551,46.976 214.551,47.576 228.551,47.576 228.551,46.976 229.351,46.976 229.351,34.176 228.551,34.176 228.551,33.576" style="fill:none;stroke-width:0.050000mm;stroke:black"/>
<polygon points="195.501,33.576 195.501,34.176 194.701,34.176 194.701,46.976 195.501,46.976 195.501,47.576 209.501,47.576 209.501,46.976 210.301,46.976 210.301,34.176 209.501,34.176 209.501,33.576" style="fill:none;stroke-width:0.050000mm;stroke:black"/>
<polygon points="176.451,33.576 176.451,34.176 175.651,34.176 175.651,46.976 176.451,46.976 176.451,47.576 190.451,47.576 190.451,46.976 191.251,46.976 191.251,34.176 190.451,34.176 190.451,33.576" style="fill:none;stroke-width:0.050000mm;stroke:black"/>
<polygon points="157.401,33.576 157.401,34.176 156.601,34.176 156.601,46.976 157.401,46.976 157.401,47.576 171.401,47.576 171.401,46.976 172.201,46.976 172.201,34.176 171.401,34.176 171.401,33.576" style="fill:none;stroke-width:0.050000mm;stroke:black"/>
<polygon points="138.351,33.576 138.351,34.176 137.550,34.176 137.550,46.976 138.351,46.976 138.351,47.576 152.351,47.576 152.351,46.976 153.151,46.976 153.151,34.176 152.351,34.176 152.351,33.576" style="fill:none;stroke-width:0.050000mm;stroke:black"/>
<polygon points="119.301,33.576 119.301,34.176 118.501,34.176 118.501,46.976 119.301,46.976 119.301,47.576 133.301,47.576 133.301,46.976 134.101,46.976 134.101,34.176 133.301,34.176 133.301,33.576" style="fill:none;stroke-width:0.050000mm;stroke:black"/>
<polygon points="100.251,33.576 100.251,34.176 99.451,34.176 99.451,46.976 100.251,46.976 100.251,47.576 114.251,47.576 114.251,46.976 115.051,46.976 115.051,34.176 114.251,34.176 114.251,33.576" style="fill:none;stroke-width:0.050000mm;stroke:black"/>
<polygon points="81.201,33.576 81.201,34.176 80.401,34.176 80.401,46.976 81.201,46.976 81.201,47.576 95.201,47.576 95.201,46.976 96.001,46.976 96.001,34.176 95.201,34.176 95.201,33.576" style="fill:none;stroke-width:0.050000mm;stroke:black"/>
<polygon points="62.151,33.576 62.151,34.176 61.351,34.176 61.351,46.976 62.151,46.976 62.151,47.576 76.151,47.576 76.151,46.976 76.951,46.976 76.951,34.176 76.151,34.176 76.151,33.576" style="fill:none;stroke-width:0.050000mm;stroke:black"/>
<polygon points="43.101,33.576 43.101,34.176 42.301,34.176 42.301,46.976 43.101,46.976 43.101,47.576 57.101,47.576 57.101,46.976 57.901,46.976 57.901,34.176 57.101,34.176 57.101,33.576" style="fill:none;stroke-width:0.050000mm;stroke:black"/>
<polygon points="19.288,33.576 19.288,34.176 18.488,34.176 18.488,46.976 19.288,46.976 19.288,47.576 33.288,47.576 33.288,46.976 34.088,46.976 34.088,34.176 33.288,34.176 33.288,33.576" style="fill:none;stroke-width:0.050000mm;stroke:black"/>
<polygon points="271.701,14.525 271.701,15.125 270.901,15.125 270.901,19.225 270.176,19.225 270.176,15.995 263.426,15.995 263.426,19.225 262.601,19.225 262.601,22.026 263.426,22.026 263.426,28.295 265.151,28.295 265.151,29.495 268.451,29.495 268.451,28.295 270.176,28.295 270.176,23.826 270.901,23.826 270.901,27.925 271.701,27.925 271.701,28.526 285.701,28.526 285.701,27.925 286.501,27.925 286.501,23.826 287.226,23.826 287.226,28.295 288.951,28.295 288.951,29.495 292.251,29.495 292.251,28.295 293.976,28.295 293.976,22.026 294.801,22.026 294.801,19.225 293.976,19.225 293.976,15.995 287.226,15.995 287.226,19.225 286.501,19.225 286.501,15.125 285.701,15.125 285.701,14.525" style="fill:none;stroke-width:0.050000mm;stroke:black"/>
<polygon points="243.126,14.525 243.126,15.125 242.326,15.125 242.326,27.925 243.126,27.925 243.126,28.526 257.126,28.526 257.126,27.925 257.926,27.925 257.926,15.125 257.126,15.125 257.126,14.525" style="fill:none;stroke-width:0.050000mm;stroke:black"/>
<polygon points="224.076,14.525 224.076,15.125 223.276,15.125 223.276,27.925 224.076,27.925 224.076,28.526 238.076,28.526 238.076,27.925 238.876,27.925 238.876,15.125 238.076,15.125 238.076,14.525" style="fill:none;stroke-width:0.050000mm;stroke:black"/>
<polygon points="205.026,14.525 205.026,15.125 204.226,15.125 204.226,27.925 205.026,27.925 205.026,28.526 219.026,28.526 219.026,27.925 219.826,27.925 219.826,15.125 219.026,15.125 219.026,14.525" style="fill:none;stroke-width:0.050000mm;stroke:black"/>
<polygon points="185.976,14.525 185.976,15.125 185.176,15.125 185.176,27.925 185.976,27.925 185.976,28.526 199.976,28.526 199.976,27.925 200.776,27.925 200.776,15.125 199.976,15.125 199.976,14.525" style="fill:none;stroke-width:0.050000mm;stroke:black"/>
<polygon points="166.926,14.525 166.926,15.125 166.126,15.125 166.126,27.925 166.926,27.925 166.926,28.526 180.926,28.526 180.926,27.925 181.726,27.925 181.726,15.125 180.926,15.125 180.926,14.525" style="fill:none;stroke-width:0.050000mm;stroke:black"/>
<polygon points="147.876,14.525 147.876,15.125 147.076,15.125 147.076,27.925 147.876,27.925 147.876,28.526 161.876,28.526 161.876,27.925 162.676,27.925 162.676,15.125 161.876,15.125 161.876,14.525" style="fill:none;stroke-width:0.050000mm;stroke:black"/>
<polygon points="128.825,14.525 128.825,15.125 128.025,15.125 128.025,27.925 128.825,27.925 128.825,28.526 142.826,28.526 142.826,27.925 143.626,27.925 143.626,15.125 142.826,15.125 142.826,14.525" style="fill:none;stroke-width:0.050000mm;stroke:black"/>
<polygon points="109.775,14.525 109.775,15.125 108.976,15.125 108.976,27.925 109.775,27.925 109.775,28.526 123.775,28.526 123.775,27.925 124.575,27.925 124.575,15.125 123.775,15.125 123.775,14.525" style="fill:none;stroke-width:0.050000mm;stroke:black"/>
<polygon points="90.726,14.525 90.726,15.125 89.926,15.125 89.926,27.925 90.726,27.925 90.726,28.526 104.726,28.526 104.726,27.925 105.525,27.925 105.525,15.125 104.726,15.125 104.726,14.525" style="fill:none;stroke-width:0.050000mm;stroke:black"/>
<polygon points="71.676,14.525 71.676,15.125 70.876,15.125 70.876,27.925 71.676,27.925 71.676,28.526 85.676,28.526 85.676,27.925 86.476,27.925 86.476,15.125 85.676,15.125 85.676,14.525" style="fill:none;stroke-width:0.050000mm;stroke:black"/>
<polygon points="52.626,14.525 52.626,15.125 51.826,15.125 51.826,27.925 52.626,27.925 52.626,28.526 66.626,28.526 66.626,27.925 67.426,27.925 67.426,15.125 66.626,15.125 66.626,14.525" style="fill:none;stroke-width:0.050000mm;stroke:black"/>
<polygon points="33.576,14.525 33.576,15.125 32.776,15.125 32.776,27.925 33.576,27.925 33.576,28.526 47.576,28.526 47.576,27.925 48.376,27.925 48.376,15.125 47.576,15.125 47.576,14.525" style="fill:none;stroke-width:0.050000mm;stroke:black"/>
<polygon points="14.525,14.525 14.525,15.125 13.725,15.125 13.725,27.925 14.525,27.925 14.525,28.526 28.526,28.526 28.526,27.925 29.326,27.925 29.326,15.125 28.526,15.125 28.526,14.525" style="fill:none;stroke-width:0.050000mm;stroke:black"/>
</svg>