G04 #@! TF.GenerationSoftware,KiCad,Pcbnew,(5.1.4)-1*
G04 #@! TF.CreationDate,2021-08-06T17:52:11-05:00*
G04 #@! TF.ProjectId,keyboard,6b657962-6f61-4726-942e-6b696361645f,rev?*
G04 #@! TF.SameCoordinates,Original*
G04 #@! TF.FileFunction,Paste,Bot*
G04 #@! TF.FilePolarity,Positive*
%FSLAX46Y46*%
G04 Gerber Fmt 4.6, Leading zero omitted, Abs format (unit mm)*
G04 Created by KiCad (PCBNEW (5.1.4)-1) date 2021-08-06 17:52:11*
%MOMM*%
%LPD*%
G04 APERTURE LIST*
%ADD10R,1.400000X1.200000*%
%ADD11R,0.500000X2.250000*%
%ADD12R,0.550000X1.500000*%
%ADD13R,1.500000X0.550000*%
%ADD14R,1.800000X1.100000*%
%ADD15C,0.100000*%
%ADD16C,0.975000*%
%ADD17C,1.250000*%
%ADD18R,1.200000X0.900000*%
G04 APERTURE END LIST*
D10*
X107081500Y-88272250D03*
X104881500Y-88272250D03*
X104881500Y-89972250D03*
X107081500Y-89972250D03*
D11*
X85712500Y-85462500D03*
X86512500Y-85462500D03*
X87312500Y-85462500D03*
X88112500Y-85462500D03*
X88912500Y-85462500D03*
D12*
X102362500Y-107300000D03*
X103162500Y-107300000D03*
X103962500Y-107300000D03*
X104762500Y-107300000D03*
X105562500Y-107300000D03*
X106362500Y-107300000D03*
X107162500Y-107300000D03*
X107962500Y-107300000D03*
X108762500Y-107300000D03*
X109562500Y-107300000D03*
X110362500Y-107300000D03*
D13*
X112062500Y-105600000D03*
X112062500Y-104800000D03*
X112062500Y-104000000D03*
X112062500Y-103200000D03*
X112062500Y-102400000D03*
X112062500Y-101600000D03*
X112062500Y-100800000D03*
X112062500Y-100000000D03*
X112062500Y-99200000D03*
X112062500Y-98400000D03*
X112062500Y-97600000D03*
D12*
X110362500Y-95900000D03*
X109562500Y-95900000D03*
X108762500Y-95900000D03*
X107962500Y-95900000D03*
X107162500Y-95900000D03*
X106362500Y-95900000D03*
X105562500Y-95900000D03*
X104762500Y-95900000D03*
X103962500Y-95900000D03*
X103162500Y-95900000D03*
X102362500Y-95900000D03*
D13*
X100662500Y-97600000D03*
X100662500Y-98400000D03*
X100662500Y-99200000D03*
X100662500Y-100000000D03*
X100662500Y-100800000D03*
X100662500Y-101600000D03*
X100662500Y-102400000D03*
X100662500Y-103200000D03*
X100662500Y-104000000D03*
X100662500Y-104800000D03*
X100662500Y-105600000D03*
D14*
X89618750Y-111387500D03*
X83418750Y-107687500D03*
X89618750Y-107687500D03*
X83418750Y-111387500D03*
D15*
G36*
X116367642Y-105732424D02*
G01*
X116391303Y-105735934D01*
X116414507Y-105741746D01*
X116437029Y-105749804D01*
X116458653Y-105760032D01*
X116479170Y-105772329D01*
X116498383Y-105786579D01*
X116516107Y-105802643D01*
X116532171Y-105820367D01*
X116546421Y-105839580D01*
X116558718Y-105860097D01*
X116568946Y-105881721D01*
X116577004Y-105904243D01*
X116582816Y-105927447D01*
X116586326Y-105951108D01*
X116587500Y-105975000D01*
X116587500Y-106462500D01*
X116586326Y-106486392D01*
X116582816Y-106510053D01*
X116577004Y-106533257D01*
X116568946Y-106555779D01*
X116558718Y-106577403D01*
X116546421Y-106597920D01*
X116532171Y-106617133D01*
X116516107Y-106634857D01*
X116498383Y-106650921D01*
X116479170Y-106665171D01*
X116458653Y-106677468D01*
X116437029Y-106687696D01*
X116414507Y-106695754D01*
X116391303Y-106701566D01*
X116367642Y-106705076D01*
X116343750Y-106706250D01*
X115431250Y-106706250D01*
X115407358Y-106705076D01*
X115383697Y-106701566D01*
X115360493Y-106695754D01*
X115337971Y-106687696D01*
X115316347Y-106677468D01*
X115295830Y-106665171D01*
X115276617Y-106650921D01*
X115258893Y-106634857D01*
X115242829Y-106617133D01*
X115228579Y-106597920D01*
X115216282Y-106577403D01*
X115206054Y-106555779D01*
X115197996Y-106533257D01*
X115192184Y-106510053D01*
X115188674Y-106486392D01*
X115187500Y-106462500D01*
X115187500Y-105975000D01*
X115188674Y-105951108D01*
X115192184Y-105927447D01*
X115197996Y-105904243D01*
X115206054Y-105881721D01*
X115216282Y-105860097D01*
X115228579Y-105839580D01*
X115242829Y-105820367D01*
X115258893Y-105802643D01*
X115276617Y-105786579D01*
X115295830Y-105772329D01*
X115316347Y-105760032D01*
X115337971Y-105749804D01*
X115360493Y-105741746D01*
X115383697Y-105735934D01*
X115407358Y-105732424D01*
X115431250Y-105731250D01*
X116343750Y-105731250D01*
X116367642Y-105732424D01*
X116367642Y-105732424D01*
G37*
D16*
X115887500Y-106218750D03*
D15*
G36*
X116367642Y-107607424D02*
G01*
X116391303Y-107610934D01*
X116414507Y-107616746D01*
X116437029Y-107624804D01*
X116458653Y-107635032D01*
X116479170Y-107647329D01*
X116498383Y-107661579D01*
X116516107Y-107677643D01*
X116532171Y-107695367D01*
X116546421Y-107714580D01*
X116558718Y-107735097D01*
X116568946Y-107756721D01*
X116577004Y-107779243D01*
X116582816Y-107802447D01*
X116586326Y-107826108D01*
X116587500Y-107850000D01*
X116587500Y-108337500D01*
X116586326Y-108361392D01*
X116582816Y-108385053D01*
X116577004Y-108408257D01*
X116568946Y-108430779D01*
X116558718Y-108452403D01*
X116546421Y-108472920D01*
X116532171Y-108492133D01*
X116516107Y-108509857D01*
X116498383Y-108525921D01*
X116479170Y-108540171D01*
X116458653Y-108552468D01*
X116437029Y-108562696D01*
X116414507Y-108570754D01*
X116391303Y-108576566D01*
X116367642Y-108580076D01*
X116343750Y-108581250D01*
X115431250Y-108581250D01*
X115407358Y-108580076D01*
X115383697Y-108576566D01*
X115360493Y-108570754D01*
X115337971Y-108562696D01*
X115316347Y-108552468D01*
X115295830Y-108540171D01*
X115276617Y-108525921D01*
X115258893Y-108509857D01*
X115242829Y-108492133D01*
X115228579Y-108472920D01*
X115216282Y-108452403D01*
X115206054Y-108430779D01*
X115197996Y-108408257D01*
X115192184Y-108385053D01*
X115188674Y-108361392D01*
X115187500Y-108337500D01*
X115187500Y-107850000D01*
X115188674Y-107826108D01*
X115192184Y-107802447D01*
X115197996Y-107779243D01*
X115206054Y-107756721D01*
X115216282Y-107735097D01*
X115228579Y-107714580D01*
X115242829Y-107695367D01*
X115258893Y-107677643D01*
X115276617Y-107661579D01*
X115295830Y-107647329D01*
X115316347Y-107635032D01*
X115337971Y-107624804D01*
X115360493Y-107616746D01*
X115383697Y-107610934D01*
X115407358Y-107607424D01*
X115431250Y-107606250D01*
X116343750Y-107606250D01*
X116367642Y-107607424D01*
X116367642Y-107607424D01*
G37*
D16*
X115887500Y-108093750D03*
D15*
G36*
X94936392Y-95701174D02*
G01*
X94960053Y-95704684D01*
X94983257Y-95710496D01*
X95005779Y-95718554D01*
X95027403Y-95728782D01*
X95047920Y-95741079D01*
X95067133Y-95755329D01*
X95084857Y-95771393D01*
X95100921Y-95789117D01*
X95115171Y-95808330D01*
X95127468Y-95828847D01*
X95137696Y-95850471D01*
X95145754Y-95872993D01*
X95151566Y-95896197D01*
X95155076Y-95919858D01*
X95156250Y-95943750D01*
X95156250Y-96431250D01*
X95155076Y-96455142D01*
X95151566Y-96478803D01*
X95145754Y-96502007D01*
X95137696Y-96524529D01*
X95127468Y-96546153D01*
X95115171Y-96566670D01*
X95100921Y-96585883D01*
X95084857Y-96603607D01*
X95067133Y-96619671D01*
X95047920Y-96633921D01*
X95027403Y-96646218D01*
X95005779Y-96656446D01*
X94983257Y-96664504D01*
X94960053Y-96670316D01*
X94936392Y-96673826D01*
X94912500Y-96675000D01*
X94000000Y-96675000D01*
X93976108Y-96673826D01*
X93952447Y-96670316D01*
X93929243Y-96664504D01*
X93906721Y-96656446D01*
X93885097Y-96646218D01*
X93864580Y-96633921D01*
X93845367Y-96619671D01*
X93827643Y-96603607D01*
X93811579Y-96585883D01*
X93797329Y-96566670D01*
X93785032Y-96546153D01*
X93774804Y-96524529D01*
X93766746Y-96502007D01*
X93760934Y-96478803D01*
X93757424Y-96455142D01*
X93756250Y-96431250D01*
X93756250Y-95943750D01*
X93757424Y-95919858D01*
X93760934Y-95896197D01*
X93766746Y-95872993D01*
X93774804Y-95850471D01*
X93785032Y-95828847D01*
X93797329Y-95808330D01*
X93811579Y-95789117D01*
X93827643Y-95771393D01*
X93845367Y-95755329D01*
X93864580Y-95741079D01*
X93885097Y-95728782D01*
X93906721Y-95718554D01*
X93929243Y-95710496D01*
X93952447Y-95704684D01*
X93976108Y-95701174D01*
X94000000Y-95700000D01*
X94912500Y-95700000D01*
X94936392Y-95701174D01*
X94936392Y-95701174D01*
G37*
D16*
X94456250Y-96187500D03*
D15*
G36*
X94936392Y-93826174D02*
G01*
X94960053Y-93829684D01*
X94983257Y-93835496D01*
X95005779Y-93843554D01*
X95027403Y-93853782D01*
X95047920Y-93866079D01*
X95067133Y-93880329D01*
X95084857Y-93896393D01*
X95100921Y-93914117D01*
X95115171Y-93933330D01*
X95127468Y-93953847D01*
X95137696Y-93975471D01*
X95145754Y-93997993D01*
X95151566Y-94021197D01*
X95155076Y-94044858D01*
X95156250Y-94068750D01*
X95156250Y-94556250D01*
X95155076Y-94580142D01*
X95151566Y-94603803D01*
X95145754Y-94627007D01*
X95137696Y-94649529D01*
X95127468Y-94671153D01*
X95115171Y-94691670D01*
X95100921Y-94710883D01*
X95084857Y-94728607D01*
X95067133Y-94744671D01*
X95047920Y-94758921D01*
X95027403Y-94771218D01*
X95005779Y-94781446D01*
X94983257Y-94789504D01*
X94960053Y-94795316D01*
X94936392Y-94798826D01*
X94912500Y-94800000D01*
X94000000Y-94800000D01*
X93976108Y-94798826D01*
X93952447Y-94795316D01*
X93929243Y-94789504D01*
X93906721Y-94781446D01*
X93885097Y-94771218D01*
X93864580Y-94758921D01*
X93845367Y-94744671D01*
X93827643Y-94728607D01*
X93811579Y-94710883D01*
X93797329Y-94691670D01*
X93785032Y-94671153D01*
X93774804Y-94649529D01*
X93766746Y-94627007D01*
X93760934Y-94603803D01*
X93757424Y-94580142D01*
X93756250Y-94556250D01*
X93756250Y-94068750D01*
X93757424Y-94044858D01*
X93760934Y-94021197D01*
X93766746Y-93997993D01*
X93774804Y-93975471D01*
X93785032Y-93953847D01*
X93797329Y-93933330D01*
X93811579Y-93914117D01*
X93827643Y-93896393D01*
X93845367Y-93880329D01*
X93864580Y-93866079D01*
X93885097Y-93853782D01*
X93906721Y-93843554D01*
X93929243Y-93835496D01*
X93952447Y-93829684D01*
X93976108Y-93826174D01*
X94000000Y-93825000D01*
X94912500Y-93825000D01*
X94936392Y-93826174D01*
X94936392Y-93826174D01*
G37*
D16*
X94456250Y-94312500D03*
D15*
G36*
X88586392Y-89063674D02*
G01*
X88610053Y-89067184D01*
X88633257Y-89072996D01*
X88655779Y-89081054D01*
X88677403Y-89091282D01*
X88697920Y-89103579D01*
X88717133Y-89117829D01*
X88734857Y-89133893D01*
X88750921Y-89151617D01*
X88765171Y-89170830D01*
X88777468Y-89191347D01*
X88787696Y-89212971D01*
X88795754Y-89235493D01*
X88801566Y-89258697D01*
X88805076Y-89282358D01*
X88806250Y-89306250D01*
X88806250Y-89793750D01*
X88805076Y-89817642D01*
X88801566Y-89841303D01*
X88795754Y-89864507D01*
X88787696Y-89887029D01*
X88777468Y-89908653D01*
X88765171Y-89929170D01*
X88750921Y-89948383D01*
X88734857Y-89966107D01*
X88717133Y-89982171D01*
X88697920Y-89996421D01*
X88677403Y-90008718D01*
X88655779Y-90018946D01*
X88633257Y-90027004D01*
X88610053Y-90032816D01*
X88586392Y-90036326D01*
X88562500Y-90037500D01*
X87650000Y-90037500D01*
X87626108Y-90036326D01*
X87602447Y-90032816D01*
X87579243Y-90027004D01*
X87556721Y-90018946D01*
X87535097Y-90008718D01*
X87514580Y-89996421D01*
X87495367Y-89982171D01*
X87477643Y-89966107D01*
X87461579Y-89948383D01*
X87447329Y-89929170D01*
X87435032Y-89908653D01*
X87424804Y-89887029D01*
X87416746Y-89864507D01*
X87410934Y-89841303D01*
X87407424Y-89817642D01*
X87406250Y-89793750D01*
X87406250Y-89306250D01*
X87407424Y-89282358D01*
X87410934Y-89258697D01*
X87416746Y-89235493D01*
X87424804Y-89212971D01*
X87435032Y-89191347D01*
X87447329Y-89170830D01*
X87461579Y-89151617D01*
X87477643Y-89133893D01*
X87495367Y-89117829D01*
X87514580Y-89103579D01*
X87535097Y-89091282D01*
X87556721Y-89081054D01*
X87579243Y-89072996D01*
X87602447Y-89067184D01*
X87626108Y-89063674D01*
X87650000Y-89062500D01*
X88562500Y-89062500D01*
X88586392Y-89063674D01*
X88586392Y-89063674D01*
G37*
D16*
X88106250Y-89550000D03*
D15*
G36*
X88586392Y-90938674D02*
G01*
X88610053Y-90942184D01*
X88633257Y-90947996D01*
X88655779Y-90956054D01*
X88677403Y-90966282D01*
X88697920Y-90978579D01*
X88717133Y-90992829D01*
X88734857Y-91008893D01*
X88750921Y-91026617D01*
X88765171Y-91045830D01*
X88777468Y-91066347D01*
X88787696Y-91087971D01*
X88795754Y-91110493D01*
X88801566Y-91133697D01*
X88805076Y-91157358D01*
X88806250Y-91181250D01*
X88806250Y-91668750D01*
X88805076Y-91692642D01*
X88801566Y-91716303D01*
X88795754Y-91739507D01*
X88787696Y-91762029D01*
X88777468Y-91783653D01*
X88765171Y-91804170D01*
X88750921Y-91823383D01*
X88734857Y-91841107D01*
X88717133Y-91857171D01*
X88697920Y-91871421D01*
X88677403Y-91883718D01*
X88655779Y-91893946D01*
X88633257Y-91902004D01*
X88610053Y-91907816D01*
X88586392Y-91911326D01*
X88562500Y-91912500D01*
X87650000Y-91912500D01*
X87626108Y-91911326D01*
X87602447Y-91907816D01*
X87579243Y-91902004D01*
X87556721Y-91893946D01*
X87535097Y-91883718D01*
X87514580Y-91871421D01*
X87495367Y-91857171D01*
X87477643Y-91841107D01*
X87461579Y-91823383D01*
X87447329Y-91804170D01*
X87435032Y-91783653D01*
X87424804Y-91762029D01*
X87416746Y-91739507D01*
X87410934Y-91716303D01*
X87407424Y-91692642D01*
X87406250Y-91668750D01*
X87406250Y-91181250D01*
X87407424Y-91157358D01*
X87410934Y-91133697D01*
X87416746Y-91110493D01*
X87424804Y-91087971D01*
X87435032Y-91066347D01*
X87447329Y-91045830D01*
X87461579Y-91026617D01*
X87477643Y-91008893D01*
X87495367Y-90992829D01*
X87514580Y-90978579D01*
X87535097Y-90966282D01*
X87556721Y-90956054D01*
X87579243Y-90947996D01*
X87602447Y-90942184D01*
X87626108Y-90938674D01*
X87650000Y-90937500D01*
X88562500Y-90937500D01*
X88586392Y-90938674D01*
X88586392Y-90938674D01*
G37*
D16*
X88106250Y-91425000D03*
D15*
G36*
X86205142Y-89063674D02*
G01*
X86228803Y-89067184D01*
X86252007Y-89072996D01*
X86274529Y-89081054D01*
X86296153Y-89091282D01*
X86316670Y-89103579D01*
X86335883Y-89117829D01*
X86353607Y-89133893D01*
X86369671Y-89151617D01*
X86383921Y-89170830D01*
X86396218Y-89191347D01*
X86406446Y-89212971D01*
X86414504Y-89235493D01*
X86420316Y-89258697D01*
X86423826Y-89282358D01*
X86425000Y-89306250D01*
X86425000Y-89793750D01*
X86423826Y-89817642D01*
X86420316Y-89841303D01*
X86414504Y-89864507D01*
X86406446Y-89887029D01*
X86396218Y-89908653D01*
X86383921Y-89929170D01*
X86369671Y-89948383D01*
X86353607Y-89966107D01*
X86335883Y-89982171D01*
X86316670Y-89996421D01*
X86296153Y-90008718D01*
X86274529Y-90018946D01*
X86252007Y-90027004D01*
X86228803Y-90032816D01*
X86205142Y-90036326D01*
X86181250Y-90037500D01*
X85268750Y-90037500D01*
X85244858Y-90036326D01*
X85221197Y-90032816D01*
X85197993Y-90027004D01*
X85175471Y-90018946D01*
X85153847Y-90008718D01*
X85133330Y-89996421D01*
X85114117Y-89982171D01*
X85096393Y-89966107D01*
X85080329Y-89948383D01*
X85066079Y-89929170D01*
X85053782Y-89908653D01*
X85043554Y-89887029D01*
X85035496Y-89864507D01*
X85029684Y-89841303D01*
X85026174Y-89817642D01*
X85025000Y-89793750D01*
X85025000Y-89306250D01*
X85026174Y-89282358D01*
X85029684Y-89258697D01*
X85035496Y-89235493D01*
X85043554Y-89212971D01*
X85053782Y-89191347D01*
X85066079Y-89170830D01*
X85080329Y-89151617D01*
X85096393Y-89133893D01*
X85114117Y-89117829D01*
X85133330Y-89103579D01*
X85153847Y-89091282D01*
X85175471Y-89081054D01*
X85197993Y-89072996D01*
X85221197Y-89067184D01*
X85244858Y-89063674D01*
X85268750Y-89062500D01*
X86181250Y-89062500D01*
X86205142Y-89063674D01*
X86205142Y-89063674D01*
G37*
D16*
X85725000Y-89550000D03*
D15*
G36*
X86205142Y-90938674D02*
G01*
X86228803Y-90942184D01*
X86252007Y-90947996D01*
X86274529Y-90956054D01*
X86296153Y-90966282D01*
X86316670Y-90978579D01*
X86335883Y-90992829D01*
X86353607Y-91008893D01*
X86369671Y-91026617D01*
X86383921Y-91045830D01*
X86396218Y-91066347D01*
X86406446Y-91087971D01*
X86414504Y-91110493D01*
X86420316Y-91133697D01*
X86423826Y-91157358D01*
X86425000Y-91181250D01*
X86425000Y-91668750D01*
X86423826Y-91692642D01*
X86420316Y-91716303D01*
X86414504Y-91739507D01*
X86406446Y-91762029D01*
X86396218Y-91783653D01*
X86383921Y-91804170D01*
X86369671Y-91823383D01*
X86353607Y-91841107D01*
X86335883Y-91857171D01*
X86316670Y-91871421D01*
X86296153Y-91883718D01*
X86274529Y-91893946D01*
X86252007Y-91902004D01*
X86228803Y-91907816D01*
X86205142Y-91911326D01*
X86181250Y-91912500D01*
X85268750Y-91912500D01*
X85244858Y-91911326D01*
X85221197Y-91907816D01*
X85197993Y-91902004D01*
X85175471Y-91893946D01*
X85153847Y-91883718D01*
X85133330Y-91871421D01*
X85114117Y-91857171D01*
X85096393Y-91841107D01*
X85080329Y-91823383D01*
X85066079Y-91804170D01*
X85053782Y-91783653D01*
X85043554Y-91762029D01*
X85035496Y-91739507D01*
X85029684Y-91716303D01*
X85026174Y-91692642D01*
X85025000Y-91668750D01*
X85025000Y-91181250D01*
X85026174Y-91157358D01*
X85029684Y-91133697D01*
X85035496Y-91110493D01*
X85043554Y-91087971D01*
X85053782Y-91066347D01*
X85066079Y-91045830D01*
X85080329Y-91026617D01*
X85096393Y-91008893D01*
X85114117Y-90992829D01*
X85133330Y-90978579D01*
X85153847Y-90966282D01*
X85175471Y-90956054D01*
X85197993Y-90947996D01*
X85221197Y-90942184D01*
X85244858Y-90938674D01*
X85268750Y-90937500D01*
X86181250Y-90937500D01*
X86205142Y-90938674D01*
X86205142Y-90938674D01*
G37*
D16*
X85725000Y-91425000D03*
D15*
G36*
X83199504Y-95607454D02*
G01*
X83223773Y-95611054D01*
X83247571Y-95617015D01*
X83270671Y-95625280D01*
X83292849Y-95635770D01*
X83313893Y-95648383D01*
X83333598Y-95662997D01*
X83351777Y-95679473D01*
X83368253Y-95697652D01*
X83382867Y-95717357D01*
X83395480Y-95738401D01*
X83405970Y-95760579D01*
X83414235Y-95783679D01*
X83420196Y-95807477D01*
X83423796Y-95831746D01*
X83425000Y-95856250D01*
X83425000Y-96606250D01*
X83423796Y-96630754D01*
X83420196Y-96655023D01*
X83414235Y-96678821D01*
X83405970Y-96701921D01*
X83395480Y-96724099D01*
X83382867Y-96745143D01*
X83368253Y-96764848D01*
X83351777Y-96783027D01*
X83333598Y-96799503D01*
X83313893Y-96814117D01*
X83292849Y-96826730D01*
X83270671Y-96837220D01*
X83247571Y-96845485D01*
X83223773Y-96851446D01*
X83199504Y-96855046D01*
X83175000Y-96856250D01*
X81925000Y-96856250D01*
X81900496Y-96855046D01*
X81876227Y-96851446D01*
X81852429Y-96845485D01*
X81829329Y-96837220D01*
X81807151Y-96826730D01*
X81786107Y-96814117D01*
X81766402Y-96799503D01*
X81748223Y-96783027D01*
X81731747Y-96764848D01*
X81717133Y-96745143D01*
X81704520Y-96724099D01*
X81694030Y-96701921D01*
X81685765Y-96678821D01*
X81679804Y-96655023D01*
X81676204Y-96630754D01*
X81675000Y-96606250D01*
X81675000Y-95856250D01*
X81676204Y-95831746D01*
X81679804Y-95807477D01*
X81685765Y-95783679D01*
X81694030Y-95760579D01*
X81704520Y-95738401D01*
X81717133Y-95717357D01*
X81731747Y-95697652D01*
X81748223Y-95679473D01*
X81766402Y-95662997D01*
X81786107Y-95648383D01*
X81807151Y-95635770D01*
X81829329Y-95625280D01*
X81852429Y-95617015D01*
X81876227Y-95611054D01*
X81900496Y-95607454D01*
X81925000Y-95606250D01*
X83175000Y-95606250D01*
X83199504Y-95607454D01*
X83199504Y-95607454D01*
G37*
D17*
X82550000Y-96231250D03*
D15*
G36*
X83199504Y-98407454D02*
G01*
X83223773Y-98411054D01*
X83247571Y-98417015D01*
X83270671Y-98425280D01*
X83292849Y-98435770D01*
X83313893Y-98448383D01*
X83333598Y-98462997D01*
X83351777Y-98479473D01*
X83368253Y-98497652D01*
X83382867Y-98517357D01*
X83395480Y-98538401D01*
X83405970Y-98560579D01*
X83414235Y-98583679D01*
X83420196Y-98607477D01*
X83423796Y-98631746D01*
X83425000Y-98656250D01*
X83425000Y-99406250D01*
X83423796Y-99430754D01*
X83420196Y-99455023D01*
X83414235Y-99478821D01*
X83405970Y-99501921D01*
X83395480Y-99524099D01*
X83382867Y-99545143D01*
X83368253Y-99564848D01*
X83351777Y-99583027D01*
X83333598Y-99599503D01*
X83313893Y-99614117D01*
X83292849Y-99626730D01*
X83270671Y-99637220D01*
X83247571Y-99645485D01*
X83223773Y-99651446D01*
X83199504Y-99655046D01*
X83175000Y-99656250D01*
X81925000Y-99656250D01*
X81900496Y-99655046D01*
X81876227Y-99651446D01*
X81852429Y-99645485D01*
X81829329Y-99637220D01*
X81807151Y-99626730D01*
X81786107Y-99614117D01*
X81766402Y-99599503D01*
X81748223Y-99583027D01*
X81731747Y-99564848D01*
X81717133Y-99545143D01*
X81704520Y-99524099D01*
X81694030Y-99501921D01*
X81685765Y-99478821D01*
X81679804Y-99455023D01*
X81676204Y-99430754D01*
X81675000Y-99406250D01*
X81675000Y-98656250D01*
X81676204Y-98631746D01*
X81679804Y-98607477D01*
X81685765Y-98583679D01*
X81694030Y-98560579D01*
X81704520Y-98538401D01*
X81717133Y-98517357D01*
X81731747Y-98497652D01*
X81748223Y-98479473D01*
X81766402Y-98462997D01*
X81786107Y-98448383D01*
X81807151Y-98435770D01*
X81829329Y-98425280D01*
X81852429Y-98417015D01*
X81876227Y-98411054D01*
X81900496Y-98407454D01*
X81925000Y-98406250D01*
X83175000Y-98406250D01*
X83199504Y-98407454D01*
X83199504Y-98407454D01*
G37*
D17*
X82550000Y-99031250D03*
D15*
G36*
X96453392Y-100996424D02*
G01*
X96477053Y-100999934D01*
X96500257Y-101005746D01*
X96522779Y-101013804D01*
X96544403Y-101024032D01*
X96564920Y-101036329D01*
X96584133Y-101050579D01*
X96601857Y-101066643D01*
X96617921Y-101084367D01*
X96632171Y-101103580D01*
X96644468Y-101124097D01*
X96654696Y-101145721D01*
X96662754Y-101168243D01*
X96668566Y-101191447D01*
X96672076Y-101215108D01*
X96673250Y-101239000D01*
X96673250Y-102151500D01*
X96672076Y-102175392D01*
X96668566Y-102199053D01*
X96662754Y-102222257D01*
X96654696Y-102244779D01*
X96644468Y-102266403D01*
X96632171Y-102286920D01*
X96617921Y-102306133D01*
X96601857Y-102323857D01*
X96584133Y-102339921D01*
X96564920Y-102354171D01*
X96544403Y-102366468D01*
X96522779Y-102376696D01*
X96500257Y-102384754D01*
X96477053Y-102390566D01*
X96453392Y-102394076D01*
X96429500Y-102395250D01*
X95942000Y-102395250D01*
X95918108Y-102394076D01*
X95894447Y-102390566D01*
X95871243Y-102384754D01*
X95848721Y-102376696D01*
X95827097Y-102366468D01*
X95806580Y-102354171D01*
X95787367Y-102339921D01*
X95769643Y-102323857D01*
X95753579Y-102306133D01*
X95739329Y-102286920D01*
X95727032Y-102266403D01*
X95716804Y-102244779D01*
X95708746Y-102222257D01*
X95702934Y-102199053D01*
X95699424Y-102175392D01*
X95698250Y-102151500D01*
X95698250Y-101239000D01*
X95699424Y-101215108D01*
X95702934Y-101191447D01*
X95708746Y-101168243D01*
X95716804Y-101145721D01*
X95727032Y-101124097D01*
X95739329Y-101103580D01*
X95753579Y-101084367D01*
X95769643Y-101066643D01*
X95787367Y-101050579D01*
X95806580Y-101036329D01*
X95827097Y-101024032D01*
X95848721Y-101013804D01*
X95871243Y-101005746D01*
X95894447Y-100999934D01*
X95918108Y-100996424D01*
X95942000Y-100995250D01*
X96429500Y-100995250D01*
X96453392Y-100996424D01*
X96453392Y-100996424D01*
G37*
D16*
X96185750Y-101695250D03*
D15*
G36*
X98328392Y-100996424D02*
G01*
X98352053Y-100999934D01*
X98375257Y-101005746D01*
X98397779Y-101013804D01*
X98419403Y-101024032D01*
X98439920Y-101036329D01*
X98459133Y-101050579D01*
X98476857Y-101066643D01*
X98492921Y-101084367D01*
X98507171Y-101103580D01*
X98519468Y-101124097D01*
X98529696Y-101145721D01*
X98537754Y-101168243D01*
X98543566Y-101191447D01*
X98547076Y-101215108D01*
X98548250Y-101239000D01*
X98548250Y-102151500D01*
X98547076Y-102175392D01*
X98543566Y-102199053D01*
X98537754Y-102222257D01*
X98529696Y-102244779D01*
X98519468Y-102266403D01*
X98507171Y-102286920D01*
X98492921Y-102306133D01*
X98476857Y-102323857D01*
X98459133Y-102339921D01*
X98439920Y-102354171D01*
X98419403Y-102366468D01*
X98397779Y-102376696D01*
X98375257Y-102384754D01*
X98352053Y-102390566D01*
X98328392Y-102394076D01*
X98304500Y-102395250D01*
X97817000Y-102395250D01*
X97793108Y-102394076D01*
X97769447Y-102390566D01*
X97746243Y-102384754D01*
X97723721Y-102376696D01*
X97702097Y-102366468D01*
X97681580Y-102354171D01*
X97662367Y-102339921D01*
X97644643Y-102323857D01*
X97628579Y-102306133D01*
X97614329Y-102286920D01*
X97602032Y-102266403D01*
X97591804Y-102244779D01*
X97583746Y-102222257D01*
X97577934Y-102199053D01*
X97574424Y-102175392D01*
X97573250Y-102151500D01*
X97573250Y-101239000D01*
X97574424Y-101215108D01*
X97577934Y-101191447D01*
X97583746Y-101168243D01*
X97591804Y-101145721D01*
X97602032Y-101124097D01*
X97614329Y-101103580D01*
X97628579Y-101084367D01*
X97644643Y-101066643D01*
X97662367Y-101050579D01*
X97681580Y-101036329D01*
X97702097Y-101024032D01*
X97723721Y-101013804D01*
X97746243Y-101005746D01*
X97769447Y-100999934D01*
X97793108Y-100996424D01*
X97817000Y-100995250D01*
X98304500Y-100995250D01*
X98328392Y-100996424D01*
X98328392Y-100996424D01*
G37*
D16*
X98060750Y-101695250D03*
D15*
G36*
X101699142Y-87698424D02*
G01*
X101722803Y-87701934D01*
X101746007Y-87707746D01*
X101768529Y-87715804D01*
X101790153Y-87726032D01*
X101810670Y-87738329D01*
X101829883Y-87752579D01*
X101847607Y-87768643D01*
X101863671Y-87786367D01*
X101877921Y-87805580D01*
X101890218Y-87826097D01*
X101900446Y-87847721D01*
X101908504Y-87870243D01*
X101914316Y-87893447D01*
X101917826Y-87917108D01*
X101919000Y-87941000D01*
X101919000Y-88428500D01*
X101917826Y-88452392D01*
X101914316Y-88476053D01*
X101908504Y-88499257D01*
X101900446Y-88521779D01*
X101890218Y-88543403D01*
X101877921Y-88563920D01*
X101863671Y-88583133D01*
X101847607Y-88600857D01*
X101829883Y-88616921D01*
X101810670Y-88631171D01*
X101790153Y-88643468D01*
X101768529Y-88653696D01*
X101746007Y-88661754D01*
X101722803Y-88667566D01*
X101699142Y-88671076D01*
X101675250Y-88672250D01*
X100762750Y-88672250D01*
X100738858Y-88671076D01*
X100715197Y-88667566D01*
X100691993Y-88661754D01*
X100669471Y-88653696D01*
X100647847Y-88643468D01*
X100627330Y-88631171D01*
X100608117Y-88616921D01*
X100590393Y-88600857D01*
X100574329Y-88583133D01*
X100560079Y-88563920D01*
X100547782Y-88543403D01*
X100537554Y-88521779D01*
X100529496Y-88499257D01*
X100523684Y-88476053D01*
X100520174Y-88452392D01*
X100519000Y-88428500D01*
X100519000Y-87941000D01*
X100520174Y-87917108D01*
X100523684Y-87893447D01*
X100529496Y-87870243D01*
X100537554Y-87847721D01*
X100547782Y-87826097D01*
X100560079Y-87805580D01*
X100574329Y-87786367D01*
X100590393Y-87768643D01*
X100608117Y-87752579D01*
X100627330Y-87738329D01*
X100647847Y-87726032D01*
X100669471Y-87715804D01*
X100691993Y-87707746D01*
X100715197Y-87701934D01*
X100738858Y-87698424D01*
X100762750Y-87697250D01*
X101675250Y-87697250D01*
X101699142Y-87698424D01*
X101699142Y-87698424D01*
G37*
D16*
X101219000Y-88184750D03*
D15*
G36*
X101699142Y-89573424D02*
G01*
X101722803Y-89576934D01*
X101746007Y-89582746D01*
X101768529Y-89590804D01*
X101790153Y-89601032D01*
X101810670Y-89613329D01*
X101829883Y-89627579D01*
X101847607Y-89643643D01*
X101863671Y-89661367D01*
X101877921Y-89680580D01*
X101890218Y-89701097D01*
X101900446Y-89722721D01*
X101908504Y-89745243D01*
X101914316Y-89768447D01*
X101917826Y-89792108D01*
X101919000Y-89816000D01*
X101919000Y-90303500D01*
X101917826Y-90327392D01*
X101914316Y-90351053D01*
X101908504Y-90374257D01*
X101900446Y-90396779D01*
X101890218Y-90418403D01*
X101877921Y-90438920D01*
X101863671Y-90458133D01*
X101847607Y-90475857D01*
X101829883Y-90491921D01*
X101810670Y-90506171D01*
X101790153Y-90518468D01*
X101768529Y-90528696D01*
X101746007Y-90536754D01*
X101722803Y-90542566D01*
X101699142Y-90546076D01*
X101675250Y-90547250D01*
X100762750Y-90547250D01*
X100738858Y-90546076D01*
X100715197Y-90542566D01*
X100691993Y-90536754D01*
X100669471Y-90528696D01*
X100647847Y-90518468D01*
X100627330Y-90506171D01*
X100608117Y-90491921D01*
X100590393Y-90475857D01*
X100574329Y-90458133D01*
X100560079Y-90438920D01*
X100547782Y-90418403D01*
X100537554Y-90396779D01*
X100529496Y-90374257D01*
X100523684Y-90351053D01*
X100520174Y-90327392D01*
X100519000Y-90303500D01*
X100519000Y-89816000D01*
X100520174Y-89792108D01*
X100523684Y-89768447D01*
X100529496Y-89745243D01*
X100537554Y-89722721D01*
X100547782Y-89701097D01*
X100560079Y-89680580D01*
X100574329Y-89661367D01*
X100590393Y-89643643D01*
X100608117Y-89627579D01*
X100627330Y-89613329D01*
X100647847Y-89601032D01*
X100669471Y-89590804D01*
X100691993Y-89582746D01*
X100715197Y-89576934D01*
X100738858Y-89573424D01*
X100762750Y-89572250D01*
X101675250Y-89572250D01*
X101699142Y-89573424D01*
X101699142Y-89573424D01*
G37*
D16*
X101219000Y-90059750D03*
D15*
G36*
X111224142Y-89573424D02*
G01*
X111247803Y-89576934D01*
X111271007Y-89582746D01*
X111293529Y-89590804D01*
X111315153Y-89601032D01*
X111335670Y-89613329D01*
X111354883Y-89627579D01*
X111372607Y-89643643D01*
X111388671Y-89661367D01*
X111402921Y-89680580D01*
X111415218Y-89701097D01*
X111425446Y-89722721D01*
X111433504Y-89745243D01*
X111439316Y-89768447D01*
X111442826Y-89792108D01*
X111444000Y-89816000D01*
X111444000Y-90303500D01*
X111442826Y-90327392D01*
X111439316Y-90351053D01*
X111433504Y-90374257D01*
X111425446Y-90396779D01*
X111415218Y-90418403D01*
X111402921Y-90438920D01*
X111388671Y-90458133D01*
X111372607Y-90475857D01*
X111354883Y-90491921D01*
X111335670Y-90506171D01*
X111315153Y-90518468D01*
X111293529Y-90528696D01*
X111271007Y-90536754D01*
X111247803Y-90542566D01*
X111224142Y-90546076D01*
X111200250Y-90547250D01*
X110287750Y-90547250D01*
X110263858Y-90546076D01*
X110240197Y-90542566D01*
X110216993Y-90536754D01*
X110194471Y-90528696D01*
X110172847Y-90518468D01*
X110152330Y-90506171D01*
X110133117Y-90491921D01*
X110115393Y-90475857D01*
X110099329Y-90458133D01*
X110085079Y-90438920D01*
X110072782Y-90418403D01*
X110062554Y-90396779D01*
X110054496Y-90374257D01*
X110048684Y-90351053D01*
X110045174Y-90327392D01*
X110044000Y-90303500D01*
X110044000Y-89816000D01*
X110045174Y-89792108D01*
X110048684Y-89768447D01*
X110054496Y-89745243D01*
X110062554Y-89722721D01*
X110072782Y-89701097D01*
X110085079Y-89680580D01*
X110099329Y-89661367D01*
X110115393Y-89643643D01*
X110133117Y-89627579D01*
X110152330Y-89613329D01*
X110172847Y-89601032D01*
X110194471Y-89590804D01*
X110216993Y-89582746D01*
X110240197Y-89576934D01*
X110263858Y-89573424D01*
X110287750Y-89572250D01*
X111200250Y-89572250D01*
X111224142Y-89573424D01*
X111224142Y-89573424D01*
G37*
D16*
X110744000Y-90059750D03*
D15*
G36*
X111224142Y-87698424D02*
G01*
X111247803Y-87701934D01*
X111271007Y-87707746D01*
X111293529Y-87715804D01*
X111315153Y-87726032D01*
X111335670Y-87738329D01*
X111354883Y-87752579D01*
X111372607Y-87768643D01*
X111388671Y-87786367D01*
X111402921Y-87805580D01*
X111415218Y-87826097D01*
X111425446Y-87847721D01*
X111433504Y-87870243D01*
X111439316Y-87893447D01*
X111442826Y-87917108D01*
X111444000Y-87941000D01*
X111444000Y-88428500D01*
X111442826Y-88452392D01*
X111439316Y-88476053D01*
X111433504Y-88499257D01*
X111425446Y-88521779D01*
X111415218Y-88543403D01*
X111402921Y-88563920D01*
X111388671Y-88583133D01*
X111372607Y-88600857D01*
X111354883Y-88616921D01*
X111335670Y-88631171D01*
X111315153Y-88643468D01*
X111293529Y-88653696D01*
X111271007Y-88661754D01*
X111247803Y-88667566D01*
X111224142Y-88671076D01*
X111200250Y-88672250D01*
X110287750Y-88672250D01*
X110263858Y-88671076D01*
X110240197Y-88667566D01*
X110216993Y-88661754D01*
X110194471Y-88653696D01*
X110172847Y-88643468D01*
X110152330Y-88631171D01*
X110133117Y-88616921D01*
X110115393Y-88600857D01*
X110099329Y-88583133D01*
X110085079Y-88563920D01*
X110072782Y-88543403D01*
X110062554Y-88521779D01*
X110054496Y-88499257D01*
X110048684Y-88476053D01*
X110045174Y-88452392D01*
X110044000Y-88428500D01*
X110044000Y-87941000D01*
X110045174Y-87917108D01*
X110048684Y-87893447D01*
X110054496Y-87870243D01*
X110062554Y-87847721D01*
X110072782Y-87826097D01*
X110085079Y-87805580D01*
X110099329Y-87786367D01*
X110115393Y-87768643D01*
X110133117Y-87752579D01*
X110152330Y-87738329D01*
X110172847Y-87726032D01*
X110194471Y-87715804D01*
X110216993Y-87707746D01*
X110240197Y-87701934D01*
X110263858Y-87698424D01*
X110287750Y-87697250D01*
X111200250Y-87697250D01*
X111224142Y-87698424D01*
X111224142Y-87698424D01*
G37*
D16*
X110744000Y-88184750D03*
D15*
G36*
X97317642Y-106813674D02*
G01*
X97341303Y-106817184D01*
X97364507Y-106822996D01*
X97387029Y-106831054D01*
X97408653Y-106841282D01*
X97429170Y-106853579D01*
X97448383Y-106867829D01*
X97466107Y-106883893D01*
X97482171Y-106901617D01*
X97496421Y-106920830D01*
X97508718Y-106941347D01*
X97518946Y-106962971D01*
X97527004Y-106985493D01*
X97532816Y-107008697D01*
X97536326Y-107032358D01*
X97537500Y-107056250D01*
X97537500Y-107543750D01*
X97536326Y-107567642D01*
X97532816Y-107591303D01*
X97527004Y-107614507D01*
X97518946Y-107637029D01*
X97508718Y-107658653D01*
X97496421Y-107679170D01*
X97482171Y-107698383D01*
X97466107Y-107716107D01*
X97448383Y-107732171D01*
X97429170Y-107746421D01*
X97408653Y-107758718D01*
X97387029Y-107768946D01*
X97364507Y-107777004D01*
X97341303Y-107782816D01*
X97317642Y-107786326D01*
X97293750Y-107787500D01*
X96381250Y-107787500D01*
X96357358Y-107786326D01*
X96333697Y-107782816D01*
X96310493Y-107777004D01*
X96287971Y-107768946D01*
X96266347Y-107758718D01*
X96245830Y-107746421D01*
X96226617Y-107732171D01*
X96208893Y-107716107D01*
X96192829Y-107698383D01*
X96178579Y-107679170D01*
X96166282Y-107658653D01*
X96156054Y-107637029D01*
X96147996Y-107614507D01*
X96142184Y-107591303D01*
X96138674Y-107567642D01*
X96137500Y-107543750D01*
X96137500Y-107056250D01*
X96138674Y-107032358D01*
X96142184Y-107008697D01*
X96147996Y-106985493D01*
X96156054Y-106962971D01*
X96166282Y-106941347D01*
X96178579Y-106920830D01*
X96192829Y-106901617D01*
X96208893Y-106883893D01*
X96226617Y-106867829D01*
X96245830Y-106853579D01*
X96266347Y-106841282D01*
X96287971Y-106831054D01*
X96310493Y-106822996D01*
X96333697Y-106817184D01*
X96357358Y-106813674D01*
X96381250Y-106812500D01*
X97293750Y-106812500D01*
X97317642Y-106813674D01*
X97317642Y-106813674D01*
G37*
D16*
X96837500Y-107300000D03*
D15*
G36*
X97317642Y-104938674D02*
G01*
X97341303Y-104942184D01*
X97364507Y-104947996D01*
X97387029Y-104956054D01*
X97408653Y-104966282D01*
X97429170Y-104978579D01*
X97448383Y-104992829D01*
X97466107Y-105008893D01*
X97482171Y-105026617D01*
X97496421Y-105045830D01*
X97508718Y-105066347D01*
X97518946Y-105087971D01*
X97527004Y-105110493D01*
X97532816Y-105133697D01*
X97536326Y-105157358D01*
X97537500Y-105181250D01*
X97537500Y-105668750D01*
X97536326Y-105692642D01*
X97532816Y-105716303D01*
X97527004Y-105739507D01*
X97518946Y-105762029D01*
X97508718Y-105783653D01*
X97496421Y-105804170D01*
X97482171Y-105823383D01*
X97466107Y-105841107D01*
X97448383Y-105857171D01*
X97429170Y-105871421D01*
X97408653Y-105883718D01*
X97387029Y-105893946D01*
X97364507Y-105902004D01*
X97341303Y-105907816D01*
X97317642Y-105911326D01*
X97293750Y-105912500D01*
X96381250Y-105912500D01*
X96357358Y-105911326D01*
X96333697Y-105907816D01*
X96310493Y-105902004D01*
X96287971Y-105893946D01*
X96266347Y-105883718D01*
X96245830Y-105871421D01*
X96226617Y-105857171D01*
X96208893Y-105841107D01*
X96192829Y-105823383D01*
X96178579Y-105804170D01*
X96166282Y-105783653D01*
X96156054Y-105762029D01*
X96147996Y-105739507D01*
X96142184Y-105716303D01*
X96138674Y-105692642D01*
X96137500Y-105668750D01*
X96137500Y-105181250D01*
X96138674Y-105157358D01*
X96142184Y-105133697D01*
X96147996Y-105110493D01*
X96156054Y-105087971D01*
X96166282Y-105066347D01*
X96178579Y-105045830D01*
X96192829Y-105026617D01*
X96208893Y-105008893D01*
X96226617Y-104992829D01*
X96245830Y-104978579D01*
X96266347Y-104966282D01*
X96287971Y-104956054D01*
X96310493Y-104947996D01*
X96333697Y-104942184D01*
X96357358Y-104938674D01*
X96381250Y-104937500D01*
X97293750Y-104937500D01*
X97317642Y-104938674D01*
X97317642Y-104938674D01*
G37*
D16*
X96837500Y-105425000D03*
D15*
G36*
X109788392Y-110394424D02*
G01*
X109812053Y-110397934D01*
X109835257Y-110403746D01*
X109857779Y-110411804D01*
X109879403Y-110422032D01*
X109899920Y-110434329D01*
X109919133Y-110448579D01*
X109936857Y-110464643D01*
X109952921Y-110482367D01*
X109967171Y-110501580D01*
X109979468Y-110522097D01*
X109989696Y-110543721D01*
X109997754Y-110566243D01*
X110003566Y-110589447D01*
X110007076Y-110613108D01*
X110008250Y-110637000D01*
X110008250Y-111549500D01*
X110007076Y-111573392D01*
X110003566Y-111597053D01*
X109997754Y-111620257D01*
X109989696Y-111642779D01*
X109979468Y-111664403D01*
X109967171Y-111684920D01*
X109952921Y-111704133D01*
X109936857Y-111721857D01*
X109919133Y-111737921D01*
X109899920Y-111752171D01*
X109879403Y-111764468D01*
X109857779Y-111774696D01*
X109835257Y-111782754D01*
X109812053Y-111788566D01*
X109788392Y-111792076D01*
X109764500Y-111793250D01*
X109277000Y-111793250D01*
X109253108Y-111792076D01*
X109229447Y-111788566D01*
X109206243Y-111782754D01*
X109183721Y-111774696D01*
X109162097Y-111764468D01*
X109141580Y-111752171D01*
X109122367Y-111737921D01*
X109104643Y-111721857D01*
X109088579Y-111704133D01*
X109074329Y-111684920D01*
X109062032Y-111664403D01*
X109051804Y-111642779D01*
X109043746Y-111620257D01*
X109037934Y-111597053D01*
X109034424Y-111573392D01*
X109033250Y-111549500D01*
X109033250Y-110637000D01*
X109034424Y-110613108D01*
X109037934Y-110589447D01*
X109043746Y-110566243D01*
X109051804Y-110543721D01*
X109062032Y-110522097D01*
X109074329Y-110501580D01*
X109088579Y-110482367D01*
X109104643Y-110464643D01*
X109122367Y-110448579D01*
X109141580Y-110434329D01*
X109162097Y-110422032D01*
X109183721Y-110411804D01*
X109206243Y-110403746D01*
X109229447Y-110397934D01*
X109253108Y-110394424D01*
X109277000Y-110393250D01*
X109764500Y-110393250D01*
X109788392Y-110394424D01*
X109788392Y-110394424D01*
G37*
D16*
X109520750Y-111093250D03*
D15*
G36*
X111663392Y-110394424D02*
G01*
X111687053Y-110397934D01*
X111710257Y-110403746D01*
X111732779Y-110411804D01*
X111754403Y-110422032D01*
X111774920Y-110434329D01*
X111794133Y-110448579D01*
X111811857Y-110464643D01*
X111827921Y-110482367D01*
X111842171Y-110501580D01*
X111854468Y-110522097D01*
X111864696Y-110543721D01*
X111872754Y-110566243D01*
X111878566Y-110589447D01*
X111882076Y-110613108D01*
X111883250Y-110637000D01*
X111883250Y-111549500D01*
X111882076Y-111573392D01*
X111878566Y-111597053D01*
X111872754Y-111620257D01*
X111864696Y-111642779D01*
X111854468Y-111664403D01*
X111842171Y-111684920D01*
X111827921Y-111704133D01*
X111811857Y-111721857D01*
X111794133Y-111737921D01*
X111774920Y-111752171D01*
X111754403Y-111764468D01*
X111732779Y-111774696D01*
X111710257Y-111782754D01*
X111687053Y-111788566D01*
X111663392Y-111792076D01*
X111639500Y-111793250D01*
X111152000Y-111793250D01*
X111128108Y-111792076D01*
X111104447Y-111788566D01*
X111081243Y-111782754D01*
X111058721Y-111774696D01*
X111037097Y-111764468D01*
X111016580Y-111752171D01*
X110997367Y-111737921D01*
X110979643Y-111721857D01*
X110963579Y-111704133D01*
X110949329Y-111684920D01*
X110937032Y-111664403D01*
X110926804Y-111642779D01*
X110918746Y-111620257D01*
X110912934Y-111597053D01*
X110909424Y-111573392D01*
X110908250Y-111549500D01*
X110908250Y-110637000D01*
X110909424Y-110613108D01*
X110912934Y-110589447D01*
X110918746Y-110566243D01*
X110926804Y-110543721D01*
X110937032Y-110522097D01*
X110949329Y-110501580D01*
X110963579Y-110482367D01*
X110979643Y-110464643D01*
X110997367Y-110448579D01*
X111016580Y-110434329D01*
X111037097Y-110422032D01*
X111058721Y-110411804D01*
X111081243Y-110403746D01*
X111104447Y-110397934D01*
X111128108Y-110394424D01*
X111152000Y-110393250D01*
X111639500Y-110393250D01*
X111663392Y-110394424D01*
X111663392Y-110394424D01*
G37*
D16*
X111395750Y-111093250D03*
D15*
G36*
X116780392Y-96080424D02*
G01*
X116804053Y-96083934D01*
X116827257Y-96089746D01*
X116849779Y-96097804D01*
X116871403Y-96108032D01*
X116891920Y-96120329D01*
X116911133Y-96134579D01*
X116928857Y-96150643D01*
X116944921Y-96168367D01*
X116959171Y-96187580D01*
X116971468Y-96208097D01*
X116981696Y-96229721D01*
X116989754Y-96252243D01*
X116995566Y-96275447D01*
X116999076Y-96299108D01*
X117000250Y-96323000D01*
X117000250Y-96810500D01*
X116999076Y-96834392D01*
X116995566Y-96858053D01*
X116989754Y-96881257D01*
X116981696Y-96903779D01*
X116971468Y-96925403D01*
X116959171Y-96945920D01*
X116944921Y-96965133D01*
X116928857Y-96982857D01*
X116911133Y-96998921D01*
X116891920Y-97013171D01*
X116871403Y-97025468D01*
X116849779Y-97035696D01*
X116827257Y-97043754D01*
X116804053Y-97049566D01*
X116780392Y-97053076D01*
X116756500Y-97054250D01*
X115844000Y-97054250D01*
X115820108Y-97053076D01*
X115796447Y-97049566D01*
X115773243Y-97043754D01*
X115750721Y-97035696D01*
X115729097Y-97025468D01*
X115708580Y-97013171D01*
X115689367Y-96998921D01*
X115671643Y-96982857D01*
X115655579Y-96965133D01*
X115641329Y-96945920D01*
X115629032Y-96925403D01*
X115618804Y-96903779D01*
X115610746Y-96881257D01*
X115604934Y-96858053D01*
X115601424Y-96834392D01*
X115600250Y-96810500D01*
X115600250Y-96323000D01*
X115601424Y-96299108D01*
X115604934Y-96275447D01*
X115610746Y-96252243D01*
X115618804Y-96229721D01*
X115629032Y-96208097D01*
X115641329Y-96187580D01*
X115655579Y-96168367D01*
X115671643Y-96150643D01*
X115689367Y-96134579D01*
X115708580Y-96120329D01*
X115729097Y-96108032D01*
X115750721Y-96097804D01*
X115773243Y-96089746D01*
X115796447Y-96083934D01*
X115820108Y-96080424D01*
X115844000Y-96079250D01*
X116756500Y-96079250D01*
X116780392Y-96080424D01*
X116780392Y-96080424D01*
G37*
D16*
X116300250Y-96566750D03*
D15*
G36*
X116780392Y-97955424D02*
G01*
X116804053Y-97958934D01*
X116827257Y-97964746D01*
X116849779Y-97972804D01*
X116871403Y-97983032D01*
X116891920Y-97995329D01*
X116911133Y-98009579D01*
X116928857Y-98025643D01*
X116944921Y-98043367D01*
X116959171Y-98062580D01*
X116971468Y-98083097D01*
X116981696Y-98104721D01*
X116989754Y-98127243D01*
X116995566Y-98150447D01*
X116999076Y-98174108D01*
X117000250Y-98198000D01*
X117000250Y-98685500D01*
X116999076Y-98709392D01*
X116995566Y-98733053D01*
X116989754Y-98756257D01*
X116981696Y-98778779D01*
X116971468Y-98800403D01*
X116959171Y-98820920D01*
X116944921Y-98840133D01*
X116928857Y-98857857D01*
X116911133Y-98873921D01*
X116891920Y-98888171D01*
X116871403Y-98900468D01*
X116849779Y-98910696D01*
X116827257Y-98918754D01*
X116804053Y-98924566D01*
X116780392Y-98928076D01*
X116756500Y-98929250D01*
X115844000Y-98929250D01*
X115820108Y-98928076D01*
X115796447Y-98924566D01*
X115773243Y-98918754D01*
X115750721Y-98910696D01*
X115729097Y-98900468D01*
X115708580Y-98888171D01*
X115689367Y-98873921D01*
X115671643Y-98857857D01*
X115655579Y-98840133D01*
X115641329Y-98820920D01*
X115629032Y-98800403D01*
X115618804Y-98778779D01*
X115610746Y-98756257D01*
X115604934Y-98733053D01*
X115601424Y-98709392D01*
X115600250Y-98685500D01*
X115600250Y-98198000D01*
X115601424Y-98174108D01*
X115604934Y-98150447D01*
X115610746Y-98127243D01*
X115618804Y-98104721D01*
X115629032Y-98083097D01*
X115641329Y-98062580D01*
X115655579Y-98043367D01*
X115671643Y-98025643D01*
X115689367Y-98009579D01*
X115708580Y-97995329D01*
X115729097Y-97983032D01*
X115750721Y-97972804D01*
X115773243Y-97964746D01*
X115796447Y-97958934D01*
X115820108Y-97955424D01*
X115844000Y-97954250D01*
X116756500Y-97954250D01*
X116780392Y-97955424D01*
X116780392Y-97955424D01*
G37*
D16*
X116300250Y-98441750D03*
D15*
G36*
X98111392Y-93826174D02*
G01*
X98135053Y-93829684D01*
X98158257Y-93835496D01*
X98180779Y-93843554D01*
X98202403Y-93853782D01*
X98222920Y-93866079D01*
X98242133Y-93880329D01*
X98259857Y-93896393D01*
X98275921Y-93914117D01*
X98290171Y-93933330D01*
X98302468Y-93953847D01*
X98312696Y-93975471D01*
X98320754Y-93997993D01*
X98326566Y-94021197D01*
X98330076Y-94044858D01*
X98331250Y-94068750D01*
X98331250Y-94556250D01*
X98330076Y-94580142D01*
X98326566Y-94603803D01*
X98320754Y-94627007D01*
X98312696Y-94649529D01*
X98302468Y-94671153D01*
X98290171Y-94691670D01*
X98275921Y-94710883D01*
X98259857Y-94728607D01*
X98242133Y-94744671D01*
X98222920Y-94758921D01*
X98202403Y-94771218D01*
X98180779Y-94781446D01*
X98158257Y-94789504D01*
X98135053Y-94795316D01*
X98111392Y-94798826D01*
X98087500Y-94800000D01*
X97175000Y-94800000D01*
X97151108Y-94798826D01*
X97127447Y-94795316D01*
X97104243Y-94789504D01*
X97081721Y-94781446D01*
X97060097Y-94771218D01*
X97039580Y-94758921D01*
X97020367Y-94744671D01*
X97002643Y-94728607D01*
X96986579Y-94710883D01*
X96972329Y-94691670D01*
X96960032Y-94671153D01*
X96949804Y-94649529D01*
X96941746Y-94627007D01*
X96935934Y-94603803D01*
X96932424Y-94580142D01*
X96931250Y-94556250D01*
X96931250Y-94068750D01*
X96932424Y-94044858D01*
X96935934Y-94021197D01*
X96941746Y-93997993D01*
X96949804Y-93975471D01*
X96960032Y-93953847D01*
X96972329Y-93933330D01*
X96986579Y-93914117D01*
X97002643Y-93896393D01*
X97020367Y-93880329D01*
X97039580Y-93866079D01*
X97060097Y-93853782D01*
X97081721Y-93843554D01*
X97104243Y-93835496D01*
X97127447Y-93829684D01*
X97151108Y-93826174D01*
X97175000Y-93825000D01*
X98087500Y-93825000D01*
X98111392Y-93826174D01*
X98111392Y-93826174D01*
G37*
D16*
X97631250Y-94312500D03*
D15*
G36*
X98111392Y-95701174D02*
G01*
X98135053Y-95704684D01*
X98158257Y-95710496D01*
X98180779Y-95718554D01*
X98202403Y-95728782D01*
X98222920Y-95741079D01*
X98242133Y-95755329D01*
X98259857Y-95771393D01*
X98275921Y-95789117D01*
X98290171Y-95808330D01*
X98302468Y-95828847D01*
X98312696Y-95850471D01*
X98320754Y-95872993D01*
X98326566Y-95896197D01*
X98330076Y-95919858D01*
X98331250Y-95943750D01*
X98331250Y-96431250D01*
X98330076Y-96455142D01*
X98326566Y-96478803D01*
X98320754Y-96502007D01*
X98312696Y-96524529D01*
X98302468Y-96546153D01*
X98290171Y-96566670D01*
X98275921Y-96585883D01*
X98259857Y-96603607D01*
X98242133Y-96619671D01*
X98222920Y-96633921D01*
X98202403Y-96646218D01*
X98180779Y-96656446D01*
X98158257Y-96664504D01*
X98135053Y-96670316D01*
X98111392Y-96673826D01*
X98087500Y-96675000D01*
X97175000Y-96675000D01*
X97151108Y-96673826D01*
X97127447Y-96670316D01*
X97104243Y-96664504D01*
X97081721Y-96656446D01*
X97060097Y-96646218D01*
X97039580Y-96633921D01*
X97020367Y-96619671D01*
X97002643Y-96603607D01*
X96986579Y-96585883D01*
X96972329Y-96566670D01*
X96960032Y-96546153D01*
X96949804Y-96524529D01*
X96941746Y-96502007D01*
X96935934Y-96478803D01*
X96932424Y-96455142D01*
X96931250Y-96431250D01*
X96931250Y-95943750D01*
X96932424Y-95919858D01*
X96935934Y-95896197D01*
X96941746Y-95872993D01*
X96949804Y-95850471D01*
X96960032Y-95828847D01*
X96972329Y-95808330D01*
X96986579Y-95789117D01*
X97002643Y-95771393D01*
X97020367Y-95755329D01*
X97039580Y-95741079D01*
X97060097Y-95728782D01*
X97081721Y-95718554D01*
X97104243Y-95710496D01*
X97127447Y-95704684D01*
X97151108Y-95701174D01*
X97175000Y-95700000D01*
X98087500Y-95700000D01*
X98111392Y-95701174D01*
X98111392Y-95701174D01*
G37*
D16*
X97631250Y-96187500D03*
D18*
X101393750Y-123468750D03*
X101393750Y-126768750D03*
X120443750Y-123468750D03*
X120443750Y-126768750D03*
X139493750Y-123468750D03*
X139493750Y-126768750D03*
X158543750Y-123468750D03*
X158543750Y-126768750D03*
X177593750Y-123468750D03*
X177593750Y-126768750D03*
X196643750Y-123468750D03*
X196643750Y-126768750D03*
X215693750Y-123468750D03*
X215693750Y-126768750D03*
X234743750Y-123468750D03*
X234743750Y-126768750D03*
X253793750Y-123468750D03*
X253793750Y-126768750D03*
X272843750Y-123468750D03*
X272843750Y-126768750D03*
X291893750Y-123468750D03*
X291893750Y-126768750D03*
X310943750Y-123468750D03*
X310943750Y-126768750D03*
X329993750Y-123468750D03*
X329993750Y-126768750D03*
X368093750Y-123468750D03*
X368093750Y-126768750D03*
X110918750Y-142518750D03*
X110918750Y-145818750D03*
X129968750Y-142518750D03*
X129968750Y-145818750D03*
X149018750Y-142518750D03*
X149018750Y-145818750D03*
X168068750Y-142518750D03*
X168068750Y-145818750D03*
X187118750Y-142518750D03*
X187118750Y-145818750D03*
X206168750Y-142518750D03*
X206168750Y-145818750D03*
X225218750Y-142518750D03*
X225218750Y-145818750D03*
X244268750Y-142518750D03*
X244268750Y-145818750D03*
X263318750Y-142518750D03*
X263318750Y-145818750D03*
X282368750Y-142518750D03*
X282368750Y-145818750D03*
X301418750Y-142518750D03*
X301418750Y-145818750D03*
X320468750Y-142518750D03*
X320468750Y-145818750D03*
X339518750Y-142518750D03*
X339518750Y-145818750D03*
X368093750Y-142518750D03*
X368093750Y-145818750D03*
X106156250Y-161568750D03*
X106156250Y-164868750D03*
X134731250Y-161568750D03*
X134731250Y-164868750D03*
X153781250Y-161568750D03*
X153781250Y-164868750D03*
X172831250Y-161568750D03*
X172831250Y-164868750D03*
X191881250Y-161568750D03*
X191881250Y-164868750D03*
X210931250Y-161568750D03*
X210931250Y-164868750D03*
X229981250Y-161568750D03*
X229981250Y-164868750D03*
X249031250Y-161568750D03*
X249031250Y-164868750D03*
X268081250Y-161568750D03*
X268081250Y-164868750D03*
X287131250Y-161568750D03*
X287131250Y-164868750D03*
X306181250Y-161568750D03*
X306181250Y-164868750D03*
X325231250Y-161568750D03*
X325231250Y-164868750D03*
X368093750Y-161568750D03*
X368093750Y-164868750D03*
X125206250Y-180618750D03*
X125206250Y-183918750D03*
X144256250Y-180618750D03*
X144256250Y-183918750D03*
X163306250Y-180618750D03*
X163306250Y-183918750D03*
X182356250Y-180618750D03*
X182356250Y-183918750D03*
X201406250Y-180618750D03*
X201406250Y-183918750D03*
X220456250Y-180618750D03*
X220456250Y-183918750D03*
X239506250Y-180618750D03*
X239506250Y-183918750D03*
X258556250Y-180618750D03*
X258556250Y-183918750D03*
X277606250Y-180618750D03*
X277606250Y-183918750D03*
X296656250Y-180618750D03*
X296656250Y-183918750D03*
X315706250Y-180618750D03*
X315706250Y-183918750D03*
X368093750Y-180618750D03*
X368093750Y-183918750D03*
X134731250Y-199668750D03*
X134731250Y-202968750D03*
X158543750Y-199668750D03*
X158543750Y-202968750D03*
X291893750Y-199668750D03*
X291893750Y-202968750D03*
X315706250Y-199668750D03*
X315706250Y-202968750D03*
X339518750Y-199668750D03*
X339518750Y-202968750D03*
M02*
