M48
; DRILL file {KiCad (5.1.4)-1} date 06/08/2021 17:52:14
; FORMAT={-:-/ absolute / inch / decimal}
; #@! TF.CreationDate,2021-08-06T17:52:14-05:00
; #@! TF.GenerationSoftware,Kicad,Pcbnew,(5.1.4)-1
; #@! TF.FileFunction,NonPlated,1,2,NPTH
FMAT,2
INCH
T1C0.0689
T2C0.1200
T3C0.1570
%
G90
G05
T1
X12.8312Y-5.6562
X13.2312Y-5.6562
X6.2687Y-6.4062
X6.6688Y-6.4062
X7.0187Y-6.4062
X7.4188Y-6.4062
X7.7687Y-6.4062
X8.1687Y-6.4062
X11.3312Y-5.6562
X11.7312Y-5.6562
X5.5187Y-6.4062
X5.9188Y-6.4062
X8.5187Y-6.4062
X8.9187Y-6.4062
X4.7687Y-6.4062
X5.1688Y-6.4062
X12.0812Y-5.6562
X12.4812Y-5.6562
X13.7687Y-5.6562
X14.1687Y-5.6562
X9.2687Y-6.4062
X9.6687Y-6.4062
X3.55Y-6.4062
X3.95Y-6.4062
X6.6437Y-7.1562
X7.0438Y-7.1562
X10.0187Y-6.4062
X10.4187Y-6.4062
X8.1437Y-7.1562
X8.5437Y-7.1562
X5.8937Y-7.1562
X6.2938Y-7.1562
X8.8937Y-7.1562
X9.2937Y-7.1562
X12.2687Y-6.4062
X12.6687Y-6.4062
X10.7687Y-6.4062
X11.1687Y-6.4062
X7.3937Y-7.1562
X7.7938Y-7.1562
X13.4875Y-6.4062
X13.8875Y-6.4062
X11.5187Y-6.4062
X11.9187Y-6.4062
X3.925Y-7.1562
X4.325Y-7.1562
X5.1437Y-7.1562
X5.5438Y-7.1562
X11.8Y-7.9062
X12.2Y-7.9062
X9.6437Y-7.1562
X10.0437Y-7.1562
X5.6125Y-7.9062
X6.0125Y-7.9062
X8.7062Y-7.9062
X9.1062Y-7.9062
X12.7375Y-7.9062
X13.1375Y-7.9062
X11.8937Y-7.1562
X12.2937Y-7.1562
X11.1437Y-7.1562
X11.5437Y-7.1562
X4.675Y-7.9062
X5.075Y-7.9062
X13.3Y-7.1562
X13.7Y-7.1562
X10.3937Y-7.1562
X10.7937Y-7.1562
X9.8312Y-5.6562
X10.2312Y-5.6562
X6.8312Y-5.6562
X7.2313Y-5.6562
X7.5812Y-5.6562
X7.9813Y-5.6562
X10.5812Y-5.6562
X10.9812Y-5.6562
X12.4562Y-4.9062
X12.8562Y-4.9062
X5.3312Y-5.6562
X5.7313Y-5.6562
X13.5812Y-4.9062
X13.9812Y-4.9062
X3.6437Y-5.6562
X4.0438Y-5.6562
X9.0812Y-5.6562
X9.4812Y-5.6562
X4.5812Y-5.6562
X4.9813Y-5.6562
X8.3312Y-5.6562
X8.7312Y-5.6562
X6.0812Y-5.6562
X6.4813Y-5.6562
X11.7062Y-4.9062
X12.1062Y-4.9062
X4.2062Y-4.9062
X4.6063Y-4.9062
X8.7062Y-4.9062
X9.1062Y-4.9062
X9.4562Y-4.9062
X9.8562Y-4.9062
X4.9562Y-4.9062
X5.3563Y-4.9062
X5.7062Y-4.9062
X6.1063Y-4.9062
X10.2062Y-4.9062
X10.6062Y-4.9062
X10.9562Y-4.9062
X11.3562Y-4.9062
X6.4562Y-4.9062
X6.8563Y-4.9062
X7.2062Y-4.9062
X7.6063Y-4.9062
X3.4562Y-4.9062
X3.8562Y-4.9062
X7.9562Y-4.9062
X8.3562Y-4.9062
T2
X13.2175Y-6.1312
X14.1575Y-6.1312
X3.655Y-6.8812
X4.595Y-6.8812
X6.6562Y-7.6312
X11.1562Y-7.6312
X13.03Y-6.8812
X13.97Y-6.8812
X13.3112Y-4.6312
X14.2512Y-4.6312
T3
X13.0312Y-5.6562
X6.4688Y-6.4062
X7.2188Y-6.4062
X7.9688Y-6.4062
X11.5312Y-5.6562
X5.7188Y-6.4062
X8.7188Y-6.4062
X4.9688Y-6.4062
X12.2812Y-5.6562
X13.9688Y-5.6562
X9.4688Y-6.4062
X3.75Y-6.4062
X6.8438Y-7.1562
X10.2188Y-6.4062
X8.3438Y-7.1562
X6.0938Y-7.1562
X9.0938Y-7.1562
X12.4688Y-6.4062
X10.9688Y-6.4062
X7.5938Y-7.1562
X13.2175Y-6.7313
X13.6875Y-6.4062
X14.1575Y-6.7313
X11.7188Y-6.4062
X3.655Y-7.4813
X4.125Y-7.1562
X4.595Y-7.4813
X5.3438Y-7.1562
X12.0Y-7.9062
X9.8438Y-7.1562
X5.8125Y-7.9062
X6.6562Y-8.2312
X8.9062Y-7.9062
X11.1562Y-8.2312
X12.9375Y-7.9062
X12.0938Y-7.1562
X11.3438Y-7.1562
X4.875Y-7.9062
X13.03Y-7.4813
X13.5Y-7.1562
X13.97Y-7.4813
X10.5938Y-7.1562
X10.0312Y-5.6562
X7.0312Y-5.6562
X7.7812Y-5.6562
X10.7812Y-5.6562
X12.6562Y-4.9062
X5.5312Y-5.6562
X13.3112Y-5.2313
X13.7812Y-4.9062
X14.2512Y-5.2313
X3.8438Y-5.6562
X9.2812Y-5.6562
X4.7812Y-5.6562
X8.5312Y-5.6562
X6.2812Y-5.6562
X11.9062Y-4.9062
X4.4062Y-4.9062
X8.9062Y-4.9062
X9.6562Y-4.9062
X5.1562Y-4.9062
X5.9062Y-4.9062
X10.4062Y-4.9062
X11.1562Y-4.9062
X6.6562Y-4.9062
X7.4062Y-4.9062
X3.6562Y-4.9062
X8.1562Y-4.9062
T0
M30
