G04 #@! TF.GenerationSoftware,KiCad,Pcbnew,(5.1.4)-1*
G04 #@! TF.CreationDate,2021-08-06T17:52:11-05:00*
G04 #@! TF.ProjectId,keyboard,6b657962-6f61-4726-942e-6b696361645f,rev?*
G04 #@! TF.SameCoordinates,Original*
G04 #@! TF.FileFunction,Legend,Bot*
G04 #@! TF.FilePolarity,Positive*
%FSLAX46Y46*%
G04 Gerber Fmt 4.6, Leading zero omitted, Abs format (unit mm)*
G04 Created by KiCad (PCBNEW (5.1.4)-1) date 2021-08-06 17:52:11*
%MOMM*%
%LPD*%
G04 APERTURE LIST*
%ADD10C,0.400000*%
%ADD11C,0.120000*%
%ADD12C,0.150000*%
%ADD13R,1.400000X1.200000*%
%ADD14O,1.700000X2.700000*%
%ADD15R,0.500000X2.250000*%
%ADD16R,0.550000X1.500000*%
%ADD17R,1.500000X0.550000*%
%ADD18R,1.800000X1.100000*%
%ADD19C,0.100000*%
%ADD20C,0.975000*%
%ADD21C,1.250000*%
%ADD22C,2.250000*%
%ADD23C,2.250000*%
%ADD24C,3.987800*%
%ADD25C,1.750000*%
%ADD26R,1.200000X0.900000*%
%ADD27C,3.048000*%
G04 APERTURE END LIST*
D10*
X124976905Y-85153273D02*
X124976905Y-81153273D01*
X124976905Y-82677083D02*
X124595952Y-82486607D01*
X123834047Y-82486607D01*
X123453095Y-82677083D01*
X123262619Y-82867559D01*
X123072143Y-83248511D01*
X123072143Y-84391369D01*
X123262619Y-84772321D01*
X123453095Y-84962797D01*
X123834047Y-85153273D01*
X124595952Y-85153273D01*
X124976905Y-84962797D01*
X119834047Y-84962797D02*
X120215000Y-85153273D01*
X120976905Y-85153273D01*
X121357857Y-84962797D01*
X121548333Y-84581845D01*
X121548333Y-83058035D01*
X121357857Y-82677083D01*
X120976905Y-82486607D01*
X120215000Y-82486607D01*
X119834047Y-82677083D01*
X119643571Y-83058035D01*
X119643571Y-83438988D01*
X121548333Y-83819940D01*
X118500714Y-82486607D02*
X116976905Y-82486607D01*
X117929286Y-81153273D02*
X117929286Y-84581845D01*
X117738809Y-84962797D01*
X117357857Y-85153273D01*
X116976905Y-85153273D01*
X113929286Y-85153273D02*
X113929286Y-83058035D01*
X114119762Y-82677083D01*
X114500714Y-82486607D01*
X115262619Y-82486607D01*
X115643571Y-82677083D01*
X113929286Y-84962797D02*
X114310238Y-85153273D01*
X115262619Y-85153273D01*
X115643571Y-84962797D01*
X115834047Y-84581845D01*
X115834047Y-84200892D01*
X115643571Y-83819940D01*
X115262619Y-83629464D01*
X114310238Y-83629464D01*
X113929286Y-83438988D01*
X112024524Y-85153273D02*
X112024524Y-81153273D01*
X112024524Y-82677083D02*
X111643571Y-82486607D01*
X110881666Y-82486607D01*
X110500714Y-82677083D01*
X110310238Y-82867559D01*
X110119762Y-83248511D01*
X110119762Y-84391369D01*
X110310238Y-84772321D01*
X110500714Y-84962797D01*
X110881666Y-85153273D01*
X111643571Y-85153273D01*
X112024524Y-84962797D01*
X107834047Y-85153273D02*
X108215000Y-84962797D01*
X108405476Y-84772321D01*
X108595952Y-84391369D01*
X108595952Y-83248511D01*
X108405476Y-82867559D01*
X108215000Y-82677083D01*
X107834047Y-82486607D01*
X107262619Y-82486607D01*
X106881666Y-82677083D01*
X106691190Y-82867559D01*
X106500714Y-83248511D01*
X106500714Y-84391369D01*
X106691190Y-84772321D01*
X106881666Y-84962797D01*
X107262619Y-85153273D01*
X107834047Y-85153273D01*
X105167381Y-82486607D02*
X103072143Y-82486607D01*
X105167381Y-85153273D01*
X103072143Y-85153273D01*
X99072143Y-81153273D02*
X97738809Y-85153273D01*
X96405476Y-81153273D01*
X92976905Y-85153273D02*
X95262619Y-85153273D01*
X94119762Y-85153273D02*
X94119762Y-81153273D01*
X94500714Y-81724702D01*
X94881666Y-82105654D01*
X95262619Y-82296130D01*
D11*
X107981500Y-90772250D02*
X103981500Y-90772250D01*
X107981500Y-87472250D02*
X107981500Y-90772250D01*
D12*
X83462500Y-80962500D02*
X83462500Y-86412500D01*
X91162500Y-80962500D02*
X91162500Y-86412500D01*
X83462500Y-86412500D02*
X91162500Y-86412500D01*
X101187500Y-106200000D02*
X99912500Y-106200000D01*
X111537500Y-106775000D02*
X110862500Y-106775000D01*
X111537500Y-96425000D02*
X110862500Y-96425000D01*
X101187500Y-96425000D02*
X101862500Y-96425000D01*
X101187500Y-106775000D02*
X101862500Y-106775000D01*
X101187500Y-96425000D02*
X101187500Y-97100000D01*
X111537500Y-96425000D02*
X111537500Y-97100000D01*
X111537500Y-106775000D02*
X111537500Y-106100000D01*
X101187500Y-106775000D02*
X101187500Y-106200000D01*
X89118750Y-106937500D02*
X83918750Y-106937500D01*
X83918750Y-106937500D02*
X83918750Y-112137500D01*
X83918750Y-112137500D02*
X89118750Y-112137500D01*
X89118750Y-112137500D02*
X89118750Y-106937500D01*
X87518750Y-109537500D02*
G75*
G03X87518750Y-109537500I-1000000J0D01*
G01*
D11*
X115177500Y-107414828D02*
X115177500Y-106897672D01*
X116597500Y-107414828D02*
X116597500Y-106897672D01*
X95166250Y-94991422D02*
X95166250Y-95508578D01*
X93746250Y-94991422D02*
X93746250Y-95508578D01*
X87396250Y-90746078D02*
X87396250Y-90228922D01*
X88816250Y-90746078D02*
X88816250Y-90228922D01*
X85015000Y-90746078D02*
X85015000Y-90228922D01*
X86435000Y-90746078D02*
X86435000Y-90228922D01*
X81640000Y-98233314D02*
X81640000Y-97029186D01*
X83460000Y-98233314D02*
X83460000Y-97029186D01*
X97381828Y-102405250D02*
X96864672Y-102405250D01*
X97381828Y-100985250D02*
X96864672Y-100985250D01*
X100509000Y-89380828D02*
X100509000Y-88863672D01*
X101929000Y-89380828D02*
X101929000Y-88863672D01*
X111454000Y-88863672D02*
X111454000Y-89380828D01*
X110034000Y-88863672D02*
X110034000Y-89380828D01*
X97547500Y-106103922D02*
X97547500Y-106621078D01*
X96127500Y-106103922D02*
X96127500Y-106621078D01*
X110716828Y-111803250D02*
X110199672Y-111803250D01*
X110716828Y-110383250D02*
X110199672Y-110383250D01*
X115590250Y-97762828D02*
X115590250Y-97245672D01*
X117010250Y-97762828D02*
X117010250Y-97245672D01*
X96921250Y-95508578D02*
X96921250Y-94991422D01*
X98341250Y-95508578D02*
X98341250Y-94991422D01*
X102393750Y-127368750D02*
X102393750Y-123468750D01*
X100393750Y-127368750D02*
X100393750Y-123468750D01*
X102393750Y-127368750D02*
X100393750Y-127368750D01*
X121443750Y-127368750D02*
X121443750Y-123468750D01*
X119443750Y-127368750D02*
X119443750Y-123468750D01*
X121443750Y-127368750D02*
X119443750Y-127368750D01*
X140493750Y-127368750D02*
X140493750Y-123468750D01*
X138493750Y-127368750D02*
X138493750Y-123468750D01*
X140493750Y-127368750D02*
X138493750Y-127368750D01*
X159543750Y-127368750D02*
X159543750Y-123468750D01*
X157543750Y-127368750D02*
X157543750Y-123468750D01*
X159543750Y-127368750D02*
X157543750Y-127368750D01*
X178593750Y-127368750D02*
X178593750Y-123468750D01*
X176593750Y-127368750D02*
X176593750Y-123468750D01*
X178593750Y-127368750D02*
X176593750Y-127368750D01*
X197643750Y-127368750D02*
X197643750Y-123468750D01*
X195643750Y-127368750D02*
X195643750Y-123468750D01*
X197643750Y-127368750D02*
X195643750Y-127368750D01*
X216693750Y-127368750D02*
X216693750Y-123468750D01*
X214693750Y-127368750D02*
X214693750Y-123468750D01*
X216693750Y-127368750D02*
X214693750Y-127368750D01*
X235743750Y-127368750D02*
X235743750Y-123468750D01*
X233743750Y-127368750D02*
X233743750Y-123468750D01*
X235743750Y-127368750D02*
X233743750Y-127368750D01*
X254793750Y-127368750D02*
X254793750Y-123468750D01*
X252793750Y-127368750D02*
X252793750Y-123468750D01*
X254793750Y-127368750D02*
X252793750Y-127368750D01*
X273843750Y-127368750D02*
X273843750Y-123468750D01*
X271843750Y-127368750D02*
X271843750Y-123468750D01*
X273843750Y-127368750D02*
X271843750Y-127368750D01*
X292893750Y-127368750D02*
X292893750Y-123468750D01*
X290893750Y-127368750D02*
X290893750Y-123468750D01*
X292893750Y-127368750D02*
X290893750Y-127368750D01*
X311943750Y-127368750D02*
X311943750Y-123468750D01*
X309943750Y-127368750D02*
X309943750Y-123468750D01*
X311943750Y-127368750D02*
X309943750Y-127368750D01*
X330993750Y-127368750D02*
X330993750Y-123468750D01*
X328993750Y-127368750D02*
X328993750Y-123468750D01*
X330993750Y-127368750D02*
X328993750Y-127368750D01*
X369093750Y-127368750D02*
X369093750Y-123468750D01*
X367093750Y-127368750D02*
X367093750Y-123468750D01*
X369093750Y-127368750D02*
X367093750Y-127368750D01*
X111918750Y-146418750D02*
X111918750Y-142518750D01*
X109918750Y-146418750D02*
X109918750Y-142518750D01*
X111918750Y-146418750D02*
X109918750Y-146418750D01*
X130968750Y-146418750D02*
X130968750Y-142518750D01*
X128968750Y-146418750D02*
X128968750Y-142518750D01*
X130968750Y-146418750D02*
X128968750Y-146418750D01*
X150018750Y-146418750D02*
X150018750Y-142518750D01*
X148018750Y-146418750D02*
X148018750Y-142518750D01*
X150018750Y-146418750D02*
X148018750Y-146418750D01*
X169068750Y-146418750D02*
X169068750Y-142518750D01*
X167068750Y-146418750D02*
X167068750Y-142518750D01*
X169068750Y-146418750D02*
X167068750Y-146418750D01*
X188118750Y-146418750D02*
X188118750Y-142518750D01*
X186118750Y-146418750D02*
X186118750Y-142518750D01*
X188118750Y-146418750D02*
X186118750Y-146418750D01*
X207168750Y-146418750D02*
X207168750Y-142518750D01*
X205168750Y-146418750D02*
X205168750Y-142518750D01*
X207168750Y-146418750D02*
X205168750Y-146418750D01*
X226218750Y-146418750D02*
X226218750Y-142518750D01*
X224218750Y-146418750D02*
X224218750Y-142518750D01*
X226218750Y-146418750D02*
X224218750Y-146418750D01*
X245268750Y-146418750D02*
X245268750Y-142518750D01*
X243268750Y-146418750D02*
X243268750Y-142518750D01*
X245268750Y-146418750D02*
X243268750Y-146418750D01*
X264318750Y-146418750D02*
X264318750Y-142518750D01*
X262318750Y-146418750D02*
X262318750Y-142518750D01*
X264318750Y-146418750D02*
X262318750Y-146418750D01*
X283368750Y-146418750D02*
X283368750Y-142518750D01*
X281368750Y-146418750D02*
X281368750Y-142518750D01*
X283368750Y-146418750D02*
X281368750Y-146418750D01*
X302418750Y-146418750D02*
X302418750Y-142518750D01*
X300418750Y-146418750D02*
X300418750Y-142518750D01*
X302418750Y-146418750D02*
X300418750Y-146418750D01*
X321468750Y-146418750D02*
X321468750Y-142518750D01*
X319468750Y-146418750D02*
X319468750Y-142518750D01*
X321468750Y-146418750D02*
X319468750Y-146418750D01*
X340518750Y-146418750D02*
X340518750Y-142518750D01*
X338518750Y-146418750D02*
X338518750Y-142518750D01*
X340518750Y-146418750D02*
X338518750Y-146418750D01*
X369093750Y-146418750D02*
X369093750Y-142518750D01*
X367093750Y-146418750D02*
X367093750Y-142518750D01*
X369093750Y-146418750D02*
X367093750Y-146418750D01*
X107156250Y-165468750D02*
X107156250Y-161568750D01*
X105156250Y-165468750D02*
X105156250Y-161568750D01*
X107156250Y-165468750D02*
X105156250Y-165468750D01*
X135731250Y-165468750D02*
X135731250Y-161568750D01*
X133731250Y-165468750D02*
X133731250Y-161568750D01*
X135731250Y-165468750D02*
X133731250Y-165468750D01*
X154781250Y-165468750D02*
X154781250Y-161568750D01*
X152781250Y-165468750D02*
X152781250Y-161568750D01*
X154781250Y-165468750D02*
X152781250Y-165468750D01*
X173831250Y-165468750D02*
X173831250Y-161568750D01*
X171831250Y-165468750D02*
X171831250Y-161568750D01*
X173831250Y-165468750D02*
X171831250Y-165468750D01*
X192881250Y-165468750D02*
X192881250Y-161568750D01*
X190881250Y-165468750D02*
X190881250Y-161568750D01*
X192881250Y-165468750D02*
X190881250Y-165468750D01*
X211931250Y-165468750D02*
X211931250Y-161568750D01*
X209931250Y-165468750D02*
X209931250Y-161568750D01*
X211931250Y-165468750D02*
X209931250Y-165468750D01*
X230981250Y-165468750D02*
X230981250Y-161568750D01*
X228981250Y-165468750D02*
X228981250Y-161568750D01*
X230981250Y-165468750D02*
X228981250Y-165468750D01*
X250031250Y-165468750D02*
X250031250Y-161568750D01*
X248031250Y-165468750D02*
X248031250Y-161568750D01*
X250031250Y-165468750D02*
X248031250Y-165468750D01*
X269081250Y-165468750D02*
X269081250Y-161568750D01*
X267081250Y-165468750D02*
X267081250Y-161568750D01*
X269081250Y-165468750D02*
X267081250Y-165468750D01*
X288131250Y-165468750D02*
X288131250Y-161568750D01*
X286131250Y-165468750D02*
X286131250Y-161568750D01*
X288131250Y-165468750D02*
X286131250Y-165468750D01*
X307181250Y-165468750D02*
X307181250Y-161568750D01*
X305181250Y-165468750D02*
X305181250Y-161568750D01*
X307181250Y-165468750D02*
X305181250Y-165468750D01*
X326231250Y-165468750D02*
X326231250Y-161568750D01*
X324231250Y-165468750D02*
X324231250Y-161568750D01*
X326231250Y-165468750D02*
X324231250Y-165468750D01*
X369093750Y-165468750D02*
X369093750Y-161568750D01*
X367093750Y-165468750D02*
X367093750Y-161568750D01*
X369093750Y-165468750D02*
X367093750Y-165468750D01*
X126206250Y-184518750D02*
X126206250Y-180618750D01*
X124206250Y-184518750D02*
X124206250Y-180618750D01*
X126206250Y-184518750D02*
X124206250Y-184518750D01*
X145256250Y-184518750D02*
X145256250Y-180618750D01*
X143256250Y-184518750D02*
X143256250Y-180618750D01*
X145256250Y-184518750D02*
X143256250Y-184518750D01*
X164306250Y-184518750D02*
X164306250Y-180618750D01*
X162306250Y-184518750D02*
X162306250Y-180618750D01*
X164306250Y-184518750D02*
X162306250Y-184518750D01*
X183356250Y-184518750D02*
X183356250Y-180618750D01*
X181356250Y-184518750D02*
X181356250Y-180618750D01*
X183356250Y-184518750D02*
X181356250Y-184518750D01*
X202406250Y-184518750D02*
X202406250Y-180618750D01*
X200406250Y-184518750D02*
X200406250Y-180618750D01*
X202406250Y-184518750D02*
X200406250Y-184518750D01*
X221456250Y-184518750D02*
X221456250Y-180618750D01*
X219456250Y-184518750D02*
X219456250Y-180618750D01*
X221456250Y-184518750D02*
X219456250Y-184518750D01*
X240506250Y-184518750D02*
X240506250Y-180618750D01*
X238506250Y-184518750D02*
X238506250Y-180618750D01*
X240506250Y-184518750D02*
X238506250Y-184518750D01*
X259556250Y-184518750D02*
X259556250Y-180618750D01*
X257556250Y-184518750D02*
X257556250Y-180618750D01*
X259556250Y-184518750D02*
X257556250Y-184518750D01*
X278606250Y-184518750D02*
X278606250Y-180618750D01*
X276606250Y-184518750D02*
X276606250Y-180618750D01*
X278606250Y-184518750D02*
X276606250Y-184518750D01*
X297656250Y-184518750D02*
X297656250Y-180618750D01*
X295656250Y-184518750D02*
X295656250Y-180618750D01*
X297656250Y-184518750D02*
X295656250Y-184518750D01*
X316706250Y-184518750D02*
X316706250Y-180618750D01*
X314706250Y-184518750D02*
X314706250Y-180618750D01*
X316706250Y-184518750D02*
X314706250Y-184518750D01*
X369093750Y-184518750D02*
X369093750Y-180618750D01*
X367093750Y-184518750D02*
X367093750Y-180618750D01*
X369093750Y-184518750D02*
X367093750Y-184518750D01*
X135731250Y-203568750D02*
X135731250Y-199668750D01*
X133731250Y-203568750D02*
X133731250Y-199668750D01*
X135731250Y-203568750D02*
X133731250Y-203568750D01*
X159543750Y-203568750D02*
X159543750Y-199668750D01*
X157543750Y-203568750D02*
X157543750Y-199668750D01*
X159543750Y-203568750D02*
X157543750Y-203568750D01*
X292893750Y-203568750D02*
X292893750Y-199668750D01*
X290893750Y-203568750D02*
X290893750Y-199668750D01*
X292893750Y-203568750D02*
X290893750Y-203568750D01*
X316706250Y-203568750D02*
X316706250Y-199668750D01*
X314706250Y-203568750D02*
X314706250Y-199668750D01*
X316706250Y-203568750D02*
X314706250Y-203568750D01*
X340518750Y-203568750D02*
X340518750Y-199668750D01*
X338518750Y-203568750D02*
X338518750Y-199668750D01*
X340518750Y-203568750D02*
X338518750Y-203568750D01*
D12*
X106457690Y-86648440D02*
X106457690Y-87124630D01*
X106791023Y-86124630D02*
X106457690Y-86648440D01*
X106124357Y-86124630D01*
X105267214Y-87124630D02*
X105838642Y-87124630D01*
X105552928Y-87124630D02*
X105552928Y-86124630D01*
X105648166Y-86267488D01*
X105743404Y-86362726D01*
X105838642Y-86410345D01*
X89050595Y-82446880D02*
X89050595Y-83256404D01*
X89002976Y-83351642D01*
X88955357Y-83399261D01*
X88860119Y-83446880D01*
X88669642Y-83446880D01*
X88574404Y-83399261D01*
X88526785Y-83351642D01*
X88479166Y-83256404D01*
X88479166Y-82446880D01*
X88050595Y-83399261D02*
X87907738Y-83446880D01*
X87669642Y-83446880D01*
X87574404Y-83399261D01*
X87526785Y-83351642D01*
X87479166Y-83256404D01*
X87479166Y-83161166D01*
X87526785Y-83065928D01*
X87574404Y-83018309D01*
X87669642Y-82970690D01*
X87860119Y-82923071D01*
X87955357Y-82875452D01*
X88002976Y-82827833D01*
X88050595Y-82732595D01*
X88050595Y-82637357D01*
X88002976Y-82542119D01*
X87955357Y-82494500D01*
X87860119Y-82446880D01*
X87622023Y-82446880D01*
X87479166Y-82494500D01*
X86717261Y-82923071D02*
X86574404Y-82970690D01*
X86526785Y-83018309D01*
X86479166Y-83113547D01*
X86479166Y-83256404D01*
X86526785Y-83351642D01*
X86574404Y-83399261D01*
X86669642Y-83446880D01*
X87050595Y-83446880D01*
X87050595Y-82446880D01*
X86717261Y-82446880D01*
X86622023Y-82494500D01*
X86574404Y-82542119D01*
X86526785Y-82637357D01*
X86526785Y-82732595D01*
X86574404Y-82827833D01*
X86622023Y-82875452D01*
X86717261Y-82923071D01*
X87050595Y-82923071D01*
X85526785Y-83446880D02*
X86098214Y-83446880D01*
X85812500Y-83446880D02*
X85812500Y-82446880D01*
X85907738Y-82589738D01*
X86002976Y-82684976D01*
X86098214Y-82732595D01*
X107124404Y-108502380D02*
X107124404Y-109311904D01*
X107076785Y-109407142D01*
X107029166Y-109454761D01*
X106933928Y-109502380D01*
X106743452Y-109502380D01*
X106648214Y-109454761D01*
X106600595Y-109407142D01*
X106552976Y-109311904D01*
X106552976Y-108502380D01*
X105552976Y-109502380D02*
X106124404Y-109502380D01*
X105838690Y-109502380D02*
X105838690Y-108502380D01*
X105933928Y-108645238D01*
X106029166Y-108740476D01*
X106124404Y-108788095D01*
X87852083Y-114006261D02*
X87709226Y-114053880D01*
X87471130Y-114053880D01*
X87375892Y-114006261D01*
X87328273Y-113958642D01*
X87280654Y-113863404D01*
X87280654Y-113768166D01*
X87328273Y-113672928D01*
X87375892Y-113625309D01*
X87471130Y-113577690D01*
X87661607Y-113530071D01*
X87756845Y-113482452D01*
X87804464Y-113434833D01*
X87852083Y-113339595D01*
X87852083Y-113244357D01*
X87804464Y-113149119D01*
X87756845Y-113101500D01*
X87661607Y-113053880D01*
X87423511Y-113053880D01*
X87280654Y-113101500D01*
X86947321Y-113053880D02*
X86709226Y-114053880D01*
X86518750Y-113339595D01*
X86328273Y-114053880D01*
X86090178Y-113053880D01*
X85185416Y-114053880D02*
X85756845Y-114053880D01*
X85471130Y-114053880D02*
X85471130Y-113053880D01*
X85566369Y-113196738D01*
X85661607Y-113291976D01*
X85756845Y-113339595D01*
X117989880Y-106989583D02*
X117513690Y-106656250D01*
X117989880Y-106418154D02*
X116989880Y-106418154D01*
X116989880Y-106799107D01*
X117037500Y-106894345D01*
X117085119Y-106941964D01*
X117180357Y-106989583D01*
X117323214Y-106989583D01*
X117418452Y-106941964D01*
X117466071Y-106894345D01*
X117513690Y-106799107D01*
X117513690Y-106418154D01*
X117323214Y-107846726D02*
X117989880Y-107846726D01*
X116942261Y-107608630D02*
X117656547Y-107370535D01*
X117656547Y-107989583D01*
X93258630Y-95083333D02*
X92782440Y-94750000D01*
X93258630Y-94511904D02*
X92258630Y-94511904D01*
X92258630Y-94892857D01*
X92306250Y-94988095D01*
X92353869Y-95035714D01*
X92449107Y-95083333D01*
X92591964Y-95083333D01*
X92687202Y-95035714D01*
X92734821Y-94988095D01*
X92782440Y-94892857D01*
X92782440Y-94511904D01*
X92258630Y-95416666D02*
X92258630Y-96035714D01*
X92639583Y-95702380D01*
X92639583Y-95845238D01*
X92687202Y-95940476D01*
X92734821Y-95988095D01*
X92830059Y-96035714D01*
X93068154Y-96035714D01*
X93163392Y-95988095D01*
X93211011Y-95940476D01*
X93258630Y-95845238D01*
X93258630Y-95559523D01*
X93211011Y-95464285D01*
X93163392Y-95416666D01*
X90208630Y-90320833D02*
X89732440Y-89987500D01*
X90208630Y-89749404D02*
X89208630Y-89749404D01*
X89208630Y-90130357D01*
X89256250Y-90225595D01*
X89303869Y-90273214D01*
X89399107Y-90320833D01*
X89541964Y-90320833D01*
X89637202Y-90273214D01*
X89684821Y-90225595D01*
X89732440Y-90130357D01*
X89732440Y-89749404D01*
X89303869Y-90701785D02*
X89256250Y-90749404D01*
X89208630Y-90844642D01*
X89208630Y-91082738D01*
X89256250Y-91177976D01*
X89303869Y-91225595D01*
X89399107Y-91273214D01*
X89494345Y-91273214D01*
X89637202Y-91225595D01*
X90208630Y-90654166D01*
X90208630Y-91273214D01*
X87827380Y-90320833D02*
X87351190Y-89987500D01*
X87827380Y-89749404D02*
X86827380Y-89749404D01*
X86827380Y-90130357D01*
X86875000Y-90225595D01*
X86922619Y-90273214D01*
X87017857Y-90320833D01*
X87160714Y-90320833D01*
X87255952Y-90273214D01*
X87303571Y-90225595D01*
X87351190Y-90130357D01*
X87351190Y-89749404D01*
X87827380Y-91273214D02*
X87827380Y-90701785D01*
X87827380Y-90987500D02*
X86827380Y-90987500D01*
X86970238Y-90892261D01*
X87065476Y-90797023D01*
X87113095Y-90701785D01*
X84298571Y-97297916D02*
X84298571Y-96964583D01*
X84822380Y-96964583D02*
X83822380Y-96964583D01*
X83822380Y-97440773D01*
X84822380Y-98345535D02*
X84822380Y-97774107D01*
X84822380Y-98059821D02*
X83822380Y-98059821D01*
X83965238Y-97964583D01*
X84060476Y-97869345D01*
X84108095Y-97774107D01*
X97289916Y-100402392D02*
X97337535Y-100450011D01*
X97480392Y-100497630D01*
X97575630Y-100497630D01*
X97718488Y-100450011D01*
X97813726Y-100354773D01*
X97861345Y-100259535D01*
X97908964Y-100069059D01*
X97908964Y-99926202D01*
X97861345Y-99735726D01*
X97813726Y-99640488D01*
X97718488Y-99545250D01*
X97575630Y-99497630D01*
X97480392Y-99497630D01*
X97337535Y-99545250D01*
X97289916Y-99592869D01*
X96956583Y-99497630D02*
X96289916Y-99497630D01*
X96718488Y-100497630D01*
X103226142Y-88955583D02*
X103273761Y-88907964D01*
X103321380Y-88765107D01*
X103321380Y-88669869D01*
X103273761Y-88527011D01*
X103178523Y-88431773D01*
X103083285Y-88384154D01*
X102892809Y-88336535D01*
X102749952Y-88336535D01*
X102559476Y-88384154D01*
X102464238Y-88431773D01*
X102369000Y-88527011D01*
X102321380Y-88669869D01*
X102321380Y-88765107D01*
X102369000Y-88907964D01*
X102416619Y-88955583D01*
X102321380Y-89812726D02*
X102321380Y-89622250D01*
X102369000Y-89527011D01*
X102416619Y-89479392D01*
X102559476Y-89384154D01*
X102749952Y-89336535D01*
X103130904Y-89336535D01*
X103226142Y-89384154D01*
X103273761Y-89431773D01*
X103321380Y-89527011D01*
X103321380Y-89717488D01*
X103273761Y-89812726D01*
X103226142Y-89860345D01*
X103130904Y-89907964D01*
X102892809Y-89907964D01*
X102797571Y-89860345D01*
X102749952Y-89812726D01*
X102702333Y-89717488D01*
X102702333Y-89527011D01*
X102749952Y-89431773D01*
X102797571Y-89384154D01*
X102892809Y-89336535D01*
X109451142Y-88955583D02*
X109498761Y-88907964D01*
X109546380Y-88765107D01*
X109546380Y-88669869D01*
X109498761Y-88527011D01*
X109403523Y-88431773D01*
X109308285Y-88384154D01*
X109117809Y-88336535D01*
X108974952Y-88336535D01*
X108784476Y-88384154D01*
X108689238Y-88431773D01*
X108594000Y-88527011D01*
X108546380Y-88669869D01*
X108546380Y-88765107D01*
X108594000Y-88907964D01*
X108641619Y-88955583D01*
X108546380Y-89860345D02*
X108546380Y-89384154D01*
X109022571Y-89336535D01*
X108974952Y-89384154D01*
X108927333Y-89479392D01*
X108927333Y-89717488D01*
X108974952Y-89812726D01*
X109022571Y-89860345D01*
X109117809Y-89907964D01*
X109355904Y-89907964D01*
X109451142Y-89860345D01*
X109498761Y-89812726D01*
X109546380Y-89717488D01*
X109546380Y-89479392D01*
X109498761Y-89384154D01*
X109451142Y-89336535D01*
X95544642Y-106195833D02*
X95592261Y-106148214D01*
X95639880Y-106005357D01*
X95639880Y-105910119D01*
X95592261Y-105767261D01*
X95497023Y-105672023D01*
X95401785Y-105624404D01*
X95211309Y-105576785D01*
X95068452Y-105576785D01*
X94877976Y-105624404D01*
X94782738Y-105672023D01*
X94687500Y-105767261D01*
X94639880Y-105910119D01*
X94639880Y-106005357D01*
X94687500Y-106148214D01*
X94735119Y-106195833D01*
X94973214Y-107052976D02*
X95639880Y-107052976D01*
X94592261Y-106814880D02*
X95306547Y-106576785D01*
X95306547Y-107195833D01*
X110624916Y-109800392D02*
X110672535Y-109848011D01*
X110815392Y-109895630D01*
X110910630Y-109895630D01*
X111053488Y-109848011D01*
X111148726Y-109752773D01*
X111196345Y-109657535D01*
X111243964Y-109467059D01*
X111243964Y-109324202D01*
X111196345Y-109133726D01*
X111148726Y-109038488D01*
X111053488Y-108943250D01*
X110910630Y-108895630D01*
X110815392Y-108895630D01*
X110672535Y-108943250D01*
X110624916Y-108990869D01*
X110291583Y-108895630D02*
X109672535Y-108895630D01*
X110005869Y-109276583D01*
X109863011Y-109276583D01*
X109767773Y-109324202D01*
X109720154Y-109371821D01*
X109672535Y-109467059D01*
X109672535Y-109705154D01*
X109720154Y-109800392D01*
X109767773Y-109848011D01*
X109863011Y-109895630D01*
X110148726Y-109895630D01*
X110243964Y-109848011D01*
X110291583Y-109800392D01*
X118307392Y-97337583D02*
X118355011Y-97289964D01*
X118402630Y-97147107D01*
X118402630Y-97051869D01*
X118355011Y-96909011D01*
X118259773Y-96813773D01*
X118164535Y-96766154D01*
X117974059Y-96718535D01*
X117831202Y-96718535D01*
X117640726Y-96766154D01*
X117545488Y-96813773D01*
X117450250Y-96909011D01*
X117402630Y-97051869D01*
X117402630Y-97147107D01*
X117450250Y-97289964D01*
X117497869Y-97337583D01*
X117497869Y-97718535D02*
X117450250Y-97766154D01*
X117402630Y-97861392D01*
X117402630Y-98099488D01*
X117450250Y-98194726D01*
X117497869Y-98242345D01*
X117593107Y-98289964D01*
X117688345Y-98289964D01*
X117831202Y-98242345D01*
X118402630Y-97670916D01*
X118402630Y-98289964D01*
X99638392Y-95083333D02*
X99686011Y-95035714D01*
X99733630Y-94892857D01*
X99733630Y-94797619D01*
X99686011Y-94654761D01*
X99590773Y-94559523D01*
X99495535Y-94511904D01*
X99305059Y-94464285D01*
X99162202Y-94464285D01*
X98971726Y-94511904D01*
X98876488Y-94559523D01*
X98781250Y-94654761D01*
X98733630Y-94797619D01*
X98733630Y-94892857D01*
X98781250Y-95035714D01*
X98828869Y-95083333D01*
X99733630Y-96035714D02*
X99733630Y-95464285D01*
X99733630Y-95750000D02*
X98733630Y-95750000D01*
X98876488Y-95654761D01*
X98971726Y-95559523D01*
X99019345Y-95464285D01*
X103846130Y-123999702D02*
X102846130Y-123999702D01*
X102846130Y-124237797D01*
X102893750Y-124380654D01*
X102988988Y-124475892D01*
X103084226Y-124523511D01*
X103274702Y-124571130D01*
X103417559Y-124571130D01*
X103608035Y-124523511D01*
X103703273Y-124475892D01*
X103798511Y-124380654D01*
X103846130Y-124237797D01*
X103846130Y-123999702D01*
X103941369Y-124761607D02*
X103941369Y-125523511D01*
X102846130Y-125952083D02*
X102846130Y-126047321D01*
X102893750Y-126142559D01*
X102941369Y-126190178D01*
X103036607Y-126237797D01*
X103227083Y-126285416D01*
X103465178Y-126285416D01*
X103655654Y-126237797D01*
X103750892Y-126190178D01*
X103798511Y-126142559D01*
X103846130Y-126047321D01*
X103846130Y-125952083D01*
X103798511Y-125856845D01*
X103750892Y-125809226D01*
X103655654Y-125761607D01*
X103465178Y-125713988D01*
X103227083Y-125713988D01*
X103036607Y-125761607D01*
X102941369Y-125809226D01*
X102893750Y-125856845D01*
X102846130Y-125952083D01*
X122896130Y-123999702D02*
X121896130Y-123999702D01*
X121896130Y-124237797D01*
X121943750Y-124380654D01*
X122038988Y-124475892D01*
X122134226Y-124523511D01*
X122324702Y-124571130D01*
X122467559Y-124571130D01*
X122658035Y-124523511D01*
X122753273Y-124475892D01*
X122848511Y-124380654D01*
X122896130Y-124237797D01*
X122896130Y-123999702D01*
X122991369Y-124761607D02*
X122991369Y-125523511D01*
X122896130Y-126285416D02*
X122896130Y-125713988D01*
X122896130Y-125999702D02*
X121896130Y-125999702D01*
X122038988Y-125904464D01*
X122134226Y-125809226D01*
X122181845Y-125713988D01*
X141946130Y-123999702D02*
X140946130Y-123999702D01*
X140946130Y-124237797D01*
X140993750Y-124380654D01*
X141088988Y-124475892D01*
X141184226Y-124523511D01*
X141374702Y-124571130D01*
X141517559Y-124571130D01*
X141708035Y-124523511D01*
X141803273Y-124475892D01*
X141898511Y-124380654D01*
X141946130Y-124237797D01*
X141946130Y-123999702D01*
X142041369Y-124761607D02*
X142041369Y-125523511D01*
X141041369Y-125713988D02*
X140993750Y-125761607D01*
X140946130Y-125856845D01*
X140946130Y-126094940D01*
X140993750Y-126190178D01*
X141041369Y-126237797D01*
X141136607Y-126285416D01*
X141231845Y-126285416D01*
X141374702Y-126237797D01*
X141946130Y-125666369D01*
X141946130Y-126285416D01*
X160996130Y-123999702D02*
X159996130Y-123999702D01*
X159996130Y-124237797D01*
X160043750Y-124380654D01*
X160138988Y-124475892D01*
X160234226Y-124523511D01*
X160424702Y-124571130D01*
X160567559Y-124571130D01*
X160758035Y-124523511D01*
X160853273Y-124475892D01*
X160948511Y-124380654D01*
X160996130Y-124237797D01*
X160996130Y-123999702D01*
X161091369Y-124761607D02*
X161091369Y-125523511D01*
X159996130Y-125666369D02*
X159996130Y-126285416D01*
X160377083Y-125952083D01*
X160377083Y-126094940D01*
X160424702Y-126190178D01*
X160472321Y-126237797D01*
X160567559Y-126285416D01*
X160805654Y-126285416D01*
X160900892Y-126237797D01*
X160948511Y-126190178D01*
X160996130Y-126094940D01*
X160996130Y-125809226D01*
X160948511Y-125713988D01*
X160900892Y-125666369D01*
X180046130Y-123999702D02*
X179046130Y-123999702D01*
X179046130Y-124237797D01*
X179093750Y-124380654D01*
X179188988Y-124475892D01*
X179284226Y-124523511D01*
X179474702Y-124571130D01*
X179617559Y-124571130D01*
X179808035Y-124523511D01*
X179903273Y-124475892D01*
X179998511Y-124380654D01*
X180046130Y-124237797D01*
X180046130Y-123999702D01*
X180141369Y-124761607D02*
X180141369Y-125523511D01*
X179379464Y-126190178D02*
X180046130Y-126190178D01*
X178998511Y-125952083D02*
X179712797Y-125713988D01*
X179712797Y-126333035D01*
X199096130Y-123999702D02*
X198096130Y-123999702D01*
X198096130Y-124237797D01*
X198143750Y-124380654D01*
X198238988Y-124475892D01*
X198334226Y-124523511D01*
X198524702Y-124571130D01*
X198667559Y-124571130D01*
X198858035Y-124523511D01*
X198953273Y-124475892D01*
X199048511Y-124380654D01*
X199096130Y-124237797D01*
X199096130Y-123999702D01*
X199191369Y-124761607D02*
X199191369Y-125523511D01*
X198096130Y-126237797D02*
X198096130Y-125761607D01*
X198572321Y-125713988D01*
X198524702Y-125761607D01*
X198477083Y-125856845D01*
X198477083Y-126094940D01*
X198524702Y-126190178D01*
X198572321Y-126237797D01*
X198667559Y-126285416D01*
X198905654Y-126285416D01*
X199000892Y-126237797D01*
X199048511Y-126190178D01*
X199096130Y-126094940D01*
X199096130Y-125856845D01*
X199048511Y-125761607D01*
X199000892Y-125713988D01*
X218146130Y-123999702D02*
X217146130Y-123999702D01*
X217146130Y-124237797D01*
X217193750Y-124380654D01*
X217288988Y-124475892D01*
X217384226Y-124523511D01*
X217574702Y-124571130D01*
X217717559Y-124571130D01*
X217908035Y-124523511D01*
X218003273Y-124475892D01*
X218098511Y-124380654D01*
X218146130Y-124237797D01*
X218146130Y-123999702D01*
X218241369Y-124761607D02*
X218241369Y-125523511D01*
X217146130Y-126190178D02*
X217146130Y-125999702D01*
X217193750Y-125904464D01*
X217241369Y-125856845D01*
X217384226Y-125761607D01*
X217574702Y-125713988D01*
X217955654Y-125713988D01*
X218050892Y-125761607D01*
X218098511Y-125809226D01*
X218146130Y-125904464D01*
X218146130Y-126094940D01*
X218098511Y-126190178D01*
X218050892Y-126237797D01*
X217955654Y-126285416D01*
X217717559Y-126285416D01*
X217622321Y-126237797D01*
X217574702Y-126190178D01*
X217527083Y-126094940D01*
X217527083Y-125904464D01*
X217574702Y-125809226D01*
X217622321Y-125761607D01*
X217717559Y-125713988D01*
X237196130Y-123999702D02*
X236196130Y-123999702D01*
X236196130Y-124237797D01*
X236243750Y-124380654D01*
X236338988Y-124475892D01*
X236434226Y-124523511D01*
X236624702Y-124571130D01*
X236767559Y-124571130D01*
X236958035Y-124523511D01*
X237053273Y-124475892D01*
X237148511Y-124380654D01*
X237196130Y-124237797D01*
X237196130Y-123999702D01*
X237291369Y-124761607D02*
X237291369Y-125523511D01*
X236196130Y-125666369D02*
X236196130Y-126333035D01*
X237196130Y-125904464D01*
X256246130Y-123999702D02*
X255246130Y-123999702D01*
X255246130Y-124237797D01*
X255293750Y-124380654D01*
X255388988Y-124475892D01*
X255484226Y-124523511D01*
X255674702Y-124571130D01*
X255817559Y-124571130D01*
X256008035Y-124523511D01*
X256103273Y-124475892D01*
X256198511Y-124380654D01*
X256246130Y-124237797D01*
X256246130Y-123999702D01*
X256341369Y-124761607D02*
X256341369Y-125523511D01*
X255674702Y-125904464D02*
X255627083Y-125809226D01*
X255579464Y-125761607D01*
X255484226Y-125713988D01*
X255436607Y-125713988D01*
X255341369Y-125761607D01*
X255293750Y-125809226D01*
X255246130Y-125904464D01*
X255246130Y-126094940D01*
X255293750Y-126190178D01*
X255341369Y-126237797D01*
X255436607Y-126285416D01*
X255484226Y-126285416D01*
X255579464Y-126237797D01*
X255627083Y-126190178D01*
X255674702Y-126094940D01*
X255674702Y-125904464D01*
X255722321Y-125809226D01*
X255769940Y-125761607D01*
X255865178Y-125713988D01*
X256055654Y-125713988D01*
X256150892Y-125761607D01*
X256198511Y-125809226D01*
X256246130Y-125904464D01*
X256246130Y-126094940D01*
X256198511Y-126190178D01*
X256150892Y-126237797D01*
X256055654Y-126285416D01*
X255865178Y-126285416D01*
X255769940Y-126237797D01*
X255722321Y-126190178D01*
X255674702Y-126094940D01*
X275296130Y-123999702D02*
X274296130Y-123999702D01*
X274296130Y-124237797D01*
X274343750Y-124380654D01*
X274438988Y-124475892D01*
X274534226Y-124523511D01*
X274724702Y-124571130D01*
X274867559Y-124571130D01*
X275058035Y-124523511D01*
X275153273Y-124475892D01*
X275248511Y-124380654D01*
X275296130Y-124237797D01*
X275296130Y-123999702D01*
X275391369Y-124761607D02*
X275391369Y-125523511D01*
X275296130Y-125809226D02*
X275296130Y-125999702D01*
X275248511Y-126094940D01*
X275200892Y-126142559D01*
X275058035Y-126237797D01*
X274867559Y-126285416D01*
X274486607Y-126285416D01*
X274391369Y-126237797D01*
X274343750Y-126190178D01*
X274296130Y-126094940D01*
X274296130Y-125904464D01*
X274343750Y-125809226D01*
X274391369Y-125761607D01*
X274486607Y-125713988D01*
X274724702Y-125713988D01*
X274819940Y-125761607D01*
X274867559Y-125809226D01*
X274915178Y-125904464D01*
X274915178Y-126094940D01*
X274867559Y-126190178D01*
X274819940Y-126237797D01*
X274724702Y-126285416D01*
X294346130Y-123523511D02*
X293346130Y-123523511D01*
X293346130Y-123761607D01*
X293393750Y-123904464D01*
X293488988Y-123999702D01*
X293584226Y-124047321D01*
X293774702Y-124094940D01*
X293917559Y-124094940D01*
X294108035Y-124047321D01*
X294203273Y-123999702D01*
X294298511Y-123904464D01*
X294346130Y-123761607D01*
X294346130Y-123523511D01*
X294441369Y-124285416D02*
X294441369Y-125047321D01*
X294346130Y-125809226D02*
X294346130Y-125237797D01*
X294346130Y-125523511D02*
X293346130Y-125523511D01*
X293488988Y-125428273D01*
X293584226Y-125333035D01*
X293631845Y-125237797D01*
X293346130Y-126428273D02*
X293346130Y-126523511D01*
X293393750Y-126618750D01*
X293441369Y-126666369D01*
X293536607Y-126713988D01*
X293727083Y-126761607D01*
X293965178Y-126761607D01*
X294155654Y-126713988D01*
X294250892Y-126666369D01*
X294298511Y-126618750D01*
X294346130Y-126523511D01*
X294346130Y-126428273D01*
X294298511Y-126333035D01*
X294250892Y-126285416D01*
X294155654Y-126237797D01*
X293965178Y-126190178D01*
X293727083Y-126190178D01*
X293536607Y-126237797D01*
X293441369Y-126285416D01*
X293393750Y-126333035D01*
X293346130Y-126428273D01*
X313396130Y-123523511D02*
X312396130Y-123523511D01*
X312396130Y-123761607D01*
X312443750Y-123904464D01*
X312538988Y-123999702D01*
X312634226Y-124047321D01*
X312824702Y-124094940D01*
X312967559Y-124094940D01*
X313158035Y-124047321D01*
X313253273Y-123999702D01*
X313348511Y-123904464D01*
X313396130Y-123761607D01*
X313396130Y-123523511D01*
X313491369Y-124285416D02*
X313491369Y-125047321D01*
X313396130Y-125809226D02*
X313396130Y-125237797D01*
X313396130Y-125523511D02*
X312396130Y-125523511D01*
X312538988Y-125428273D01*
X312634226Y-125333035D01*
X312681845Y-125237797D01*
X313396130Y-126761607D02*
X313396130Y-126190178D01*
X313396130Y-126475892D02*
X312396130Y-126475892D01*
X312538988Y-126380654D01*
X312634226Y-126285416D01*
X312681845Y-126190178D01*
X332446130Y-123523511D02*
X331446130Y-123523511D01*
X331446130Y-123761607D01*
X331493750Y-123904464D01*
X331588988Y-123999702D01*
X331684226Y-124047321D01*
X331874702Y-124094940D01*
X332017559Y-124094940D01*
X332208035Y-124047321D01*
X332303273Y-123999702D01*
X332398511Y-123904464D01*
X332446130Y-123761607D01*
X332446130Y-123523511D01*
X332541369Y-124285416D02*
X332541369Y-125047321D01*
X332446130Y-125809226D02*
X332446130Y-125237797D01*
X332446130Y-125523511D02*
X331446130Y-125523511D01*
X331588988Y-125428273D01*
X331684226Y-125333035D01*
X331731845Y-125237797D01*
X331541369Y-126190178D02*
X331493750Y-126237797D01*
X331446130Y-126333035D01*
X331446130Y-126571130D01*
X331493750Y-126666369D01*
X331541369Y-126713988D01*
X331636607Y-126761607D01*
X331731845Y-126761607D01*
X331874702Y-126713988D01*
X332446130Y-126142559D01*
X332446130Y-126761607D01*
X370546130Y-123523511D02*
X369546130Y-123523511D01*
X369546130Y-123761607D01*
X369593750Y-123904464D01*
X369688988Y-123999702D01*
X369784226Y-124047321D01*
X369974702Y-124094940D01*
X370117559Y-124094940D01*
X370308035Y-124047321D01*
X370403273Y-123999702D01*
X370498511Y-123904464D01*
X370546130Y-123761607D01*
X370546130Y-123523511D01*
X370641369Y-124285416D02*
X370641369Y-125047321D01*
X370546130Y-125809226D02*
X370546130Y-125237797D01*
X370546130Y-125523511D02*
X369546130Y-125523511D01*
X369688988Y-125428273D01*
X369784226Y-125333035D01*
X369831845Y-125237797D01*
X369546130Y-126142559D02*
X369546130Y-126761607D01*
X369927083Y-126428273D01*
X369927083Y-126571130D01*
X369974702Y-126666369D01*
X370022321Y-126713988D01*
X370117559Y-126761607D01*
X370355654Y-126761607D01*
X370450892Y-126713988D01*
X370498511Y-126666369D01*
X370546130Y-126571130D01*
X370546130Y-126285416D01*
X370498511Y-126190178D01*
X370450892Y-126142559D01*
X113371130Y-142573511D02*
X112371130Y-142573511D01*
X112371130Y-142811607D01*
X112418750Y-142954464D01*
X112513988Y-143049702D01*
X112609226Y-143097321D01*
X112799702Y-143144940D01*
X112942559Y-143144940D01*
X113133035Y-143097321D01*
X113228273Y-143049702D01*
X113323511Y-142954464D01*
X113371130Y-142811607D01*
X113371130Y-142573511D01*
X113466369Y-143335416D02*
X113466369Y-144097321D01*
X113371130Y-144859226D02*
X113371130Y-144287797D01*
X113371130Y-144573511D02*
X112371130Y-144573511D01*
X112513988Y-144478273D01*
X112609226Y-144383035D01*
X112656845Y-144287797D01*
X112704464Y-145716369D02*
X113371130Y-145716369D01*
X112323511Y-145478273D02*
X113037797Y-145240178D01*
X113037797Y-145859226D01*
X132421130Y-142573511D02*
X131421130Y-142573511D01*
X131421130Y-142811607D01*
X131468750Y-142954464D01*
X131563988Y-143049702D01*
X131659226Y-143097321D01*
X131849702Y-143144940D01*
X131992559Y-143144940D01*
X132183035Y-143097321D01*
X132278273Y-143049702D01*
X132373511Y-142954464D01*
X132421130Y-142811607D01*
X132421130Y-142573511D01*
X132516369Y-143335416D02*
X132516369Y-144097321D01*
X132421130Y-144859226D02*
X132421130Y-144287797D01*
X132421130Y-144573511D02*
X131421130Y-144573511D01*
X131563988Y-144478273D01*
X131659226Y-144383035D01*
X131706845Y-144287797D01*
X131421130Y-145763988D02*
X131421130Y-145287797D01*
X131897321Y-145240178D01*
X131849702Y-145287797D01*
X131802083Y-145383035D01*
X131802083Y-145621130D01*
X131849702Y-145716369D01*
X131897321Y-145763988D01*
X131992559Y-145811607D01*
X132230654Y-145811607D01*
X132325892Y-145763988D01*
X132373511Y-145716369D01*
X132421130Y-145621130D01*
X132421130Y-145383035D01*
X132373511Y-145287797D01*
X132325892Y-145240178D01*
X151471130Y-142573511D02*
X150471130Y-142573511D01*
X150471130Y-142811607D01*
X150518750Y-142954464D01*
X150613988Y-143049702D01*
X150709226Y-143097321D01*
X150899702Y-143144940D01*
X151042559Y-143144940D01*
X151233035Y-143097321D01*
X151328273Y-143049702D01*
X151423511Y-142954464D01*
X151471130Y-142811607D01*
X151471130Y-142573511D01*
X151566369Y-143335416D02*
X151566369Y-144097321D01*
X151471130Y-144859226D02*
X151471130Y-144287797D01*
X151471130Y-144573511D02*
X150471130Y-144573511D01*
X150613988Y-144478273D01*
X150709226Y-144383035D01*
X150756845Y-144287797D01*
X150471130Y-145716369D02*
X150471130Y-145525892D01*
X150518750Y-145430654D01*
X150566369Y-145383035D01*
X150709226Y-145287797D01*
X150899702Y-145240178D01*
X151280654Y-145240178D01*
X151375892Y-145287797D01*
X151423511Y-145335416D01*
X151471130Y-145430654D01*
X151471130Y-145621130D01*
X151423511Y-145716369D01*
X151375892Y-145763988D01*
X151280654Y-145811607D01*
X151042559Y-145811607D01*
X150947321Y-145763988D01*
X150899702Y-145716369D01*
X150852083Y-145621130D01*
X150852083Y-145430654D01*
X150899702Y-145335416D01*
X150947321Y-145287797D01*
X151042559Y-145240178D01*
X170521130Y-142573511D02*
X169521130Y-142573511D01*
X169521130Y-142811607D01*
X169568750Y-142954464D01*
X169663988Y-143049702D01*
X169759226Y-143097321D01*
X169949702Y-143144940D01*
X170092559Y-143144940D01*
X170283035Y-143097321D01*
X170378273Y-143049702D01*
X170473511Y-142954464D01*
X170521130Y-142811607D01*
X170521130Y-142573511D01*
X170616369Y-143335416D02*
X170616369Y-144097321D01*
X170521130Y-144859226D02*
X170521130Y-144287797D01*
X170521130Y-144573511D02*
X169521130Y-144573511D01*
X169663988Y-144478273D01*
X169759226Y-144383035D01*
X169806845Y-144287797D01*
X169521130Y-145192559D02*
X169521130Y-145859226D01*
X170521130Y-145430654D01*
X189571130Y-142573511D02*
X188571130Y-142573511D01*
X188571130Y-142811607D01*
X188618750Y-142954464D01*
X188713988Y-143049702D01*
X188809226Y-143097321D01*
X188999702Y-143144940D01*
X189142559Y-143144940D01*
X189333035Y-143097321D01*
X189428273Y-143049702D01*
X189523511Y-142954464D01*
X189571130Y-142811607D01*
X189571130Y-142573511D01*
X189666369Y-143335416D02*
X189666369Y-144097321D01*
X189571130Y-144859226D02*
X189571130Y-144287797D01*
X189571130Y-144573511D02*
X188571130Y-144573511D01*
X188713988Y-144478273D01*
X188809226Y-144383035D01*
X188856845Y-144287797D01*
X188999702Y-145430654D02*
X188952083Y-145335416D01*
X188904464Y-145287797D01*
X188809226Y-145240178D01*
X188761607Y-145240178D01*
X188666369Y-145287797D01*
X188618750Y-145335416D01*
X188571130Y-145430654D01*
X188571130Y-145621130D01*
X188618750Y-145716369D01*
X188666369Y-145763988D01*
X188761607Y-145811607D01*
X188809226Y-145811607D01*
X188904464Y-145763988D01*
X188952083Y-145716369D01*
X188999702Y-145621130D01*
X188999702Y-145430654D01*
X189047321Y-145335416D01*
X189094940Y-145287797D01*
X189190178Y-145240178D01*
X189380654Y-145240178D01*
X189475892Y-145287797D01*
X189523511Y-145335416D01*
X189571130Y-145430654D01*
X189571130Y-145621130D01*
X189523511Y-145716369D01*
X189475892Y-145763988D01*
X189380654Y-145811607D01*
X189190178Y-145811607D01*
X189094940Y-145763988D01*
X189047321Y-145716369D01*
X188999702Y-145621130D01*
X208621130Y-142573511D02*
X207621130Y-142573511D01*
X207621130Y-142811607D01*
X207668750Y-142954464D01*
X207763988Y-143049702D01*
X207859226Y-143097321D01*
X208049702Y-143144940D01*
X208192559Y-143144940D01*
X208383035Y-143097321D01*
X208478273Y-143049702D01*
X208573511Y-142954464D01*
X208621130Y-142811607D01*
X208621130Y-142573511D01*
X208716369Y-143335416D02*
X208716369Y-144097321D01*
X208621130Y-144859226D02*
X208621130Y-144287797D01*
X208621130Y-144573511D02*
X207621130Y-144573511D01*
X207763988Y-144478273D01*
X207859226Y-144383035D01*
X207906845Y-144287797D01*
X208621130Y-145335416D02*
X208621130Y-145525892D01*
X208573511Y-145621130D01*
X208525892Y-145668750D01*
X208383035Y-145763988D01*
X208192559Y-145811607D01*
X207811607Y-145811607D01*
X207716369Y-145763988D01*
X207668750Y-145716369D01*
X207621130Y-145621130D01*
X207621130Y-145430654D01*
X207668750Y-145335416D01*
X207716369Y-145287797D01*
X207811607Y-145240178D01*
X208049702Y-145240178D01*
X208144940Y-145287797D01*
X208192559Y-145335416D01*
X208240178Y-145430654D01*
X208240178Y-145621130D01*
X208192559Y-145716369D01*
X208144940Y-145763988D01*
X208049702Y-145811607D01*
X227671130Y-142573511D02*
X226671130Y-142573511D01*
X226671130Y-142811607D01*
X226718750Y-142954464D01*
X226813988Y-143049702D01*
X226909226Y-143097321D01*
X227099702Y-143144940D01*
X227242559Y-143144940D01*
X227433035Y-143097321D01*
X227528273Y-143049702D01*
X227623511Y-142954464D01*
X227671130Y-142811607D01*
X227671130Y-142573511D01*
X227766369Y-143335416D02*
X227766369Y-144097321D01*
X226766369Y-144287797D02*
X226718750Y-144335416D01*
X226671130Y-144430654D01*
X226671130Y-144668750D01*
X226718750Y-144763988D01*
X226766369Y-144811607D01*
X226861607Y-144859226D01*
X226956845Y-144859226D01*
X227099702Y-144811607D01*
X227671130Y-144240178D01*
X227671130Y-144859226D01*
X226671130Y-145478273D02*
X226671130Y-145573511D01*
X226718750Y-145668750D01*
X226766369Y-145716369D01*
X226861607Y-145763988D01*
X227052083Y-145811607D01*
X227290178Y-145811607D01*
X227480654Y-145763988D01*
X227575892Y-145716369D01*
X227623511Y-145668750D01*
X227671130Y-145573511D01*
X227671130Y-145478273D01*
X227623511Y-145383035D01*
X227575892Y-145335416D01*
X227480654Y-145287797D01*
X227290178Y-145240178D01*
X227052083Y-145240178D01*
X226861607Y-145287797D01*
X226766369Y-145335416D01*
X226718750Y-145383035D01*
X226671130Y-145478273D01*
X246721130Y-142573511D02*
X245721130Y-142573511D01*
X245721130Y-142811607D01*
X245768750Y-142954464D01*
X245863988Y-143049702D01*
X245959226Y-143097321D01*
X246149702Y-143144940D01*
X246292559Y-143144940D01*
X246483035Y-143097321D01*
X246578273Y-143049702D01*
X246673511Y-142954464D01*
X246721130Y-142811607D01*
X246721130Y-142573511D01*
X246816369Y-143335416D02*
X246816369Y-144097321D01*
X245816369Y-144287797D02*
X245768750Y-144335416D01*
X245721130Y-144430654D01*
X245721130Y-144668750D01*
X245768750Y-144763988D01*
X245816369Y-144811607D01*
X245911607Y-144859226D01*
X246006845Y-144859226D01*
X246149702Y-144811607D01*
X246721130Y-144240178D01*
X246721130Y-144859226D01*
X246721130Y-145811607D02*
X246721130Y-145240178D01*
X246721130Y-145525892D02*
X245721130Y-145525892D01*
X245863988Y-145430654D01*
X245959226Y-145335416D01*
X246006845Y-145240178D01*
X265771130Y-142573511D02*
X264771130Y-142573511D01*
X264771130Y-142811607D01*
X264818750Y-142954464D01*
X264913988Y-143049702D01*
X265009226Y-143097321D01*
X265199702Y-143144940D01*
X265342559Y-143144940D01*
X265533035Y-143097321D01*
X265628273Y-143049702D01*
X265723511Y-142954464D01*
X265771130Y-142811607D01*
X265771130Y-142573511D01*
X265866369Y-143335416D02*
X265866369Y-144097321D01*
X264866369Y-144287797D02*
X264818750Y-144335416D01*
X264771130Y-144430654D01*
X264771130Y-144668750D01*
X264818750Y-144763988D01*
X264866369Y-144811607D01*
X264961607Y-144859226D01*
X265056845Y-144859226D01*
X265199702Y-144811607D01*
X265771130Y-144240178D01*
X265771130Y-144859226D01*
X264866369Y-145240178D02*
X264818750Y-145287797D01*
X264771130Y-145383035D01*
X264771130Y-145621130D01*
X264818750Y-145716369D01*
X264866369Y-145763988D01*
X264961607Y-145811607D01*
X265056845Y-145811607D01*
X265199702Y-145763988D01*
X265771130Y-145192559D01*
X265771130Y-145811607D01*
X284821130Y-142573511D02*
X283821130Y-142573511D01*
X283821130Y-142811607D01*
X283868750Y-142954464D01*
X283963988Y-143049702D01*
X284059226Y-143097321D01*
X284249702Y-143144940D01*
X284392559Y-143144940D01*
X284583035Y-143097321D01*
X284678273Y-143049702D01*
X284773511Y-142954464D01*
X284821130Y-142811607D01*
X284821130Y-142573511D01*
X284916369Y-143335416D02*
X284916369Y-144097321D01*
X283916369Y-144287797D02*
X283868750Y-144335416D01*
X283821130Y-144430654D01*
X283821130Y-144668750D01*
X283868750Y-144763988D01*
X283916369Y-144811607D01*
X284011607Y-144859226D01*
X284106845Y-144859226D01*
X284249702Y-144811607D01*
X284821130Y-144240178D01*
X284821130Y-144859226D01*
X283821130Y-145192559D02*
X283821130Y-145811607D01*
X284202083Y-145478273D01*
X284202083Y-145621130D01*
X284249702Y-145716369D01*
X284297321Y-145763988D01*
X284392559Y-145811607D01*
X284630654Y-145811607D01*
X284725892Y-145763988D01*
X284773511Y-145716369D01*
X284821130Y-145621130D01*
X284821130Y-145335416D01*
X284773511Y-145240178D01*
X284725892Y-145192559D01*
X303871130Y-142573511D02*
X302871130Y-142573511D01*
X302871130Y-142811607D01*
X302918750Y-142954464D01*
X303013988Y-143049702D01*
X303109226Y-143097321D01*
X303299702Y-143144940D01*
X303442559Y-143144940D01*
X303633035Y-143097321D01*
X303728273Y-143049702D01*
X303823511Y-142954464D01*
X303871130Y-142811607D01*
X303871130Y-142573511D01*
X303966369Y-143335416D02*
X303966369Y-144097321D01*
X302966369Y-144287797D02*
X302918750Y-144335416D01*
X302871130Y-144430654D01*
X302871130Y-144668750D01*
X302918750Y-144763988D01*
X302966369Y-144811607D01*
X303061607Y-144859226D01*
X303156845Y-144859226D01*
X303299702Y-144811607D01*
X303871130Y-144240178D01*
X303871130Y-144859226D01*
X303204464Y-145716369D02*
X303871130Y-145716369D01*
X302823511Y-145478273D02*
X303537797Y-145240178D01*
X303537797Y-145859226D01*
X322921130Y-142573511D02*
X321921130Y-142573511D01*
X321921130Y-142811607D01*
X321968750Y-142954464D01*
X322063988Y-143049702D01*
X322159226Y-143097321D01*
X322349702Y-143144940D01*
X322492559Y-143144940D01*
X322683035Y-143097321D01*
X322778273Y-143049702D01*
X322873511Y-142954464D01*
X322921130Y-142811607D01*
X322921130Y-142573511D01*
X323016369Y-143335416D02*
X323016369Y-144097321D01*
X322016369Y-144287797D02*
X321968750Y-144335416D01*
X321921130Y-144430654D01*
X321921130Y-144668750D01*
X321968750Y-144763988D01*
X322016369Y-144811607D01*
X322111607Y-144859226D01*
X322206845Y-144859226D01*
X322349702Y-144811607D01*
X322921130Y-144240178D01*
X322921130Y-144859226D01*
X321921130Y-145763988D02*
X321921130Y-145287797D01*
X322397321Y-145240178D01*
X322349702Y-145287797D01*
X322302083Y-145383035D01*
X322302083Y-145621130D01*
X322349702Y-145716369D01*
X322397321Y-145763988D01*
X322492559Y-145811607D01*
X322730654Y-145811607D01*
X322825892Y-145763988D01*
X322873511Y-145716369D01*
X322921130Y-145621130D01*
X322921130Y-145383035D01*
X322873511Y-145287797D01*
X322825892Y-145240178D01*
X341971130Y-142573511D02*
X340971130Y-142573511D01*
X340971130Y-142811607D01*
X341018750Y-142954464D01*
X341113988Y-143049702D01*
X341209226Y-143097321D01*
X341399702Y-143144940D01*
X341542559Y-143144940D01*
X341733035Y-143097321D01*
X341828273Y-143049702D01*
X341923511Y-142954464D01*
X341971130Y-142811607D01*
X341971130Y-142573511D01*
X342066369Y-143335416D02*
X342066369Y-144097321D01*
X341066369Y-144287797D02*
X341018750Y-144335416D01*
X340971130Y-144430654D01*
X340971130Y-144668750D01*
X341018750Y-144763988D01*
X341066369Y-144811607D01*
X341161607Y-144859226D01*
X341256845Y-144859226D01*
X341399702Y-144811607D01*
X341971130Y-144240178D01*
X341971130Y-144859226D01*
X340971130Y-145716369D02*
X340971130Y-145525892D01*
X341018750Y-145430654D01*
X341066369Y-145383035D01*
X341209226Y-145287797D01*
X341399702Y-145240178D01*
X341780654Y-145240178D01*
X341875892Y-145287797D01*
X341923511Y-145335416D01*
X341971130Y-145430654D01*
X341971130Y-145621130D01*
X341923511Y-145716369D01*
X341875892Y-145763988D01*
X341780654Y-145811607D01*
X341542559Y-145811607D01*
X341447321Y-145763988D01*
X341399702Y-145716369D01*
X341352083Y-145621130D01*
X341352083Y-145430654D01*
X341399702Y-145335416D01*
X341447321Y-145287797D01*
X341542559Y-145240178D01*
X370546130Y-142573511D02*
X369546130Y-142573511D01*
X369546130Y-142811607D01*
X369593750Y-142954464D01*
X369688988Y-143049702D01*
X369784226Y-143097321D01*
X369974702Y-143144940D01*
X370117559Y-143144940D01*
X370308035Y-143097321D01*
X370403273Y-143049702D01*
X370498511Y-142954464D01*
X370546130Y-142811607D01*
X370546130Y-142573511D01*
X370641369Y-143335416D02*
X370641369Y-144097321D01*
X369641369Y-144287797D02*
X369593750Y-144335416D01*
X369546130Y-144430654D01*
X369546130Y-144668750D01*
X369593750Y-144763988D01*
X369641369Y-144811607D01*
X369736607Y-144859226D01*
X369831845Y-144859226D01*
X369974702Y-144811607D01*
X370546130Y-144240178D01*
X370546130Y-144859226D01*
X369546130Y-145192559D02*
X369546130Y-145859226D01*
X370546130Y-145430654D01*
X108608630Y-161623511D02*
X107608630Y-161623511D01*
X107608630Y-161861607D01*
X107656250Y-162004464D01*
X107751488Y-162099702D01*
X107846726Y-162147321D01*
X108037202Y-162194940D01*
X108180059Y-162194940D01*
X108370535Y-162147321D01*
X108465773Y-162099702D01*
X108561011Y-162004464D01*
X108608630Y-161861607D01*
X108608630Y-161623511D01*
X108703869Y-162385416D02*
X108703869Y-163147321D01*
X107703869Y-163337797D02*
X107656250Y-163385416D01*
X107608630Y-163480654D01*
X107608630Y-163718750D01*
X107656250Y-163813988D01*
X107703869Y-163861607D01*
X107799107Y-163909226D01*
X107894345Y-163909226D01*
X108037202Y-163861607D01*
X108608630Y-163290178D01*
X108608630Y-163909226D01*
X108037202Y-164480654D02*
X107989583Y-164385416D01*
X107941964Y-164337797D01*
X107846726Y-164290178D01*
X107799107Y-164290178D01*
X107703869Y-164337797D01*
X107656250Y-164385416D01*
X107608630Y-164480654D01*
X107608630Y-164671130D01*
X107656250Y-164766369D01*
X107703869Y-164813988D01*
X107799107Y-164861607D01*
X107846726Y-164861607D01*
X107941964Y-164813988D01*
X107989583Y-164766369D01*
X108037202Y-164671130D01*
X108037202Y-164480654D01*
X108084821Y-164385416D01*
X108132440Y-164337797D01*
X108227678Y-164290178D01*
X108418154Y-164290178D01*
X108513392Y-164337797D01*
X108561011Y-164385416D01*
X108608630Y-164480654D01*
X108608630Y-164671130D01*
X108561011Y-164766369D01*
X108513392Y-164813988D01*
X108418154Y-164861607D01*
X108227678Y-164861607D01*
X108132440Y-164813988D01*
X108084821Y-164766369D01*
X108037202Y-164671130D01*
X137183630Y-161623511D02*
X136183630Y-161623511D01*
X136183630Y-161861607D01*
X136231250Y-162004464D01*
X136326488Y-162099702D01*
X136421726Y-162147321D01*
X136612202Y-162194940D01*
X136755059Y-162194940D01*
X136945535Y-162147321D01*
X137040773Y-162099702D01*
X137136011Y-162004464D01*
X137183630Y-161861607D01*
X137183630Y-161623511D01*
X137278869Y-162385416D02*
X137278869Y-163147321D01*
X136278869Y-163337797D02*
X136231250Y-163385416D01*
X136183630Y-163480654D01*
X136183630Y-163718750D01*
X136231250Y-163813988D01*
X136278869Y-163861607D01*
X136374107Y-163909226D01*
X136469345Y-163909226D01*
X136612202Y-163861607D01*
X137183630Y-163290178D01*
X137183630Y-163909226D01*
X137183630Y-164385416D02*
X137183630Y-164575892D01*
X137136011Y-164671130D01*
X137088392Y-164718750D01*
X136945535Y-164813988D01*
X136755059Y-164861607D01*
X136374107Y-164861607D01*
X136278869Y-164813988D01*
X136231250Y-164766369D01*
X136183630Y-164671130D01*
X136183630Y-164480654D01*
X136231250Y-164385416D01*
X136278869Y-164337797D01*
X136374107Y-164290178D01*
X136612202Y-164290178D01*
X136707440Y-164337797D01*
X136755059Y-164385416D01*
X136802678Y-164480654D01*
X136802678Y-164671130D01*
X136755059Y-164766369D01*
X136707440Y-164813988D01*
X136612202Y-164861607D01*
X156233630Y-161623511D02*
X155233630Y-161623511D01*
X155233630Y-161861607D01*
X155281250Y-162004464D01*
X155376488Y-162099702D01*
X155471726Y-162147321D01*
X155662202Y-162194940D01*
X155805059Y-162194940D01*
X155995535Y-162147321D01*
X156090773Y-162099702D01*
X156186011Y-162004464D01*
X156233630Y-161861607D01*
X156233630Y-161623511D01*
X156328869Y-162385416D02*
X156328869Y-163147321D01*
X155233630Y-163290178D02*
X155233630Y-163909226D01*
X155614583Y-163575892D01*
X155614583Y-163718750D01*
X155662202Y-163813988D01*
X155709821Y-163861607D01*
X155805059Y-163909226D01*
X156043154Y-163909226D01*
X156138392Y-163861607D01*
X156186011Y-163813988D01*
X156233630Y-163718750D01*
X156233630Y-163433035D01*
X156186011Y-163337797D01*
X156138392Y-163290178D01*
X155233630Y-164528273D02*
X155233630Y-164623511D01*
X155281250Y-164718750D01*
X155328869Y-164766369D01*
X155424107Y-164813988D01*
X155614583Y-164861607D01*
X155852678Y-164861607D01*
X156043154Y-164813988D01*
X156138392Y-164766369D01*
X156186011Y-164718750D01*
X156233630Y-164623511D01*
X156233630Y-164528273D01*
X156186011Y-164433035D01*
X156138392Y-164385416D01*
X156043154Y-164337797D01*
X155852678Y-164290178D01*
X155614583Y-164290178D01*
X155424107Y-164337797D01*
X155328869Y-164385416D01*
X155281250Y-164433035D01*
X155233630Y-164528273D01*
X175283630Y-161623511D02*
X174283630Y-161623511D01*
X174283630Y-161861607D01*
X174331250Y-162004464D01*
X174426488Y-162099702D01*
X174521726Y-162147321D01*
X174712202Y-162194940D01*
X174855059Y-162194940D01*
X175045535Y-162147321D01*
X175140773Y-162099702D01*
X175236011Y-162004464D01*
X175283630Y-161861607D01*
X175283630Y-161623511D01*
X175378869Y-162385416D02*
X175378869Y-163147321D01*
X174283630Y-163290178D02*
X174283630Y-163909226D01*
X174664583Y-163575892D01*
X174664583Y-163718750D01*
X174712202Y-163813988D01*
X174759821Y-163861607D01*
X174855059Y-163909226D01*
X175093154Y-163909226D01*
X175188392Y-163861607D01*
X175236011Y-163813988D01*
X175283630Y-163718750D01*
X175283630Y-163433035D01*
X175236011Y-163337797D01*
X175188392Y-163290178D01*
X175283630Y-164861607D02*
X175283630Y-164290178D01*
X175283630Y-164575892D02*
X174283630Y-164575892D01*
X174426488Y-164480654D01*
X174521726Y-164385416D01*
X174569345Y-164290178D01*
X194333630Y-161623511D02*
X193333630Y-161623511D01*
X193333630Y-161861607D01*
X193381250Y-162004464D01*
X193476488Y-162099702D01*
X193571726Y-162147321D01*
X193762202Y-162194940D01*
X193905059Y-162194940D01*
X194095535Y-162147321D01*
X194190773Y-162099702D01*
X194286011Y-162004464D01*
X194333630Y-161861607D01*
X194333630Y-161623511D01*
X194428869Y-162385416D02*
X194428869Y-163147321D01*
X193333630Y-163290178D02*
X193333630Y-163909226D01*
X193714583Y-163575892D01*
X193714583Y-163718750D01*
X193762202Y-163813988D01*
X193809821Y-163861607D01*
X193905059Y-163909226D01*
X194143154Y-163909226D01*
X194238392Y-163861607D01*
X194286011Y-163813988D01*
X194333630Y-163718750D01*
X194333630Y-163433035D01*
X194286011Y-163337797D01*
X194238392Y-163290178D01*
X193428869Y-164290178D02*
X193381250Y-164337797D01*
X193333630Y-164433035D01*
X193333630Y-164671130D01*
X193381250Y-164766369D01*
X193428869Y-164813988D01*
X193524107Y-164861607D01*
X193619345Y-164861607D01*
X193762202Y-164813988D01*
X194333630Y-164242559D01*
X194333630Y-164861607D01*
X213383630Y-161623511D02*
X212383630Y-161623511D01*
X212383630Y-161861607D01*
X212431250Y-162004464D01*
X212526488Y-162099702D01*
X212621726Y-162147321D01*
X212812202Y-162194940D01*
X212955059Y-162194940D01*
X213145535Y-162147321D01*
X213240773Y-162099702D01*
X213336011Y-162004464D01*
X213383630Y-161861607D01*
X213383630Y-161623511D01*
X213478869Y-162385416D02*
X213478869Y-163147321D01*
X212383630Y-163290178D02*
X212383630Y-163909226D01*
X212764583Y-163575892D01*
X212764583Y-163718750D01*
X212812202Y-163813988D01*
X212859821Y-163861607D01*
X212955059Y-163909226D01*
X213193154Y-163909226D01*
X213288392Y-163861607D01*
X213336011Y-163813988D01*
X213383630Y-163718750D01*
X213383630Y-163433035D01*
X213336011Y-163337797D01*
X213288392Y-163290178D01*
X212383630Y-164242559D02*
X212383630Y-164861607D01*
X212764583Y-164528273D01*
X212764583Y-164671130D01*
X212812202Y-164766369D01*
X212859821Y-164813988D01*
X212955059Y-164861607D01*
X213193154Y-164861607D01*
X213288392Y-164813988D01*
X213336011Y-164766369D01*
X213383630Y-164671130D01*
X213383630Y-164385416D01*
X213336011Y-164290178D01*
X213288392Y-164242559D01*
X232433630Y-161623511D02*
X231433630Y-161623511D01*
X231433630Y-161861607D01*
X231481250Y-162004464D01*
X231576488Y-162099702D01*
X231671726Y-162147321D01*
X231862202Y-162194940D01*
X232005059Y-162194940D01*
X232195535Y-162147321D01*
X232290773Y-162099702D01*
X232386011Y-162004464D01*
X232433630Y-161861607D01*
X232433630Y-161623511D01*
X232528869Y-162385416D02*
X232528869Y-163147321D01*
X231433630Y-163290178D02*
X231433630Y-163909226D01*
X231814583Y-163575892D01*
X231814583Y-163718750D01*
X231862202Y-163813988D01*
X231909821Y-163861607D01*
X232005059Y-163909226D01*
X232243154Y-163909226D01*
X232338392Y-163861607D01*
X232386011Y-163813988D01*
X232433630Y-163718750D01*
X232433630Y-163433035D01*
X232386011Y-163337797D01*
X232338392Y-163290178D01*
X231766964Y-164766369D02*
X232433630Y-164766369D01*
X231386011Y-164528273D02*
X232100297Y-164290178D01*
X232100297Y-164909226D01*
X251483630Y-161623511D02*
X250483630Y-161623511D01*
X250483630Y-161861607D01*
X250531250Y-162004464D01*
X250626488Y-162099702D01*
X250721726Y-162147321D01*
X250912202Y-162194940D01*
X251055059Y-162194940D01*
X251245535Y-162147321D01*
X251340773Y-162099702D01*
X251436011Y-162004464D01*
X251483630Y-161861607D01*
X251483630Y-161623511D01*
X251578869Y-162385416D02*
X251578869Y-163147321D01*
X250483630Y-163290178D02*
X250483630Y-163909226D01*
X250864583Y-163575892D01*
X250864583Y-163718750D01*
X250912202Y-163813988D01*
X250959821Y-163861607D01*
X251055059Y-163909226D01*
X251293154Y-163909226D01*
X251388392Y-163861607D01*
X251436011Y-163813988D01*
X251483630Y-163718750D01*
X251483630Y-163433035D01*
X251436011Y-163337797D01*
X251388392Y-163290178D01*
X250483630Y-164813988D02*
X250483630Y-164337797D01*
X250959821Y-164290178D01*
X250912202Y-164337797D01*
X250864583Y-164433035D01*
X250864583Y-164671130D01*
X250912202Y-164766369D01*
X250959821Y-164813988D01*
X251055059Y-164861607D01*
X251293154Y-164861607D01*
X251388392Y-164813988D01*
X251436011Y-164766369D01*
X251483630Y-164671130D01*
X251483630Y-164433035D01*
X251436011Y-164337797D01*
X251388392Y-164290178D01*
X270533630Y-161623511D02*
X269533630Y-161623511D01*
X269533630Y-161861607D01*
X269581250Y-162004464D01*
X269676488Y-162099702D01*
X269771726Y-162147321D01*
X269962202Y-162194940D01*
X270105059Y-162194940D01*
X270295535Y-162147321D01*
X270390773Y-162099702D01*
X270486011Y-162004464D01*
X270533630Y-161861607D01*
X270533630Y-161623511D01*
X270628869Y-162385416D02*
X270628869Y-163147321D01*
X269533630Y-163290178D02*
X269533630Y-163909226D01*
X269914583Y-163575892D01*
X269914583Y-163718750D01*
X269962202Y-163813988D01*
X270009821Y-163861607D01*
X270105059Y-163909226D01*
X270343154Y-163909226D01*
X270438392Y-163861607D01*
X270486011Y-163813988D01*
X270533630Y-163718750D01*
X270533630Y-163433035D01*
X270486011Y-163337797D01*
X270438392Y-163290178D01*
X269533630Y-164766369D02*
X269533630Y-164575892D01*
X269581250Y-164480654D01*
X269628869Y-164433035D01*
X269771726Y-164337797D01*
X269962202Y-164290178D01*
X270343154Y-164290178D01*
X270438392Y-164337797D01*
X270486011Y-164385416D01*
X270533630Y-164480654D01*
X270533630Y-164671130D01*
X270486011Y-164766369D01*
X270438392Y-164813988D01*
X270343154Y-164861607D01*
X270105059Y-164861607D01*
X270009821Y-164813988D01*
X269962202Y-164766369D01*
X269914583Y-164671130D01*
X269914583Y-164480654D01*
X269962202Y-164385416D01*
X270009821Y-164337797D01*
X270105059Y-164290178D01*
X289583630Y-161623511D02*
X288583630Y-161623511D01*
X288583630Y-161861607D01*
X288631250Y-162004464D01*
X288726488Y-162099702D01*
X288821726Y-162147321D01*
X289012202Y-162194940D01*
X289155059Y-162194940D01*
X289345535Y-162147321D01*
X289440773Y-162099702D01*
X289536011Y-162004464D01*
X289583630Y-161861607D01*
X289583630Y-161623511D01*
X289678869Y-162385416D02*
X289678869Y-163147321D01*
X288583630Y-163290178D02*
X288583630Y-163909226D01*
X288964583Y-163575892D01*
X288964583Y-163718750D01*
X289012202Y-163813988D01*
X289059821Y-163861607D01*
X289155059Y-163909226D01*
X289393154Y-163909226D01*
X289488392Y-163861607D01*
X289536011Y-163813988D01*
X289583630Y-163718750D01*
X289583630Y-163433035D01*
X289536011Y-163337797D01*
X289488392Y-163290178D01*
X288583630Y-164242559D02*
X288583630Y-164909226D01*
X289583630Y-164480654D01*
X308633630Y-161623511D02*
X307633630Y-161623511D01*
X307633630Y-161861607D01*
X307681250Y-162004464D01*
X307776488Y-162099702D01*
X307871726Y-162147321D01*
X308062202Y-162194940D01*
X308205059Y-162194940D01*
X308395535Y-162147321D01*
X308490773Y-162099702D01*
X308586011Y-162004464D01*
X308633630Y-161861607D01*
X308633630Y-161623511D01*
X308728869Y-162385416D02*
X308728869Y-163147321D01*
X307633630Y-163290178D02*
X307633630Y-163909226D01*
X308014583Y-163575892D01*
X308014583Y-163718750D01*
X308062202Y-163813988D01*
X308109821Y-163861607D01*
X308205059Y-163909226D01*
X308443154Y-163909226D01*
X308538392Y-163861607D01*
X308586011Y-163813988D01*
X308633630Y-163718750D01*
X308633630Y-163433035D01*
X308586011Y-163337797D01*
X308538392Y-163290178D01*
X308062202Y-164480654D02*
X308014583Y-164385416D01*
X307966964Y-164337797D01*
X307871726Y-164290178D01*
X307824107Y-164290178D01*
X307728869Y-164337797D01*
X307681250Y-164385416D01*
X307633630Y-164480654D01*
X307633630Y-164671130D01*
X307681250Y-164766369D01*
X307728869Y-164813988D01*
X307824107Y-164861607D01*
X307871726Y-164861607D01*
X307966964Y-164813988D01*
X308014583Y-164766369D01*
X308062202Y-164671130D01*
X308062202Y-164480654D01*
X308109821Y-164385416D01*
X308157440Y-164337797D01*
X308252678Y-164290178D01*
X308443154Y-164290178D01*
X308538392Y-164337797D01*
X308586011Y-164385416D01*
X308633630Y-164480654D01*
X308633630Y-164671130D01*
X308586011Y-164766369D01*
X308538392Y-164813988D01*
X308443154Y-164861607D01*
X308252678Y-164861607D01*
X308157440Y-164813988D01*
X308109821Y-164766369D01*
X308062202Y-164671130D01*
X327683630Y-161623511D02*
X326683630Y-161623511D01*
X326683630Y-161861607D01*
X326731250Y-162004464D01*
X326826488Y-162099702D01*
X326921726Y-162147321D01*
X327112202Y-162194940D01*
X327255059Y-162194940D01*
X327445535Y-162147321D01*
X327540773Y-162099702D01*
X327636011Y-162004464D01*
X327683630Y-161861607D01*
X327683630Y-161623511D01*
X327778869Y-162385416D02*
X327778869Y-163147321D01*
X326683630Y-163290178D02*
X326683630Y-163909226D01*
X327064583Y-163575892D01*
X327064583Y-163718750D01*
X327112202Y-163813988D01*
X327159821Y-163861607D01*
X327255059Y-163909226D01*
X327493154Y-163909226D01*
X327588392Y-163861607D01*
X327636011Y-163813988D01*
X327683630Y-163718750D01*
X327683630Y-163433035D01*
X327636011Y-163337797D01*
X327588392Y-163290178D01*
X327683630Y-164385416D02*
X327683630Y-164575892D01*
X327636011Y-164671130D01*
X327588392Y-164718750D01*
X327445535Y-164813988D01*
X327255059Y-164861607D01*
X326874107Y-164861607D01*
X326778869Y-164813988D01*
X326731250Y-164766369D01*
X326683630Y-164671130D01*
X326683630Y-164480654D01*
X326731250Y-164385416D01*
X326778869Y-164337797D01*
X326874107Y-164290178D01*
X327112202Y-164290178D01*
X327207440Y-164337797D01*
X327255059Y-164385416D01*
X327302678Y-164480654D01*
X327302678Y-164671130D01*
X327255059Y-164766369D01*
X327207440Y-164813988D01*
X327112202Y-164861607D01*
X370546130Y-161623511D02*
X369546130Y-161623511D01*
X369546130Y-161861607D01*
X369593750Y-162004464D01*
X369688988Y-162099702D01*
X369784226Y-162147321D01*
X369974702Y-162194940D01*
X370117559Y-162194940D01*
X370308035Y-162147321D01*
X370403273Y-162099702D01*
X370498511Y-162004464D01*
X370546130Y-161861607D01*
X370546130Y-161623511D01*
X370641369Y-162385416D02*
X370641369Y-163147321D01*
X369879464Y-163813988D02*
X370546130Y-163813988D01*
X369498511Y-163575892D02*
X370212797Y-163337797D01*
X370212797Y-163956845D01*
X369546130Y-164528273D02*
X369546130Y-164623511D01*
X369593750Y-164718750D01*
X369641369Y-164766369D01*
X369736607Y-164813988D01*
X369927083Y-164861607D01*
X370165178Y-164861607D01*
X370355654Y-164813988D01*
X370450892Y-164766369D01*
X370498511Y-164718750D01*
X370546130Y-164623511D01*
X370546130Y-164528273D01*
X370498511Y-164433035D01*
X370450892Y-164385416D01*
X370355654Y-164337797D01*
X370165178Y-164290178D01*
X369927083Y-164290178D01*
X369736607Y-164337797D01*
X369641369Y-164385416D01*
X369593750Y-164433035D01*
X369546130Y-164528273D01*
X127658630Y-180673511D02*
X126658630Y-180673511D01*
X126658630Y-180911607D01*
X126706250Y-181054464D01*
X126801488Y-181149702D01*
X126896726Y-181197321D01*
X127087202Y-181244940D01*
X127230059Y-181244940D01*
X127420535Y-181197321D01*
X127515773Y-181149702D01*
X127611011Y-181054464D01*
X127658630Y-180911607D01*
X127658630Y-180673511D01*
X127753869Y-181435416D02*
X127753869Y-182197321D01*
X126991964Y-182863988D02*
X127658630Y-182863988D01*
X126611011Y-182625892D02*
X127325297Y-182387797D01*
X127325297Y-183006845D01*
X127658630Y-183911607D02*
X127658630Y-183340178D01*
X127658630Y-183625892D02*
X126658630Y-183625892D01*
X126801488Y-183530654D01*
X126896726Y-183435416D01*
X126944345Y-183340178D01*
X146708630Y-180673511D02*
X145708630Y-180673511D01*
X145708630Y-180911607D01*
X145756250Y-181054464D01*
X145851488Y-181149702D01*
X145946726Y-181197321D01*
X146137202Y-181244940D01*
X146280059Y-181244940D01*
X146470535Y-181197321D01*
X146565773Y-181149702D01*
X146661011Y-181054464D01*
X146708630Y-180911607D01*
X146708630Y-180673511D01*
X146803869Y-181435416D02*
X146803869Y-182197321D01*
X146041964Y-182863988D02*
X146708630Y-182863988D01*
X145661011Y-182625892D02*
X146375297Y-182387797D01*
X146375297Y-183006845D01*
X145803869Y-183340178D02*
X145756250Y-183387797D01*
X145708630Y-183483035D01*
X145708630Y-183721130D01*
X145756250Y-183816369D01*
X145803869Y-183863988D01*
X145899107Y-183911607D01*
X145994345Y-183911607D01*
X146137202Y-183863988D01*
X146708630Y-183292559D01*
X146708630Y-183911607D01*
X165758630Y-180673511D02*
X164758630Y-180673511D01*
X164758630Y-180911607D01*
X164806250Y-181054464D01*
X164901488Y-181149702D01*
X164996726Y-181197321D01*
X165187202Y-181244940D01*
X165330059Y-181244940D01*
X165520535Y-181197321D01*
X165615773Y-181149702D01*
X165711011Y-181054464D01*
X165758630Y-180911607D01*
X165758630Y-180673511D01*
X165853869Y-181435416D02*
X165853869Y-182197321D01*
X165091964Y-182863988D02*
X165758630Y-182863988D01*
X164711011Y-182625892D02*
X165425297Y-182387797D01*
X165425297Y-183006845D01*
X164758630Y-183292559D02*
X164758630Y-183911607D01*
X165139583Y-183578273D01*
X165139583Y-183721130D01*
X165187202Y-183816369D01*
X165234821Y-183863988D01*
X165330059Y-183911607D01*
X165568154Y-183911607D01*
X165663392Y-183863988D01*
X165711011Y-183816369D01*
X165758630Y-183721130D01*
X165758630Y-183435416D01*
X165711011Y-183340178D01*
X165663392Y-183292559D01*
X184808630Y-180673511D02*
X183808630Y-180673511D01*
X183808630Y-180911607D01*
X183856250Y-181054464D01*
X183951488Y-181149702D01*
X184046726Y-181197321D01*
X184237202Y-181244940D01*
X184380059Y-181244940D01*
X184570535Y-181197321D01*
X184665773Y-181149702D01*
X184761011Y-181054464D01*
X184808630Y-180911607D01*
X184808630Y-180673511D01*
X184903869Y-181435416D02*
X184903869Y-182197321D01*
X184141964Y-182863988D02*
X184808630Y-182863988D01*
X183761011Y-182625892D02*
X184475297Y-182387797D01*
X184475297Y-183006845D01*
X184141964Y-183816369D02*
X184808630Y-183816369D01*
X183761011Y-183578273D02*
X184475297Y-183340178D01*
X184475297Y-183959226D01*
X203858630Y-180673511D02*
X202858630Y-180673511D01*
X202858630Y-180911607D01*
X202906250Y-181054464D01*
X203001488Y-181149702D01*
X203096726Y-181197321D01*
X203287202Y-181244940D01*
X203430059Y-181244940D01*
X203620535Y-181197321D01*
X203715773Y-181149702D01*
X203811011Y-181054464D01*
X203858630Y-180911607D01*
X203858630Y-180673511D01*
X203953869Y-181435416D02*
X203953869Y-182197321D01*
X203191964Y-182863988D02*
X203858630Y-182863988D01*
X202811011Y-182625892D02*
X203525297Y-182387797D01*
X203525297Y-183006845D01*
X202858630Y-183863988D02*
X202858630Y-183387797D01*
X203334821Y-183340178D01*
X203287202Y-183387797D01*
X203239583Y-183483035D01*
X203239583Y-183721130D01*
X203287202Y-183816369D01*
X203334821Y-183863988D01*
X203430059Y-183911607D01*
X203668154Y-183911607D01*
X203763392Y-183863988D01*
X203811011Y-183816369D01*
X203858630Y-183721130D01*
X203858630Y-183483035D01*
X203811011Y-183387797D01*
X203763392Y-183340178D01*
X222908630Y-180673511D02*
X221908630Y-180673511D01*
X221908630Y-180911607D01*
X221956250Y-181054464D01*
X222051488Y-181149702D01*
X222146726Y-181197321D01*
X222337202Y-181244940D01*
X222480059Y-181244940D01*
X222670535Y-181197321D01*
X222765773Y-181149702D01*
X222861011Y-181054464D01*
X222908630Y-180911607D01*
X222908630Y-180673511D01*
X223003869Y-181435416D02*
X223003869Y-182197321D01*
X222241964Y-182863988D02*
X222908630Y-182863988D01*
X221861011Y-182625892D02*
X222575297Y-182387797D01*
X222575297Y-183006845D01*
X221908630Y-183816369D02*
X221908630Y-183625892D01*
X221956250Y-183530654D01*
X222003869Y-183483035D01*
X222146726Y-183387797D01*
X222337202Y-183340178D01*
X222718154Y-183340178D01*
X222813392Y-183387797D01*
X222861011Y-183435416D01*
X222908630Y-183530654D01*
X222908630Y-183721130D01*
X222861011Y-183816369D01*
X222813392Y-183863988D01*
X222718154Y-183911607D01*
X222480059Y-183911607D01*
X222384821Y-183863988D01*
X222337202Y-183816369D01*
X222289583Y-183721130D01*
X222289583Y-183530654D01*
X222337202Y-183435416D01*
X222384821Y-183387797D01*
X222480059Y-183340178D01*
X241958630Y-180673511D02*
X240958630Y-180673511D01*
X240958630Y-180911607D01*
X241006250Y-181054464D01*
X241101488Y-181149702D01*
X241196726Y-181197321D01*
X241387202Y-181244940D01*
X241530059Y-181244940D01*
X241720535Y-181197321D01*
X241815773Y-181149702D01*
X241911011Y-181054464D01*
X241958630Y-180911607D01*
X241958630Y-180673511D01*
X242053869Y-181435416D02*
X242053869Y-182197321D01*
X241291964Y-182863988D02*
X241958630Y-182863988D01*
X240911011Y-182625892D02*
X241625297Y-182387797D01*
X241625297Y-183006845D01*
X240958630Y-183292559D02*
X240958630Y-183959226D01*
X241958630Y-183530654D01*
X261008630Y-180673511D02*
X260008630Y-180673511D01*
X260008630Y-180911607D01*
X260056250Y-181054464D01*
X260151488Y-181149702D01*
X260246726Y-181197321D01*
X260437202Y-181244940D01*
X260580059Y-181244940D01*
X260770535Y-181197321D01*
X260865773Y-181149702D01*
X260961011Y-181054464D01*
X261008630Y-180911607D01*
X261008630Y-180673511D01*
X261103869Y-181435416D02*
X261103869Y-182197321D01*
X260341964Y-182863988D02*
X261008630Y-182863988D01*
X259961011Y-182625892D02*
X260675297Y-182387797D01*
X260675297Y-183006845D01*
X260437202Y-183530654D02*
X260389583Y-183435416D01*
X260341964Y-183387797D01*
X260246726Y-183340178D01*
X260199107Y-183340178D01*
X260103869Y-183387797D01*
X260056250Y-183435416D01*
X260008630Y-183530654D01*
X260008630Y-183721130D01*
X260056250Y-183816369D01*
X260103869Y-183863988D01*
X260199107Y-183911607D01*
X260246726Y-183911607D01*
X260341964Y-183863988D01*
X260389583Y-183816369D01*
X260437202Y-183721130D01*
X260437202Y-183530654D01*
X260484821Y-183435416D01*
X260532440Y-183387797D01*
X260627678Y-183340178D01*
X260818154Y-183340178D01*
X260913392Y-183387797D01*
X260961011Y-183435416D01*
X261008630Y-183530654D01*
X261008630Y-183721130D01*
X260961011Y-183816369D01*
X260913392Y-183863988D01*
X260818154Y-183911607D01*
X260627678Y-183911607D01*
X260532440Y-183863988D01*
X260484821Y-183816369D01*
X260437202Y-183721130D01*
X280058630Y-180673511D02*
X279058630Y-180673511D01*
X279058630Y-180911607D01*
X279106250Y-181054464D01*
X279201488Y-181149702D01*
X279296726Y-181197321D01*
X279487202Y-181244940D01*
X279630059Y-181244940D01*
X279820535Y-181197321D01*
X279915773Y-181149702D01*
X280011011Y-181054464D01*
X280058630Y-180911607D01*
X280058630Y-180673511D01*
X280153869Y-181435416D02*
X280153869Y-182197321D01*
X279391964Y-182863988D02*
X280058630Y-182863988D01*
X279011011Y-182625892D02*
X279725297Y-182387797D01*
X279725297Y-183006845D01*
X280058630Y-183435416D02*
X280058630Y-183625892D01*
X280011011Y-183721130D01*
X279963392Y-183768750D01*
X279820535Y-183863988D01*
X279630059Y-183911607D01*
X279249107Y-183911607D01*
X279153869Y-183863988D01*
X279106250Y-183816369D01*
X279058630Y-183721130D01*
X279058630Y-183530654D01*
X279106250Y-183435416D01*
X279153869Y-183387797D01*
X279249107Y-183340178D01*
X279487202Y-183340178D01*
X279582440Y-183387797D01*
X279630059Y-183435416D01*
X279677678Y-183530654D01*
X279677678Y-183721130D01*
X279630059Y-183816369D01*
X279582440Y-183863988D01*
X279487202Y-183911607D01*
X299108630Y-180673511D02*
X298108630Y-180673511D01*
X298108630Y-180911607D01*
X298156250Y-181054464D01*
X298251488Y-181149702D01*
X298346726Y-181197321D01*
X298537202Y-181244940D01*
X298680059Y-181244940D01*
X298870535Y-181197321D01*
X298965773Y-181149702D01*
X299061011Y-181054464D01*
X299108630Y-180911607D01*
X299108630Y-180673511D01*
X299203869Y-181435416D02*
X299203869Y-182197321D01*
X298108630Y-182911607D02*
X298108630Y-182435416D01*
X298584821Y-182387797D01*
X298537202Y-182435416D01*
X298489583Y-182530654D01*
X298489583Y-182768750D01*
X298537202Y-182863988D01*
X298584821Y-182911607D01*
X298680059Y-182959226D01*
X298918154Y-182959226D01*
X299013392Y-182911607D01*
X299061011Y-182863988D01*
X299108630Y-182768750D01*
X299108630Y-182530654D01*
X299061011Y-182435416D01*
X299013392Y-182387797D01*
X298108630Y-183578273D02*
X298108630Y-183673511D01*
X298156250Y-183768750D01*
X298203869Y-183816369D01*
X298299107Y-183863988D01*
X298489583Y-183911607D01*
X298727678Y-183911607D01*
X298918154Y-183863988D01*
X299013392Y-183816369D01*
X299061011Y-183768750D01*
X299108630Y-183673511D01*
X299108630Y-183578273D01*
X299061011Y-183483035D01*
X299013392Y-183435416D01*
X298918154Y-183387797D01*
X298727678Y-183340178D01*
X298489583Y-183340178D01*
X298299107Y-183387797D01*
X298203869Y-183435416D01*
X298156250Y-183483035D01*
X298108630Y-183578273D01*
X318158630Y-180673511D02*
X317158630Y-180673511D01*
X317158630Y-180911607D01*
X317206250Y-181054464D01*
X317301488Y-181149702D01*
X317396726Y-181197321D01*
X317587202Y-181244940D01*
X317730059Y-181244940D01*
X317920535Y-181197321D01*
X318015773Y-181149702D01*
X318111011Y-181054464D01*
X318158630Y-180911607D01*
X318158630Y-180673511D01*
X318253869Y-181435416D02*
X318253869Y-182197321D01*
X317158630Y-182911607D02*
X317158630Y-182435416D01*
X317634821Y-182387797D01*
X317587202Y-182435416D01*
X317539583Y-182530654D01*
X317539583Y-182768750D01*
X317587202Y-182863988D01*
X317634821Y-182911607D01*
X317730059Y-182959226D01*
X317968154Y-182959226D01*
X318063392Y-182911607D01*
X318111011Y-182863988D01*
X318158630Y-182768750D01*
X318158630Y-182530654D01*
X318111011Y-182435416D01*
X318063392Y-182387797D01*
X318158630Y-183911607D02*
X318158630Y-183340178D01*
X318158630Y-183625892D02*
X317158630Y-183625892D01*
X317301488Y-183530654D01*
X317396726Y-183435416D01*
X317444345Y-183340178D01*
X370546130Y-180673511D02*
X369546130Y-180673511D01*
X369546130Y-180911607D01*
X369593750Y-181054464D01*
X369688988Y-181149702D01*
X369784226Y-181197321D01*
X369974702Y-181244940D01*
X370117559Y-181244940D01*
X370308035Y-181197321D01*
X370403273Y-181149702D01*
X370498511Y-181054464D01*
X370546130Y-180911607D01*
X370546130Y-180673511D01*
X370641369Y-181435416D02*
X370641369Y-182197321D01*
X369546130Y-182911607D02*
X369546130Y-182435416D01*
X370022321Y-182387797D01*
X369974702Y-182435416D01*
X369927083Y-182530654D01*
X369927083Y-182768750D01*
X369974702Y-182863988D01*
X370022321Y-182911607D01*
X370117559Y-182959226D01*
X370355654Y-182959226D01*
X370450892Y-182911607D01*
X370498511Y-182863988D01*
X370546130Y-182768750D01*
X370546130Y-182530654D01*
X370498511Y-182435416D01*
X370450892Y-182387797D01*
X369641369Y-183340178D02*
X369593750Y-183387797D01*
X369546130Y-183483035D01*
X369546130Y-183721130D01*
X369593750Y-183816369D01*
X369641369Y-183863988D01*
X369736607Y-183911607D01*
X369831845Y-183911607D01*
X369974702Y-183863988D01*
X370546130Y-183292559D01*
X370546130Y-183911607D01*
X137183630Y-199723511D02*
X136183630Y-199723511D01*
X136183630Y-199961607D01*
X136231250Y-200104464D01*
X136326488Y-200199702D01*
X136421726Y-200247321D01*
X136612202Y-200294940D01*
X136755059Y-200294940D01*
X136945535Y-200247321D01*
X137040773Y-200199702D01*
X137136011Y-200104464D01*
X137183630Y-199961607D01*
X137183630Y-199723511D01*
X137278869Y-200485416D02*
X137278869Y-201247321D01*
X136183630Y-201961607D02*
X136183630Y-201485416D01*
X136659821Y-201437797D01*
X136612202Y-201485416D01*
X136564583Y-201580654D01*
X136564583Y-201818750D01*
X136612202Y-201913988D01*
X136659821Y-201961607D01*
X136755059Y-202009226D01*
X136993154Y-202009226D01*
X137088392Y-201961607D01*
X137136011Y-201913988D01*
X137183630Y-201818750D01*
X137183630Y-201580654D01*
X137136011Y-201485416D01*
X137088392Y-201437797D01*
X136183630Y-202342559D02*
X136183630Y-202961607D01*
X136564583Y-202628273D01*
X136564583Y-202771130D01*
X136612202Y-202866369D01*
X136659821Y-202913988D01*
X136755059Y-202961607D01*
X136993154Y-202961607D01*
X137088392Y-202913988D01*
X137136011Y-202866369D01*
X137183630Y-202771130D01*
X137183630Y-202485416D01*
X137136011Y-202390178D01*
X137088392Y-202342559D01*
X160996130Y-199723511D02*
X159996130Y-199723511D01*
X159996130Y-199961607D01*
X160043750Y-200104464D01*
X160138988Y-200199702D01*
X160234226Y-200247321D01*
X160424702Y-200294940D01*
X160567559Y-200294940D01*
X160758035Y-200247321D01*
X160853273Y-200199702D01*
X160948511Y-200104464D01*
X160996130Y-199961607D01*
X160996130Y-199723511D01*
X161091369Y-200485416D02*
X161091369Y-201247321D01*
X159996130Y-201961607D02*
X159996130Y-201485416D01*
X160472321Y-201437797D01*
X160424702Y-201485416D01*
X160377083Y-201580654D01*
X160377083Y-201818750D01*
X160424702Y-201913988D01*
X160472321Y-201961607D01*
X160567559Y-202009226D01*
X160805654Y-202009226D01*
X160900892Y-201961607D01*
X160948511Y-201913988D01*
X160996130Y-201818750D01*
X160996130Y-201580654D01*
X160948511Y-201485416D01*
X160900892Y-201437797D01*
X160329464Y-202866369D02*
X160996130Y-202866369D01*
X159948511Y-202628273D02*
X160662797Y-202390178D01*
X160662797Y-203009226D01*
X294346130Y-199723511D02*
X293346130Y-199723511D01*
X293346130Y-199961607D01*
X293393750Y-200104464D01*
X293488988Y-200199702D01*
X293584226Y-200247321D01*
X293774702Y-200294940D01*
X293917559Y-200294940D01*
X294108035Y-200247321D01*
X294203273Y-200199702D01*
X294298511Y-200104464D01*
X294346130Y-199961607D01*
X294346130Y-199723511D01*
X294441369Y-200485416D02*
X294441369Y-201247321D01*
X293346130Y-201961607D02*
X293346130Y-201485416D01*
X293822321Y-201437797D01*
X293774702Y-201485416D01*
X293727083Y-201580654D01*
X293727083Y-201818750D01*
X293774702Y-201913988D01*
X293822321Y-201961607D01*
X293917559Y-202009226D01*
X294155654Y-202009226D01*
X294250892Y-201961607D01*
X294298511Y-201913988D01*
X294346130Y-201818750D01*
X294346130Y-201580654D01*
X294298511Y-201485416D01*
X294250892Y-201437797D01*
X293346130Y-202913988D02*
X293346130Y-202437797D01*
X293822321Y-202390178D01*
X293774702Y-202437797D01*
X293727083Y-202533035D01*
X293727083Y-202771130D01*
X293774702Y-202866369D01*
X293822321Y-202913988D01*
X293917559Y-202961607D01*
X294155654Y-202961607D01*
X294250892Y-202913988D01*
X294298511Y-202866369D01*
X294346130Y-202771130D01*
X294346130Y-202533035D01*
X294298511Y-202437797D01*
X294250892Y-202390178D01*
X318158630Y-199723511D02*
X317158630Y-199723511D01*
X317158630Y-199961607D01*
X317206250Y-200104464D01*
X317301488Y-200199702D01*
X317396726Y-200247321D01*
X317587202Y-200294940D01*
X317730059Y-200294940D01*
X317920535Y-200247321D01*
X318015773Y-200199702D01*
X318111011Y-200104464D01*
X318158630Y-199961607D01*
X318158630Y-199723511D01*
X318253869Y-200485416D02*
X318253869Y-201247321D01*
X317158630Y-201961607D02*
X317158630Y-201485416D01*
X317634821Y-201437797D01*
X317587202Y-201485416D01*
X317539583Y-201580654D01*
X317539583Y-201818750D01*
X317587202Y-201913988D01*
X317634821Y-201961607D01*
X317730059Y-202009226D01*
X317968154Y-202009226D01*
X318063392Y-201961607D01*
X318111011Y-201913988D01*
X318158630Y-201818750D01*
X318158630Y-201580654D01*
X318111011Y-201485416D01*
X318063392Y-201437797D01*
X317158630Y-202866369D02*
X317158630Y-202675892D01*
X317206250Y-202580654D01*
X317253869Y-202533035D01*
X317396726Y-202437797D01*
X317587202Y-202390178D01*
X317968154Y-202390178D01*
X318063392Y-202437797D01*
X318111011Y-202485416D01*
X318158630Y-202580654D01*
X318158630Y-202771130D01*
X318111011Y-202866369D01*
X318063392Y-202913988D01*
X317968154Y-202961607D01*
X317730059Y-202961607D01*
X317634821Y-202913988D01*
X317587202Y-202866369D01*
X317539583Y-202771130D01*
X317539583Y-202580654D01*
X317587202Y-202485416D01*
X317634821Y-202437797D01*
X317730059Y-202390178D01*
X341971130Y-199723511D02*
X340971130Y-199723511D01*
X340971130Y-199961607D01*
X341018750Y-200104464D01*
X341113988Y-200199702D01*
X341209226Y-200247321D01*
X341399702Y-200294940D01*
X341542559Y-200294940D01*
X341733035Y-200247321D01*
X341828273Y-200199702D01*
X341923511Y-200104464D01*
X341971130Y-199961607D01*
X341971130Y-199723511D01*
X342066369Y-200485416D02*
X342066369Y-201247321D01*
X340971130Y-201961607D02*
X340971130Y-201485416D01*
X341447321Y-201437797D01*
X341399702Y-201485416D01*
X341352083Y-201580654D01*
X341352083Y-201818750D01*
X341399702Y-201913988D01*
X341447321Y-201961607D01*
X341542559Y-202009226D01*
X341780654Y-202009226D01*
X341875892Y-201961607D01*
X341923511Y-201913988D01*
X341971130Y-201818750D01*
X341971130Y-201580654D01*
X341923511Y-201485416D01*
X341875892Y-201437797D01*
X340971130Y-202342559D02*
X340971130Y-203009226D01*
X341971130Y-202580654D01*
%LPC*%
D13*
X107081500Y-88272250D03*
X104881500Y-88272250D03*
X104881500Y-89972250D03*
X107081500Y-89972250D03*
D14*
X83662500Y-80962500D03*
X90962500Y-80962500D03*
X90962500Y-85462500D03*
X83662500Y-85462500D03*
D15*
X85712500Y-85462500D03*
X86512500Y-85462500D03*
X87312500Y-85462500D03*
X88112500Y-85462500D03*
X88912500Y-85462500D03*
D16*
X102362500Y-107300000D03*
X103162500Y-107300000D03*
X103962500Y-107300000D03*
X104762500Y-107300000D03*
X105562500Y-107300000D03*
X106362500Y-107300000D03*
X107162500Y-107300000D03*
X107962500Y-107300000D03*
X108762500Y-107300000D03*
X109562500Y-107300000D03*
X110362500Y-107300000D03*
D17*
X112062500Y-105600000D03*
X112062500Y-104800000D03*
X112062500Y-104000000D03*
X112062500Y-103200000D03*
X112062500Y-102400000D03*
X112062500Y-101600000D03*
X112062500Y-100800000D03*
X112062500Y-100000000D03*
X112062500Y-99200000D03*
X112062500Y-98400000D03*
X112062500Y-97600000D03*
D16*
X110362500Y-95900000D03*
X109562500Y-95900000D03*
X108762500Y-95900000D03*
X107962500Y-95900000D03*
X107162500Y-95900000D03*
X106362500Y-95900000D03*
X105562500Y-95900000D03*
X104762500Y-95900000D03*
X103962500Y-95900000D03*
X103162500Y-95900000D03*
X102362500Y-95900000D03*
D17*
X100662500Y-97600000D03*
X100662500Y-98400000D03*
X100662500Y-99200000D03*
X100662500Y-100000000D03*
X100662500Y-100800000D03*
X100662500Y-101600000D03*
X100662500Y-102400000D03*
X100662500Y-103200000D03*
X100662500Y-104000000D03*
X100662500Y-104800000D03*
X100662500Y-105600000D03*
D18*
X89618750Y-111387500D03*
X83418750Y-107687500D03*
X89618750Y-107687500D03*
X83418750Y-111387500D03*
D19*
G36*
X116367642Y-105732424D02*
G01*
X116391303Y-105735934D01*
X116414507Y-105741746D01*
X116437029Y-105749804D01*
X116458653Y-105760032D01*
X116479170Y-105772329D01*
X116498383Y-105786579D01*
X116516107Y-105802643D01*
X116532171Y-105820367D01*
X116546421Y-105839580D01*
X116558718Y-105860097D01*
X116568946Y-105881721D01*
X116577004Y-105904243D01*
X116582816Y-105927447D01*
X116586326Y-105951108D01*
X116587500Y-105975000D01*
X116587500Y-106462500D01*
X116586326Y-106486392D01*
X116582816Y-106510053D01*
X116577004Y-106533257D01*
X116568946Y-106555779D01*
X116558718Y-106577403D01*
X116546421Y-106597920D01*
X116532171Y-106617133D01*
X116516107Y-106634857D01*
X116498383Y-106650921D01*
X116479170Y-106665171D01*
X116458653Y-106677468D01*
X116437029Y-106687696D01*
X116414507Y-106695754D01*
X116391303Y-106701566D01*
X116367642Y-106705076D01*
X116343750Y-106706250D01*
X115431250Y-106706250D01*
X115407358Y-106705076D01*
X115383697Y-106701566D01*
X115360493Y-106695754D01*
X115337971Y-106687696D01*
X115316347Y-106677468D01*
X115295830Y-106665171D01*
X115276617Y-106650921D01*
X115258893Y-106634857D01*
X115242829Y-106617133D01*
X115228579Y-106597920D01*
X115216282Y-106577403D01*
X115206054Y-106555779D01*
X115197996Y-106533257D01*
X115192184Y-106510053D01*
X115188674Y-106486392D01*
X115187500Y-106462500D01*
X115187500Y-105975000D01*
X115188674Y-105951108D01*
X115192184Y-105927447D01*
X115197996Y-105904243D01*
X115206054Y-105881721D01*
X115216282Y-105860097D01*
X115228579Y-105839580D01*
X115242829Y-105820367D01*
X115258893Y-105802643D01*
X115276617Y-105786579D01*
X115295830Y-105772329D01*
X115316347Y-105760032D01*
X115337971Y-105749804D01*
X115360493Y-105741746D01*
X115383697Y-105735934D01*
X115407358Y-105732424D01*
X115431250Y-105731250D01*
X116343750Y-105731250D01*
X116367642Y-105732424D01*
X116367642Y-105732424D01*
G37*
D20*
X115887500Y-106218750D03*
D19*
G36*
X116367642Y-107607424D02*
G01*
X116391303Y-107610934D01*
X116414507Y-107616746D01*
X116437029Y-107624804D01*
X116458653Y-107635032D01*
X116479170Y-107647329D01*
X116498383Y-107661579D01*
X116516107Y-107677643D01*
X116532171Y-107695367D01*
X116546421Y-107714580D01*
X116558718Y-107735097D01*
X116568946Y-107756721D01*
X116577004Y-107779243D01*
X116582816Y-107802447D01*
X116586326Y-107826108D01*
X116587500Y-107850000D01*
X116587500Y-108337500D01*
X116586326Y-108361392D01*
X116582816Y-108385053D01*
X116577004Y-108408257D01*
X116568946Y-108430779D01*
X116558718Y-108452403D01*
X116546421Y-108472920D01*
X116532171Y-108492133D01*
X116516107Y-108509857D01*
X116498383Y-108525921D01*
X116479170Y-108540171D01*
X116458653Y-108552468D01*
X116437029Y-108562696D01*
X116414507Y-108570754D01*
X116391303Y-108576566D01*
X116367642Y-108580076D01*
X116343750Y-108581250D01*
X115431250Y-108581250D01*
X115407358Y-108580076D01*
X115383697Y-108576566D01*
X115360493Y-108570754D01*
X115337971Y-108562696D01*
X115316347Y-108552468D01*
X115295830Y-108540171D01*
X115276617Y-108525921D01*
X115258893Y-108509857D01*
X115242829Y-108492133D01*
X115228579Y-108472920D01*
X115216282Y-108452403D01*
X115206054Y-108430779D01*
X115197996Y-108408257D01*
X115192184Y-108385053D01*
X115188674Y-108361392D01*
X115187500Y-108337500D01*
X115187500Y-107850000D01*
X115188674Y-107826108D01*
X115192184Y-107802447D01*
X115197996Y-107779243D01*
X115206054Y-107756721D01*
X115216282Y-107735097D01*
X115228579Y-107714580D01*
X115242829Y-107695367D01*
X115258893Y-107677643D01*
X115276617Y-107661579D01*
X115295830Y-107647329D01*
X115316347Y-107635032D01*
X115337971Y-107624804D01*
X115360493Y-107616746D01*
X115383697Y-107610934D01*
X115407358Y-107607424D01*
X115431250Y-107606250D01*
X116343750Y-107606250D01*
X116367642Y-107607424D01*
X116367642Y-107607424D01*
G37*
D20*
X115887500Y-108093750D03*
D19*
G36*
X94936392Y-95701174D02*
G01*
X94960053Y-95704684D01*
X94983257Y-95710496D01*
X95005779Y-95718554D01*
X95027403Y-95728782D01*
X95047920Y-95741079D01*
X95067133Y-95755329D01*
X95084857Y-95771393D01*
X95100921Y-95789117D01*
X95115171Y-95808330D01*
X95127468Y-95828847D01*
X95137696Y-95850471D01*
X95145754Y-95872993D01*
X95151566Y-95896197D01*
X95155076Y-95919858D01*
X95156250Y-95943750D01*
X95156250Y-96431250D01*
X95155076Y-96455142D01*
X95151566Y-96478803D01*
X95145754Y-96502007D01*
X95137696Y-96524529D01*
X95127468Y-96546153D01*
X95115171Y-96566670D01*
X95100921Y-96585883D01*
X95084857Y-96603607D01*
X95067133Y-96619671D01*
X95047920Y-96633921D01*
X95027403Y-96646218D01*
X95005779Y-96656446D01*
X94983257Y-96664504D01*
X94960053Y-96670316D01*
X94936392Y-96673826D01*
X94912500Y-96675000D01*
X94000000Y-96675000D01*
X93976108Y-96673826D01*
X93952447Y-96670316D01*
X93929243Y-96664504D01*
X93906721Y-96656446D01*
X93885097Y-96646218D01*
X93864580Y-96633921D01*
X93845367Y-96619671D01*
X93827643Y-96603607D01*
X93811579Y-96585883D01*
X93797329Y-96566670D01*
X93785032Y-96546153D01*
X93774804Y-96524529D01*
X93766746Y-96502007D01*
X93760934Y-96478803D01*
X93757424Y-96455142D01*
X93756250Y-96431250D01*
X93756250Y-95943750D01*
X93757424Y-95919858D01*
X93760934Y-95896197D01*
X93766746Y-95872993D01*
X93774804Y-95850471D01*
X93785032Y-95828847D01*
X93797329Y-95808330D01*
X93811579Y-95789117D01*
X93827643Y-95771393D01*
X93845367Y-95755329D01*
X93864580Y-95741079D01*
X93885097Y-95728782D01*
X93906721Y-95718554D01*
X93929243Y-95710496D01*
X93952447Y-95704684D01*
X93976108Y-95701174D01*
X94000000Y-95700000D01*
X94912500Y-95700000D01*
X94936392Y-95701174D01*
X94936392Y-95701174D01*
G37*
D20*
X94456250Y-96187500D03*
D19*
G36*
X94936392Y-93826174D02*
G01*
X94960053Y-93829684D01*
X94983257Y-93835496D01*
X95005779Y-93843554D01*
X95027403Y-93853782D01*
X95047920Y-93866079D01*
X95067133Y-93880329D01*
X95084857Y-93896393D01*
X95100921Y-93914117D01*
X95115171Y-93933330D01*
X95127468Y-93953847D01*
X95137696Y-93975471D01*
X95145754Y-93997993D01*
X95151566Y-94021197D01*
X95155076Y-94044858D01*
X95156250Y-94068750D01*
X95156250Y-94556250D01*
X95155076Y-94580142D01*
X95151566Y-94603803D01*
X95145754Y-94627007D01*
X95137696Y-94649529D01*
X95127468Y-94671153D01*
X95115171Y-94691670D01*
X95100921Y-94710883D01*
X95084857Y-94728607D01*
X95067133Y-94744671D01*
X95047920Y-94758921D01*
X95027403Y-94771218D01*
X95005779Y-94781446D01*
X94983257Y-94789504D01*
X94960053Y-94795316D01*
X94936392Y-94798826D01*
X94912500Y-94800000D01*
X94000000Y-94800000D01*
X93976108Y-94798826D01*
X93952447Y-94795316D01*
X93929243Y-94789504D01*
X93906721Y-94781446D01*
X93885097Y-94771218D01*
X93864580Y-94758921D01*
X93845367Y-94744671D01*
X93827643Y-94728607D01*
X93811579Y-94710883D01*
X93797329Y-94691670D01*
X93785032Y-94671153D01*
X93774804Y-94649529D01*
X93766746Y-94627007D01*
X93760934Y-94603803D01*
X93757424Y-94580142D01*
X93756250Y-94556250D01*
X93756250Y-94068750D01*
X93757424Y-94044858D01*
X93760934Y-94021197D01*
X93766746Y-93997993D01*
X93774804Y-93975471D01*
X93785032Y-93953847D01*
X93797329Y-93933330D01*
X93811579Y-93914117D01*
X93827643Y-93896393D01*
X93845367Y-93880329D01*
X93864580Y-93866079D01*
X93885097Y-93853782D01*
X93906721Y-93843554D01*
X93929243Y-93835496D01*
X93952447Y-93829684D01*
X93976108Y-93826174D01*
X94000000Y-93825000D01*
X94912500Y-93825000D01*
X94936392Y-93826174D01*
X94936392Y-93826174D01*
G37*
D20*
X94456250Y-94312500D03*
D19*
G36*
X88586392Y-89063674D02*
G01*
X88610053Y-89067184D01*
X88633257Y-89072996D01*
X88655779Y-89081054D01*
X88677403Y-89091282D01*
X88697920Y-89103579D01*
X88717133Y-89117829D01*
X88734857Y-89133893D01*
X88750921Y-89151617D01*
X88765171Y-89170830D01*
X88777468Y-89191347D01*
X88787696Y-89212971D01*
X88795754Y-89235493D01*
X88801566Y-89258697D01*
X88805076Y-89282358D01*
X88806250Y-89306250D01*
X88806250Y-89793750D01*
X88805076Y-89817642D01*
X88801566Y-89841303D01*
X88795754Y-89864507D01*
X88787696Y-89887029D01*
X88777468Y-89908653D01*
X88765171Y-89929170D01*
X88750921Y-89948383D01*
X88734857Y-89966107D01*
X88717133Y-89982171D01*
X88697920Y-89996421D01*
X88677403Y-90008718D01*
X88655779Y-90018946D01*
X88633257Y-90027004D01*
X88610053Y-90032816D01*
X88586392Y-90036326D01*
X88562500Y-90037500D01*
X87650000Y-90037500D01*
X87626108Y-90036326D01*
X87602447Y-90032816D01*
X87579243Y-90027004D01*
X87556721Y-90018946D01*
X87535097Y-90008718D01*
X87514580Y-89996421D01*
X87495367Y-89982171D01*
X87477643Y-89966107D01*
X87461579Y-89948383D01*
X87447329Y-89929170D01*
X87435032Y-89908653D01*
X87424804Y-89887029D01*
X87416746Y-89864507D01*
X87410934Y-89841303D01*
X87407424Y-89817642D01*
X87406250Y-89793750D01*
X87406250Y-89306250D01*
X87407424Y-89282358D01*
X87410934Y-89258697D01*
X87416746Y-89235493D01*
X87424804Y-89212971D01*
X87435032Y-89191347D01*
X87447329Y-89170830D01*
X87461579Y-89151617D01*
X87477643Y-89133893D01*
X87495367Y-89117829D01*
X87514580Y-89103579D01*
X87535097Y-89091282D01*
X87556721Y-89081054D01*
X87579243Y-89072996D01*
X87602447Y-89067184D01*
X87626108Y-89063674D01*
X87650000Y-89062500D01*
X88562500Y-89062500D01*
X88586392Y-89063674D01*
X88586392Y-89063674D01*
G37*
D20*
X88106250Y-89550000D03*
D19*
G36*
X88586392Y-90938674D02*
G01*
X88610053Y-90942184D01*
X88633257Y-90947996D01*
X88655779Y-90956054D01*
X88677403Y-90966282D01*
X88697920Y-90978579D01*
X88717133Y-90992829D01*
X88734857Y-91008893D01*
X88750921Y-91026617D01*
X88765171Y-91045830D01*
X88777468Y-91066347D01*
X88787696Y-91087971D01*
X88795754Y-91110493D01*
X88801566Y-91133697D01*
X88805076Y-91157358D01*
X88806250Y-91181250D01*
X88806250Y-91668750D01*
X88805076Y-91692642D01*
X88801566Y-91716303D01*
X88795754Y-91739507D01*
X88787696Y-91762029D01*
X88777468Y-91783653D01*
X88765171Y-91804170D01*
X88750921Y-91823383D01*
X88734857Y-91841107D01*
X88717133Y-91857171D01*
X88697920Y-91871421D01*
X88677403Y-91883718D01*
X88655779Y-91893946D01*
X88633257Y-91902004D01*
X88610053Y-91907816D01*
X88586392Y-91911326D01*
X88562500Y-91912500D01*
X87650000Y-91912500D01*
X87626108Y-91911326D01*
X87602447Y-91907816D01*
X87579243Y-91902004D01*
X87556721Y-91893946D01*
X87535097Y-91883718D01*
X87514580Y-91871421D01*
X87495367Y-91857171D01*
X87477643Y-91841107D01*
X87461579Y-91823383D01*
X87447329Y-91804170D01*
X87435032Y-91783653D01*
X87424804Y-91762029D01*
X87416746Y-91739507D01*
X87410934Y-91716303D01*
X87407424Y-91692642D01*
X87406250Y-91668750D01*
X87406250Y-91181250D01*
X87407424Y-91157358D01*
X87410934Y-91133697D01*
X87416746Y-91110493D01*
X87424804Y-91087971D01*
X87435032Y-91066347D01*
X87447329Y-91045830D01*
X87461579Y-91026617D01*
X87477643Y-91008893D01*
X87495367Y-90992829D01*
X87514580Y-90978579D01*
X87535097Y-90966282D01*
X87556721Y-90956054D01*
X87579243Y-90947996D01*
X87602447Y-90942184D01*
X87626108Y-90938674D01*
X87650000Y-90937500D01*
X88562500Y-90937500D01*
X88586392Y-90938674D01*
X88586392Y-90938674D01*
G37*
D20*
X88106250Y-91425000D03*
D19*
G36*
X86205142Y-89063674D02*
G01*
X86228803Y-89067184D01*
X86252007Y-89072996D01*
X86274529Y-89081054D01*
X86296153Y-89091282D01*
X86316670Y-89103579D01*
X86335883Y-89117829D01*
X86353607Y-89133893D01*
X86369671Y-89151617D01*
X86383921Y-89170830D01*
X86396218Y-89191347D01*
X86406446Y-89212971D01*
X86414504Y-89235493D01*
X86420316Y-89258697D01*
X86423826Y-89282358D01*
X86425000Y-89306250D01*
X86425000Y-89793750D01*
X86423826Y-89817642D01*
X86420316Y-89841303D01*
X86414504Y-89864507D01*
X86406446Y-89887029D01*
X86396218Y-89908653D01*
X86383921Y-89929170D01*
X86369671Y-89948383D01*
X86353607Y-89966107D01*
X86335883Y-89982171D01*
X86316670Y-89996421D01*
X86296153Y-90008718D01*
X86274529Y-90018946D01*
X86252007Y-90027004D01*
X86228803Y-90032816D01*
X86205142Y-90036326D01*
X86181250Y-90037500D01*
X85268750Y-90037500D01*
X85244858Y-90036326D01*
X85221197Y-90032816D01*
X85197993Y-90027004D01*
X85175471Y-90018946D01*
X85153847Y-90008718D01*
X85133330Y-89996421D01*
X85114117Y-89982171D01*
X85096393Y-89966107D01*
X85080329Y-89948383D01*
X85066079Y-89929170D01*
X85053782Y-89908653D01*
X85043554Y-89887029D01*
X85035496Y-89864507D01*
X85029684Y-89841303D01*
X85026174Y-89817642D01*
X85025000Y-89793750D01*
X85025000Y-89306250D01*
X85026174Y-89282358D01*
X85029684Y-89258697D01*
X85035496Y-89235493D01*
X85043554Y-89212971D01*
X85053782Y-89191347D01*
X85066079Y-89170830D01*
X85080329Y-89151617D01*
X85096393Y-89133893D01*
X85114117Y-89117829D01*
X85133330Y-89103579D01*
X85153847Y-89091282D01*
X85175471Y-89081054D01*
X85197993Y-89072996D01*
X85221197Y-89067184D01*
X85244858Y-89063674D01*
X85268750Y-89062500D01*
X86181250Y-89062500D01*
X86205142Y-89063674D01*
X86205142Y-89063674D01*
G37*
D20*
X85725000Y-89550000D03*
D19*
G36*
X86205142Y-90938674D02*
G01*
X86228803Y-90942184D01*
X86252007Y-90947996D01*
X86274529Y-90956054D01*
X86296153Y-90966282D01*
X86316670Y-90978579D01*
X86335883Y-90992829D01*
X86353607Y-91008893D01*
X86369671Y-91026617D01*
X86383921Y-91045830D01*
X86396218Y-91066347D01*
X86406446Y-91087971D01*
X86414504Y-91110493D01*
X86420316Y-91133697D01*
X86423826Y-91157358D01*
X86425000Y-91181250D01*
X86425000Y-91668750D01*
X86423826Y-91692642D01*
X86420316Y-91716303D01*
X86414504Y-91739507D01*
X86406446Y-91762029D01*
X86396218Y-91783653D01*
X86383921Y-91804170D01*
X86369671Y-91823383D01*
X86353607Y-91841107D01*
X86335883Y-91857171D01*
X86316670Y-91871421D01*
X86296153Y-91883718D01*
X86274529Y-91893946D01*
X86252007Y-91902004D01*
X86228803Y-91907816D01*
X86205142Y-91911326D01*
X86181250Y-91912500D01*
X85268750Y-91912500D01*
X85244858Y-91911326D01*
X85221197Y-91907816D01*
X85197993Y-91902004D01*
X85175471Y-91893946D01*
X85153847Y-91883718D01*
X85133330Y-91871421D01*
X85114117Y-91857171D01*
X85096393Y-91841107D01*
X85080329Y-91823383D01*
X85066079Y-91804170D01*
X85053782Y-91783653D01*
X85043554Y-91762029D01*
X85035496Y-91739507D01*
X85029684Y-91716303D01*
X85026174Y-91692642D01*
X85025000Y-91668750D01*
X85025000Y-91181250D01*
X85026174Y-91157358D01*
X85029684Y-91133697D01*
X85035496Y-91110493D01*
X85043554Y-91087971D01*
X85053782Y-91066347D01*
X85066079Y-91045830D01*
X85080329Y-91026617D01*
X85096393Y-91008893D01*
X85114117Y-90992829D01*
X85133330Y-90978579D01*
X85153847Y-90966282D01*
X85175471Y-90956054D01*
X85197993Y-90947996D01*
X85221197Y-90942184D01*
X85244858Y-90938674D01*
X85268750Y-90937500D01*
X86181250Y-90937500D01*
X86205142Y-90938674D01*
X86205142Y-90938674D01*
G37*
D20*
X85725000Y-91425000D03*
D19*
G36*
X83199504Y-95607454D02*
G01*
X83223773Y-95611054D01*
X83247571Y-95617015D01*
X83270671Y-95625280D01*
X83292849Y-95635770D01*
X83313893Y-95648383D01*
X83333598Y-95662997D01*
X83351777Y-95679473D01*
X83368253Y-95697652D01*
X83382867Y-95717357D01*
X83395480Y-95738401D01*
X83405970Y-95760579D01*
X83414235Y-95783679D01*
X83420196Y-95807477D01*
X83423796Y-95831746D01*
X83425000Y-95856250D01*
X83425000Y-96606250D01*
X83423796Y-96630754D01*
X83420196Y-96655023D01*
X83414235Y-96678821D01*
X83405970Y-96701921D01*
X83395480Y-96724099D01*
X83382867Y-96745143D01*
X83368253Y-96764848D01*
X83351777Y-96783027D01*
X83333598Y-96799503D01*
X83313893Y-96814117D01*
X83292849Y-96826730D01*
X83270671Y-96837220D01*
X83247571Y-96845485D01*
X83223773Y-96851446D01*
X83199504Y-96855046D01*
X83175000Y-96856250D01*
X81925000Y-96856250D01*
X81900496Y-96855046D01*
X81876227Y-96851446D01*
X81852429Y-96845485D01*
X81829329Y-96837220D01*
X81807151Y-96826730D01*
X81786107Y-96814117D01*
X81766402Y-96799503D01*
X81748223Y-96783027D01*
X81731747Y-96764848D01*
X81717133Y-96745143D01*
X81704520Y-96724099D01*
X81694030Y-96701921D01*
X81685765Y-96678821D01*
X81679804Y-96655023D01*
X81676204Y-96630754D01*
X81675000Y-96606250D01*
X81675000Y-95856250D01*
X81676204Y-95831746D01*
X81679804Y-95807477D01*
X81685765Y-95783679D01*
X81694030Y-95760579D01*
X81704520Y-95738401D01*
X81717133Y-95717357D01*
X81731747Y-95697652D01*
X81748223Y-95679473D01*
X81766402Y-95662997D01*
X81786107Y-95648383D01*
X81807151Y-95635770D01*
X81829329Y-95625280D01*
X81852429Y-95617015D01*
X81876227Y-95611054D01*
X81900496Y-95607454D01*
X81925000Y-95606250D01*
X83175000Y-95606250D01*
X83199504Y-95607454D01*
X83199504Y-95607454D01*
G37*
D21*
X82550000Y-96231250D03*
D19*
G36*
X83199504Y-98407454D02*
G01*
X83223773Y-98411054D01*
X83247571Y-98417015D01*
X83270671Y-98425280D01*
X83292849Y-98435770D01*
X83313893Y-98448383D01*
X83333598Y-98462997D01*
X83351777Y-98479473D01*
X83368253Y-98497652D01*
X83382867Y-98517357D01*
X83395480Y-98538401D01*
X83405970Y-98560579D01*
X83414235Y-98583679D01*
X83420196Y-98607477D01*
X83423796Y-98631746D01*
X83425000Y-98656250D01*
X83425000Y-99406250D01*
X83423796Y-99430754D01*
X83420196Y-99455023D01*
X83414235Y-99478821D01*
X83405970Y-99501921D01*
X83395480Y-99524099D01*
X83382867Y-99545143D01*
X83368253Y-99564848D01*
X83351777Y-99583027D01*
X83333598Y-99599503D01*
X83313893Y-99614117D01*
X83292849Y-99626730D01*
X83270671Y-99637220D01*
X83247571Y-99645485D01*
X83223773Y-99651446D01*
X83199504Y-99655046D01*
X83175000Y-99656250D01*
X81925000Y-99656250D01*
X81900496Y-99655046D01*
X81876227Y-99651446D01*
X81852429Y-99645485D01*
X81829329Y-99637220D01*
X81807151Y-99626730D01*
X81786107Y-99614117D01*
X81766402Y-99599503D01*
X81748223Y-99583027D01*
X81731747Y-99564848D01*
X81717133Y-99545143D01*
X81704520Y-99524099D01*
X81694030Y-99501921D01*
X81685765Y-99478821D01*
X81679804Y-99455023D01*
X81676204Y-99430754D01*
X81675000Y-99406250D01*
X81675000Y-98656250D01*
X81676204Y-98631746D01*
X81679804Y-98607477D01*
X81685765Y-98583679D01*
X81694030Y-98560579D01*
X81704520Y-98538401D01*
X81717133Y-98517357D01*
X81731747Y-98497652D01*
X81748223Y-98479473D01*
X81766402Y-98462997D01*
X81786107Y-98448383D01*
X81807151Y-98435770D01*
X81829329Y-98425280D01*
X81852429Y-98417015D01*
X81876227Y-98411054D01*
X81900496Y-98407454D01*
X81925000Y-98406250D01*
X83175000Y-98406250D01*
X83199504Y-98407454D01*
X83199504Y-98407454D01*
G37*
D21*
X82550000Y-99031250D03*
D19*
G36*
X96453392Y-100996424D02*
G01*
X96477053Y-100999934D01*
X96500257Y-101005746D01*
X96522779Y-101013804D01*
X96544403Y-101024032D01*
X96564920Y-101036329D01*
X96584133Y-101050579D01*
X96601857Y-101066643D01*
X96617921Y-101084367D01*
X96632171Y-101103580D01*
X96644468Y-101124097D01*
X96654696Y-101145721D01*
X96662754Y-101168243D01*
X96668566Y-101191447D01*
X96672076Y-101215108D01*
X96673250Y-101239000D01*
X96673250Y-102151500D01*
X96672076Y-102175392D01*
X96668566Y-102199053D01*
X96662754Y-102222257D01*
X96654696Y-102244779D01*
X96644468Y-102266403D01*
X96632171Y-102286920D01*
X96617921Y-102306133D01*
X96601857Y-102323857D01*
X96584133Y-102339921D01*
X96564920Y-102354171D01*
X96544403Y-102366468D01*
X96522779Y-102376696D01*
X96500257Y-102384754D01*
X96477053Y-102390566D01*
X96453392Y-102394076D01*
X96429500Y-102395250D01*
X95942000Y-102395250D01*
X95918108Y-102394076D01*
X95894447Y-102390566D01*
X95871243Y-102384754D01*
X95848721Y-102376696D01*
X95827097Y-102366468D01*
X95806580Y-102354171D01*
X95787367Y-102339921D01*
X95769643Y-102323857D01*
X95753579Y-102306133D01*
X95739329Y-102286920D01*
X95727032Y-102266403D01*
X95716804Y-102244779D01*
X95708746Y-102222257D01*
X95702934Y-102199053D01*
X95699424Y-102175392D01*
X95698250Y-102151500D01*
X95698250Y-101239000D01*
X95699424Y-101215108D01*
X95702934Y-101191447D01*
X95708746Y-101168243D01*
X95716804Y-101145721D01*
X95727032Y-101124097D01*
X95739329Y-101103580D01*
X95753579Y-101084367D01*
X95769643Y-101066643D01*
X95787367Y-101050579D01*
X95806580Y-101036329D01*
X95827097Y-101024032D01*
X95848721Y-101013804D01*
X95871243Y-101005746D01*
X95894447Y-100999934D01*
X95918108Y-100996424D01*
X95942000Y-100995250D01*
X96429500Y-100995250D01*
X96453392Y-100996424D01*
X96453392Y-100996424D01*
G37*
D20*
X96185750Y-101695250D03*
D19*
G36*
X98328392Y-100996424D02*
G01*
X98352053Y-100999934D01*
X98375257Y-101005746D01*
X98397779Y-101013804D01*
X98419403Y-101024032D01*
X98439920Y-101036329D01*
X98459133Y-101050579D01*
X98476857Y-101066643D01*
X98492921Y-101084367D01*
X98507171Y-101103580D01*
X98519468Y-101124097D01*
X98529696Y-101145721D01*
X98537754Y-101168243D01*
X98543566Y-101191447D01*
X98547076Y-101215108D01*
X98548250Y-101239000D01*
X98548250Y-102151500D01*
X98547076Y-102175392D01*
X98543566Y-102199053D01*
X98537754Y-102222257D01*
X98529696Y-102244779D01*
X98519468Y-102266403D01*
X98507171Y-102286920D01*
X98492921Y-102306133D01*
X98476857Y-102323857D01*
X98459133Y-102339921D01*
X98439920Y-102354171D01*
X98419403Y-102366468D01*
X98397779Y-102376696D01*
X98375257Y-102384754D01*
X98352053Y-102390566D01*
X98328392Y-102394076D01*
X98304500Y-102395250D01*
X97817000Y-102395250D01*
X97793108Y-102394076D01*
X97769447Y-102390566D01*
X97746243Y-102384754D01*
X97723721Y-102376696D01*
X97702097Y-102366468D01*
X97681580Y-102354171D01*
X97662367Y-102339921D01*
X97644643Y-102323857D01*
X97628579Y-102306133D01*
X97614329Y-102286920D01*
X97602032Y-102266403D01*
X97591804Y-102244779D01*
X97583746Y-102222257D01*
X97577934Y-102199053D01*
X97574424Y-102175392D01*
X97573250Y-102151500D01*
X97573250Y-101239000D01*
X97574424Y-101215108D01*
X97577934Y-101191447D01*
X97583746Y-101168243D01*
X97591804Y-101145721D01*
X97602032Y-101124097D01*
X97614329Y-101103580D01*
X97628579Y-101084367D01*
X97644643Y-101066643D01*
X97662367Y-101050579D01*
X97681580Y-101036329D01*
X97702097Y-101024032D01*
X97723721Y-101013804D01*
X97746243Y-101005746D01*
X97769447Y-100999934D01*
X97793108Y-100996424D01*
X97817000Y-100995250D01*
X98304500Y-100995250D01*
X98328392Y-100996424D01*
X98328392Y-100996424D01*
G37*
D20*
X98060750Y-101695250D03*
D19*
G36*
X101699142Y-87698424D02*
G01*
X101722803Y-87701934D01*
X101746007Y-87707746D01*
X101768529Y-87715804D01*
X101790153Y-87726032D01*
X101810670Y-87738329D01*
X101829883Y-87752579D01*
X101847607Y-87768643D01*
X101863671Y-87786367D01*
X101877921Y-87805580D01*
X101890218Y-87826097D01*
X101900446Y-87847721D01*
X101908504Y-87870243D01*
X101914316Y-87893447D01*
X101917826Y-87917108D01*
X101919000Y-87941000D01*
X101919000Y-88428500D01*
X101917826Y-88452392D01*
X101914316Y-88476053D01*
X101908504Y-88499257D01*
X101900446Y-88521779D01*
X101890218Y-88543403D01*
X101877921Y-88563920D01*
X101863671Y-88583133D01*
X101847607Y-88600857D01*
X101829883Y-88616921D01*
X101810670Y-88631171D01*
X101790153Y-88643468D01*
X101768529Y-88653696D01*
X101746007Y-88661754D01*
X101722803Y-88667566D01*
X101699142Y-88671076D01*
X101675250Y-88672250D01*
X100762750Y-88672250D01*
X100738858Y-88671076D01*
X100715197Y-88667566D01*
X100691993Y-88661754D01*
X100669471Y-88653696D01*
X100647847Y-88643468D01*
X100627330Y-88631171D01*
X100608117Y-88616921D01*
X100590393Y-88600857D01*
X100574329Y-88583133D01*
X100560079Y-88563920D01*
X100547782Y-88543403D01*
X100537554Y-88521779D01*
X100529496Y-88499257D01*
X100523684Y-88476053D01*
X100520174Y-88452392D01*
X100519000Y-88428500D01*
X100519000Y-87941000D01*
X100520174Y-87917108D01*
X100523684Y-87893447D01*
X100529496Y-87870243D01*
X100537554Y-87847721D01*
X100547782Y-87826097D01*
X100560079Y-87805580D01*
X100574329Y-87786367D01*
X100590393Y-87768643D01*
X100608117Y-87752579D01*
X100627330Y-87738329D01*
X100647847Y-87726032D01*
X100669471Y-87715804D01*
X100691993Y-87707746D01*
X100715197Y-87701934D01*
X100738858Y-87698424D01*
X100762750Y-87697250D01*
X101675250Y-87697250D01*
X101699142Y-87698424D01*
X101699142Y-87698424D01*
G37*
D20*
X101219000Y-88184750D03*
D19*
G36*
X101699142Y-89573424D02*
G01*
X101722803Y-89576934D01*
X101746007Y-89582746D01*
X101768529Y-89590804D01*
X101790153Y-89601032D01*
X101810670Y-89613329D01*
X101829883Y-89627579D01*
X101847607Y-89643643D01*
X101863671Y-89661367D01*
X101877921Y-89680580D01*
X101890218Y-89701097D01*
X101900446Y-89722721D01*
X101908504Y-89745243D01*
X101914316Y-89768447D01*
X101917826Y-89792108D01*
X101919000Y-89816000D01*
X101919000Y-90303500D01*
X101917826Y-90327392D01*
X101914316Y-90351053D01*
X101908504Y-90374257D01*
X101900446Y-90396779D01*
X101890218Y-90418403D01*
X101877921Y-90438920D01*
X101863671Y-90458133D01*
X101847607Y-90475857D01*
X101829883Y-90491921D01*
X101810670Y-90506171D01*
X101790153Y-90518468D01*
X101768529Y-90528696D01*
X101746007Y-90536754D01*
X101722803Y-90542566D01*
X101699142Y-90546076D01*
X101675250Y-90547250D01*
X100762750Y-90547250D01*
X100738858Y-90546076D01*
X100715197Y-90542566D01*
X100691993Y-90536754D01*
X100669471Y-90528696D01*
X100647847Y-90518468D01*
X100627330Y-90506171D01*
X100608117Y-90491921D01*
X100590393Y-90475857D01*
X100574329Y-90458133D01*
X100560079Y-90438920D01*
X100547782Y-90418403D01*
X100537554Y-90396779D01*
X100529496Y-90374257D01*
X100523684Y-90351053D01*
X100520174Y-90327392D01*
X100519000Y-90303500D01*
X100519000Y-89816000D01*
X100520174Y-89792108D01*
X100523684Y-89768447D01*
X100529496Y-89745243D01*
X100537554Y-89722721D01*
X100547782Y-89701097D01*
X100560079Y-89680580D01*
X100574329Y-89661367D01*
X100590393Y-89643643D01*
X100608117Y-89627579D01*
X100627330Y-89613329D01*
X100647847Y-89601032D01*
X100669471Y-89590804D01*
X100691993Y-89582746D01*
X100715197Y-89576934D01*
X100738858Y-89573424D01*
X100762750Y-89572250D01*
X101675250Y-89572250D01*
X101699142Y-89573424D01*
X101699142Y-89573424D01*
G37*
D20*
X101219000Y-90059750D03*
D19*
G36*
X111224142Y-89573424D02*
G01*
X111247803Y-89576934D01*
X111271007Y-89582746D01*
X111293529Y-89590804D01*
X111315153Y-89601032D01*
X111335670Y-89613329D01*
X111354883Y-89627579D01*
X111372607Y-89643643D01*
X111388671Y-89661367D01*
X111402921Y-89680580D01*
X111415218Y-89701097D01*
X111425446Y-89722721D01*
X111433504Y-89745243D01*
X111439316Y-89768447D01*
X111442826Y-89792108D01*
X111444000Y-89816000D01*
X111444000Y-90303500D01*
X111442826Y-90327392D01*
X111439316Y-90351053D01*
X111433504Y-90374257D01*
X111425446Y-90396779D01*
X111415218Y-90418403D01*
X111402921Y-90438920D01*
X111388671Y-90458133D01*
X111372607Y-90475857D01*
X111354883Y-90491921D01*
X111335670Y-90506171D01*
X111315153Y-90518468D01*
X111293529Y-90528696D01*
X111271007Y-90536754D01*
X111247803Y-90542566D01*
X111224142Y-90546076D01*
X111200250Y-90547250D01*
X110287750Y-90547250D01*
X110263858Y-90546076D01*
X110240197Y-90542566D01*
X110216993Y-90536754D01*
X110194471Y-90528696D01*
X110172847Y-90518468D01*
X110152330Y-90506171D01*
X110133117Y-90491921D01*
X110115393Y-90475857D01*
X110099329Y-90458133D01*
X110085079Y-90438920D01*
X110072782Y-90418403D01*
X110062554Y-90396779D01*
X110054496Y-90374257D01*
X110048684Y-90351053D01*
X110045174Y-90327392D01*
X110044000Y-90303500D01*
X110044000Y-89816000D01*
X110045174Y-89792108D01*
X110048684Y-89768447D01*
X110054496Y-89745243D01*
X110062554Y-89722721D01*
X110072782Y-89701097D01*
X110085079Y-89680580D01*
X110099329Y-89661367D01*
X110115393Y-89643643D01*
X110133117Y-89627579D01*
X110152330Y-89613329D01*
X110172847Y-89601032D01*
X110194471Y-89590804D01*
X110216993Y-89582746D01*
X110240197Y-89576934D01*
X110263858Y-89573424D01*
X110287750Y-89572250D01*
X111200250Y-89572250D01*
X111224142Y-89573424D01*
X111224142Y-89573424D01*
G37*
D20*
X110744000Y-90059750D03*
D19*
G36*
X111224142Y-87698424D02*
G01*
X111247803Y-87701934D01*
X111271007Y-87707746D01*
X111293529Y-87715804D01*
X111315153Y-87726032D01*
X111335670Y-87738329D01*
X111354883Y-87752579D01*
X111372607Y-87768643D01*
X111388671Y-87786367D01*
X111402921Y-87805580D01*
X111415218Y-87826097D01*
X111425446Y-87847721D01*
X111433504Y-87870243D01*
X111439316Y-87893447D01*
X111442826Y-87917108D01*
X111444000Y-87941000D01*
X111444000Y-88428500D01*
X111442826Y-88452392D01*
X111439316Y-88476053D01*
X111433504Y-88499257D01*
X111425446Y-88521779D01*
X111415218Y-88543403D01*
X111402921Y-88563920D01*
X111388671Y-88583133D01*
X111372607Y-88600857D01*
X111354883Y-88616921D01*
X111335670Y-88631171D01*
X111315153Y-88643468D01*
X111293529Y-88653696D01*
X111271007Y-88661754D01*
X111247803Y-88667566D01*
X111224142Y-88671076D01*
X111200250Y-88672250D01*
X110287750Y-88672250D01*
X110263858Y-88671076D01*
X110240197Y-88667566D01*
X110216993Y-88661754D01*
X110194471Y-88653696D01*
X110172847Y-88643468D01*
X110152330Y-88631171D01*
X110133117Y-88616921D01*
X110115393Y-88600857D01*
X110099329Y-88583133D01*
X110085079Y-88563920D01*
X110072782Y-88543403D01*
X110062554Y-88521779D01*
X110054496Y-88499257D01*
X110048684Y-88476053D01*
X110045174Y-88452392D01*
X110044000Y-88428500D01*
X110044000Y-87941000D01*
X110045174Y-87917108D01*
X110048684Y-87893447D01*
X110054496Y-87870243D01*
X110062554Y-87847721D01*
X110072782Y-87826097D01*
X110085079Y-87805580D01*
X110099329Y-87786367D01*
X110115393Y-87768643D01*
X110133117Y-87752579D01*
X110152330Y-87738329D01*
X110172847Y-87726032D01*
X110194471Y-87715804D01*
X110216993Y-87707746D01*
X110240197Y-87701934D01*
X110263858Y-87698424D01*
X110287750Y-87697250D01*
X111200250Y-87697250D01*
X111224142Y-87698424D01*
X111224142Y-87698424D01*
G37*
D20*
X110744000Y-88184750D03*
D19*
G36*
X97317642Y-106813674D02*
G01*
X97341303Y-106817184D01*
X97364507Y-106822996D01*
X97387029Y-106831054D01*
X97408653Y-106841282D01*
X97429170Y-106853579D01*
X97448383Y-106867829D01*
X97466107Y-106883893D01*
X97482171Y-106901617D01*
X97496421Y-106920830D01*
X97508718Y-106941347D01*
X97518946Y-106962971D01*
X97527004Y-106985493D01*
X97532816Y-107008697D01*
X97536326Y-107032358D01*
X97537500Y-107056250D01*
X97537500Y-107543750D01*
X97536326Y-107567642D01*
X97532816Y-107591303D01*
X97527004Y-107614507D01*
X97518946Y-107637029D01*
X97508718Y-107658653D01*
X97496421Y-107679170D01*
X97482171Y-107698383D01*
X97466107Y-107716107D01*
X97448383Y-107732171D01*
X97429170Y-107746421D01*
X97408653Y-107758718D01*
X97387029Y-107768946D01*
X97364507Y-107777004D01*
X97341303Y-107782816D01*
X97317642Y-107786326D01*
X97293750Y-107787500D01*
X96381250Y-107787500D01*
X96357358Y-107786326D01*
X96333697Y-107782816D01*
X96310493Y-107777004D01*
X96287971Y-107768946D01*
X96266347Y-107758718D01*
X96245830Y-107746421D01*
X96226617Y-107732171D01*
X96208893Y-107716107D01*
X96192829Y-107698383D01*
X96178579Y-107679170D01*
X96166282Y-107658653D01*
X96156054Y-107637029D01*
X96147996Y-107614507D01*
X96142184Y-107591303D01*
X96138674Y-107567642D01*
X96137500Y-107543750D01*
X96137500Y-107056250D01*
X96138674Y-107032358D01*
X96142184Y-107008697D01*
X96147996Y-106985493D01*
X96156054Y-106962971D01*
X96166282Y-106941347D01*
X96178579Y-106920830D01*
X96192829Y-106901617D01*
X96208893Y-106883893D01*
X96226617Y-106867829D01*
X96245830Y-106853579D01*
X96266347Y-106841282D01*
X96287971Y-106831054D01*
X96310493Y-106822996D01*
X96333697Y-106817184D01*
X96357358Y-106813674D01*
X96381250Y-106812500D01*
X97293750Y-106812500D01*
X97317642Y-106813674D01*
X97317642Y-106813674D01*
G37*
D20*
X96837500Y-107300000D03*
D19*
G36*
X97317642Y-104938674D02*
G01*
X97341303Y-104942184D01*
X97364507Y-104947996D01*
X97387029Y-104956054D01*
X97408653Y-104966282D01*
X97429170Y-104978579D01*
X97448383Y-104992829D01*
X97466107Y-105008893D01*
X97482171Y-105026617D01*
X97496421Y-105045830D01*
X97508718Y-105066347D01*
X97518946Y-105087971D01*
X97527004Y-105110493D01*
X97532816Y-105133697D01*
X97536326Y-105157358D01*
X97537500Y-105181250D01*
X97537500Y-105668750D01*
X97536326Y-105692642D01*
X97532816Y-105716303D01*
X97527004Y-105739507D01*
X97518946Y-105762029D01*
X97508718Y-105783653D01*
X97496421Y-105804170D01*
X97482171Y-105823383D01*
X97466107Y-105841107D01*
X97448383Y-105857171D01*
X97429170Y-105871421D01*
X97408653Y-105883718D01*
X97387029Y-105893946D01*
X97364507Y-105902004D01*
X97341303Y-105907816D01*
X97317642Y-105911326D01*
X97293750Y-105912500D01*
X96381250Y-105912500D01*
X96357358Y-105911326D01*
X96333697Y-105907816D01*
X96310493Y-105902004D01*
X96287971Y-105893946D01*
X96266347Y-105883718D01*
X96245830Y-105871421D01*
X96226617Y-105857171D01*
X96208893Y-105841107D01*
X96192829Y-105823383D01*
X96178579Y-105804170D01*
X96166282Y-105783653D01*
X96156054Y-105762029D01*
X96147996Y-105739507D01*
X96142184Y-105716303D01*
X96138674Y-105692642D01*
X96137500Y-105668750D01*
X96137500Y-105181250D01*
X96138674Y-105157358D01*
X96142184Y-105133697D01*
X96147996Y-105110493D01*
X96156054Y-105087971D01*
X96166282Y-105066347D01*
X96178579Y-105045830D01*
X96192829Y-105026617D01*
X96208893Y-105008893D01*
X96226617Y-104992829D01*
X96245830Y-104978579D01*
X96266347Y-104966282D01*
X96287971Y-104956054D01*
X96310493Y-104947996D01*
X96333697Y-104942184D01*
X96357358Y-104938674D01*
X96381250Y-104937500D01*
X97293750Y-104937500D01*
X97317642Y-104938674D01*
X97317642Y-104938674D01*
G37*
D20*
X96837500Y-105425000D03*
D19*
G36*
X109788392Y-110394424D02*
G01*
X109812053Y-110397934D01*
X109835257Y-110403746D01*
X109857779Y-110411804D01*
X109879403Y-110422032D01*
X109899920Y-110434329D01*
X109919133Y-110448579D01*
X109936857Y-110464643D01*
X109952921Y-110482367D01*
X109967171Y-110501580D01*
X109979468Y-110522097D01*
X109989696Y-110543721D01*
X109997754Y-110566243D01*
X110003566Y-110589447D01*
X110007076Y-110613108D01*
X110008250Y-110637000D01*
X110008250Y-111549500D01*
X110007076Y-111573392D01*
X110003566Y-111597053D01*
X109997754Y-111620257D01*
X109989696Y-111642779D01*
X109979468Y-111664403D01*
X109967171Y-111684920D01*
X109952921Y-111704133D01*
X109936857Y-111721857D01*
X109919133Y-111737921D01*
X109899920Y-111752171D01*
X109879403Y-111764468D01*
X109857779Y-111774696D01*
X109835257Y-111782754D01*
X109812053Y-111788566D01*
X109788392Y-111792076D01*
X109764500Y-111793250D01*
X109277000Y-111793250D01*
X109253108Y-111792076D01*
X109229447Y-111788566D01*
X109206243Y-111782754D01*
X109183721Y-111774696D01*
X109162097Y-111764468D01*
X109141580Y-111752171D01*
X109122367Y-111737921D01*
X109104643Y-111721857D01*
X109088579Y-111704133D01*
X109074329Y-111684920D01*
X109062032Y-111664403D01*
X109051804Y-111642779D01*
X109043746Y-111620257D01*
X109037934Y-111597053D01*
X109034424Y-111573392D01*
X109033250Y-111549500D01*
X109033250Y-110637000D01*
X109034424Y-110613108D01*
X109037934Y-110589447D01*
X109043746Y-110566243D01*
X109051804Y-110543721D01*
X109062032Y-110522097D01*
X109074329Y-110501580D01*
X109088579Y-110482367D01*
X109104643Y-110464643D01*
X109122367Y-110448579D01*
X109141580Y-110434329D01*
X109162097Y-110422032D01*
X109183721Y-110411804D01*
X109206243Y-110403746D01*
X109229447Y-110397934D01*
X109253108Y-110394424D01*
X109277000Y-110393250D01*
X109764500Y-110393250D01*
X109788392Y-110394424D01*
X109788392Y-110394424D01*
G37*
D20*
X109520750Y-111093250D03*
D19*
G36*
X111663392Y-110394424D02*
G01*
X111687053Y-110397934D01*
X111710257Y-110403746D01*
X111732779Y-110411804D01*
X111754403Y-110422032D01*
X111774920Y-110434329D01*
X111794133Y-110448579D01*
X111811857Y-110464643D01*
X111827921Y-110482367D01*
X111842171Y-110501580D01*
X111854468Y-110522097D01*
X111864696Y-110543721D01*
X111872754Y-110566243D01*
X111878566Y-110589447D01*
X111882076Y-110613108D01*
X111883250Y-110637000D01*
X111883250Y-111549500D01*
X111882076Y-111573392D01*
X111878566Y-111597053D01*
X111872754Y-111620257D01*
X111864696Y-111642779D01*
X111854468Y-111664403D01*
X111842171Y-111684920D01*
X111827921Y-111704133D01*
X111811857Y-111721857D01*
X111794133Y-111737921D01*
X111774920Y-111752171D01*
X111754403Y-111764468D01*
X111732779Y-111774696D01*
X111710257Y-111782754D01*
X111687053Y-111788566D01*
X111663392Y-111792076D01*
X111639500Y-111793250D01*
X111152000Y-111793250D01*
X111128108Y-111792076D01*
X111104447Y-111788566D01*
X111081243Y-111782754D01*
X111058721Y-111774696D01*
X111037097Y-111764468D01*
X111016580Y-111752171D01*
X110997367Y-111737921D01*
X110979643Y-111721857D01*
X110963579Y-111704133D01*
X110949329Y-111684920D01*
X110937032Y-111664403D01*
X110926804Y-111642779D01*
X110918746Y-111620257D01*
X110912934Y-111597053D01*
X110909424Y-111573392D01*
X110908250Y-111549500D01*
X110908250Y-110637000D01*
X110909424Y-110613108D01*
X110912934Y-110589447D01*
X110918746Y-110566243D01*
X110926804Y-110543721D01*
X110937032Y-110522097D01*
X110949329Y-110501580D01*
X110963579Y-110482367D01*
X110979643Y-110464643D01*
X110997367Y-110448579D01*
X111016580Y-110434329D01*
X111037097Y-110422032D01*
X111058721Y-110411804D01*
X111081243Y-110403746D01*
X111104447Y-110397934D01*
X111128108Y-110394424D01*
X111152000Y-110393250D01*
X111639500Y-110393250D01*
X111663392Y-110394424D01*
X111663392Y-110394424D01*
G37*
D20*
X111395750Y-111093250D03*
D19*
G36*
X116780392Y-96080424D02*
G01*
X116804053Y-96083934D01*
X116827257Y-96089746D01*
X116849779Y-96097804D01*
X116871403Y-96108032D01*
X116891920Y-96120329D01*
X116911133Y-96134579D01*
X116928857Y-96150643D01*
X116944921Y-96168367D01*
X116959171Y-96187580D01*
X116971468Y-96208097D01*
X116981696Y-96229721D01*
X116989754Y-96252243D01*
X116995566Y-96275447D01*
X116999076Y-96299108D01*
X117000250Y-96323000D01*
X117000250Y-96810500D01*
X116999076Y-96834392D01*
X116995566Y-96858053D01*
X116989754Y-96881257D01*
X116981696Y-96903779D01*
X116971468Y-96925403D01*
X116959171Y-96945920D01*
X116944921Y-96965133D01*
X116928857Y-96982857D01*
X116911133Y-96998921D01*
X116891920Y-97013171D01*
X116871403Y-97025468D01*
X116849779Y-97035696D01*
X116827257Y-97043754D01*
X116804053Y-97049566D01*
X116780392Y-97053076D01*
X116756500Y-97054250D01*
X115844000Y-97054250D01*
X115820108Y-97053076D01*
X115796447Y-97049566D01*
X115773243Y-97043754D01*
X115750721Y-97035696D01*
X115729097Y-97025468D01*
X115708580Y-97013171D01*
X115689367Y-96998921D01*
X115671643Y-96982857D01*
X115655579Y-96965133D01*
X115641329Y-96945920D01*
X115629032Y-96925403D01*
X115618804Y-96903779D01*
X115610746Y-96881257D01*
X115604934Y-96858053D01*
X115601424Y-96834392D01*
X115600250Y-96810500D01*
X115600250Y-96323000D01*
X115601424Y-96299108D01*
X115604934Y-96275447D01*
X115610746Y-96252243D01*
X115618804Y-96229721D01*
X115629032Y-96208097D01*
X115641329Y-96187580D01*
X115655579Y-96168367D01*
X115671643Y-96150643D01*
X115689367Y-96134579D01*
X115708580Y-96120329D01*
X115729097Y-96108032D01*
X115750721Y-96097804D01*
X115773243Y-96089746D01*
X115796447Y-96083934D01*
X115820108Y-96080424D01*
X115844000Y-96079250D01*
X116756500Y-96079250D01*
X116780392Y-96080424D01*
X116780392Y-96080424D01*
G37*
D20*
X116300250Y-96566750D03*
D19*
G36*
X116780392Y-97955424D02*
G01*
X116804053Y-97958934D01*
X116827257Y-97964746D01*
X116849779Y-97972804D01*
X116871403Y-97983032D01*
X116891920Y-97995329D01*
X116911133Y-98009579D01*
X116928857Y-98025643D01*
X116944921Y-98043367D01*
X116959171Y-98062580D01*
X116971468Y-98083097D01*
X116981696Y-98104721D01*
X116989754Y-98127243D01*
X116995566Y-98150447D01*
X116999076Y-98174108D01*
X117000250Y-98198000D01*
X117000250Y-98685500D01*
X116999076Y-98709392D01*
X116995566Y-98733053D01*
X116989754Y-98756257D01*
X116981696Y-98778779D01*
X116971468Y-98800403D01*
X116959171Y-98820920D01*
X116944921Y-98840133D01*
X116928857Y-98857857D01*
X116911133Y-98873921D01*
X116891920Y-98888171D01*
X116871403Y-98900468D01*
X116849779Y-98910696D01*
X116827257Y-98918754D01*
X116804053Y-98924566D01*
X116780392Y-98928076D01*
X116756500Y-98929250D01*
X115844000Y-98929250D01*
X115820108Y-98928076D01*
X115796447Y-98924566D01*
X115773243Y-98918754D01*
X115750721Y-98910696D01*
X115729097Y-98900468D01*
X115708580Y-98888171D01*
X115689367Y-98873921D01*
X115671643Y-98857857D01*
X115655579Y-98840133D01*
X115641329Y-98820920D01*
X115629032Y-98800403D01*
X115618804Y-98778779D01*
X115610746Y-98756257D01*
X115604934Y-98733053D01*
X115601424Y-98709392D01*
X115600250Y-98685500D01*
X115600250Y-98198000D01*
X115601424Y-98174108D01*
X115604934Y-98150447D01*
X115610746Y-98127243D01*
X115618804Y-98104721D01*
X115629032Y-98083097D01*
X115641329Y-98062580D01*
X115655579Y-98043367D01*
X115671643Y-98025643D01*
X115689367Y-98009579D01*
X115708580Y-97995329D01*
X115729097Y-97983032D01*
X115750721Y-97972804D01*
X115773243Y-97964746D01*
X115796447Y-97958934D01*
X115820108Y-97955424D01*
X115844000Y-97954250D01*
X116756500Y-97954250D01*
X116780392Y-97955424D01*
X116780392Y-97955424D01*
G37*
D20*
X116300250Y-98441750D03*
D19*
G36*
X98111392Y-93826174D02*
G01*
X98135053Y-93829684D01*
X98158257Y-93835496D01*
X98180779Y-93843554D01*
X98202403Y-93853782D01*
X98222920Y-93866079D01*
X98242133Y-93880329D01*
X98259857Y-93896393D01*
X98275921Y-93914117D01*
X98290171Y-93933330D01*
X98302468Y-93953847D01*
X98312696Y-93975471D01*
X98320754Y-93997993D01*
X98326566Y-94021197D01*
X98330076Y-94044858D01*
X98331250Y-94068750D01*
X98331250Y-94556250D01*
X98330076Y-94580142D01*
X98326566Y-94603803D01*
X98320754Y-94627007D01*
X98312696Y-94649529D01*
X98302468Y-94671153D01*
X98290171Y-94691670D01*
X98275921Y-94710883D01*
X98259857Y-94728607D01*
X98242133Y-94744671D01*
X98222920Y-94758921D01*
X98202403Y-94771218D01*
X98180779Y-94781446D01*
X98158257Y-94789504D01*
X98135053Y-94795316D01*
X98111392Y-94798826D01*
X98087500Y-94800000D01*
X97175000Y-94800000D01*
X97151108Y-94798826D01*
X97127447Y-94795316D01*
X97104243Y-94789504D01*
X97081721Y-94781446D01*
X97060097Y-94771218D01*
X97039580Y-94758921D01*
X97020367Y-94744671D01*
X97002643Y-94728607D01*
X96986579Y-94710883D01*
X96972329Y-94691670D01*
X96960032Y-94671153D01*
X96949804Y-94649529D01*
X96941746Y-94627007D01*
X96935934Y-94603803D01*
X96932424Y-94580142D01*
X96931250Y-94556250D01*
X96931250Y-94068750D01*
X96932424Y-94044858D01*
X96935934Y-94021197D01*
X96941746Y-93997993D01*
X96949804Y-93975471D01*
X96960032Y-93953847D01*
X96972329Y-93933330D01*
X96986579Y-93914117D01*
X97002643Y-93896393D01*
X97020367Y-93880329D01*
X97039580Y-93866079D01*
X97060097Y-93853782D01*
X97081721Y-93843554D01*
X97104243Y-93835496D01*
X97127447Y-93829684D01*
X97151108Y-93826174D01*
X97175000Y-93825000D01*
X98087500Y-93825000D01*
X98111392Y-93826174D01*
X98111392Y-93826174D01*
G37*
D20*
X97631250Y-94312500D03*
D19*
G36*
X98111392Y-95701174D02*
G01*
X98135053Y-95704684D01*
X98158257Y-95710496D01*
X98180779Y-95718554D01*
X98202403Y-95728782D01*
X98222920Y-95741079D01*
X98242133Y-95755329D01*
X98259857Y-95771393D01*
X98275921Y-95789117D01*
X98290171Y-95808330D01*
X98302468Y-95828847D01*
X98312696Y-95850471D01*
X98320754Y-95872993D01*
X98326566Y-95896197D01*
X98330076Y-95919858D01*
X98331250Y-95943750D01*
X98331250Y-96431250D01*
X98330076Y-96455142D01*
X98326566Y-96478803D01*
X98320754Y-96502007D01*
X98312696Y-96524529D01*
X98302468Y-96546153D01*
X98290171Y-96566670D01*
X98275921Y-96585883D01*
X98259857Y-96603607D01*
X98242133Y-96619671D01*
X98222920Y-96633921D01*
X98202403Y-96646218D01*
X98180779Y-96656446D01*
X98158257Y-96664504D01*
X98135053Y-96670316D01*
X98111392Y-96673826D01*
X98087500Y-96675000D01*
X97175000Y-96675000D01*
X97151108Y-96673826D01*
X97127447Y-96670316D01*
X97104243Y-96664504D01*
X97081721Y-96656446D01*
X97060097Y-96646218D01*
X97039580Y-96633921D01*
X97020367Y-96619671D01*
X97002643Y-96603607D01*
X96986579Y-96585883D01*
X96972329Y-96566670D01*
X96960032Y-96546153D01*
X96949804Y-96524529D01*
X96941746Y-96502007D01*
X96935934Y-96478803D01*
X96932424Y-96455142D01*
X96931250Y-96431250D01*
X96931250Y-95943750D01*
X96932424Y-95919858D01*
X96935934Y-95896197D01*
X96941746Y-95872993D01*
X96949804Y-95850471D01*
X96960032Y-95828847D01*
X96972329Y-95808330D01*
X96986579Y-95789117D01*
X97002643Y-95771393D01*
X97020367Y-95755329D01*
X97039580Y-95741079D01*
X97060097Y-95728782D01*
X97081721Y-95718554D01*
X97104243Y-95710496D01*
X97127447Y-95704684D01*
X97151108Y-95701174D01*
X97175000Y-95700000D01*
X98087500Y-95700000D01*
X98111392Y-95701174D01*
X98111392Y-95701174D01*
G37*
D20*
X97631250Y-96187500D03*
D22*
X90368750Y-120618750D03*
X89713751Y-121348750D03*
D23*
X89058750Y-122078750D02*
X90368752Y-120618750D01*
D22*
X95388750Y-119828750D03*
D23*
X95368750Y-120118750D02*
X95408750Y-119538750D01*
D22*
X95408750Y-119538750D03*
D24*
X92868750Y-124618750D03*
D25*
X87788750Y-124618750D03*
X97948750Y-124618750D03*
D26*
X101393750Y-123468750D03*
X101393750Y-126768750D03*
D22*
X109418750Y-120618750D03*
X108763751Y-121348750D03*
D23*
X108108750Y-122078750D02*
X109418752Y-120618750D01*
D22*
X114438750Y-119828750D03*
D23*
X114418750Y-120118750D02*
X114458750Y-119538750D01*
D22*
X114458750Y-119538750D03*
D24*
X111918750Y-124618750D03*
D25*
X106838750Y-124618750D03*
X116998750Y-124618750D03*
D26*
X120443750Y-123468750D03*
X120443750Y-126768750D03*
D22*
X128468750Y-120618750D03*
X127813751Y-121348750D03*
D23*
X127158750Y-122078750D02*
X128468752Y-120618750D01*
D22*
X133488750Y-119828750D03*
D23*
X133468750Y-120118750D02*
X133508750Y-119538750D01*
D22*
X133508750Y-119538750D03*
D24*
X130968750Y-124618750D03*
D25*
X125888750Y-124618750D03*
X136048750Y-124618750D03*
D26*
X139493750Y-123468750D03*
X139493750Y-126768750D03*
D22*
X147518750Y-120618750D03*
X146863751Y-121348750D03*
D23*
X146208750Y-122078750D02*
X147518752Y-120618750D01*
D22*
X152538750Y-119828750D03*
D23*
X152518750Y-120118750D02*
X152558750Y-119538750D01*
D22*
X152558750Y-119538750D03*
D24*
X150018750Y-124618750D03*
D25*
X144938750Y-124618750D03*
X155098750Y-124618750D03*
D26*
X158543750Y-123468750D03*
X158543750Y-126768750D03*
D22*
X166568750Y-120618750D03*
X165913751Y-121348750D03*
D23*
X165258750Y-122078750D02*
X166568752Y-120618750D01*
D22*
X171588750Y-119828750D03*
D23*
X171568750Y-120118750D02*
X171608750Y-119538750D01*
D22*
X171608750Y-119538750D03*
D24*
X169068750Y-124618750D03*
D25*
X163988750Y-124618750D03*
X174148750Y-124618750D03*
D26*
X177593750Y-123468750D03*
X177593750Y-126768750D03*
D22*
X185618750Y-120618750D03*
X184963751Y-121348750D03*
D23*
X184308750Y-122078750D02*
X185618752Y-120618750D01*
D22*
X190638750Y-119828750D03*
D23*
X190618750Y-120118750D02*
X190658750Y-119538750D01*
D22*
X190658750Y-119538750D03*
D24*
X188118750Y-124618750D03*
D25*
X183038750Y-124618750D03*
X193198750Y-124618750D03*
D26*
X196643750Y-123468750D03*
X196643750Y-126768750D03*
D22*
X204668750Y-120618750D03*
X204013751Y-121348750D03*
D23*
X203358750Y-122078750D02*
X204668752Y-120618750D01*
D22*
X209688750Y-119828750D03*
D23*
X209668750Y-120118750D02*
X209708750Y-119538750D01*
D22*
X209708750Y-119538750D03*
D24*
X207168750Y-124618750D03*
D25*
X202088750Y-124618750D03*
X212248750Y-124618750D03*
D26*
X215693750Y-123468750D03*
X215693750Y-126768750D03*
D22*
X223718750Y-120618750D03*
X223063751Y-121348750D03*
D23*
X222408750Y-122078750D02*
X223718752Y-120618750D01*
D22*
X228738750Y-119828750D03*
D23*
X228718750Y-120118750D02*
X228758750Y-119538750D01*
D22*
X228758750Y-119538750D03*
D24*
X226218750Y-124618750D03*
D25*
X221138750Y-124618750D03*
X231298750Y-124618750D03*
D26*
X234743750Y-123468750D03*
X234743750Y-126768750D03*
D22*
X242768750Y-120618750D03*
X242113751Y-121348750D03*
D23*
X241458750Y-122078750D02*
X242768752Y-120618750D01*
D22*
X247788750Y-119828750D03*
D23*
X247768750Y-120118750D02*
X247808750Y-119538750D01*
D22*
X247808750Y-119538750D03*
D24*
X245268750Y-124618750D03*
D25*
X240188750Y-124618750D03*
X250348750Y-124618750D03*
D26*
X253793750Y-123468750D03*
X253793750Y-126768750D03*
D22*
X261818750Y-120618750D03*
X261163751Y-121348750D03*
D23*
X260508750Y-122078750D02*
X261818752Y-120618750D01*
D22*
X266838750Y-119828750D03*
D23*
X266818750Y-120118750D02*
X266858750Y-119538750D01*
D22*
X266858750Y-119538750D03*
D24*
X264318750Y-124618750D03*
D25*
X259238750Y-124618750D03*
X269398750Y-124618750D03*
D26*
X272843750Y-123468750D03*
X272843750Y-126768750D03*
D22*
X280868750Y-120618750D03*
X280213751Y-121348750D03*
D23*
X279558750Y-122078750D02*
X280868752Y-120618750D01*
D22*
X285888750Y-119828750D03*
D23*
X285868750Y-120118750D02*
X285908750Y-119538750D01*
D22*
X285908750Y-119538750D03*
D24*
X283368750Y-124618750D03*
D25*
X278288750Y-124618750D03*
X288448750Y-124618750D03*
D26*
X291893750Y-123468750D03*
X291893750Y-126768750D03*
D22*
X299918750Y-120618750D03*
X299263751Y-121348750D03*
D23*
X298608750Y-122078750D02*
X299918752Y-120618750D01*
D22*
X304938750Y-119828750D03*
D23*
X304918750Y-120118750D02*
X304958750Y-119538750D01*
D22*
X304958750Y-119538750D03*
D24*
X302418750Y-124618750D03*
D25*
X297338750Y-124618750D03*
X307498750Y-124618750D03*
D26*
X310943750Y-123468750D03*
X310943750Y-126768750D03*
D22*
X318968750Y-120618750D03*
X318313751Y-121348750D03*
D23*
X317658750Y-122078750D02*
X318968752Y-120618750D01*
D22*
X323988750Y-119828750D03*
D23*
X323968750Y-120118750D02*
X324008750Y-119538750D01*
D22*
X324008750Y-119538750D03*
D24*
X321468750Y-124618750D03*
D25*
X316388750Y-124618750D03*
X326548750Y-124618750D03*
D26*
X329993750Y-123468750D03*
X329993750Y-126768750D03*
D22*
X347543750Y-120618750D03*
X346888751Y-121348750D03*
D23*
X346233750Y-122078750D02*
X347543752Y-120618750D01*
D22*
X352563750Y-119828750D03*
D23*
X352543750Y-120118750D02*
X352583750Y-119538750D01*
D22*
X352583750Y-119538750D03*
D24*
X350043750Y-124618750D03*
D25*
X344963750Y-124618750D03*
X355123750Y-124618750D03*
D27*
X338105750Y-117633750D03*
X361981750Y-117633750D03*
D24*
X338105750Y-132873750D03*
X361981750Y-132873750D03*
D26*
X368093750Y-123468750D03*
X368093750Y-126768750D03*
D22*
X95131250Y-139668750D03*
X94476251Y-140398750D03*
D23*
X93821250Y-141128750D02*
X95131252Y-139668750D01*
D22*
X100151250Y-138878750D03*
D23*
X100131250Y-139168750D02*
X100171250Y-138588750D01*
D22*
X100171250Y-138588750D03*
D24*
X97631250Y-143668750D03*
D25*
X92551250Y-143668750D03*
X102711250Y-143668750D03*
D26*
X110918750Y-142518750D03*
X110918750Y-145818750D03*
D22*
X118943750Y-139668750D03*
X118288751Y-140398750D03*
D23*
X117633750Y-141128750D02*
X118943752Y-139668750D01*
D22*
X123963750Y-138878750D03*
D23*
X123943750Y-139168750D02*
X123983750Y-138588750D01*
D22*
X123983750Y-138588750D03*
D24*
X121443750Y-143668750D03*
D25*
X116363750Y-143668750D03*
X126523750Y-143668750D03*
D26*
X129968750Y-142518750D03*
X129968750Y-145818750D03*
D22*
X137993750Y-139668750D03*
X137338751Y-140398750D03*
D23*
X136683750Y-141128750D02*
X137993752Y-139668750D01*
D22*
X143013750Y-138878750D03*
D23*
X142993750Y-139168750D02*
X143033750Y-138588750D01*
D22*
X143033750Y-138588750D03*
D24*
X140493750Y-143668750D03*
D25*
X135413750Y-143668750D03*
X145573750Y-143668750D03*
D26*
X149018750Y-142518750D03*
X149018750Y-145818750D03*
D22*
X157043750Y-139668750D03*
X156388751Y-140398750D03*
D23*
X155733750Y-141128750D02*
X157043752Y-139668750D01*
D22*
X162063750Y-138878750D03*
D23*
X162043750Y-139168750D02*
X162083750Y-138588750D01*
D22*
X162083750Y-138588750D03*
D24*
X159543750Y-143668750D03*
D25*
X154463750Y-143668750D03*
X164623750Y-143668750D03*
D26*
X168068750Y-142518750D03*
X168068750Y-145818750D03*
D22*
X176093750Y-139668750D03*
X175438751Y-140398750D03*
D23*
X174783750Y-141128750D02*
X176093752Y-139668750D01*
D22*
X181113750Y-138878750D03*
D23*
X181093750Y-139168750D02*
X181133750Y-138588750D01*
D22*
X181133750Y-138588750D03*
D24*
X178593750Y-143668750D03*
D25*
X173513750Y-143668750D03*
X183673750Y-143668750D03*
D26*
X187118750Y-142518750D03*
X187118750Y-145818750D03*
D22*
X195143750Y-139668750D03*
X194488751Y-140398750D03*
D23*
X193833750Y-141128750D02*
X195143752Y-139668750D01*
D22*
X200163750Y-138878750D03*
D23*
X200143750Y-139168750D02*
X200183750Y-138588750D01*
D22*
X200183750Y-138588750D03*
D24*
X197643750Y-143668750D03*
D25*
X192563750Y-143668750D03*
X202723750Y-143668750D03*
D26*
X206168750Y-142518750D03*
X206168750Y-145818750D03*
D22*
X214193750Y-139668750D03*
X213538751Y-140398750D03*
D23*
X212883750Y-141128750D02*
X214193752Y-139668750D01*
D22*
X219213750Y-138878750D03*
D23*
X219193750Y-139168750D02*
X219233750Y-138588750D01*
D22*
X219233750Y-138588750D03*
D24*
X216693750Y-143668750D03*
D25*
X211613750Y-143668750D03*
X221773750Y-143668750D03*
D26*
X225218750Y-142518750D03*
X225218750Y-145818750D03*
D22*
X233243750Y-139668750D03*
X232588751Y-140398750D03*
D23*
X231933750Y-141128750D02*
X233243752Y-139668750D01*
D22*
X238263750Y-138878750D03*
D23*
X238243750Y-139168750D02*
X238283750Y-138588750D01*
D22*
X238283750Y-138588750D03*
D24*
X235743750Y-143668750D03*
D25*
X230663750Y-143668750D03*
X240823750Y-143668750D03*
D26*
X244268750Y-142518750D03*
X244268750Y-145818750D03*
D22*
X252293750Y-139668750D03*
X251638751Y-140398750D03*
D23*
X250983750Y-141128750D02*
X252293752Y-139668750D01*
D22*
X257313750Y-138878750D03*
D23*
X257293750Y-139168750D02*
X257333750Y-138588750D01*
D22*
X257333750Y-138588750D03*
D24*
X254793750Y-143668750D03*
D25*
X249713750Y-143668750D03*
X259873750Y-143668750D03*
D26*
X263318750Y-142518750D03*
X263318750Y-145818750D03*
D22*
X271343750Y-139668750D03*
X270688751Y-140398750D03*
D23*
X270033750Y-141128750D02*
X271343752Y-139668750D01*
D22*
X276363750Y-138878750D03*
D23*
X276343750Y-139168750D02*
X276383750Y-138588750D01*
D22*
X276383750Y-138588750D03*
D24*
X273843750Y-143668750D03*
D25*
X268763750Y-143668750D03*
X278923750Y-143668750D03*
D26*
X282368750Y-142518750D03*
X282368750Y-145818750D03*
D22*
X290393750Y-139668750D03*
X289738751Y-140398750D03*
D23*
X289083750Y-141128750D02*
X290393752Y-139668750D01*
D22*
X295413750Y-138878750D03*
D23*
X295393750Y-139168750D02*
X295433750Y-138588750D01*
D22*
X295433750Y-138588750D03*
D24*
X292893750Y-143668750D03*
D25*
X287813750Y-143668750D03*
X297973750Y-143668750D03*
D26*
X301418750Y-142518750D03*
X301418750Y-145818750D03*
D22*
X309443750Y-139668750D03*
X308788751Y-140398750D03*
D23*
X308133750Y-141128750D02*
X309443752Y-139668750D01*
D22*
X314463750Y-138878750D03*
D23*
X314443750Y-139168750D02*
X314483750Y-138588750D01*
D22*
X314483750Y-138588750D03*
D24*
X311943750Y-143668750D03*
D25*
X306863750Y-143668750D03*
X317023750Y-143668750D03*
D26*
X320468750Y-142518750D03*
X320468750Y-145818750D03*
D22*
X328493750Y-139668750D03*
X327838751Y-140398750D03*
D23*
X327183750Y-141128750D02*
X328493752Y-139668750D01*
D22*
X333513750Y-138878750D03*
D23*
X333493750Y-139168750D02*
X333533750Y-138588750D01*
D22*
X333533750Y-138588750D03*
D24*
X330993750Y-143668750D03*
D25*
X325913750Y-143668750D03*
X336073750Y-143668750D03*
D26*
X339518750Y-142518750D03*
X339518750Y-145818750D03*
D22*
X352306250Y-139668750D03*
X351651251Y-140398750D03*
D23*
X350996250Y-141128750D02*
X352306252Y-139668750D01*
D22*
X357326250Y-138878750D03*
D23*
X357306250Y-139168750D02*
X357346250Y-138588750D01*
D22*
X357346250Y-138588750D03*
D24*
X354806250Y-143668750D03*
D25*
X349726250Y-143668750D03*
X359886250Y-143668750D03*
D26*
X368093750Y-142518750D03*
X368093750Y-145818750D03*
D22*
X92750000Y-158718750D03*
X92095001Y-159448750D03*
D23*
X91440000Y-160178750D02*
X92750002Y-158718750D01*
D22*
X97770000Y-157928750D03*
D23*
X97750000Y-158218750D02*
X97790000Y-157638750D01*
D22*
X97790000Y-157638750D03*
D24*
X95250000Y-162718750D03*
D25*
X90170000Y-162718750D03*
X100330000Y-162718750D03*
D26*
X106156250Y-161568750D03*
X106156250Y-164868750D03*
D22*
X123706250Y-158718750D03*
X123051251Y-159448750D03*
D23*
X122396250Y-160178750D02*
X123706252Y-158718750D01*
D22*
X128726250Y-157928750D03*
D23*
X128706250Y-158218750D02*
X128746250Y-157638750D01*
D22*
X128746250Y-157638750D03*
D24*
X126206250Y-162718750D03*
D25*
X121126250Y-162718750D03*
X131286250Y-162718750D03*
D26*
X134731250Y-161568750D03*
X134731250Y-164868750D03*
D22*
X142756250Y-158718750D03*
X142101251Y-159448750D03*
D23*
X141446250Y-160178750D02*
X142756252Y-158718750D01*
D22*
X147776250Y-157928750D03*
D23*
X147756250Y-158218750D02*
X147796250Y-157638750D01*
D22*
X147796250Y-157638750D03*
D24*
X145256250Y-162718750D03*
D25*
X140176250Y-162718750D03*
X150336250Y-162718750D03*
D26*
X153781250Y-161568750D03*
X153781250Y-164868750D03*
D22*
X161806250Y-158718750D03*
X161151251Y-159448750D03*
D23*
X160496250Y-160178750D02*
X161806252Y-158718750D01*
D22*
X166826250Y-157928750D03*
D23*
X166806250Y-158218750D02*
X166846250Y-157638750D01*
D22*
X166846250Y-157638750D03*
D24*
X164306250Y-162718750D03*
D25*
X159226250Y-162718750D03*
X169386250Y-162718750D03*
D26*
X172831250Y-161568750D03*
X172831250Y-164868750D03*
D22*
X180856250Y-158718750D03*
X180201251Y-159448750D03*
D23*
X179546250Y-160178750D02*
X180856252Y-158718750D01*
D22*
X185876250Y-157928750D03*
D23*
X185856250Y-158218750D02*
X185896250Y-157638750D01*
D22*
X185896250Y-157638750D03*
D24*
X183356250Y-162718750D03*
D25*
X178276250Y-162718750D03*
X188436250Y-162718750D03*
D26*
X191881250Y-161568750D03*
X191881250Y-164868750D03*
D22*
X199906250Y-158718750D03*
X199251251Y-159448750D03*
D23*
X198596250Y-160178750D02*
X199906252Y-158718750D01*
D22*
X204926250Y-157928750D03*
D23*
X204906250Y-158218750D02*
X204946250Y-157638750D01*
D22*
X204946250Y-157638750D03*
D24*
X202406250Y-162718750D03*
D25*
X197326250Y-162718750D03*
X207486250Y-162718750D03*
D26*
X210931250Y-161568750D03*
X210931250Y-164868750D03*
D22*
X218956250Y-158718750D03*
X218301251Y-159448750D03*
D23*
X217646250Y-160178750D02*
X218956252Y-158718750D01*
D22*
X223976250Y-157928750D03*
D23*
X223956250Y-158218750D02*
X223996250Y-157638750D01*
D22*
X223996250Y-157638750D03*
D24*
X221456250Y-162718750D03*
D25*
X216376250Y-162718750D03*
X226536250Y-162718750D03*
D26*
X229981250Y-161568750D03*
X229981250Y-164868750D03*
D22*
X238006250Y-158718750D03*
X237351251Y-159448750D03*
D23*
X236696250Y-160178750D02*
X238006252Y-158718750D01*
D22*
X243026250Y-157928750D03*
D23*
X243006250Y-158218750D02*
X243046250Y-157638750D01*
D22*
X243046250Y-157638750D03*
D24*
X240506250Y-162718750D03*
D25*
X235426250Y-162718750D03*
X245586250Y-162718750D03*
D26*
X249031250Y-161568750D03*
X249031250Y-164868750D03*
D22*
X257056250Y-158718750D03*
X256401251Y-159448750D03*
D23*
X255746250Y-160178750D02*
X257056252Y-158718750D01*
D22*
X262076250Y-157928750D03*
D23*
X262056250Y-158218750D02*
X262096250Y-157638750D01*
D22*
X262096250Y-157638750D03*
D24*
X259556250Y-162718750D03*
D25*
X254476250Y-162718750D03*
X264636250Y-162718750D03*
D26*
X268081250Y-161568750D03*
X268081250Y-164868750D03*
D22*
X276106250Y-158718750D03*
X275451251Y-159448750D03*
D23*
X274796250Y-160178750D02*
X276106252Y-158718750D01*
D22*
X281126250Y-157928750D03*
D23*
X281106250Y-158218750D02*
X281146250Y-157638750D01*
D22*
X281146250Y-157638750D03*
D24*
X278606250Y-162718750D03*
D25*
X273526250Y-162718750D03*
X283686250Y-162718750D03*
D26*
X287131250Y-161568750D03*
X287131250Y-164868750D03*
D22*
X295156250Y-158718750D03*
X294501251Y-159448750D03*
D23*
X293846250Y-160178750D02*
X295156252Y-158718750D01*
D22*
X300176250Y-157928750D03*
D23*
X300156250Y-158218750D02*
X300196250Y-157638750D01*
D22*
X300196250Y-157638750D03*
D24*
X297656250Y-162718750D03*
D25*
X292576250Y-162718750D03*
X302736250Y-162718750D03*
D26*
X306181250Y-161568750D03*
X306181250Y-164868750D03*
D22*
X314206250Y-158718750D03*
X313551251Y-159448750D03*
D23*
X312896250Y-160178750D02*
X314206252Y-158718750D01*
D22*
X319226250Y-157928750D03*
D23*
X319206250Y-158218750D02*
X319246250Y-157638750D01*
D22*
X319246250Y-157638750D03*
D24*
X316706250Y-162718750D03*
D25*
X311626250Y-162718750D03*
X321786250Y-162718750D03*
D26*
X325231250Y-161568750D03*
X325231250Y-164868750D03*
D22*
X345162500Y-158718750D03*
X344507501Y-159448750D03*
D23*
X343852500Y-160178750D02*
X345162502Y-158718750D01*
D22*
X350182500Y-157928750D03*
D23*
X350162500Y-158218750D02*
X350202500Y-157638750D01*
D22*
X350202500Y-157638750D03*
D24*
X347662500Y-162718750D03*
D25*
X342582500Y-162718750D03*
X352742500Y-162718750D03*
D27*
X335724500Y-155733750D03*
X359600500Y-155733750D03*
D24*
X335724500Y-170973750D03*
X359600500Y-170973750D03*
D26*
X368093750Y-161568750D03*
X368093750Y-164868750D03*
D22*
X102275000Y-177768750D03*
X101620001Y-178498750D03*
D23*
X100965000Y-179228750D02*
X102275002Y-177768750D01*
D22*
X107295000Y-176978750D03*
D23*
X107275000Y-177268750D02*
X107315000Y-176688750D01*
D22*
X107315000Y-176688750D03*
D24*
X104775000Y-181768750D03*
D25*
X99695000Y-181768750D03*
X109855000Y-181768750D03*
D27*
X92837000Y-174783750D03*
X116713000Y-174783750D03*
D24*
X92837000Y-190023750D03*
X116713000Y-190023750D03*
D26*
X125206250Y-180618750D03*
X125206250Y-183918750D03*
D22*
X133231250Y-177768750D03*
X132576251Y-178498750D03*
D23*
X131921250Y-179228750D02*
X133231252Y-177768750D01*
D22*
X138251250Y-176978750D03*
D23*
X138231250Y-177268750D02*
X138271250Y-176688750D01*
D22*
X138271250Y-176688750D03*
D24*
X135731250Y-181768750D03*
D25*
X130651250Y-181768750D03*
X140811250Y-181768750D03*
D26*
X144256250Y-180618750D03*
X144256250Y-183918750D03*
D22*
X152281250Y-177768750D03*
X151626251Y-178498750D03*
D23*
X150971250Y-179228750D02*
X152281252Y-177768750D01*
D22*
X157301250Y-176978750D03*
D23*
X157281250Y-177268750D02*
X157321250Y-176688750D01*
D22*
X157321250Y-176688750D03*
D24*
X154781250Y-181768750D03*
D25*
X149701250Y-181768750D03*
X159861250Y-181768750D03*
D26*
X163306250Y-180618750D03*
X163306250Y-183918750D03*
D22*
X171331250Y-177768750D03*
X170676251Y-178498750D03*
D23*
X170021250Y-179228750D02*
X171331252Y-177768750D01*
D22*
X176351250Y-176978750D03*
D23*
X176331250Y-177268750D02*
X176371250Y-176688750D01*
D22*
X176371250Y-176688750D03*
D24*
X173831250Y-181768750D03*
D25*
X168751250Y-181768750D03*
X178911250Y-181768750D03*
D26*
X182356250Y-180618750D03*
X182356250Y-183918750D03*
D22*
X190381250Y-177768750D03*
X189726251Y-178498750D03*
D23*
X189071250Y-179228750D02*
X190381252Y-177768750D01*
D22*
X195401250Y-176978750D03*
D23*
X195381250Y-177268750D02*
X195421250Y-176688750D01*
D22*
X195421250Y-176688750D03*
D24*
X192881250Y-181768750D03*
D25*
X187801250Y-181768750D03*
X197961250Y-181768750D03*
D26*
X201406250Y-180618750D03*
X201406250Y-183918750D03*
D22*
X209431250Y-177768750D03*
X208776251Y-178498750D03*
D23*
X208121250Y-179228750D02*
X209431252Y-177768750D01*
D22*
X214451250Y-176978750D03*
D23*
X214431250Y-177268750D02*
X214471250Y-176688750D01*
D22*
X214471250Y-176688750D03*
D24*
X211931250Y-181768750D03*
D25*
X206851250Y-181768750D03*
X217011250Y-181768750D03*
D26*
X220456250Y-180618750D03*
X220456250Y-183918750D03*
D22*
X228481250Y-177768750D03*
X227826251Y-178498750D03*
D23*
X227171250Y-179228750D02*
X228481252Y-177768750D01*
D22*
X233501250Y-176978750D03*
D23*
X233481250Y-177268750D02*
X233521250Y-176688750D01*
D22*
X233521250Y-176688750D03*
D24*
X230981250Y-181768750D03*
D25*
X225901250Y-181768750D03*
X236061250Y-181768750D03*
D26*
X239506250Y-180618750D03*
X239506250Y-183918750D03*
D22*
X247531250Y-177768750D03*
X246876251Y-178498750D03*
D23*
X246221250Y-179228750D02*
X247531252Y-177768750D01*
D22*
X252551250Y-176978750D03*
D23*
X252531250Y-177268750D02*
X252571250Y-176688750D01*
D22*
X252571250Y-176688750D03*
D24*
X250031250Y-181768750D03*
D25*
X244951250Y-181768750D03*
X255111250Y-181768750D03*
D26*
X258556250Y-180618750D03*
X258556250Y-183918750D03*
D22*
X266581250Y-177768750D03*
X265926251Y-178498750D03*
D23*
X265271250Y-179228750D02*
X266581252Y-177768750D01*
D22*
X271601250Y-176978750D03*
D23*
X271581250Y-177268750D02*
X271621250Y-176688750D01*
D22*
X271621250Y-176688750D03*
D24*
X269081250Y-181768750D03*
D25*
X264001250Y-181768750D03*
X274161250Y-181768750D03*
D26*
X277606250Y-180618750D03*
X277606250Y-183918750D03*
D22*
X285631250Y-177768750D03*
X284976251Y-178498750D03*
D23*
X284321250Y-179228750D02*
X285631252Y-177768750D01*
D22*
X290651250Y-176978750D03*
D23*
X290631250Y-177268750D02*
X290671250Y-176688750D01*
D22*
X290671250Y-176688750D03*
D24*
X288131250Y-181768750D03*
D25*
X283051250Y-181768750D03*
X293211250Y-181768750D03*
D26*
X296656250Y-180618750D03*
X296656250Y-183918750D03*
D22*
X304681250Y-177768750D03*
X304026251Y-178498750D03*
D23*
X303371250Y-179228750D02*
X304681252Y-177768750D01*
D22*
X309701250Y-176978750D03*
D23*
X309681250Y-177268750D02*
X309721250Y-176688750D01*
D22*
X309721250Y-176688750D03*
D24*
X307181250Y-181768750D03*
D25*
X302101250Y-181768750D03*
X312261250Y-181768750D03*
D26*
X315706250Y-180618750D03*
X315706250Y-183918750D03*
D22*
X340400000Y-177768750D03*
X339745001Y-178498750D03*
D23*
X339090000Y-179228750D02*
X340400002Y-177768750D01*
D22*
X345420000Y-176978750D03*
D23*
X345400000Y-177268750D02*
X345440000Y-176688750D01*
D22*
X345440000Y-176688750D03*
D24*
X342900000Y-181768750D03*
D25*
X337820000Y-181768750D03*
X347980000Y-181768750D03*
D27*
X330962000Y-174783750D03*
X354838000Y-174783750D03*
D24*
X330962000Y-190023750D03*
X354838000Y-190023750D03*
D26*
X368093750Y-180618750D03*
X368093750Y-183918750D03*
D22*
X121325000Y-196818750D03*
X120670001Y-197548750D03*
D23*
X120015000Y-198278750D02*
X121325002Y-196818750D01*
D22*
X126345000Y-196028750D03*
D23*
X126325000Y-196318750D02*
X126365000Y-195738750D01*
D22*
X126365000Y-195738750D03*
D24*
X123825000Y-200818750D03*
D25*
X118745000Y-200818750D03*
X128905000Y-200818750D03*
D26*
X134731250Y-199668750D03*
X134731250Y-202968750D03*
D22*
X145137500Y-196818750D03*
X144482501Y-197548750D03*
D23*
X143827500Y-198278750D02*
X145137502Y-196818750D01*
D22*
X150157500Y-196028750D03*
D23*
X150137500Y-196318750D02*
X150177500Y-195738750D01*
D22*
X150177500Y-195738750D03*
D24*
X147637500Y-200818750D03*
D25*
X142557500Y-200818750D03*
X152717500Y-200818750D03*
D26*
X158543750Y-199668750D03*
X158543750Y-202968750D03*
D22*
X223718750Y-196818750D03*
X223063751Y-197548750D03*
D23*
X222408750Y-198278750D02*
X223718752Y-196818750D01*
D22*
X228738750Y-196028750D03*
D23*
X228718750Y-196318750D02*
X228758750Y-195738750D01*
D22*
X228758750Y-195738750D03*
D24*
X226218750Y-200818750D03*
D25*
X221138750Y-200818750D03*
X231298750Y-200818750D03*
D27*
X169068750Y-193833750D03*
X283368750Y-193833750D03*
D24*
X169068750Y-209073750D03*
X283368750Y-209073750D03*
D26*
X291893750Y-199668750D03*
X291893750Y-202968750D03*
D22*
X302300000Y-196818750D03*
X301645001Y-197548750D03*
D23*
X300990000Y-198278750D02*
X302300002Y-196818750D01*
D22*
X307320000Y-196028750D03*
D23*
X307300000Y-196318750D02*
X307340000Y-195738750D01*
D22*
X307340000Y-195738750D03*
D24*
X304800000Y-200818750D03*
D25*
X299720000Y-200818750D03*
X309880000Y-200818750D03*
D26*
X315706250Y-199668750D03*
X315706250Y-202968750D03*
D22*
X326112500Y-196818750D03*
X325457501Y-197548750D03*
D23*
X324802500Y-198278750D02*
X326112502Y-196818750D01*
D22*
X331132500Y-196028750D03*
D23*
X331112500Y-196318750D02*
X331152500Y-195738750D01*
D22*
X331152500Y-195738750D03*
D24*
X328612500Y-200818750D03*
D25*
X323532500Y-200818750D03*
X333692500Y-200818750D03*
D26*
X339518750Y-199668750D03*
X339518750Y-202968750D03*
M02*
