G04 #@! TF.GenerationSoftware,KiCad,Pcbnew,(5.1.4)-1*
G04 #@! TF.CreationDate,2021-08-06T15:59:48-05:00*
G04 #@! TF.ProjectId,keyboard,6b657962-6f61-4726-942e-6b696361645f,rev?*
G04 #@! TF.SameCoordinates,Original*
G04 #@! TF.FileFunction,Copper,L2,Bot*
G04 #@! TF.FilePolarity,Positive*
%FSLAX46Y46*%
G04 Gerber Fmt 4.6, Leading zero omitted, Abs format (unit mm)*
G04 Created by KiCad (PCBNEW (5.1.4)-1) date 2021-08-06 15:59:48*
%MOMM*%
%LPD*%
G04 APERTURE LIST*
%ADD10R,1.400000X1.200000*%
%ADD11O,1.700000X2.700000*%
%ADD12R,0.500000X2.250000*%
%ADD13R,0.550000X1.500000*%
%ADD14R,1.500000X0.550000*%
%ADD15R,1.800000X1.100000*%
%ADD16C,0.100000*%
%ADD17C,0.975000*%
%ADD18C,1.250000*%
%ADD19C,2.250000*%
%ADD20C,2.250000*%
%ADD21R,1.200000X0.900000*%
%ADD22C,0.800000*%
%ADD23C,0.381000*%
%ADD24C,0.254000*%
G04 APERTURE END LIST*
D10*
X107081500Y-88272250D03*
X104881500Y-88272250D03*
X104881500Y-89972250D03*
X107081500Y-89972250D03*
D11*
X83662500Y-80962500D03*
X90962500Y-80962500D03*
X90962500Y-85462500D03*
X83662500Y-85462500D03*
D12*
X85712500Y-85462500D03*
X86512500Y-85462500D03*
X87312500Y-85462500D03*
X88112500Y-85462500D03*
X88912500Y-85462500D03*
D13*
X102362500Y-107300000D03*
X103162500Y-107300000D03*
X103962500Y-107300000D03*
X104762500Y-107300000D03*
X105562500Y-107300000D03*
X106362500Y-107300000D03*
X107162500Y-107300000D03*
X107962500Y-107300000D03*
X108762500Y-107300000D03*
X109562500Y-107300000D03*
X110362500Y-107300000D03*
D14*
X112062500Y-105600000D03*
X112062500Y-104800000D03*
X112062500Y-104000000D03*
X112062500Y-103200000D03*
X112062500Y-102400000D03*
X112062500Y-101600000D03*
X112062500Y-100800000D03*
X112062500Y-100000000D03*
X112062500Y-99200000D03*
X112062500Y-98400000D03*
X112062500Y-97600000D03*
D13*
X110362500Y-95900000D03*
X109562500Y-95900000D03*
X108762500Y-95900000D03*
X107962500Y-95900000D03*
X107162500Y-95900000D03*
X106362500Y-95900000D03*
X105562500Y-95900000D03*
X104762500Y-95900000D03*
X103962500Y-95900000D03*
X103162500Y-95900000D03*
X102362500Y-95900000D03*
D14*
X100662500Y-97600000D03*
X100662500Y-98400000D03*
X100662500Y-99200000D03*
X100662500Y-100000000D03*
X100662500Y-100800000D03*
X100662500Y-101600000D03*
X100662500Y-102400000D03*
X100662500Y-103200000D03*
X100662500Y-104000000D03*
X100662500Y-104800000D03*
X100662500Y-105600000D03*
D15*
X89618750Y-111387500D03*
X83418750Y-107687500D03*
X89618750Y-107687500D03*
X83418750Y-111387500D03*
D16*
G36*
X116367642Y-105732424D02*
G01*
X116391303Y-105735934D01*
X116414507Y-105741746D01*
X116437029Y-105749804D01*
X116458653Y-105760032D01*
X116479170Y-105772329D01*
X116498383Y-105786579D01*
X116516107Y-105802643D01*
X116532171Y-105820367D01*
X116546421Y-105839580D01*
X116558718Y-105860097D01*
X116568946Y-105881721D01*
X116577004Y-105904243D01*
X116582816Y-105927447D01*
X116586326Y-105951108D01*
X116587500Y-105975000D01*
X116587500Y-106462500D01*
X116586326Y-106486392D01*
X116582816Y-106510053D01*
X116577004Y-106533257D01*
X116568946Y-106555779D01*
X116558718Y-106577403D01*
X116546421Y-106597920D01*
X116532171Y-106617133D01*
X116516107Y-106634857D01*
X116498383Y-106650921D01*
X116479170Y-106665171D01*
X116458653Y-106677468D01*
X116437029Y-106687696D01*
X116414507Y-106695754D01*
X116391303Y-106701566D01*
X116367642Y-106705076D01*
X116343750Y-106706250D01*
X115431250Y-106706250D01*
X115407358Y-106705076D01*
X115383697Y-106701566D01*
X115360493Y-106695754D01*
X115337971Y-106687696D01*
X115316347Y-106677468D01*
X115295830Y-106665171D01*
X115276617Y-106650921D01*
X115258893Y-106634857D01*
X115242829Y-106617133D01*
X115228579Y-106597920D01*
X115216282Y-106577403D01*
X115206054Y-106555779D01*
X115197996Y-106533257D01*
X115192184Y-106510053D01*
X115188674Y-106486392D01*
X115187500Y-106462500D01*
X115187500Y-105975000D01*
X115188674Y-105951108D01*
X115192184Y-105927447D01*
X115197996Y-105904243D01*
X115206054Y-105881721D01*
X115216282Y-105860097D01*
X115228579Y-105839580D01*
X115242829Y-105820367D01*
X115258893Y-105802643D01*
X115276617Y-105786579D01*
X115295830Y-105772329D01*
X115316347Y-105760032D01*
X115337971Y-105749804D01*
X115360493Y-105741746D01*
X115383697Y-105735934D01*
X115407358Y-105732424D01*
X115431250Y-105731250D01*
X116343750Y-105731250D01*
X116367642Y-105732424D01*
X116367642Y-105732424D01*
G37*
D17*
X115887500Y-106218750D03*
D16*
G36*
X116367642Y-107607424D02*
G01*
X116391303Y-107610934D01*
X116414507Y-107616746D01*
X116437029Y-107624804D01*
X116458653Y-107635032D01*
X116479170Y-107647329D01*
X116498383Y-107661579D01*
X116516107Y-107677643D01*
X116532171Y-107695367D01*
X116546421Y-107714580D01*
X116558718Y-107735097D01*
X116568946Y-107756721D01*
X116577004Y-107779243D01*
X116582816Y-107802447D01*
X116586326Y-107826108D01*
X116587500Y-107850000D01*
X116587500Y-108337500D01*
X116586326Y-108361392D01*
X116582816Y-108385053D01*
X116577004Y-108408257D01*
X116568946Y-108430779D01*
X116558718Y-108452403D01*
X116546421Y-108472920D01*
X116532171Y-108492133D01*
X116516107Y-108509857D01*
X116498383Y-108525921D01*
X116479170Y-108540171D01*
X116458653Y-108552468D01*
X116437029Y-108562696D01*
X116414507Y-108570754D01*
X116391303Y-108576566D01*
X116367642Y-108580076D01*
X116343750Y-108581250D01*
X115431250Y-108581250D01*
X115407358Y-108580076D01*
X115383697Y-108576566D01*
X115360493Y-108570754D01*
X115337971Y-108562696D01*
X115316347Y-108552468D01*
X115295830Y-108540171D01*
X115276617Y-108525921D01*
X115258893Y-108509857D01*
X115242829Y-108492133D01*
X115228579Y-108472920D01*
X115216282Y-108452403D01*
X115206054Y-108430779D01*
X115197996Y-108408257D01*
X115192184Y-108385053D01*
X115188674Y-108361392D01*
X115187500Y-108337500D01*
X115187500Y-107850000D01*
X115188674Y-107826108D01*
X115192184Y-107802447D01*
X115197996Y-107779243D01*
X115206054Y-107756721D01*
X115216282Y-107735097D01*
X115228579Y-107714580D01*
X115242829Y-107695367D01*
X115258893Y-107677643D01*
X115276617Y-107661579D01*
X115295830Y-107647329D01*
X115316347Y-107635032D01*
X115337971Y-107624804D01*
X115360493Y-107616746D01*
X115383697Y-107610934D01*
X115407358Y-107607424D01*
X115431250Y-107606250D01*
X116343750Y-107606250D01*
X116367642Y-107607424D01*
X116367642Y-107607424D01*
G37*
D17*
X115887500Y-108093750D03*
D16*
G36*
X94936392Y-95701174D02*
G01*
X94960053Y-95704684D01*
X94983257Y-95710496D01*
X95005779Y-95718554D01*
X95027403Y-95728782D01*
X95047920Y-95741079D01*
X95067133Y-95755329D01*
X95084857Y-95771393D01*
X95100921Y-95789117D01*
X95115171Y-95808330D01*
X95127468Y-95828847D01*
X95137696Y-95850471D01*
X95145754Y-95872993D01*
X95151566Y-95896197D01*
X95155076Y-95919858D01*
X95156250Y-95943750D01*
X95156250Y-96431250D01*
X95155076Y-96455142D01*
X95151566Y-96478803D01*
X95145754Y-96502007D01*
X95137696Y-96524529D01*
X95127468Y-96546153D01*
X95115171Y-96566670D01*
X95100921Y-96585883D01*
X95084857Y-96603607D01*
X95067133Y-96619671D01*
X95047920Y-96633921D01*
X95027403Y-96646218D01*
X95005779Y-96656446D01*
X94983257Y-96664504D01*
X94960053Y-96670316D01*
X94936392Y-96673826D01*
X94912500Y-96675000D01*
X94000000Y-96675000D01*
X93976108Y-96673826D01*
X93952447Y-96670316D01*
X93929243Y-96664504D01*
X93906721Y-96656446D01*
X93885097Y-96646218D01*
X93864580Y-96633921D01*
X93845367Y-96619671D01*
X93827643Y-96603607D01*
X93811579Y-96585883D01*
X93797329Y-96566670D01*
X93785032Y-96546153D01*
X93774804Y-96524529D01*
X93766746Y-96502007D01*
X93760934Y-96478803D01*
X93757424Y-96455142D01*
X93756250Y-96431250D01*
X93756250Y-95943750D01*
X93757424Y-95919858D01*
X93760934Y-95896197D01*
X93766746Y-95872993D01*
X93774804Y-95850471D01*
X93785032Y-95828847D01*
X93797329Y-95808330D01*
X93811579Y-95789117D01*
X93827643Y-95771393D01*
X93845367Y-95755329D01*
X93864580Y-95741079D01*
X93885097Y-95728782D01*
X93906721Y-95718554D01*
X93929243Y-95710496D01*
X93952447Y-95704684D01*
X93976108Y-95701174D01*
X94000000Y-95700000D01*
X94912500Y-95700000D01*
X94936392Y-95701174D01*
X94936392Y-95701174D01*
G37*
D17*
X94456250Y-96187500D03*
D16*
G36*
X94936392Y-93826174D02*
G01*
X94960053Y-93829684D01*
X94983257Y-93835496D01*
X95005779Y-93843554D01*
X95027403Y-93853782D01*
X95047920Y-93866079D01*
X95067133Y-93880329D01*
X95084857Y-93896393D01*
X95100921Y-93914117D01*
X95115171Y-93933330D01*
X95127468Y-93953847D01*
X95137696Y-93975471D01*
X95145754Y-93997993D01*
X95151566Y-94021197D01*
X95155076Y-94044858D01*
X95156250Y-94068750D01*
X95156250Y-94556250D01*
X95155076Y-94580142D01*
X95151566Y-94603803D01*
X95145754Y-94627007D01*
X95137696Y-94649529D01*
X95127468Y-94671153D01*
X95115171Y-94691670D01*
X95100921Y-94710883D01*
X95084857Y-94728607D01*
X95067133Y-94744671D01*
X95047920Y-94758921D01*
X95027403Y-94771218D01*
X95005779Y-94781446D01*
X94983257Y-94789504D01*
X94960053Y-94795316D01*
X94936392Y-94798826D01*
X94912500Y-94800000D01*
X94000000Y-94800000D01*
X93976108Y-94798826D01*
X93952447Y-94795316D01*
X93929243Y-94789504D01*
X93906721Y-94781446D01*
X93885097Y-94771218D01*
X93864580Y-94758921D01*
X93845367Y-94744671D01*
X93827643Y-94728607D01*
X93811579Y-94710883D01*
X93797329Y-94691670D01*
X93785032Y-94671153D01*
X93774804Y-94649529D01*
X93766746Y-94627007D01*
X93760934Y-94603803D01*
X93757424Y-94580142D01*
X93756250Y-94556250D01*
X93756250Y-94068750D01*
X93757424Y-94044858D01*
X93760934Y-94021197D01*
X93766746Y-93997993D01*
X93774804Y-93975471D01*
X93785032Y-93953847D01*
X93797329Y-93933330D01*
X93811579Y-93914117D01*
X93827643Y-93896393D01*
X93845367Y-93880329D01*
X93864580Y-93866079D01*
X93885097Y-93853782D01*
X93906721Y-93843554D01*
X93929243Y-93835496D01*
X93952447Y-93829684D01*
X93976108Y-93826174D01*
X94000000Y-93825000D01*
X94912500Y-93825000D01*
X94936392Y-93826174D01*
X94936392Y-93826174D01*
G37*
D17*
X94456250Y-94312500D03*
D16*
G36*
X88586392Y-89063674D02*
G01*
X88610053Y-89067184D01*
X88633257Y-89072996D01*
X88655779Y-89081054D01*
X88677403Y-89091282D01*
X88697920Y-89103579D01*
X88717133Y-89117829D01*
X88734857Y-89133893D01*
X88750921Y-89151617D01*
X88765171Y-89170830D01*
X88777468Y-89191347D01*
X88787696Y-89212971D01*
X88795754Y-89235493D01*
X88801566Y-89258697D01*
X88805076Y-89282358D01*
X88806250Y-89306250D01*
X88806250Y-89793750D01*
X88805076Y-89817642D01*
X88801566Y-89841303D01*
X88795754Y-89864507D01*
X88787696Y-89887029D01*
X88777468Y-89908653D01*
X88765171Y-89929170D01*
X88750921Y-89948383D01*
X88734857Y-89966107D01*
X88717133Y-89982171D01*
X88697920Y-89996421D01*
X88677403Y-90008718D01*
X88655779Y-90018946D01*
X88633257Y-90027004D01*
X88610053Y-90032816D01*
X88586392Y-90036326D01*
X88562500Y-90037500D01*
X87650000Y-90037500D01*
X87626108Y-90036326D01*
X87602447Y-90032816D01*
X87579243Y-90027004D01*
X87556721Y-90018946D01*
X87535097Y-90008718D01*
X87514580Y-89996421D01*
X87495367Y-89982171D01*
X87477643Y-89966107D01*
X87461579Y-89948383D01*
X87447329Y-89929170D01*
X87435032Y-89908653D01*
X87424804Y-89887029D01*
X87416746Y-89864507D01*
X87410934Y-89841303D01*
X87407424Y-89817642D01*
X87406250Y-89793750D01*
X87406250Y-89306250D01*
X87407424Y-89282358D01*
X87410934Y-89258697D01*
X87416746Y-89235493D01*
X87424804Y-89212971D01*
X87435032Y-89191347D01*
X87447329Y-89170830D01*
X87461579Y-89151617D01*
X87477643Y-89133893D01*
X87495367Y-89117829D01*
X87514580Y-89103579D01*
X87535097Y-89091282D01*
X87556721Y-89081054D01*
X87579243Y-89072996D01*
X87602447Y-89067184D01*
X87626108Y-89063674D01*
X87650000Y-89062500D01*
X88562500Y-89062500D01*
X88586392Y-89063674D01*
X88586392Y-89063674D01*
G37*
D17*
X88106250Y-89550000D03*
D16*
G36*
X88586392Y-90938674D02*
G01*
X88610053Y-90942184D01*
X88633257Y-90947996D01*
X88655779Y-90956054D01*
X88677403Y-90966282D01*
X88697920Y-90978579D01*
X88717133Y-90992829D01*
X88734857Y-91008893D01*
X88750921Y-91026617D01*
X88765171Y-91045830D01*
X88777468Y-91066347D01*
X88787696Y-91087971D01*
X88795754Y-91110493D01*
X88801566Y-91133697D01*
X88805076Y-91157358D01*
X88806250Y-91181250D01*
X88806250Y-91668750D01*
X88805076Y-91692642D01*
X88801566Y-91716303D01*
X88795754Y-91739507D01*
X88787696Y-91762029D01*
X88777468Y-91783653D01*
X88765171Y-91804170D01*
X88750921Y-91823383D01*
X88734857Y-91841107D01*
X88717133Y-91857171D01*
X88697920Y-91871421D01*
X88677403Y-91883718D01*
X88655779Y-91893946D01*
X88633257Y-91902004D01*
X88610053Y-91907816D01*
X88586392Y-91911326D01*
X88562500Y-91912500D01*
X87650000Y-91912500D01*
X87626108Y-91911326D01*
X87602447Y-91907816D01*
X87579243Y-91902004D01*
X87556721Y-91893946D01*
X87535097Y-91883718D01*
X87514580Y-91871421D01*
X87495367Y-91857171D01*
X87477643Y-91841107D01*
X87461579Y-91823383D01*
X87447329Y-91804170D01*
X87435032Y-91783653D01*
X87424804Y-91762029D01*
X87416746Y-91739507D01*
X87410934Y-91716303D01*
X87407424Y-91692642D01*
X87406250Y-91668750D01*
X87406250Y-91181250D01*
X87407424Y-91157358D01*
X87410934Y-91133697D01*
X87416746Y-91110493D01*
X87424804Y-91087971D01*
X87435032Y-91066347D01*
X87447329Y-91045830D01*
X87461579Y-91026617D01*
X87477643Y-91008893D01*
X87495367Y-90992829D01*
X87514580Y-90978579D01*
X87535097Y-90966282D01*
X87556721Y-90956054D01*
X87579243Y-90947996D01*
X87602447Y-90942184D01*
X87626108Y-90938674D01*
X87650000Y-90937500D01*
X88562500Y-90937500D01*
X88586392Y-90938674D01*
X88586392Y-90938674D01*
G37*
D17*
X88106250Y-91425000D03*
D16*
G36*
X86205142Y-89063674D02*
G01*
X86228803Y-89067184D01*
X86252007Y-89072996D01*
X86274529Y-89081054D01*
X86296153Y-89091282D01*
X86316670Y-89103579D01*
X86335883Y-89117829D01*
X86353607Y-89133893D01*
X86369671Y-89151617D01*
X86383921Y-89170830D01*
X86396218Y-89191347D01*
X86406446Y-89212971D01*
X86414504Y-89235493D01*
X86420316Y-89258697D01*
X86423826Y-89282358D01*
X86425000Y-89306250D01*
X86425000Y-89793750D01*
X86423826Y-89817642D01*
X86420316Y-89841303D01*
X86414504Y-89864507D01*
X86406446Y-89887029D01*
X86396218Y-89908653D01*
X86383921Y-89929170D01*
X86369671Y-89948383D01*
X86353607Y-89966107D01*
X86335883Y-89982171D01*
X86316670Y-89996421D01*
X86296153Y-90008718D01*
X86274529Y-90018946D01*
X86252007Y-90027004D01*
X86228803Y-90032816D01*
X86205142Y-90036326D01*
X86181250Y-90037500D01*
X85268750Y-90037500D01*
X85244858Y-90036326D01*
X85221197Y-90032816D01*
X85197993Y-90027004D01*
X85175471Y-90018946D01*
X85153847Y-90008718D01*
X85133330Y-89996421D01*
X85114117Y-89982171D01*
X85096393Y-89966107D01*
X85080329Y-89948383D01*
X85066079Y-89929170D01*
X85053782Y-89908653D01*
X85043554Y-89887029D01*
X85035496Y-89864507D01*
X85029684Y-89841303D01*
X85026174Y-89817642D01*
X85025000Y-89793750D01*
X85025000Y-89306250D01*
X85026174Y-89282358D01*
X85029684Y-89258697D01*
X85035496Y-89235493D01*
X85043554Y-89212971D01*
X85053782Y-89191347D01*
X85066079Y-89170830D01*
X85080329Y-89151617D01*
X85096393Y-89133893D01*
X85114117Y-89117829D01*
X85133330Y-89103579D01*
X85153847Y-89091282D01*
X85175471Y-89081054D01*
X85197993Y-89072996D01*
X85221197Y-89067184D01*
X85244858Y-89063674D01*
X85268750Y-89062500D01*
X86181250Y-89062500D01*
X86205142Y-89063674D01*
X86205142Y-89063674D01*
G37*
D17*
X85725000Y-89550000D03*
D16*
G36*
X86205142Y-90938674D02*
G01*
X86228803Y-90942184D01*
X86252007Y-90947996D01*
X86274529Y-90956054D01*
X86296153Y-90966282D01*
X86316670Y-90978579D01*
X86335883Y-90992829D01*
X86353607Y-91008893D01*
X86369671Y-91026617D01*
X86383921Y-91045830D01*
X86396218Y-91066347D01*
X86406446Y-91087971D01*
X86414504Y-91110493D01*
X86420316Y-91133697D01*
X86423826Y-91157358D01*
X86425000Y-91181250D01*
X86425000Y-91668750D01*
X86423826Y-91692642D01*
X86420316Y-91716303D01*
X86414504Y-91739507D01*
X86406446Y-91762029D01*
X86396218Y-91783653D01*
X86383921Y-91804170D01*
X86369671Y-91823383D01*
X86353607Y-91841107D01*
X86335883Y-91857171D01*
X86316670Y-91871421D01*
X86296153Y-91883718D01*
X86274529Y-91893946D01*
X86252007Y-91902004D01*
X86228803Y-91907816D01*
X86205142Y-91911326D01*
X86181250Y-91912500D01*
X85268750Y-91912500D01*
X85244858Y-91911326D01*
X85221197Y-91907816D01*
X85197993Y-91902004D01*
X85175471Y-91893946D01*
X85153847Y-91883718D01*
X85133330Y-91871421D01*
X85114117Y-91857171D01*
X85096393Y-91841107D01*
X85080329Y-91823383D01*
X85066079Y-91804170D01*
X85053782Y-91783653D01*
X85043554Y-91762029D01*
X85035496Y-91739507D01*
X85029684Y-91716303D01*
X85026174Y-91692642D01*
X85025000Y-91668750D01*
X85025000Y-91181250D01*
X85026174Y-91157358D01*
X85029684Y-91133697D01*
X85035496Y-91110493D01*
X85043554Y-91087971D01*
X85053782Y-91066347D01*
X85066079Y-91045830D01*
X85080329Y-91026617D01*
X85096393Y-91008893D01*
X85114117Y-90992829D01*
X85133330Y-90978579D01*
X85153847Y-90966282D01*
X85175471Y-90956054D01*
X85197993Y-90947996D01*
X85221197Y-90942184D01*
X85244858Y-90938674D01*
X85268750Y-90937500D01*
X86181250Y-90937500D01*
X86205142Y-90938674D01*
X86205142Y-90938674D01*
G37*
D17*
X85725000Y-91425000D03*
D16*
G36*
X83199504Y-95607454D02*
G01*
X83223773Y-95611054D01*
X83247571Y-95617015D01*
X83270671Y-95625280D01*
X83292849Y-95635770D01*
X83313893Y-95648383D01*
X83333598Y-95662997D01*
X83351777Y-95679473D01*
X83368253Y-95697652D01*
X83382867Y-95717357D01*
X83395480Y-95738401D01*
X83405970Y-95760579D01*
X83414235Y-95783679D01*
X83420196Y-95807477D01*
X83423796Y-95831746D01*
X83425000Y-95856250D01*
X83425000Y-96606250D01*
X83423796Y-96630754D01*
X83420196Y-96655023D01*
X83414235Y-96678821D01*
X83405970Y-96701921D01*
X83395480Y-96724099D01*
X83382867Y-96745143D01*
X83368253Y-96764848D01*
X83351777Y-96783027D01*
X83333598Y-96799503D01*
X83313893Y-96814117D01*
X83292849Y-96826730D01*
X83270671Y-96837220D01*
X83247571Y-96845485D01*
X83223773Y-96851446D01*
X83199504Y-96855046D01*
X83175000Y-96856250D01*
X81925000Y-96856250D01*
X81900496Y-96855046D01*
X81876227Y-96851446D01*
X81852429Y-96845485D01*
X81829329Y-96837220D01*
X81807151Y-96826730D01*
X81786107Y-96814117D01*
X81766402Y-96799503D01*
X81748223Y-96783027D01*
X81731747Y-96764848D01*
X81717133Y-96745143D01*
X81704520Y-96724099D01*
X81694030Y-96701921D01*
X81685765Y-96678821D01*
X81679804Y-96655023D01*
X81676204Y-96630754D01*
X81675000Y-96606250D01*
X81675000Y-95856250D01*
X81676204Y-95831746D01*
X81679804Y-95807477D01*
X81685765Y-95783679D01*
X81694030Y-95760579D01*
X81704520Y-95738401D01*
X81717133Y-95717357D01*
X81731747Y-95697652D01*
X81748223Y-95679473D01*
X81766402Y-95662997D01*
X81786107Y-95648383D01*
X81807151Y-95635770D01*
X81829329Y-95625280D01*
X81852429Y-95617015D01*
X81876227Y-95611054D01*
X81900496Y-95607454D01*
X81925000Y-95606250D01*
X83175000Y-95606250D01*
X83199504Y-95607454D01*
X83199504Y-95607454D01*
G37*
D18*
X82550000Y-96231250D03*
D16*
G36*
X83199504Y-98407454D02*
G01*
X83223773Y-98411054D01*
X83247571Y-98417015D01*
X83270671Y-98425280D01*
X83292849Y-98435770D01*
X83313893Y-98448383D01*
X83333598Y-98462997D01*
X83351777Y-98479473D01*
X83368253Y-98497652D01*
X83382867Y-98517357D01*
X83395480Y-98538401D01*
X83405970Y-98560579D01*
X83414235Y-98583679D01*
X83420196Y-98607477D01*
X83423796Y-98631746D01*
X83425000Y-98656250D01*
X83425000Y-99406250D01*
X83423796Y-99430754D01*
X83420196Y-99455023D01*
X83414235Y-99478821D01*
X83405970Y-99501921D01*
X83395480Y-99524099D01*
X83382867Y-99545143D01*
X83368253Y-99564848D01*
X83351777Y-99583027D01*
X83333598Y-99599503D01*
X83313893Y-99614117D01*
X83292849Y-99626730D01*
X83270671Y-99637220D01*
X83247571Y-99645485D01*
X83223773Y-99651446D01*
X83199504Y-99655046D01*
X83175000Y-99656250D01*
X81925000Y-99656250D01*
X81900496Y-99655046D01*
X81876227Y-99651446D01*
X81852429Y-99645485D01*
X81829329Y-99637220D01*
X81807151Y-99626730D01*
X81786107Y-99614117D01*
X81766402Y-99599503D01*
X81748223Y-99583027D01*
X81731747Y-99564848D01*
X81717133Y-99545143D01*
X81704520Y-99524099D01*
X81694030Y-99501921D01*
X81685765Y-99478821D01*
X81679804Y-99455023D01*
X81676204Y-99430754D01*
X81675000Y-99406250D01*
X81675000Y-98656250D01*
X81676204Y-98631746D01*
X81679804Y-98607477D01*
X81685765Y-98583679D01*
X81694030Y-98560579D01*
X81704520Y-98538401D01*
X81717133Y-98517357D01*
X81731747Y-98497652D01*
X81748223Y-98479473D01*
X81766402Y-98462997D01*
X81786107Y-98448383D01*
X81807151Y-98435770D01*
X81829329Y-98425280D01*
X81852429Y-98417015D01*
X81876227Y-98411054D01*
X81900496Y-98407454D01*
X81925000Y-98406250D01*
X83175000Y-98406250D01*
X83199504Y-98407454D01*
X83199504Y-98407454D01*
G37*
D18*
X82550000Y-99031250D03*
D16*
G36*
X96453392Y-100996424D02*
G01*
X96477053Y-100999934D01*
X96500257Y-101005746D01*
X96522779Y-101013804D01*
X96544403Y-101024032D01*
X96564920Y-101036329D01*
X96584133Y-101050579D01*
X96601857Y-101066643D01*
X96617921Y-101084367D01*
X96632171Y-101103580D01*
X96644468Y-101124097D01*
X96654696Y-101145721D01*
X96662754Y-101168243D01*
X96668566Y-101191447D01*
X96672076Y-101215108D01*
X96673250Y-101239000D01*
X96673250Y-102151500D01*
X96672076Y-102175392D01*
X96668566Y-102199053D01*
X96662754Y-102222257D01*
X96654696Y-102244779D01*
X96644468Y-102266403D01*
X96632171Y-102286920D01*
X96617921Y-102306133D01*
X96601857Y-102323857D01*
X96584133Y-102339921D01*
X96564920Y-102354171D01*
X96544403Y-102366468D01*
X96522779Y-102376696D01*
X96500257Y-102384754D01*
X96477053Y-102390566D01*
X96453392Y-102394076D01*
X96429500Y-102395250D01*
X95942000Y-102395250D01*
X95918108Y-102394076D01*
X95894447Y-102390566D01*
X95871243Y-102384754D01*
X95848721Y-102376696D01*
X95827097Y-102366468D01*
X95806580Y-102354171D01*
X95787367Y-102339921D01*
X95769643Y-102323857D01*
X95753579Y-102306133D01*
X95739329Y-102286920D01*
X95727032Y-102266403D01*
X95716804Y-102244779D01*
X95708746Y-102222257D01*
X95702934Y-102199053D01*
X95699424Y-102175392D01*
X95698250Y-102151500D01*
X95698250Y-101239000D01*
X95699424Y-101215108D01*
X95702934Y-101191447D01*
X95708746Y-101168243D01*
X95716804Y-101145721D01*
X95727032Y-101124097D01*
X95739329Y-101103580D01*
X95753579Y-101084367D01*
X95769643Y-101066643D01*
X95787367Y-101050579D01*
X95806580Y-101036329D01*
X95827097Y-101024032D01*
X95848721Y-101013804D01*
X95871243Y-101005746D01*
X95894447Y-100999934D01*
X95918108Y-100996424D01*
X95942000Y-100995250D01*
X96429500Y-100995250D01*
X96453392Y-100996424D01*
X96453392Y-100996424D01*
G37*
D17*
X96185750Y-101695250D03*
D16*
G36*
X98328392Y-100996424D02*
G01*
X98352053Y-100999934D01*
X98375257Y-101005746D01*
X98397779Y-101013804D01*
X98419403Y-101024032D01*
X98439920Y-101036329D01*
X98459133Y-101050579D01*
X98476857Y-101066643D01*
X98492921Y-101084367D01*
X98507171Y-101103580D01*
X98519468Y-101124097D01*
X98529696Y-101145721D01*
X98537754Y-101168243D01*
X98543566Y-101191447D01*
X98547076Y-101215108D01*
X98548250Y-101239000D01*
X98548250Y-102151500D01*
X98547076Y-102175392D01*
X98543566Y-102199053D01*
X98537754Y-102222257D01*
X98529696Y-102244779D01*
X98519468Y-102266403D01*
X98507171Y-102286920D01*
X98492921Y-102306133D01*
X98476857Y-102323857D01*
X98459133Y-102339921D01*
X98439920Y-102354171D01*
X98419403Y-102366468D01*
X98397779Y-102376696D01*
X98375257Y-102384754D01*
X98352053Y-102390566D01*
X98328392Y-102394076D01*
X98304500Y-102395250D01*
X97817000Y-102395250D01*
X97793108Y-102394076D01*
X97769447Y-102390566D01*
X97746243Y-102384754D01*
X97723721Y-102376696D01*
X97702097Y-102366468D01*
X97681580Y-102354171D01*
X97662367Y-102339921D01*
X97644643Y-102323857D01*
X97628579Y-102306133D01*
X97614329Y-102286920D01*
X97602032Y-102266403D01*
X97591804Y-102244779D01*
X97583746Y-102222257D01*
X97577934Y-102199053D01*
X97574424Y-102175392D01*
X97573250Y-102151500D01*
X97573250Y-101239000D01*
X97574424Y-101215108D01*
X97577934Y-101191447D01*
X97583746Y-101168243D01*
X97591804Y-101145721D01*
X97602032Y-101124097D01*
X97614329Y-101103580D01*
X97628579Y-101084367D01*
X97644643Y-101066643D01*
X97662367Y-101050579D01*
X97681580Y-101036329D01*
X97702097Y-101024032D01*
X97723721Y-101013804D01*
X97746243Y-101005746D01*
X97769447Y-100999934D01*
X97793108Y-100996424D01*
X97817000Y-100995250D01*
X98304500Y-100995250D01*
X98328392Y-100996424D01*
X98328392Y-100996424D01*
G37*
D17*
X98060750Y-101695250D03*
D16*
G36*
X101699142Y-87698424D02*
G01*
X101722803Y-87701934D01*
X101746007Y-87707746D01*
X101768529Y-87715804D01*
X101790153Y-87726032D01*
X101810670Y-87738329D01*
X101829883Y-87752579D01*
X101847607Y-87768643D01*
X101863671Y-87786367D01*
X101877921Y-87805580D01*
X101890218Y-87826097D01*
X101900446Y-87847721D01*
X101908504Y-87870243D01*
X101914316Y-87893447D01*
X101917826Y-87917108D01*
X101919000Y-87941000D01*
X101919000Y-88428500D01*
X101917826Y-88452392D01*
X101914316Y-88476053D01*
X101908504Y-88499257D01*
X101900446Y-88521779D01*
X101890218Y-88543403D01*
X101877921Y-88563920D01*
X101863671Y-88583133D01*
X101847607Y-88600857D01*
X101829883Y-88616921D01*
X101810670Y-88631171D01*
X101790153Y-88643468D01*
X101768529Y-88653696D01*
X101746007Y-88661754D01*
X101722803Y-88667566D01*
X101699142Y-88671076D01*
X101675250Y-88672250D01*
X100762750Y-88672250D01*
X100738858Y-88671076D01*
X100715197Y-88667566D01*
X100691993Y-88661754D01*
X100669471Y-88653696D01*
X100647847Y-88643468D01*
X100627330Y-88631171D01*
X100608117Y-88616921D01*
X100590393Y-88600857D01*
X100574329Y-88583133D01*
X100560079Y-88563920D01*
X100547782Y-88543403D01*
X100537554Y-88521779D01*
X100529496Y-88499257D01*
X100523684Y-88476053D01*
X100520174Y-88452392D01*
X100519000Y-88428500D01*
X100519000Y-87941000D01*
X100520174Y-87917108D01*
X100523684Y-87893447D01*
X100529496Y-87870243D01*
X100537554Y-87847721D01*
X100547782Y-87826097D01*
X100560079Y-87805580D01*
X100574329Y-87786367D01*
X100590393Y-87768643D01*
X100608117Y-87752579D01*
X100627330Y-87738329D01*
X100647847Y-87726032D01*
X100669471Y-87715804D01*
X100691993Y-87707746D01*
X100715197Y-87701934D01*
X100738858Y-87698424D01*
X100762750Y-87697250D01*
X101675250Y-87697250D01*
X101699142Y-87698424D01*
X101699142Y-87698424D01*
G37*
D17*
X101219000Y-88184750D03*
D16*
G36*
X101699142Y-89573424D02*
G01*
X101722803Y-89576934D01*
X101746007Y-89582746D01*
X101768529Y-89590804D01*
X101790153Y-89601032D01*
X101810670Y-89613329D01*
X101829883Y-89627579D01*
X101847607Y-89643643D01*
X101863671Y-89661367D01*
X101877921Y-89680580D01*
X101890218Y-89701097D01*
X101900446Y-89722721D01*
X101908504Y-89745243D01*
X101914316Y-89768447D01*
X101917826Y-89792108D01*
X101919000Y-89816000D01*
X101919000Y-90303500D01*
X101917826Y-90327392D01*
X101914316Y-90351053D01*
X101908504Y-90374257D01*
X101900446Y-90396779D01*
X101890218Y-90418403D01*
X101877921Y-90438920D01*
X101863671Y-90458133D01*
X101847607Y-90475857D01*
X101829883Y-90491921D01*
X101810670Y-90506171D01*
X101790153Y-90518468D01*
X101768529Y-90528696D01*
X101746007Y-90536754D01*
X101722803Y-90542566D01*
X101699142Y-90546076D01*
X101675250Y-90547250D01*
X100762750Y-90547250D01*
X100738858Y-90546076D01*
X100715197Y-90542566D01*
X100691993Y-90536754D01*
X100669471Y-90528696D01*
X100647847Y-90518468D01*
X100627330Y-90506171D01*
X100608117Y-90491921D01*
X100590393Y-90475857D01*
X100574329Y-90458133D01*
X100560079Y-90438920D01*
X100547782Y-90418403D01*
X100537554Y-90396779D01*
X100529496Y-90374257D01*
X100523684Y-90351053D01*
X100520174Y-90327392D01*
X100519000Y-90303500D01*
X100519000Y-89816000D01*
X100520174Y-89792108D01*
X100523684Y-89768447D01*
X100529496Y-89745243D01*
X100537554Y-89722721D01*
X100547782Y-89701097D01*
X100560079Y-89680580D01*
X100574329Y-89661367D01*
X100590393Y-89643643D01*
X100608117Y-89627579D01*
X100627330Y-89613329D01*
X100647847Y-89601032D01*
X100669471Y-89590804D01*
X100691993Y-89582746D01*
X100715197Y-89576934D01*
X100738858Y-89573424D01*
X100762750Y-89572250D01*
X101675250Y-89572250D01*
X101699142Y-89573424D01*
X101699142Y-89573424D01*
G37*
D17*
X101219000Y-90059750D03*
D16*
G36*
X111224142Y-89573424D02*
G01*
X111247803Y-89576934D01*
X111271007Y-89582746D01*
X111293529Y-89590804D01*
X111315153Y-89601032D01*
X111335670Y-89613329D01*
X111354883Y-89627579D01*
X111372607Y-89643643D01*
X111388671Y-89661367D01*
X111402921Y-89680580D01*
X111415218Y-89701097D01*
X111425446Y-89722721D01*
X111433504Y-89745243D01*
X111439316Y-89768447D01*
X111442826Y-89792108D01*
X111444000Y-89816000D01*
X111444000Y-90303500D01*
X111442826Y-90327392D01*
X111439316Y-90351053D01*
X111433504Y-90374257D01*
X111425446Y-90396779D01*
X111415218Y-90418403D01*
X111402921Y-90438920D01*
X111388671Y-90458133D01*
X111372607Y-90475857D01*
X111354883Y-90491921D01*
X111335670Y-90506171D01*
X111315153Y-90518468D01*
X111293529Y-90528696D01*
X111271007Y-90536754D01*
X111247803Y-90542566D01*
X111224142Y-90546076D01*
X111200250Y-90547250D01*
X110287750Y-90547250D01*
X110263858Y-90546076D01*
X110240197Y-90542566D01*
X110216993Y-90536754D01*
X110194471Y-90528696D01*
X110172847Y-90518468D01*
X110152330Y-90506171D01*
X110133117Y-90491921D01*
X110115393Y-90475857D01*
X110099329Y-90458133D01*
X110085079Y-90438920D01*
X110072782Y-90418403D01*
X110062554Y-90396779D01*
X110054496Y-90374257D01*
X110048684Y-90351053D01*
X110045174Y-90327392D01*
X110044000Y-90303500D01*
X110044000Y-89816000D01*
X110045174Y-89792108D01*
X110048684Y-89768447D01*
X110054496Y-89745243D01*
X110062554Y-89722721D01*
X110072782Y-89701097D01*
X110085079Y-89680580D01*
X110099329Y-89661367D01*
X110115393Y-89643643D01*
X110133117Y-89627579D01*
X110152330Y-89613329D01*
X110172847Y-89601032D01*
X110194471Y-89590804D01*
X110216993Y-89582746D01*
X110240197Y-89576934D01*
X110263858Y-89573424D01*
X110287750Y-89572250D01*
X111200250Y-89572250D01*
X111224142Y-89573424D01*
X111224142Y-89573424D01*
G37*
D17*
X110744000Y-90059750D03*
D16*
G36*
X111224142Y-87698424D02*
G01*
X111247803Y-87701934D01*
X111271007Y-87707746D01*
X111293529Y-87715804D01*
X111315153Y-87726032D01*
X111335670Y-87738329D01*
X111354883Y-87752579D01*
X111372607Y-87768643D01*
X111388671Y-87786367D01*
X111402921Y-87805580D01*
X111415218Y-87826097D01*
X111425446Y-87847721D01*
X111433504Y-87870243D01*
X111439316Y-87893447D01*
X111442826Y-87917108D01*
X111444000Y-87941000D01*
X111444000Y-88428500D01*
X111442826Y-88452392D01*
X111439316Y-88476053D01*
X111433504Y-88499257D01*
X111425446Y-88521779D01*
X111415218Y-88543403D01*
X111402921Y-88563920D01*
X111388671Y-88583133D01*
X111372607Y-88600857D01*
X111354883Y-88616921D01*
X111335670Y-88631171D01*
X111315153Y-88643468D01*
X111293529Y-88653696D01*
X111271007Y-88661754D01*
X111247803Y-88667566D01*
X111224142Y-88671076D01*
X111200250Y-88672250D01*
X110287750Y-88672250D01*
X110263858Y-88671076D01*
X110240197Y-88667566D01*
X110216993Y-88661754D01*
X110194471Y-88653696D01*
X110172847Y-88643468D01*
X110152330Y-88631171D01*
X110133117Y-88616921D01*
X110115393Y-88600857D01*
X110099329Y-88583133D01*
X110085079Y-88563920D01*
X110072782Y-88543403D01*
X110062554Y-88521779D01*
X110054496Y-88499257D01*
X110048684Y-88476053D01*
X110045174Y-88452392D01*
X110044000Y-88428500D01*
X110044000Y-87941000D01*
X110045174Y-87917108D01*
X110048684Y-87893447D01*
X110054496Y-87870243D01*
X110062554Y-87847721D01*
X110072782Y-87826097D01*
X110085079Y-87805580D01*
X110099329Y-87786367D01*
X110115393Y-87768643D01*
X110133117Y-87752579D01*
X110152330Y-87738329D01*
X110172847Y-87726032D01*
X110194471Y-87715804D01*
X110216993Y-87707746D01*
X110240197Y-87701934D01*
X110263858Y-87698424D01*
X110287750Y-87697250D01*
X111200250Y-87697250D01*
X111224142Y-87698424D01*
X111224142Y-87698424D01*
G37*
D17*
X110744000Y-88184750D03*
D16*
G36*
X97317642Y-106813674D02*
G01*
X97341303Y-106817184D01*
X97364507Y-106822996D01*
X97387029Y-106831054D01*
X97408653Y-106841282D01*
X97429170Y-106853579D01*
X97448383Y-106867829D01*
X97466107Y-106883893D01*
X97482171Y-106901617D01*
X97496421Y-106920830D01*
X97508718Y-106941347D01*
X97518946Y-106962971D01*
X97527004Y-106985493D01*
X97532816Y-107008697D01*
X97536326Y-107032358D01*
X97537500Y-107056250D01*
X97537500Y-107543750D01*
X97536326Y-107567642D01*
X97532816Y-107591303D01*
X97527004Y-107614507D01*
X97518946Y-107637029D01*
X97508718Y-107658653D01*
X97496421Y-107679170D01*
X97482171Y-107698383D01*
X97466107Y-107716107D01*
X97448383Y-107732171D01*
X97429170Y-107746421D01*
X97408653Y-107758718D01*
X97387029Y-107768946D01*
X97364507Y-107777004D01*
X97341303Y-107782816D01*
X97317642Y-107786326D01*
X97293750Y-107787500D01*
X96381250Y-107787500D01*
X96357358Y-107786326D01*
X96333697Y-107782816D01*
X96310493Y-107777004D01*
X96287971Y-107768946D01*
X96266347Y-107758718D01*
X96245830Y-107746421D01*
X96226617Y-107732171D01*
X96208893Y-107716107D01*
X96192829Y-107698383D01*
X96178579Y-107679170D01*
X96166282Y-107658653D01*
X96156054Y-107637029D01*
X96147996Y-107614507D01*
X96142184Y-107591303D01*
X96138674Y-107567642D01*
X96137500Y-107543750D01*
X96137500Y-107056250D01*
X96138674Y-107032358D01*
X96142184Y-107008697D01*
X96147996Y-106985493D01*
X96156054Y-106962971D01*
X96166282Y-106941347D01*
X96178579Y-106920830D01*
X96192829Y-106901617D01*
X96208893Y-106883893D01*
X96226617Y-106867829D01*
X96245830Y-106853579D01*
X96266347Y-106841282D01*
X96287971Y-106831054D01*
X96310493Y-106822996D01*
X96333697Y-106817184D01*
X96357358Y-106813674D01*
X96381250Y-106812500D01*
X97293750Y-106812500D01*
X97317642Y-106813674D01*
X97317642Y-106813674D01*
G37*
D17*
X96837500Y-107300000D03*
D16*
G36*
X97317642Y-104938674D02*
G01*
X97341303Y-104942184D01*
X97364507Y-104947996D01*
X97387029Y-104956054D01*
X97408653Y-104966282D01*
X97429170Y-104978579D01*
X97448383Y-104992829D01*
X97466107Y-105008893D01*
X97482171Y-105026617D01*
X97496421Y-105045830D01*
X97508718Y-105066347D01*
X97518946Y-105087971D01*
X97527004Y-105110493D01*
X97532816Y-105133697D01*
X97536326Y-105157358D01*
X97537500Y-105181250D01*
X97537500Y-105668750D01*
X97536326Y-105692642D01*
X97532816Y-105716303D01*
X97527004Y-105739507D01*
X97518946Y-105762029D01*
X97508718Y-105783653D01*
X97496421Y-105804170D01*
X97482171Y-105823383D01*
X97466107Y-105841107D01*
X97448383Y-105857171D01*
X97429170Y-105871421D01*
X97408653Y-105883718D01*
X97387029Y-105893946D01*
X97364507Y-105902004D01*
X97341303Y-105907816D01*
X97317642Y-105911326D01*
X97293750Y-105912500D01*
X96381250Y-105912500D01*
X96357358Y-105911326D01*
X96333697Y-105907816D01*
X96310493Y-105902004D01*
X96287971Y-105893946D01*
X96266347Y-105883718D01*
X96245830Y-105871421D01*
X96226617Y-105857171D01*
X96208893Y-105841107D01*
X96192829Y-105823383D01*
X96178579Y-105804170D01*
X96166282Y-105783653D01*
X96156054Y-105762029D01*
X96147996Y-105739507D01*
X96142184Y-105716303D01*
X96138674Y-105692642D01*
X96137500Y-105668750D01*
X96137500Y-105181250D01*
X96138674Y-105157358D01*
X96142184Y-105133697D01*
X96147996Y-105110493D01*
X96156054Y-105087971D01*
X96166282Y-105066347D01*
X96178579Y-105045830D01*
X96192829Y-105026617D01*
X96208893Y-105008893D01*
X96226617Y-104992829D01*
X96245830Y-104978579D01*
X96266347Y-104966282D01*
X96287971Y-104956054D01*
X96310493Y-104947996D01*
X96333697Y-104942184D01*
X96357358Y-104938674D01*
X96381250Y-104937500D01*
X97293750Y-104937500D01*
X97317642Y-104938674D01*
X97317642Y-104938674D01*
G37*
D17*
X96837500Y-105425000D03*
D16*
G36*
X109788392Y-110394424D02*
G01*
X109812053Y-110397934D01*
X109835257Y-110403746D01*
X109857779Y-110411804D01*
X109879403Y-110422032D01*
X109899920Y-110434329D01*
X109919133Y-110448579D01*
X109936857Y-110464643D01*
X109952921Y-110482367D01*
X109967171Y-110501580D01*
X109979468Y-110522097D01*
X109989696Y-110543721D01*
X109997754Y-110566243D01*
X110003566Y-110589447D01*
X110007076Y-110613108D01*
X110008250Y-110637000D01*
X110008250Y-111549500D01*
X110007076Y-111573392D01*
X110003566Y-111597053D01*
X109997754Y-111620257D01*
X109989696Y-111642779D01*
X109979468Y-111664403D01*
X109967171Y-111684920D01*
X109952921Y-111704133D01*
X109936857Y-111721857D01*
X109919133Y-111737921D01*
X109899920Y-111752171D01*
X109879403Y-111764468D01*
X109857779Y-111774696D01*
X109835257Y-111782754D01*
X109812053Y-111788566D01*
X109788392Y-111792076D01*
X109764500Y-111793250D01*
X109277000Y-111793250D01*
X109253108Y-111792076D01*
X109229447Y-111788566D01*
X109206243Y-111782754D01*
X109183721Y-111774696D01*
X109162097Y-111764468D01*
X109141580Y-111752171D01*
X109122367Y-111737921D01*
X109104643Y-111721857D01*
X109088579Y-111704133D01*
X109074329Y-111684920D01*
X109062032Y-111664403D01*
X109051804Y-111642779D01*
X109043746Y-111620257D01*
X109037934Y-111597053D01*
X109034424Y-111573392D01*
X109033250Y-111549500D01*
X109033250Y-110637000D01*
X109034424Y-110613108D01*
X109037934Y-110589447D01*
X109043746Y-110566243D01*
X109051804Y-110543721D01*
X109062032Y-110522097D01*
X109074329Y-110501580D01*
X109088579Y-110482367D01*
X109104643Y-110464643D01*
X109122367Y-110448579D01*
X109141580Y-110434329D01*
X109162097Y-110422032D01*
X109183721Y-110411804D01*
X109206243Y-110403746D01*
X109229447Y-110397934D01*
X109253108Y-110394424D01*
X109277000Y-110393250D01*
X109764500Y-110393250D01*
X109788392Y-110394424D01*
X109788392Y-110394424D01*
G37*
D17*
X109520750Y-111093250D03*
D16*
G36*
X111663392Y-110394424D02*
G01*
X111687053Y-110397934D01*
X111710257Y-110403746D01*
X111732779Y-110411804D01*
X111754403Y-110422032D01*
X111774920Y-110434329D01*
X111794133Y-110448579D01*
X111811857Y-110464643D01*
X111827921Y-110482367D01*
X111842171Y-110501580D01*
X111854468Y-110522097D01*
X111864696Y-110543721D01*
X111872754Y-110566243D01*
X111878566Y-110589447D01*
X111882076Y-110613108D01*
X111883250Y-110637000D01*
X111883250Y-111549500D01*
X111882076Y-111573392D01*
X111878566Y-111597053D01*
X111872754Y-111620257D01*
X111864696Y-111642779D01*
X111854468Y-111664403D01*
X111842171Y-111684920D01*
X111827921Y-111704133D01*
X111811857Y-111721857D01*
X111794133Y-111737921D01*
X111774920Y-111752171D01*
X111754403Y-111764468D01*
X111732779Y-111774696D01*
X111710257Y-111782754D01*
X111687053Y-111788566D01*
X111663392Y-111792076D01*
X111639500Y-111793250D01*
X111152000Y-111793250D01*
X111128108Y-111792076D01*
X111104447Y-111788566D01*
X111081243Y-111782754D01*
X111058721Y-111774696D01*
X111037097Y-111764468D01*
X111016580Y-111752171D01*
X110997367Y-111737921D01*
X110979643Y-111721857D01*
X110963579Y-111704133D01*
X110949329Y-111684920D01*
X110937032Y-111664403D01*
X110926804Y-111642779D01*
X110918746Y-111620257D01*
X110912934Y-111597053D01*
X110909424Y-111573392D01*
X110908250Y-111549500D01*
X110908250Y-110637000D01*
X110909424Y-110613108D01*
X110912934Y-110589447D01*
X110918746Y-110566243D01*
X110926804Y-110543721D01*
X110937032Y-110522097D01*
X110949329Y-110501580D01*
X110963579Y-110482367D01*
X110979643Y-110464643D01*
X110997367Y-110448579D01*
X111016580Y-110434329D01*
X111037097Y-110422032D01*
X111058721Y-110411804D01*
X111081243Y-110403746D01*
X111104447Y-110397934D01*
X111128108Y-110394424D01*
X111152000Y-110393250D01*
X111639500Y-110393250D01*
X111663392Y-110394424D01*
X111663392Y-110394424D01*
G37*
D17*
X111395750Y-111093250D03*
D16*
G36*
X116780392Y-96080424D02*
G01*
X116804053Y-96083934D01*
X116827257Y-96089746D01*
X116849779Y-96097804D01*
X116871403Y-96108032D01*
X116891920Y-96120329D01*
X116911133Y-96134579D01*
X116928857Y-96150643D01*
X116944921Y-96168367D01*
X116959171Y-96187580D01*
X116971468Y-96208097D01*
X116981696Y-96229721D01*
X116989754Y-96252243D01*
X116995566Y-96275447D01*
X116999076Y-96299108D01*
X117000250Y-96323000D01*
X117000250Y-96810500D01*
X116999076Y-96834392D01*
X116995566Y-96858053D01*
X116989754Y-96881257D01*
X116981696Y-96903779D01*
X116971468Y-96925403D01*
X116959171Y-96945920D01*
X116944921Y-96965133D01*
X116928857Y-96982857D01*
X116911133Y-96998921D01*
X116891920Y-97013171D01*
X116871403Y-97025468D01*
X116849779Y-97035696D01*
X116827257Y-97043754D01*
X116804053Y-97049566D01*
X116780392Y-97053076D01*
X116756500Y-97054250D01*
X115844000Y-97054250D01*
X115820108Y-97053076D01*
X115796447Y-97049566D01*
X115773243Y-97043754D01*
X115750721Y-97035696D01*
X115729097Y-97025468D01*
X115708580Y-97013171D01*
X115689367Y-96998921D01*
X115671643Y-96982857D01*
X115655579Y-96965133D01*
X115641329Y-96945920D01*
X115629032Y-96925403D01*
X115618804Y-96903779D01*
X115610746Y-96881257D01*
X115604934Y-96858053D01*
X115601424Y-96834392D01*
X115600250Y-96810500D01*
X115600250Y-96323000D01*
X115601424Y-96299108D01*
X115604934Y-96275447D01*
X115610746Y-96252243D01*
X115618804Y-96229721D01*
X115629032Y-96208097D01*
X115641329Y-96187580D01*
X115655579Y-96168367D01*
X115671643Y-96150643D01*
X115689367Y-96134579D01*
X115708580Y-96120329D01*
X115729097Y-96108032D01*
X115750721Y-96097804D01*
X115773243Y-96089746D01*
X115796447Y-96083934D01*
X115820108Y-96080424D01*
X115844000Y-96079250D01*
X116756500Y-96079250D01*
X116780392Y-96080424D01*
X116780392Y-96080424D01*
G37*
D17*
X116300250Y-96566750D03*
D16*
G36*
X116780392Y-97955424D02*
G01*
X116804053Y-97958934D01*
X116827257Y-97964746D01*
X116849779Y-97972804D01*
X116871403Y-97983032D01*
X116891920Y-97995329D01*
X116911133Y-98009579D01*
X116928857Y-98025643D01*
X116944921Y-98043367D01*
X116959171Y-98062580D01*
X116971468Y-98083097D01*
X116981696Y-98104721D01*
X116989754Y-98127243D01*
X116995566Y-98150447D01*
X116999076Y-98174108D01*
X117000250Y-98198000D01*
X117000250Y-98685500D01*
X116999076Y-98709392D01*
X116995566Y-98733053D01*
X116989754Y-98756257D01*
X116981696Y-98778779D01*
X116971468Y-98800403D01*
X116959171Y-98820920D01*
X116944921Y-98840133D01*
X116928857Y-98857857D01*
X116911133Y-98873921D01*
X116891920Y-98888171D01*
X116871403Y-98900468D01*
X116849779Y-98910696D01*
X116827257Y-98918754D01*
X116804053Y-98924566D01*
X116780392Y-98928076D01*
X116756500Y-98929250D01*
X115844000Y-98929250D01*
X115820108Y-98928076D01*
X115796447Y-98924566D01*
X115773243Y-98918754D01*
X115750721Y-98910696D01*
X115729097Y-98900468D01*
X115708580Y-98888171D01*
X115689367Y-98873921D01*
X115671643Y-98857857D01*
X115655579Y-98840133D01*
X115641329Y-98820920D01*
X115629032Y-98800403D01*
X115618804Y-98778779D01*
X115610746Y-98756257D01*
X115604934Y-98733053D01*
X115601424Y-98709392D01*
X115600250Y-98685500D01*
X115600250Y-98198000D01*
X115601424Y-98174108D01*
X115604934Y-98150447D01*
X115610746Y-98127243D01*
X115618804Y-98104721D01*
X115629032Y-98083097D01*
X115641329Y-98062580D01*
X115655579Y-98043367D01*
X115671643Y-98025643D01*
X115689367Y-98009579D01*
X115708580Y-97995329D01*
X115729097Y-97983032D01*
X115750721Y-97972804D01*
X115773243Y-97964746D01*
X115796447Y-97958934D01*
X115820108Y-97955424D01*
X115844000Y-97954250D01*
X116756500Y-97954250D01*
X116780392Y-97955424D01*
X116780392Y-97955424D01*
G37*
D17*
X116300250Y-98441750D03*
D16*
G36*
X98111392Y-93826174D02*
G01*
X98135053Y-93829684D01*
X98158257Y-93835496D01*
X98180779Y-93843554D01*
X98202403Y-93853782D01*
X98222920Y-93866079D01*
X98242133Y-93880329D01*
X98259857Y-93896393D01*
X98275921Y-93914117D01*
X98290171Y-93933330D01*
X98302468Y-93953847D01*
X98312696Y-93975471D01*
X98320754Y-93997993D01*
X98326566Y-94021197D01*
X98330076Y-94044858D01*
X98331250Y-94068750D01*
X98331250Y-94556250D01*
X98330076Y-94580142D01*
X98326566Y-94603803D01*
X98320754Y-94627007D01*
X98312696Y-94649529D01*
X98302468Y-94671153D01*
X98290171Y-94691670D01*
X98275921Y-94710883D01*
X98259857Y-94728607D01*
X98242133Y-94744671D01*
X98222920Y-94758921D01*
X98202403Y-94771218D01*
X98180779Y-94781446D01*
X98158257Y-94789504D01*
X98135053Y-94795316D01*
X98111392Y-94798826D01*
X98087500Y-94800000D01*
X97175000Y-94800000D01*
X97151108Y-94798826D01*
X97127447Y-94795316D01*
X97104243Y-94789504D01*
X97081721Y-94781446D01*
X97060097Y-94771218D01*
X97039580Y-94758921D01*
X97020367Y-94744671D01*
X97002643Y-94728607D01*
X96986579Y-94710883D01*
X96972329Y-94691670D01*
X96960032Y-94671153D01*
X96949804Y-94649529D01*
X96941746Y-94627007D01*
X96935934Y-94603803D01*
X96932424Y-94580142D01*
X96931250Y-94556250D01*
X96931250Y-94068750D01*
X96932424Y-94044858D01*
X96935934Y-94021197D01*
X96941746Y-93997993D01*
X96949804Y-93975471D01*
X96960032Y-93953847D01*
X96972329Y-93933330D01*
X96986579Y-93914117D01*
X97002643Y-93896393D01*
X97020367Y-93880329D01*
X97039580Y-93866079D01*
X97060097Y-93853782D01*
X97081721Y-93843554D01*
X97104243Y-93835496D01*
X97127447Y-93829684D01*
X97151108Y-93826174D01*
X97175000Y-93825000D01*
X98087500Y-93825000D01*
X98111392Y-93826174D01*
X98111392Y-93826174D01*
G37*
D17*
X97631250Y-94312500D03*
D16*
G36*
X98111392Y-95701174D02*
G01*
X98135053Y-95704684D01*
X98158257Y-95710496D01*
X98180779Y-95718554D01*
X98202403Y-95728782D01*
X98222920Y-95741079D01*
X98242133Y-95755329D01*
X98259857Y-95771393D01*
X98275921Y-95789117D01*
X98290171Y-95808330D01*
X98302468Y-95828847D01*
X98312696Y-95850471D01*
X98320754Y-95872993D01*
X98326566Y-95896197D01*
X98330076Y-95919858D01*
X98331250Y-95943750D01*
X98331250Y-96431250D01*
X98330076Y-96455142D01*
X98326566Y-96478803D01*
X98320754Y-96502007D01*
X98312696Y-96524529D01*
X98302468Y-96546153D01*
X98290171Y-96566670D01*
X98275921Y-96585883D01*
X98259857Y-96603607D01*
X98242133Y-96619671D01*
X98222920Y-96633921D01*
X98202403Y-96646218D01*
X98180779Y-96656446D01*
X98158257Y-96664504D01*
X98135053Y-96670316D01*
X98111392Y-96673826D01*
X98087500Y-96675000D01*
X97175000Y-96675000D01*
X97151108Y-96673826D01*
X97127447Y-96670316D01*
X97104243Y-96664504D01*
X97081721Y-96656446D01*
X97060097Y-96646218D01*
X97039580Y-96633921D01*
X97020367Y-96619671D01*
X97002643Y-96603607D01*
X96986579Y-96585883D01*
X96972329Y-96566670D01*
X96960032Y-96546153D01*
X96949804Y-96524529D01*
X96941746Y-96502007D01*
X96935934Y-96478803D01*
X96932424Y-96455142D01*
X96931250Y-96431250D01*
X96931250Y-95943750D01*
X96932424Y-95919858D01*
X96935934Y-95896197D01*
X96941746Y-95872993D01*
X96949804Y-95850471D01*
X96960032Y-95828847D01*
X96972329Y-95808330D01*
X96986579Y-95789117D01*
X97002643Y-95771393D01*
X97020367Y-95755329D01*
X97039580Y-95741079D01*
X97060097Y-95728782D01*
X97081721Y-95718554D01*
X97104243Y-95710496D01*
X97127447Y-95704684D01*
X97151108Y-95701174D01*
X97175000Y-95700000D01*
X98087500Y-95700000D01*
X98111392Y-95701174D01*
X98111392Y-95701174D01*
G37*
D17*
X97631250Y-96187500D03*
D19*
X90368750Y-120618750D03*
X89713751Y-121348750D03*
D20*
X89058750Y-122078750D02*
X90368752Y-120618750D01*
D19*
X95388750Y-119828750D03*
D20*
X95368750Y-120118750D02*
X95408750Y-119538750D01*
D19*
X95408750Y-119538750D03*
D21*
X101393750Y-123468750D03*
X101393750Y-126768750D03*
D19*
X109418750Y-120618750D03*
X108763751Y-121348750D03*
D20*
X108108750Y-122078750D02*
X109418752Y-120618750D01*
D19*
X114438750Y-119828750D03*
D20*
X114418750Y-120118750D02*
X114458750Y-119538750D01*
D19*
X114458750Y-119538750D03*
D21*
X120443750Y-123468750D03*
X120443750Y-126768750D03*
D19*
X128468750Y-120618750D03*
X127813751Y-121348750D03*
D20*
X127158750Y-122078750D02*
X128468752Y-120618750D01*
D19*
X133488750Y-119828750D03*
D20*
X133468750Y-120118750D02*
X133508750Y-119538750D01*
D19*
X133508750Y-119538750D03*
D21*
X139493750Y-123468750D03*
X139493750Y-126768750D03*
D19*
X147518750Y-120618750D03*
X146863751Y-121348750D03*
D20*
X146208750Y-122078750D02*
X147518752Y-120618750D01*
D19*
X152538750Y-119828750D03*
D20*
X152518750Y-120118750D02*
X152558750Y-119538750D01*
D19*
X152558750Y-119538750D03*
D21*
X158543750Y-123468750D03*
X158543750Y-126768750D03*
D19*
X166568750Y-120618750D03*
X165913751Y-121348750D03*
D20*
X165258750Y-122078750D02*
X166568752Y-120618750D01*
D19*
X171588750Y-119828750D03*
D20*
X171568750Y-120118750D02*
X171608750Y-119538750D01*
D19*
X171608750Y-119538750D03*
D21*
X177593750Y-123468750D03*
X177593750Y-126768750D03*
D19*
X185618750Y-120618750D03*
X184963751Y-121348750D03*
D20*
X184308750Y-122078750D02*
X185618752Y-120618750D01*
D19*
X190638750Y-119828750D03*
D20*
X190618750Y-120118750D02*
X190658750Y-119538750D01*
D19*
X190658750Y-119538750D03*
D21*
X196643750Y-123468750D03*
X196643750Y-126768750D03*
D19*
X204668750Y-120618750D03*
X204013751Y-121348750D03*
D20*
X203358750Y-122078750D02*
X204668752Y-120618750D01*
D19*
X209688750Y-119828750D03*
D20*
X209668750Y-120118750D02*
X209708750Y-119538750D01*
D19*
X209708750Y-119538750D03*
D21*
X215693750Y-123468750D03*
X215693750Y-126768750D03*
D19*
X223718750Y-120618750D03*
X223063751Y-121348750D03*
D20*
X222408750Y-122078750D02*
X223718752Y-120618750D01*
D19*
X228738750Y-119828750D03*
D20*
X228718750Y-120118750D02*
X228758750Y-119538750D01*
D19*
X228758750Y-119538750D03*
D21*
X234743750Y-123468750D03*
X234743750Y-126768750D03*
D19*
X242768750Y-120618750D03*
X242113751Y-121348750D03*
D20*
X241458750Y-122078750D02*
X242768752Y-120618750D01*
D19*
X247788750Y-119828750D03*
D20*
X247768750Y-120118750D02*
X247808750Y-119538750D01*
D19*
X247808750Y-119538750D03*
D21*
X253793750Y-123468750D03*
X253793750Y-126768750D03*
D19*
X261818750Y-120618750D03*
X261163751Y-121348750D03*
D20*
X260508750Y-122078750D02*
X261818752Y-120618750D01*
D19*
X266838750Y-119828750D03*
D20*
X266818750Y-120118750D02*
X266858750Y-119538750D01*
D19*
X266858750Y-119538750D03*
D21*
X272843750Y-123468750D03*
X272843750Y-126768750D03*
D19*
X280868750Y-120618750D03*
X280213751Y-121348750D03*
D20*
X279558750Y-122078750D02*
X280868752Y-120618750D01*
D19*
X285888750Y-119828750D03*
D20*
X285868750Y-120118750D02*
X285908750Y-119538750D01*
D19*
X285908750Y-119538750D03*
D21*
X291893750Y-123468750D03*
X291893750Y-126768750D03*
D19*
X299918750Y-120618750D03*
X299263751Y-121348750D03*
D20*
X298608750Y-122078750D02*
X299918752Y-120618750D01*
D19*
X304938750Y-119828750D03*
D20*
X304918750Y-120118750D02*
X304958750Y-119538750D01*
D19*
X304958750Y-119538750D03*
D21*
X310943750Y-123468750D03*
X310943750Y-126768750D03*
D19*
X318968750Y-120618750D03*
X318313751Y-121348750D03*
D20*
X317658750Y-122078750D02*
X318968752Y-120618750D01*
D19*
X323988750Y-119828750D03*
D20*
X323968750Y-120118750D02*
X324008750Y-119538750D01*
D19*
X324008750Y-119538750D03*
D21*
X329993750Y-123468750D03*
X329993750Y-126768750D03*
D19*
X347543750Y-120618750D03*
X346888751Y-121348750D03*
D20*
X346233750Y-122078750D02*
X347543752Y-120618750D01*
D19*
X352563750Y-119828750D03*
D20*
X352543750Y-120118750D02*
X352583750Y-119538750D01*
D19*
X352583750Y-119538750D03*
D21*
X368093750Y-123468750D03*
X368093750Y-126768750D03*
D19*
X95131250Y-139668750D03*
X94476251Y-140398750D03*
D20*
X93821250Y-141128750D02*
X95131252Y-139668750D01*
D19*
X100151250Y-138878750D03*
D20*
X100131250Y-139168750D02*
X100171250Y-138588750D01*
D19*
X100171250Y-138588750D03*
D21*
X110918750Y-142518750D03*
X110918750Y-145818750D03*
D19*
X118943750Y-139668750D03*
X118288751Y-140398750D03*
D20*
X117633750Y-141128750D02*
X118943752Y-139668750D01*
D19*
X123963750Y-138878750D03*
D20*
X123943750Y-139168750D02*
X123983750Y-138588750D01*
D19*
X123983750Y-138588750D03*
D21*
X129968750Y-142518750D03*
X129968750Y-145818750D03*
D19*
X137993750Y-139668750D03*
X137338751Y-140398750D03*
D20*
X136683750Y-141128750D02*
X137993752Y-139668750D01*
D19*
X143013750Y-138878750D03*
D20*
X142993750Y-139168750D02*
X143033750Y-138588750D01*
D19*
X143033750Y-138588750D03*
D21*
X149018750Y-142518750D03*
X149018750Y-145818750D03*
D19*
X157043750Y-139668750D03*
X156388751Y-140398750D03*
D20*
X155733750Y-141128750D02*
X157043752Y-139668750D01*
D19*
X162063750Y-138878750D03*
D20*
X162043750Y-139168750D02*
X162083750Y-138588750D01*
D19*
X162083750Y-138588750D03*
D21*
X168068750Y-142518750D03*
X168068750Y-145818750D03*
D19*
X176093750Y-139668750D03*
X175438751Y-140398750D03*
D20*
X174783750Y-141128750D02*
X176093752Y-139668750D01*
D19*
X181113750Y-138878750D03*
D20*
X181093750Y-139168750D02*
X181133750Y-138588750D01*
D19*
X181133750Y-138588750D03*
D21*
X187118750Y-142518750D03*
X187118750Y-145818750D03*
D19*
X195143750Y-139668750D03*
X194488751Y-140398750D03*
D20*
X193833750Y-141128750D02*
X195143752Y-139668750D01*
D19*
X200163750Y-138878750D03*
D20*
X200143750Y-139168750D02*
X200183750Y-138588750D01*
D19*
X200183750Y-138588750D03*
D21*
X206168750Y-142518750D03*
X206168750Y-145818750D03*
D19*
X214193750Y-139668750D03*
X213538751Y-140398750D03*
D20*
X212883750Y-141128750D02*
X214193752Y-139668750D01*
D19*
X219213750Y-138878750D03*
D20*
X219193750Y-139168750D02*
X219233750Y-138588750D01*
D19*
X219233750Y-138588750D03*
D21*
X225218750Y-142518750D03*
X225218750Y-145818750D03*
D19*
X233243750Y-139668750D03*
X232588751Y-140398750D03*
D20*
X231933750Y-141128750D02*
X233243752Y-139668750D01*
D19*
X238263750Y-138878750D03*
D20*
X238243750Y-139168750D02*
X238283750Y-138588750D01*
D19*
X238283750Y-138588750D03*
D21*
X244268750Y-142518750D03*
X244268750Y-145818750D03*
D19*
X252293750Y-139668750D03*
X251638751Y-140398750D03*
D20*
X250983750Y-141128750D02*
X252293752Y-139668750D01*
D19*
X257313750Y-138878750D03*
D20*
X257293750Y-139168750D02*
X257333750Y-138588750D01*
D19*
X257333750Y-138588750D03*
D21*
X263318750Y-142518750D03*
X263318750Y-145818750D03*
D19*
X271343750Y-139668750D03*
X270688751Y-140398750D03*
D20*
X270033750Y-141128750D02*
X271343752Y-139668750D01*
D19*
X276363750Y-138878750D03*
D20*
X276343750Y-139168750D02*
X276383750Y-138588750D01*
D19*
X276383750Y-138588750D03*
D21*
X282368750Y-142518750D03*
X282368750Y-145818750D03*
D19*
X290393750Y-139668750D03*
X289738751Y-140398750D03*
D20*
X289083750Y-141128750D02*
X290393752Y-139668750D01*
D19*
X295413750Y-138878750D03*
D20*
X295393750Y-139168750D02*
X295433750Y-138588750D01*
D19*
X295433750Y-138588750D03*
D21*
X301418750Y-142518750D03*
X301418750Y-145818750D03*
D19*
X309443750Y-139668750D03*
X308788751Y-140398750D03*
D20*
X308133750Y-141128750D02*
X309443752Y-139668750D01*
D19*
X314463750Y-138878750D03*
D20*
X314443750Y-139168750D02*
X314483750Y-138588750D01*
D19*
X314483750Y-138588750D03*
D21*
X320468750Y-142518750D03*
X320468750Y-145818750D03*
D19*
X328493750Y-139668750D03*
X327838751Y-140398750D03*
D20*
X327183750Y-141128750D02*
X328493752Y-139668750D01*
D19*
X333513750Y-138878750D03*
D20*
X333493750Y-139168750D02*
X333533750Y-138588750D01*
D19*
X333533750Y-138588750D03*
D21*
X339518750Y-142518750D03*
X339518750Y-145818750D03*
D19*
X352306250Y-139668750D03*
X351651251Y-140398750D03*
D20*
X350996250Y-141128750D02*
X352306252Y-139668750D01*
D19*
X357326250Y-138878750D03*
D20*
X357306250Y-139168750D02*
X357346250Y-138588750D01*
D19*
X357346250Y-138588750D03*
D21*
X368093750Y-142518750D03*
X368093750Y-145818750D03*
D19*
X92750000Y-158718750D03*
X92095001Y-159448750D03*
D20*
X91440000Y-160178750D02*
X92750002Y-158718750D01*
D19*
X97770000Y-157928750D03*
D20*
X97750000Y-158218750D02*
X97790000Y-157638750D01*
D19*
X97790000Y-157638750D03*
D21*
X106156250Y-161568750D03*
X106156250Y-164868750D03*
D19*
X123706250Y-158718750D03*
X123051251Y-159448750D03*
D20*
X122396250Y-160178750D02*
X123706252Y-158718750D01*
D19*
X128726250Y-157928750D03*
D20*
X128706250Y-158218750D02*
X128746250Y-157638750D01*
D19*
X128746250Y-157638750D03*
D21*
X134731250Y-161568750D03*
X134731250Y-164868750D03*
D19*
X142756250Y-158718750D03*
X142101251Y-159448750D03*
D20*
X141446250Y-160178750D02*
X142756252Y-158718750D01*
D19*
X147776250Y-157928750D03*
D20*
X147756250Y-158218750D02*
X147796250Y-157638750D01*
D19*
X147796250Y-157638750D03*
D21*
X153781250Y-161568750D03*
X153781250Y-164868750D03*
D19*
X161806250Y-158718750D03*
X161151251Y-159448750D03*
D20*
X160496250Y-160178750D02*
X161806252Y-158718750D01*
D19*
X166826250Y-157928750D03*
D20*
X166806250Y-158218750D02*
X166846250Y-157638750D01*
D19*
X166846250Y-157638750D03*
D21*
X172831250Y-161568750D03*
X172831250Y-164868750D03*
D19*
X180856250Y-158718750D03*
X180201251Y-159448750D03*
D20*
X179546250Y-160178750D02*
X180856252Y-158718750D01*
D19*
X185876250Y-157928750D03*
D20*
X185856250Y-158218750D02*
X185896250Y-157638750D01*
D19*
X185896250Y-157638750D03*
D21*
X191881250Y-161568750D03*
X191881250Y-164868750D03*
D19*
X199906250Y-158718750D03*
X199251251Y-159448750D03*
D20*
X198596250Y-160178750D02*
X199906252Y-158718750D01*
D19*
X204926250Y-157928750D03*
D20*
X204906250Y-158218750D02*
X204946250Y-157638750D01*
D19*
X204946250Y-157638750D03*
D21*
X210931250Y-161568750D03*
X210931250Y-164868750D03*
D19*
X218956250Y-158718750D03*
X218301251Y-159448750D03*
D20*
X217646250Y-160178750D02*
X218956252Y-158718750D01*
D19*
X223976250Y-157928750D03*
D20*
X223956250Y-158218750D02*
X223996250Y-157638750D01*
D19*
X223996250Y-157638750D03*
D21*
X229981250Y-161568750D03*
X229981250Y-164868750D03*
D19*
X238006250Y-158718750D03*
X237351251Y-159448750D03*
D20*
X236696250Y-160178750D02*
X238006252Y-158718750D01*
D19*
X243026250Y-157928750D03*
D20*
X243006250Y-158218750D02*
X243046250Y-157638750D01*
D19*
X243046250Y-157638750D03*
D21*
X249031250Y-161568750D03*
X249031250Y-164868750D03*
D19*
X257056250Y-158718750D03*
X256401251Y-159448750D03*
D20*
X255746250Y-160178750D02*
X257056252Y-158718750D01*
D19*
X262076250Y-157928750D03*
D20*
X262056250Y-158218750D02*
X262096250Y-157638750D01*
D19*
X262096250Y-157638750D03*
D21*
X268081250Y-161568750D03*
X268081250Y-164868750D03*
D19*
X276106250Y-158718750D03*
X275451251Y-159448750D03*
D20*
X274796250Y-160178750D02*
X276106252Y-158718750D01*
D19*
X281126250Y-157928750D03*
D20*
X281106250Y-158218750D02*
X281146250Y-157638750D01*
D19*
X281146250Y-157638750D03*
D21*
X287131250Y-161568750D03*
X287131250Y-164868750D03*
D19*
X295156250Y-158718750D03*
X294501251Y-159448750D03*
D20*
X293846250Y-160178750D02*
X295156252Y-158718750D01*
D19*
X300176250Y-157928750D03*
D20*
X300156250Y-158218750D02*
X300196250Y-157638750D01*
D19*
X300196250Y-157638750D03*
D21*
X306181250Y-161568750D03*
X306181250Y-164868750D03*
D19*
X314206250Y-158718750D03*
X313551251Y-159448750D03*
D20*
X312896250Y-160178750D02*
X314206252Y-158718750D01*
D19*
X319226250Y-157928750D03*
D20*
X319206250Y-158218750D02*
X319246250Y-157638750D01*
D19*
X319246250Y-157638750D03*
D21*
X325231250Y-161568750D03*
X325231250Y-164868750D03*
D19*
X345162500Y-158718750D03*
X344507501Y-159448750D03*
D20*
X343852500Y-160178750D02*
X345162502Y-158718750D01*
D19*
X350182500Y-157928750D03*
D20*
X350162500Y-158218750D02*
X350202500Y-157638750D01*
D19*
X350202500Y-157638750D03*
D21*
X368093750Y-161568750D03*
X368093750Y-164868750D03*
D19*
X102275000Y-177768750D03*
X101620001Y-178498750D03*
D20*
X100965000Y-179228750D02*
X102275002Y-177768750D01*
D19*
X107295000Y-176978750D03*
D20*
X107275000Y-177268750D02*
X107315000Y-176688750D01*
D19*
X107315000Y-176688750D03*
D21*
X125206250Y-180618750D03*
X125206250Y-183918750D03*
D19*
X133231250Y-177768750D03*
X132576251Y-178498750D03*
D20*
X131921250Y-179228750D02*
X133231252Y-177768750D01*
D19*
X138251250Y-176978750D03*
D20*
X138231250Y-177268750D02*
X138271250Y-176688750D01*
D19*
X138271250Y-176688750D03*
D21*
X144256250Y-180618750D03*
X144256250Y-183918750D03*
D19*
X152281250Y-177768750D03*
X151626251Y-178498750D03*
D20*
X150971250Y-179228750D02*
X152281252Y-177768750D01*
D19*
X157301250Y-176978750D03*
D20*
X157281250Y-177268750D02*
X157321250Y-176688750D01*
D19*
X157321250Y-176688750D03*
D21*
X163306250Y-180618750D03*
X163306250Y-183918750D03*
D19*
X171331250Y-177768750D03*
X170676251Y-178498750D03*
D20*
X170021250Y-179228750D02*
X171331252Y-177768750D01*
D19*
X176351250Y-176978750D03*
D20*
X176331250Y-177268750D02*
X176371250Y-176688750D01*
D19*
X176371250Y-176688750D03*
D21*
X182356250Y-180618750D03*
X182356250Y-183918750D03*
D19*
X190381250Y-177768750D03*
X189726251Y-178498750D03*
D20*
X189071250Y-179228750D02*
X190381252Y-177768750D01*
D19*
X195401250Y-176978750D03*
D20*
X195381250Y-177268750D02*
X195421250Y-176688750D01*
D19*
X195421250Y-176688750D03*
D21*
X201406250Y-180618750D03*
X201406250Y-183918750D03*
D19*
X209431250Y-177768750D03*
X208776251Y-178498750D03*
D20*
X208121250Y-179228750D02*
X209431252Y-177768750D01*
D19*
X214451250Y-176978750D03*
D20*
X214431250Y-177268750D02*
X214471250Y-176688750D01*
D19*
X214471250Y-176688750D03*
D21*
X220456250Y-180618750D03*
X220456250Y-183918750D03*
D19*
X228481250Y-177768750D03*
X227826251Y-178498750D03*
D20*
X227171250Y-179228750D02*
X228481252Y-177768750D01*
D19*
X233501250Y-176978750D03*
D20*
X233481250Y-177268750D02*
X233521250Y-176688750D01*
D19*
X233521250Y-176688750D03*
D21*
X239506250Y-180618750D03*
X239506250Y-183918750D03*
D19*
X247531250Y-177768750D03*
X246876251Y-178498750D03*
D20*
X246221250Y-179228750D02*
X247531252Y-177768750D01*
D19*
X252551250Y-176978750D03*
D20*
X252531250Y-177268750D02*
X252571250Y-176688750D01*
D19*
X252571250Y-176688750D03*
D21*
X258556250Y-180618750D03*
X258556250Y-183918750D03*
D19*
X266581250Y-177768750D03*
X265926251Y-178498750D03*
D20*
X265271250Y-179228750D02*
X266581252Y-177768750D01*
D19*
X271601250Y-176978750D03*
D20*
X271581250Y-177268750D02*
X271621250Y-176688750D01*
D19*
X271621250Y-176688750D03*
D21*
X277606250Y-180618750D03*
X277606250Y-183918750D03*
D19*
X285631250Y-177768750D03*
X284976251Y-178498750D03*
D20*
X284321250Y-179228750D02*
X285631252Y-177768750D01*
D19*
X290651250Y-176978750D03*
D20*
X290631250Y-177268750D02*
X290671250Y-176688750D01*
D19*
X290671250Y-176688750D03*
D21*
X296656250Y-180618750D03*
X296656250Y-183918750D03*
D19*
X304681250Y-177768750D03*
X304026251Y-178498750D03*
D20*
X303371250Y-179228750D02*
X304681252Y-177768750D01*
D19*
X309701250Y-176978750D03*
D20*
X309681250Y-177268750D02*
X309721250Y-176688750D01*
D19*
X309721250Y-176688750D03*
D21*
X315706250Y-180618750D03*
X315706250Y-183918750D03*
D19*
X340400000Y-177768750D03*
X339745001Y-178498750D03*
D20*
X339090000Y-179228750D02*
X340400002Y-177768750D01*
D19*
X345420000Y-176978750D03*
D20*
X345400000Y-177268750D02*
X345440000Y-176688750D01*
D19*
X345440000Y-176688750D03*
D21*
X368093750Y-180618750D03*
X368093750Y-183918750D03*
D19*
X121325000Y-196818750D03*
X120670001Y-197548750D03*
D20*
X120015000Y-198278750D02*
X121325002Y-196818750D01*
D19*
X126345000Y-196028750D03*
D20*
X126325000Y-196318750D02*
X126365000Y-195738750D01*
D19*
X126365000Y-195738750D03*
D21*
X134731250Y-199668750D03*
X134731250Y-202968750D03*
D19*
X145137500Y-196818750D03*
X144482501Y-197548750D03*
D20*
X143827500Y-198278750D02*
X145137502Y-196818750D01*
D19*
X150157500Y-196028750D03*
D20*
X150137500Y-196318750D02*
X150177500Y-195738750D01*
D19*
X150177500Y-195738750D03*
D21*
X158543750Y-199668750D03*
X158543750Y-202968750D03*
D19*
X223718750Y-196818750D03*
X223063751Y-197548750D03*
D20*
X222408750Y-198278750D02*
X223718752Y-196818750D01*
D19*
X228738750Y-196028750D03*
D20*
X228718750Y-196318750D02*
X228758750Y-195738750D01*
D19*
X228758750Y-195738750D03*
D21*
X291893750Y-199668750D03*
X291893750Y-202968750D03*
D19*
X302300000Y-196818750D03*
X301645001Y-197548750D03*
D20*
X300990000Y-198278750D02*
X302300002Y-196818750D01*
D19*
X307320000Y-196028750D03*
D20*
X307300000Y-196318750D02*
X307340000Y-195738750D01*
D19*
X307340000Y-195738750D03*
D21*
X315706250Y-199668750D03*
X315706250Y-202968750D03*
D19*
X326112500Y-196818750D03*
X325457501Y-197548750D03*
D20*
X324802500Y-198278750D02*
X326112502Y-196818750D01*
D19*
X331132500Y-196028750D03*
D20*
X331112500Y-196318750D02*
X331152500Y-195738750D01*
D19*
X331152500Y-195738750D03*
D21*
X339518750Y-199668750D03*
X339518750Y-202968750D03*
D22*
X96964500Y-97729010D03*
X96202500Y-93281500D03*
X98742500Y-100012500D03*
X99123500Y-105854500D03*
X119189500Y-98615500D03*
X112367271Y-111083542D03*
X93662500Y-107632500D03*
X94062499Y-97872499D03*
D23*
X104762500Y-93603250D02*
X104762500Y-95900000D01*
X97631250Y-94312500D02*
X99098375Y-92845375D01*
X101219000Y-90059750D02*
X104004625Y-92845375D01*
X99098375Y-92845375D02*
X104004625Y-92845375D01*
X104004625Y-92845375D02*
X104762500Y-93603250D01*
X105184402Y-89972250D02*
X104881500Y-89972250D01*
X106884402Y-88272250D02*
X105184402Y-89972250D01*
X107081500Y-88272250D02*
X106884402Y-88272250D01*
X110656500Y-88272250D02*
X110744000Y-88184750D01*
X107081500Y-88272250D02*
X110656500Y-88272250D01*
X100662763Y-89503513D02*
X101219000Y-90059750D01*
X100128490Y-88969240D02*
X100662763Y-89503513D01*
X100128490Y-87678280D02*
X100128490Y-88969240D01*
X100525021Y-87281749D02*
X100128490Y-87678280D01*
X105990999Y-87281749D02*
X100525021Y-87281749D01*
X106981500Y-88272250D02*
X105990999Y-87281749D01*
X107081500Y-88272250D02*
X106981500Y-88272250D01*
X116300250Y-96566750D02*
X114570750Y-96566750D01*
X113537500Y-97600000D02*
X112062500Y-97600000D01*
X114570750Y-96566750D02*
X113537500Y-97600000D01*
X109520750Y-107341750D02*
X109562500Y-107300000D01*
X109520750Y-111093250D02*
X109520750Y-107341750D01*
X103162500Y-108431000D02*
X103162500Y-107300000D01*
X102634412Y-109324760D02*
X103162500Y-108796672D01*
X99771838Y-109324760D02*
X102634412Y-109324760D01*
X103162500Y-108796672D02*
X103162500Y-108431000D01*
X97747078Y-107300000D02*
X99771838Y-109324760D01*
X96837500Y-107300000D02*
X97747078Y-107300000D01*
X83418750Y-112318500D02*
X83812750Y-112712500D01*
X83418750Y-111387500D02*
X83418750Y-112318500D01*
X91425000Y-112712500D02*
X96837500Y-107300000D01*
X83812750Y-112712500D02*
X91425000Y-112712500D01*
X115887500Y-108681250D02*
X115887500Y-108093750D01*
X112384990Y-112183760D02*
X115887500Y-108681250D01*
X110611260Y-112183760D02*
X112384990Y-112183760D01*
X109520750Y-111093250D02*
X110611260Y-112183760D01*
X104762500Y-99431000D02*
X101793500Y-102400000D01*
X101793500Y-102400000D02*
X100662500Y-102400000D01*
X104762500Y-95900000D02*
X104762500Y-99431000D01*
X110931500Y-97600000D02*
X112062500Y-97600000D01*
X103162500Y-105369000D02*
X110931500Y-97600000D01*
X103162500Y-107300000D02*
X103162500Y-105369000D01*
X104762500Y-101369000D02*
X104762500Y-99431000D01*
X109562500Y-106169000D02*
X104762500Y-101369000D01*
X109562500Y-107300000D02*
X109562500Y-106169000D01*
X85712500Y-86968500D02*
X85712500Y-85462500D01*
X85712500Y-87965520D02*
X85712500Y-86968500D01*
X82550000Y-91128020D02*
X85712500Y-87965520D01*
X82550000Y-96231250D02*
X82550000Y-91128020D01*
D24*
X108762500Y-108304000D02*
X101433000Y-115633500D01*
X108762500Y-107300000D02*
X108762500Y-108304000D01*
X95354000Y-115633500D02*
X90368750Y-120618750D01*
X101433000Y-115633500D02*
X95354000Y-115633500D01*
X110543749Y-119493751D02*
X109418750Y-120618750D01*
X116914510Y-105738582D02*
X116914510Y-113122990D01*
X115975928Y-104800000D02*
X116914510Y-105738582D01*
X116914510Y-113122990D02*
X110543749Y-119493751D01*
X112062500Y-104800000D02*
X115975928Y-104800000D01*
X127158750Y-115340756D02*
X127158750Y-122078750D01*
X115817994Y-104000000D02*
X127158750Y-115340756D01*
X112062500Y-104000000D02*
X115817994Y-104000000D01*
X127330000Y-103200000D02*
X146208750Y-122078750D01*
X112062500Y-103200000D02*
X127330000Y-103200000D01*
X145580000Y-102400000D02*
X165258750Y-122078750D01*
X112062500Y-102400000D02*
X145580000Y-102400000D01*
X163830000Y-101600000D02*
X184308750Y-122078750D01*
X112062500Y-101600000D02*
X163830000Y-101600000D01*
X182080000Y-100800000D02*
X203358750Y-122078750D01*
X112062500Y-100800000D02*
X182080000Y-100800000D01*
X200330000Y-100000000D02*
X222408750Y-122078750D01*
X112062500Y-100000000D02*
X200330000Y-100000000D01*
X218925990Y-99545990D02*
X241458750Y-122078750D01*
X113412490Y-99545990D02*
X218925990Y-99545990D01*
X113066500Y-99200000D02*
X113412490Y-99545990D01*
X112062500Y-99200000D02*
X113066500Y-99200000D01*
X110362500Y-94896000D02*
X110426500Y-94832000D01*
X110362500Y-95900000D02*
X110362500Y-94896000D01*
X110426500Y-94832000D02*
X110426500Y-93789500D01*
X232219500Y-93789500D02*
X260508750Y-122078750D01*
X110426500Y-93789500D02*
X232219500Y-93789500D01*
X109562500Y-94896000D02*
X109664500Y-94794000D01*
X109562500Y-95900000D02*
X109562500Y-94896000D01*
X109664500Y-94794000D02*
X109664500Y-93789500D01*
X250815490Y-93335490D02*
X279558750Y-122078750D01*
X110118510Y-93335490D02*
X250815490Y-93335490D01*
X109664500Y-93789500D02*
X110118510Y-93335490D01*
X108762500Y-94896000D02*
X108902500Y-94756000D01*
X108762500Y-95900000D02*
X108762500Y-94896000D01*
X108902500Y-94756000D02*
X108902500Y-93789500D01*
X269411480Y-92881480D02*
X298608750Y-122078750D01*
X109810520Y-92881480D02*
X269411480Y-92881480D01*
X108902500Y-93789500D02*
X109810520Y-92881480D01*
X107962500Y-94896000D02*
X108140500Y-94718000D01*
X107962500Y-95900000D02*
X107962500Y-94896000D01*
X108140500Y-94718000D02*
X108140500Y-93789500D01*
X109502530Y-92427470D02*
X288007470Y-92427470D01*
X288007470Y-92427470D02*
X317658750Y-122078750D01*
X108140500Y-93789500D02*
X109502530Y-92427470D01*
X100662500Y-97600000D02*
X97093510Y-97600000D01*
X97093510Y-97600000D02*
X96964500Y-97729010D01*
X107162500Y-95402500D02*
X107251500Y-95313500D01*
X107162500Y-95900000D02*
X107162500Y-95402500D01*
X107251500Y-95313500D02*
X107251500Y-93789500D01*
X316128460Y-91973460D02*
X346233750Y-122078750D01*
X109067540Y-91973460D02*
X316128460Y-91973460D01*
X107251500Y-93789500D02*
X109067540Y-91973460D01*
X120293750Y-126768750D02*
X120443750Y-126768750D01*
X119589750Y-127472750D02*
X120293750Y-126768750D01*
X102951750Y-127472750D02*
X119589750Y-127472750D01*
X102247750Y-126768750D02*
X102951750Y-127472750D01*
X101393750Y-126768750D02*
X102247750Y-126768750D01*
X139343750Y-126768750D02*
X139493750Y-126768750D01*
X138639750Y-127472750D02*
X139343750Y-126768750D01*
X122001750Y-127472750D02*
X138639750Y-127472750D01*
X121297750Y-126768750D02*
X122001750Y-127472750D01*
X120443750Y-126768750D02*
X121297750Y-126768750D01*
X158393750Y-126768750D02*
X158543750Y-126768750D01*
X141051750Y-127472750D02*
X157689750Y-127472750D01*
X140347750Y-126768750D02*
X141051750Y-127472750D01*
X157689750Y-127472750D02*
X158393750Y-126768750D01*
X139493750Y-126768750D02*
X140347750Y-126768750D01*
X177443750Y-126768750D02*
X177593750Y-126768750D01*
X160101750Y-127472750D02*
X176739750Y-127472750D01*
X176739750Y-127472750D02*
X177443750Y-126768750D01*
X159397750Y-126768750D02*
X160101750Y-127472750D01*
X158543750Y-126768750D02*
X159397750Y-126768750D01*
X196493750Y-126768750D02*
X196643750Y-126768750D01*
X195789750Y-127472750D02*
X196493750Y-126768750D01*
X179151750Y-127472750D02*
X195789750Y-127472750D01*
X178447750Y-126768750D02*
X179151750Y-127472750D01*
X177593750Y-126768750D02*
X178447750Y-126768750D01*
X214839750Y-127472750D02*
X215543750Y-126768750D01*
X198201750Y-127472750D02*
X214839750Y-127472750D01*
X215543750Y-126768750D02*
X215693750Y-126768750D01*
X197497750Y-126768750D02*
X198201750Y-127472750D01*
X196643750Y-126768750D02*
X197497750Y-126768750D01*
X233889750Y-127472750D02*
X234593750Y-126768750D01*
X217251750Y-127472750D02*
X233889750Y-127472750D01*
X234593750Y-126768750D02*
X234743750Y-126768750D01*
X216547750Y-126768750D02*
X217251750Y-127472750D01*
X215693750Y-126768750D02*
X216547750Y-126768750D01*
X253643750Y-126768750D02*
X253793750Y-126768750D01*
X252939750Y-127472750D02*
X253643750Y-126768750D01*
X236301750Y-127472750D02*
X252939750Y-127472750D01*
X235597750Y-126768750D02*
X236301750Y-127472750D01*
X234743750Y-126768750D02*
X235597750Y-126768750D01*
X272693750Y-126768750D02*
X272843750Y-126768750D01*
X271989750Y-127472750D02*
X272693750Y-126768750D01*
X254647750Y-127472750D02*
X271989750Y-127472750D01*
X253943750Y-126768750D02*
X254647750Y-127472750D01*
X253793750Y-126768750D02*
X253943750Y-126768750D01*
X291039750Y-127472750D02*
X291743750Y-126768750D01*
X291743750Y-126768750D02*
X291893750Y-126768750D01*
X274401750Y-127472750D02*
X291039750Y-127472750D01*
X273697750Y-126768750D02*
X274401750Y-127472750D01*
X272843750Y-126768750D02*
X273697750Y-126768750D01*
X310793750Y-126768750D02*
X310943750Y-126768750D01*
X310089750Y-127472750D02*
X310793750Y-126768750D01*
X293451750Y-127472750D02*
X310089750Y-127472750D01*
X292747750Y-126768750D02*
X293451750Y-127472750D01*
X291893750Y-126768750D02*
X292747750Y-126768750D01*
X329843750Y-126768750D02*
X329993750Y-126768750D01*
X312501750Y-127472750D02*
X329139750Y-127472750D01*
X329139750Y-127472750D02*
X329843750Y-126768750D01*
X311797750Y-126768750D02*
X312501750Y-127472750D01*
X310943750Y-126768750D02*
X311797750Y-126768750D01*
X367943750Y-126768750D02*
X368093750Y-126768750D01*
X367239750Y-127472750D02*
X367943750Y-126768750D01*
X331551750Y-127472750D02*
X367239750Y-127472750D01*
X330847750Y-126768750D02*
X331551750Y-127472750D01*
X329993750Y-126768750D02*
X330847750Y-126768750D01*
X101243750Y-126768750D02*
X101393750Y-126768750D01*
X98631250Y-129381250D02*
X101243750Y-126768750D01*
X107962500Y-107300000D02*
X107962500Y-108304000D01*
X101102960Y-115163540D02*
X82778540Y-115163540D01*
X107962500Y-108304000D02*
X101102960Y-115163540D01*
X82778540Y-115163540D02*
X82778540Y-128816040D01*
X82778540Y-128816040D02*
X83343750Y-129381250D01*
X83343750Y-129381250D02*
X98631250Y-129381250D01*
X129114750Y-146522750D02*
X129818750Y-145818750D01*
X129818750Y-145818750D02*
X129968750Y-145818750D01*
X112476750Y-146522750D02*
X129114750Y-146522750D01*
X111772750Y-145818750D02*
X112476750Y-146522750D01*
X110918750Y-145818750D02*
X111772750Y-145818750D01*
X148868750Y-145818750D02*
X149018750Y-145818750D01*
X131526750Y-146522750D02*
X148164750Y-146522750D01*
X130822750Y-145818750D02*
X131526750Y-146522750D01*
X148164750Y-146522750D02*
X148868750Y-145818750D01*
X129968750Y-145818750D02*
X130822750Y-145818750D01*
X167214750Y-146522750D02*
X167918750Y-145818750D01*
X150576750Y-146522750D02*
X167214750Y-146522750D01*
X167918750Y-145818750D02*
X168068750Y-145818750D01*
X149872750Y-145818750D02*
X150576750Y-146522750D01*
X149018750Y-145818750D02*
X149872750Y-145818750D01*
X186968750Y-145818750D02*
X187118750Y-145818750D01*
X169626750Y-146522750D02*
X186264750Y-146522750D01*
X168922750Y-145818750D02*
X169626750Y-146522750D01*
X186264750Y-146522750D02*
X186968750Y-145818750D01*
X168068750Y-145818750D02*
X168922750Y-145818750D01*
X206018750Y-145818750D02*
X206168750Y-145818750D01*
X205314750Y-146522750D02*
X206018750Y-145818750D01*
X188676750Y-146522750D02*
X205314750Y-146522750D01*
X187972750Y-145818750D02*
X188676750Y-146522750D01*
X187118750Y-145818750D02*
X187972750Y-145818750D01*
X225068750Y-145818750D02*
X225218750Y-145818750D01*
X224364750Y-146522750D02*
X225068750Y-145818750D01*
X207726750Y-146522750D02*
X224364750Y-146522750D01*
X207022750Y-145818750D02*
X207726750Y-146522750D01*
X206168750Y-145818750D02*
X207022750Y-145818750D01*
X244118750Y-145818750D02*
X244268750Y-145818750D01*
X226776750Y-146522750D02*
X243414750Y-146522750D01*
X226072750Y-145818750D02*
X226776750Y-146522750D01*
X243414750Y-146522750D02*
X244118750Y-145818750D01*
X225218750Y-145818750D02*
X226072750Y-145818750D01*
X263168750Y-145818750D02*
X263318750Y-145818750D01*
X245826750Y-146522750D02*
X262464750Y-146522750D01*
X262464750Y-146522750D02*
X263168750Y-145818750D01*
X245122750Y-145818750D02*
X245826750Y-146522750D01*
X244268750Y-145818750D02*
X245122750Y-145818750D01*
X264876750Y-146522750D02*
X281514750Y-146522750D01*
X282218750Y-145818750D02*
X282368750Y-145818750D01*
X281514750Y-146522750D02*
X282218750Y-145818750D01*
X264172750Y-145818750D02*
X264876750Y-146522750D01*
X263318750Y-145818750D02*
X264172750Y-145818750D01*
X301268750Y-145818750D02*
X301418750Y-145818750D01*
X283926750Y-146522750D02*
X300564750Y-146522750D01*
X300564750Y-146522750D02*
X301268750Y-145818750D01*
X283222750Y-145818750D02*
X283926750Y-146522750D01*
X282368750Y-145818750D02*
X283222750Y-145818750D01*
X302976750Y-146522750D02*
X319614750Y-146522750D01*
X319614750Y-146522750D02*
X320318750Y-145818750D01*
X302272750Y-145818750D02*
X302976750Y-146522750D01*
X320318750Y-145818750D02*
X320468750Y-145818750D01*
X301418750Y-145818750D02*
X302272750Y-145818750D01*
X339368750Y-145818750D02*
X339518750Y-145818750D01*
X338664750Y-146522750D02*
X339368750Y-145818750D01*
X322026750Y-146522750D02*
X338664750Y-146522750D01*
X321322750Y-145818750D02*
X322026750Y-146522750D01*
X320468750Y-145818750D02*
X321322750Y-145818750D01*
X367943750Y-145818750D02*
X368093750Y-145818750D01*
X367239750Y-146522750D02*
X367943750Y-145818750D01*
X340372750Y-145818750D02*
X341076750Y-146522750D01*
X341076750Y-146522750D02*
X367239750Y-146522750D01*
X339518750Y-145818750D02*
X340372750Y-145818750D01*
X110768750Y-145818750D02*
X110918750Y-145818750D01*
X108156250Y-148431250D02*
X110768750Y-145818750D01*
X107162500Y-107300000D02*
X107162500Y-108304000D01*
X107162500Y-108304000D02*
X100756970Y-114709530D01*
X82324530Y-114709530D02*
X82324530Y-147412030D01*
X82324530Y-147412030D02*
X83343750Y-148431250D01*
X100756970Y-114709530D02*
X82324530Y-114709530D01*
X83343750Y-148431250D02*
X108156250Y-148431250D01*
X134581250Y-164868750D02*
X134731250Y-164868750D01*
X133877250Y-165572750D02*
X134581250Y-164868750D01*
X107714250Y-165572750D02*
X133877250Y-165572750D01*
X107010250Y-164868750D02*
X107714250Y-165572750D01*
X106156250Y-164868750D02*
X107010250Y-164868750D01*
X153631250Y-164868750D02*
X153781250Y-164868750D01*
X152927250Y-165572750D02*
X153631250Y-164868750D01*
X136289250Y-165572750D02*
X152927250Y-165572750D01*
X135585250Y-164868750D02*
X136289250Y-165572750D01*
X134731250Y-164868750D02*
X135585250Y-164868750D01*
X171977250Y-165572750D02*
X172681250Y-164868750D01*
X172681250Y-164868750D02*
X172831250Y-164868750D01*
X155339250Y-165572750D02*
X171977250Y-165572750D01*
X154635250Y-164868750D02*
X155339250Y-165572750D01*
X153781250Y-164868750D02*
X154635250Y-164868750D01*
X191027250Y-165572750D02*
X191731250Y-164868750D01*
X174389250Y-165572750D02*
X191027250Y-165572750D01*
X173685250Y-164868750D02*
X174389250Y-165572750D01*
X191731250Y-164868750D02*
X191881250Y-164868750D01*
X172831250Y-164868750D02*
X173685250Y-164868750D01*
X210781250Y-164868750D02*
X210931250Y-164868750D01*
X210077250Y-165572750D02*
X210781250Y-164868750D01*
X193439250Y-165572750D02*
X210077250Y-165572750D01*
X192735250Y-164868750D02*
X193439250Y-165572750D01*
X191881250Y-164868750D02*
X192735250Y-164868750D01*
X229127250Y-165572750D02*
X229831250Y-164868750D01*
X212489250Y-165572750D02*
X229127250Y-165572750D01*
X229831250Y-164868750D02*
X229981250Y-164868750D01*
X211785250Y-164868750D02*
X212489250Y-165572750D01*
X210931250Y-164868750D02*
X211785250Y-164868750D01*
X248881250Y-164868750D02*
X249031250Y-164868750D01*
X248177250Y-165572750D02*
X248881250Y-164868750D01*
X231539250Y-165572750D02*
X248177250Y-165572750D01*
X230835250Y-164868750D02*
X231539250Y-165572750D01*
X229981250Y-164868750D02*
X230835250Y-164868750D01*
X267931250Y-164868750D02*
X268081250Y-164868750D01*
X267227250Y-165572750D02*
X267931250Y-164868750D01*
X250589250Y-165572750D02*
X267227250Y-165572750D01*
X249885250Y-164868750D02*
X250589250Y-165572750D01*
X249031250Y-164868750D02*
X249885250Y-164868750D01*
X286981250Y-164868750D02*
X287131250Y-164868750D01*
X286277250Y-165572750D02*
X286981250Y-164868750D01*
X269639250Y-165572750D02*
X286277250Y-165572750D01*
X268935250Y-164868750D02*
X269639250Y-165572750D01*
X268081250Y-164868750D02*
X268935250Y-164868750D01*
X306031250Y-164868750D02*
X306181250Y-164868750D01*
X305327250Y-165572750D02*
X306031250Y-164868750D01*
X288689250Y-165572750D02*
X305327250Y-165572750D01*
X287985250Y-164868750D02*
X288689250Y-165572750D01*
X287131250Y-164868750D02*
X287985250Y-164868750D01*
X325081250Y-164868750D02*
X325231250Y-164868750D01*
X307739250Y-165572750D02*
X324377250Y-165572750D01*
X324377250Y-165572750D02*
X325081250Y-164868750D01*
X307035250Y-164868750D02*
X307739250Y-165572750D01*
X306181250Y-164868750D02*
X307035250Y-164868750D01*
X367239750Y-165572750D02*
X367943750Y-164868750D01*
X367943750Y-164868750D02*
X368093750Y-164868750D01*
X326789250Y-165572750D02*
X367239750Y-165572750D01*
X326085250Y-164868750D02*
X326789250Y-165572750D01*
X325231250Y-164868750D02*
X326085250Y-164868750D01*
X104247750Y-167481250D02*
X106156250Y-165572750D01*
X106362500Y-108304000D02*
X100410980Y-114255520D01*
X106156250Y-165572750D02*
X106156250Y-164868750D01*
X81870520Y-166008020D02*
X83343750Y-167481250D01*
X106362500Y-107300000D02*
X106362500Y-108304000D01*
X100410980Y-114255520D02*
X81870520Y-114255520D01*
X81870520Y-114255520D02*
X81870520Y-166008020D01*
X83343750Y-167481250D02*
X104247750Y-167481250D01*
X144106250Y-183918750D02*
X144256250Y-183918750D01*
X143402250Y-184622750D02*
X144106250Y-183918750D01*
X126764250Y-184622750D02*
X143402250Y-184622750D01*
X126060250Y-183918750D02*
X126764250Y-184622750D01*
X125206250Y-183918750D02*
X126060250Y-183918750D01*
X162452250Y-184622750D02*
X163156250Y-183918750D01*
X163156250Y-183918750D02*
X163306250Y-183918750D01*
X145110250Y-184622750D02*
X162452250Y-184622750D01*
X144406250Y-183918750D02*
X145110250Y-184622750D01*
X144256250Y-183918750D02*
X144406250Y-183918750D01*
X182206250Y-183918750D02*
X182356250Y-183918750D01*
X181502250Y-184622750D02*
X182206250Y-183918750D01*
X164160250Y-184622750D02*
X181502250Y-184622750D01*
X163456250Y-183918750D02*
X164160250Y-184622750D01*
X163306250Y-183918750D02*
X163456250Y-183918750D01*
X201256250Y-183918750D02*
X201406250Y-183918750D01*
X200552250Y-184622750D02*
X201256250Y-183918750D01*
X183210250Y-184622750D02*
X200552250Y-184622750D01*
X182506250Y-183918750D02*
X183210250Y-184622750D01*
X182356250Y-183918750D02*
X182506250Y-183918750D01*
X219602250Y-184622750D02*
X220306250Y-183918750D01*
X220306250Y-183918750D02*
X220456250Y-183918750D01*
X202260250Y-184622750D02*
X219602250Y-184622750D01*
X201556250Y-183918750D02*
X202260250Y-184622750D01*
X201406250Y-183918750D02*
X201556250Y-183918750D01*
X239356250Y-183918750D02*
X239506250Y-183918750D01*
X238652250Y-184622750D02*
X239356250Y-183918750D01*
X222014250Y-184622750D02*
X238652250Y-184622750D01*
X221310250Y-183918750D02*
X222014250Y-184622750D01*
X220456250Y-183918750D02*
X221310250Y-183918750D01*
X258406250Y-183918750D02*
X258556250Y-183918750D01*
X257702250Y-184622750D02*
X258406250Y-183918750D01*
X240360250Y-184622750D02*
X257702250Y-184622750D01*
X239656250Y-183918750D02*
X240360250Y-184622750D01*
X239506250Y-183918750D02*
X239656250Y-183918750D01*
X277456250Y-183918750D02*
X277606250Y-183918750D01*
X259410250Y-184622750D02*
X276752250Y-184622750D01*
X276752250Y-184622750D02*
X277456250Y-183918750D01*
X258706250Y-183918750D02*
X259410250Y-184622750D01*
X258556250Y-183918750D02*
X258706250Y-183918750D01*
X296506250Y-183918750D02*
X296656250Y-183918750D01*
X278460250Y-184622750D02*
X295802250Y-184622750D01*
X277756250Y-183918750D02*
X278460250Y-184622750D01*
X295802250Y-184622750D02*
X296506250Y-183918750D01*
X277606250Y-183918750D02*
X277756250Y-183918750D01*
X315556250Y-183918750D02*
X315706250Y-183918750D01*
X314852250Y-184622750D02*
X315556250Y-183918750D01*
X297510250Y-184622750D02*
X314852250Y-184622750D01*
X296806250Y-183918750D02*
X297510250Y-184622750D01*
X296656250Y-183918750D02*
X296806250Y-183918750D01*
X367943750Y-183918750D02*
X368093750Y-183918750D01*
X317264250Y-184622750D02*
X367239750Y-184622750D01*
X316560250Y-183918750D02*
X317264250Y-184622750D01*
X367239750Y-184622750D02*
X367943750Y-183918750D01*
X315706250Y-183918750D02*
X316560250Y-183918750D01*
X125056250Y-183918750D02*
X125206250Y-183918750D01*
X122443750Y-186531250D02*
X125056250Y-183918750D01*
X105562500Y-108304000D02*
X100064990Y-113801510D01*
X105562500Y-107300000D02*
X105562500Y-108304000D01*
X83343750Y-186531250D02*
X122443750Y-186531250D01*
X100064990Y-113801510D02*
X81416510Y-113801510D01*
X81416510Y-113801510D02*
X81416510Y-184604010D01*
X81416510Y-184604010D02*
X83343750Y-186531250D01*
X158393750Y-202968750D02*
X158543750Y-202968750D01*
X157689750Y-203672750D02*
X158393750Y-202968750D01*
X136289250Y-203672750D02*
X157689750Y-203672750D01*
X135585250Y-202968750D02*
X136289250Y-203672750D01*
X134731250Y-202968750D02*
X135585250Y-202968750D01*
X291743750Y-202968750D02*
X291893750Y-202968750D01*
X291039750Y-203672750D02*
X291743750Y-202968750D01*
X159397750Y-203672750D02*
X291039750Y-203672750D01*
X158693750Y-202968750D02*
X159397750Y-203672750D01*
X158543750Y-202968750D02*
X158693750Y-202968750D01*
X314852250Y-203672750D02*
X315556250Y-202968750D01*
X315556250Y-202968750D02*
X315706250Y-202968750D01*
X292747750Y-203672750D02*
X314852250Y-203672750D01*
X292043750Y-202968750D02*
X292747750Y-203672750D01*
X291893750Y-202968750D02*
X292043750Y-202968750D01*
X338664750Y-203672750D02*
X339368750Y-202968750D01*
X317264250Y-203672750D02*
X338664750Y-203672750D01*
X339368750Y-202968750D02*
X339518750Y-202968750D01*
X316560250Y-202968750D02*
X317264250Y-203672750D01*
X315706250Y-202968750D02*
X316560250Y-202968750D01*
X134581250Y-202968750D02*
X134731250Y-202968750D01*
X131968750Y-205581250D02*
X134581250Y-202968750D01*
X104762500Y-107300000D02*
X104762500Y-108304000D01*
X101751683Y-205581250D02*
X131968750Y-205581250D01*
X104762500Y-108304000D02*
X99719000Y-113347500D01*
X99719000Y-113347500D02*
X80962500Y-113347500D01*
X80962500Y-113347500D02*
X80962500Y-184792067D01*
X80962500Y-184792067D02*
X101751683Y-205581250D01*
X101393750Y-122764750D02*
X101393750Y-123468750D01*
X98747750Y-120118750D02*
X101393750Y-122764750D01*
X95368750Y-120118750D02*
X98747750Y-120118750D01*
X120443750Y-122764750D02*
X120443750Y-123468750D01*
X117797750Y-120118750D02*
X120443750Y-122764750D01*
X114418750Y-120118750D02*
X117797750Y-120118750D01*
X139493750Y-122764750D02*
X139493750Y-123468750D01*
X136847750Y-120118750D02*
X139493750Y-122764750D01*
X133468750Y-120118750D02*
X136847750Y-120118750D01*
X158543750Y-122764750D02*
X158543750Y-123468750D01*
X155897750Y-120118750D02*
X158543750Y-122764750D01*
X152518750Y-120118750D02*
X155897750Y-120118750D01*
X177593750Y-122764750D02*
X177593750Y-123468750D01*
X174947750Y-120118750D02*
X177593750Y-122764750D01*
X171568750Y-120118750D02*
X174947750Y-120118750D01*
X196643750Y-122764750D02*
X196643750Y-123468750D01*
X193997750Y-120118750D02*
X196643750Y-122764750D01*
X190618750Y-120118750D02*
X193997750Y-120118750D01*
X215693750Y-122764750D02*
X215693750Y-123468750D01*
X213047750Y-120118750D02*
X215693750Y-122764750D01*
X209668750Y-120118750D02*
X213047750Y-120118750D01*
X232097750Y-120118750D02*
X234743750Y-122764750D01*
X234743750Y-122764750D02*
X234743750Y-123468750D01*
X228718750Y-120118750D02*
X232097750Y-120118750D01*
X253793750Y-122764750D02*
X253793750Y-123468750D01*
X251147750Y-120118750D02*
X253793750Y-122764750D01*
X247768750Y-120118750D02*
X251147750Y-120118750D01*
X272843750Y-122764750D02*
X272843750Y-123468750D01*
X270197750Y-120118750D02*
X272843750Y-122764750D01*
X266818750Y-120118750D02*
X270197750Y-120118750D01*
X291893750Y-122764750D02*
X291893750Y-123468750D01*
X289247750Y-120118750D02*
X291893750Y-122764750D01*
X285868750Y-120118750D02*
X289247750Y-120118750D01*
X310943750Y-122764750D02*
X310943750Y-123468750D01*
X308297750Y-120118750D02*
X310943750Y-122764750D01*
X304918750Y-120118750D02*
X308297750Y-120118750D01*
X329993750Y-122764750D02*
X329993750Y-123468750D01*
X327347750Y-120118750D02*
X329993750Y-122764750D01*
X323968750Y-120118750D02*
X327347750Y-120118750D01*
X368093750Y-122764750D02*
X368093750Y-123468750D01*
X365447750Y-120118750D02*
X368093750Y-122764750D01*
X352543750Y-120118750D02*
X365447750Y-120118750D01*
X110918750Y-141814750D02*
X110918750Y-142518750D01*
X108272750Y-139168750D02*
X110918750Y-141814750D01*
X100131250Y-139168750D02*
X108272750Y-139168750D01*
X127322750Y-139168750D02*
X129968750Y-141814750D01*
X129968750Y-141814750D02*
X129968750Y-142518750D01*
X123943750Y-139168750D02*
X127322750Y-139168750D01*
X149018750Y-141814750D02*
X149018750Y-142518750D01*
X146372750Y-139168750D02*
X149018750Y-141814750D01*
X142993750Y-139168750D02*
X146372750Y-139168750D01*
X168068750Y-141814750D02*
X168068750Y-142518750D01*
X165422750Y-139168750D02*
X168068750Y-141814750D01*
X162043750Y-139168750D02*
X165422750Y-139168750D01*
X187118750Y-141814750D02*
X187118750Y-142518750D01*
X184472750Y-139168750D02*
X187118750Y-141814750D01*
X181093750Y-139168750D02*
X184472750Y-139168750D01*
X206168750Y-141814750D02*
X206168750Y-142518750D01*
X203522750Y-139168750D02*
X206168750Y-141814750D01*
X200143750Y-139168750D02*
X203522750Y-139168750D01*
X225218750Y-141814750D02*
X225218750Y-142518750D01*
X222572750Y-139168750D02*
X225218750Y-141814750D01*
X219193750Y-139168750D02*
X222572750Y-139168750D01*
X241622750Y-139168750D02*
X244268750Y-141814750D01*
X244268750Y-141814750D02*
X244268750Y-142518750D01*
X238243750Y-139168750D02*
X241622750Y-139168750D01*
X263318750Y-141814750D02*
X263318750Y-142518750D01*
X260672750Y-139168750D02*
X263318750Y-141814750D01*
X257293750Y-139168750D02*
X260672750Y-139168750D01*
X282368750Y-141814750D02*
X282368750Y-142518750D01*
X279722750Y-139168750D02*
X282368750Y-141814750D01*
X276343750Y-139168750D02*
X279722750Y-139168750D01*
X301418750Y-141814750D02*
X301418750Y-142518750D01*
X298772750Y-139168750D02*
X301418750Y-141814750D01*
X295393750Y-139168750D02*
X298772750Y-139168750D01*
X320468750Y-141814750D02*
X320468750Y-142518750D01*
X317822750Y-139168750D02*
X320468750Y-141814750D01*
X314443750Y-139168750D02*
X317822750Y-139168750D01*
X339518750Y-141814750D02*
X339518750Y-142518750D01*
X336872750Y-139168750D02*
X339518750Y-141814750D01*
X333493750Y-139168750D02*
X336872750Y-139168750D01*
X368093750Y-141814750D02*
X368093750Y-142518750D01*
X365447750Y-139168750D02*
X368093750Y-141814750D01*
X357306250Y-139168750D02*
X365447750Y-139168750D01*
X106156250Y-160864750D02*
X106156250Y-161568750D01*
X103510250Y-158218750D02*
X106156250Y-160864750D01*
X97750000Y-158218750D02*
X103510250Y-158218750D01*
X134731250Y-160864750D02*
X134731250Y-161568750D01*
X132085250Y-158218750D02*
X134731250Y-160864750D01*
X128706250Y-158218750D02*
X132085250Y-158218750D01*
X153781250Y-160864750D02*
X153781250Y-161568750D01*
X151135250Y-158218750D02*
X153781250Y-160864750D01*
X147756250Y-158218750D02*
X151135250Y-158218750D01*
X170185250Y-158218750D02*
X172831250Y-160864750D01*
X172831250Y-160864750D02*
X172831250Y-161568750D01*
X166806250Y-158218750D02*
X170185250Y-158218750D01*
X191881250Y-160864750D02*
X191881250Y-161568750D01*
X189235250Y-158218750D02*
X191881250Y-160864750D01*
X185856250Y-158218750D02*
X189235250Y-158218750D01*
X210931250Y-160864750D02*
X210931250Y-161568750D01*
X208285250Y-158218750D02*
X210931250Y-160864750D01*
X204906250Y-158218750D02*
X208285250Y-158218750D01*
X227335250Y-158218750D02*
X229981250Y-160864750D01*
X229981250Y-160864750D02*
X229981250Y-161568750D01*
X223956250Y-158218750D02*
X227335250Y-158218750D01*
X246385250Y-158218750D02*
X249031250Y-160864750D01*
X249031250Y-160864750D02*
X249031250Y-161568750D01*
X243006250Y-158218750D02*
X246385250Y-158218750D01*
X268081250Y-160864750D02*
X268081250Y-161568750D01*
X265435250Y-158218750D02*
X268081250Y-160864750D01*
X262056250Y-158218750D02*
X265435250Y-158218750D01*
X287131250Y-160864750D02*
X287131250Y-161568750D01*
X284485250Y-158218750D02*
X287131250Y-160864750D01*
X281106250Y-158218750D02*
X284485250Y-158218750D01*
X303535250Y-158218750D02*
X306181250Y-160864750D01*
X306181250Y-160864750D02*
X306181250Y-161568750D01*
X300156250Y-158218750D02*
X303535250Y-158218750D01*
X325231250Y-160864750D02*
X325231250Y-161568750D01*
X322585250Y-158218750D02*
X325231250Y-160864750D01*
X319206250Y-158218750D02*
X322585250Y-158218750D01*
X368093750Y-160864750D02*
X368093750Y-161568750D01*
X365447750Y-158218750D02*
X368093750Y-160864750D01*
X350162500Y-158218750D02*
X365447750Y-158218750D01*
X125206250Y-179914750D02*
X125206250Y-180618750D01*
X122560250Y-177268750D02*
X125206250Y-179914750D01*
X107275000Y-177268750D02*
X122560250Y-177268750D01*
X144256250Y-179914750D02*
X144256250Y-180618750D01*
X141610250Y-177268750D02*
X144256250Y-179914750D01*
X138231250Y-177268750D02*
X141610250Y-177268750D01*
X163306250Y-179914750D02*
X163306250Y-180618750D01*
X160660250Y-177268750D02*
X163306250Y-179914750D01*
X157281250Y-177268750D02*
X160660250Y-177268750D01*
X182356250Y-179914750D02*
X182356250Y-180618750D01*
X179710250Y-177268750D02*
X182356250Y-179914750D01*
X176331250Y-177268750D02*
X179710250Y-177268750D01*
X198760250Y-177268750D02*
X201406250Y-179914750D01*
X201406250Y-179914750D02*
X201406250Y-180618750D01*
X195381250Y-177268750D02*
X198760250Y-177268750D01*
X217810250Y-177268750D02*
X220456250Y-179914750D01*
X220456250Y-179914750D02*
X220456250Y-180618750D01*
X214431250Y-177268750D02*
X217810250Y-177268750D01*
X239506250Y-179914750D02*
X239506250Y-180618750D01*
X236860250Y-177268750D02*
X239506250Y-179914750D01*
X233481250Y-177268750D02*
X236860250Y-177268750D01*
X255910250Y-177268750D02*
X258556250Y-179914750D01*
X258556250Y-179914750D02*
X258556250Y-180618750D01*
X252531250Y-177268750D02*
X255910250Y-177268750D01*
X277606250Y-179914750D02*
X277606250Y-180618750D01*
X274960250Y-177268750D02*
X277606250Y-179914750D01*
X271581250Y-177268750D02*
X274960250Y-177268750D01*
X296656250Y-179914750D02*
X296656250Y-180618750D01*
X294010250Y-177268750D02*
X296656250Y-179914750D01*
X290631250Y-177268750D02*
X294010250Y-177268750D01*
X315706250Y-179914750D02*
X315706250Y-180618750D01*
X313060250Y-177268750D02*
X315706250Y-179914750D01*
X309681250Y-177268750D02*
X313060250Y-177268750D01*
X368093750Y-179914750D02*
X368093750Y-180618750D01*
X365447750Y-177268750D02*
X368093750Y-179914750D01*
X345400000Y-177268750D02*
X365447750Y-177268750D01*
X134731250Y-198964750D02*
X134731250Y-199668750D01*
X132085250Y-196318750D02*
X134731250Y-198964750D01*
X126325000Y-196318750D02*
X132085250Y-196318750D01*
X158543750Y-198964750D02*
X158543750Y-199668750D01*
X155897750Y-196318750D02*
X158543750Y-198964750D01*
X150137500Y-196318750D02*
X155897750Y-196318750D01*
X291893750Y-198964750D02*
X291893750Y-199668750D01*
X289247750Y-196318750D02*
X291893750Y-198964750D01*
X228718750Y-196318750D02*
X289247750Y-196318750D01*
X313060250Y-196318750D02*
X315706250Y-198964750D01*
X315706250Y-198964750D02*
X315706250Y-199668750D01*
X307300000Y-196318750D02*
X313060250Y-196318750D01*
X339518750Y-198964750D02*
X339518750Y-199668750D01*
X336872750Y-196318750D02*
X339518750Y-198964750D01*
X331112500Y-196318750D02*
X336872750Y-196318750D01*
D23*
X97631250Y-96187500D02*
X100156250Y-93662500D01*
X100156250Y-93662500D02*
X103981250Y-93662500D01*
X103962500Y-93681250D02*
X103962500Y-95900000D01*
X103981250Y-93662500D02*
X103962500Y-93681250D01*
X94456250Y-94312500D02*
X95756250Y-94312500D01*
X112104250Y-98441750D02*
X112062500Y-98400000D01*
X116300250Y-98441750D02*
X112104250Y-98441750D01*
X111395750Y-111093250D02*
X111395750Y-109808250D01*
X110362500Y-108775000D02*
X110362500Y-107300000D01*
X111395750Y-109808250D02*
X110362500Y-108775000D01*
X96837500Y-105425000D02*
X97775000Y-105425000D01*
X98400000Y-104800000D02*
X100662500Y-104800000D01*
X97775000Y-105425000D02*
X98400000Y-104800000D01*
X98400000Y-104800000D02*
X98400000Y-107131250D01*
X98400000Y-107131250D02*
X100012500Y-108743750D01*
X100012500Y-108743750D02*
X102393750Y-108743750D01*
X102362500Y-108712500D02*
X102362500Y-107300000D01*
X102393750Y-108743750D02*
X102362500Y-108712500D01*
X88943750Y-105425000D02*
X96837500Y-105425000D01*
X82550000Y-99031250D02*
X88943750Y-105425000D01*
X96162375Y-93321625D02*
X96202500Y-93281500D01*
X96162375Y-94718625D02*
X96162375Y-93321625D01*
X96162375Y-94718625D02*
X97631250Y-96187500D01*
X95756250Y-94312500D02*
X96162375Y-94718625D01*
X99530000Y-100800000D02*
X100662500Y-100800000D01*
X98742500Y-100012500D02*
X99530000Y-100800000D01*
X99531500Y-104800000D02*
X100662500Y-104800000D01*
X99123500Y-105208000D02*
X99531500Y-104800000D01*
X99123500Y-105854500D02*
X99123500Y-105208000D01*
X116474000Y-98615500D02*
X116300250Y-98441750D01*
X119189500Y-98615500D02*
X116474000Y-98615500D01*
X111395750Y-111093250D02*
X112357563Y-111093250D01*
X112357563Y-111093250D02*
X112367271Y-111083542D01*
D24*
X107169000Y-90059750D02*
X107081500Y-89972250D01*
X110744000Y-90059750D02*
X107169000Y-90059750D01*
X106362500Y-91545250D02*
X106362500Y-94896000D01*
X107081500Y-90826250D02*
X106362500Y-91545250D01*
X106362500Y-94896000D02*
X106362500Y-95900000D01*
X107081500Y-89972250D02*
X107081500Y-90826250D01*
X104794000Y-88184750D02*
X104881500Y-88272250D01*
X101219000Y-88184750D02*
X104794000Y-88184750D01*
X105568750Y-93677632D02*
X105568750Y-95893750D01*
X103854499Y-91963381D02*
X105568750Y-93677632D01*
X103854499Y-89110649D02*
X103854499Y-91963381D01*
X104881500Y-88272250D02*
X104692898Y-88272250D01*
X105568750Y-95893750D02*
X105562500Y-95900000D01*
X104692898Y-88272250D02*
X103854499Y-89110649D01*
X86512500Y-88762500D02*
X86512500Y-85462500D01*
X85725000Y-89550000D02*
X86512500Y-88762500D01*
X85725000Y-91425000D02*
X85725000Y-92075000D01*
X85725000Y-92075000D02*
X86518750Y-92868750D01*
X86518750Y-92868750D02*
X86518750Y-96837500D01*
X93681250Y-104000000D02*
X100662500Y-104000000D01*
X86518750Y-96837500D02*
X93681250Y-104000000D01*
X87312500Y-88756250D02*
X87312500Y-85462500D01*
X88106250Y-89550000D02*
X87312500Y-88756250D01*
X88106250Y-91425000D02*
X88106250Y-92075000D01*
X88106250Y-92075000D02*
X87312500Y-92868750D01*
X87312500Y-92868750D02*
X87312500Y-96837500D01*
X93675000Y-103200000D02*
X100662500Y-103200000D01*
X87312500Y-96837500D02*
X93675000Y-103200000D01*
X98323918Y-97002010D02*
X100806250Y-94519678D01*
X96938582Y-97002010D02*
X98323918Y-97002010D01*
X94456250Y-96187500D02*
X96124072Y-96187500D01*
X96124072Y-96187500D02*
X96938582Y-97002010D01*
X103162500Y-94896000D02*
X103162500Y-95900000D01*
X102786178Y-94519678D02*
X103162500Y-94896000D01*
X100806250Y-94519678D02*
X102786178Y-94519678D01*
X89618750Y-107687500D02*
X93607500Y-107687500D01*
X93607500Y-107687500D02*
X93662500Y-107632500D01*
X94456250Y-97478748D02*
X94062499Y-97872499D01*
X94456250Y-96187500D02*
X94456250Y-97478748D01*
X112568750Y-105568750D02*
X112537500Y-105600000D01*
X115887500Y-106218750D02*
X114950000Y-106218750D01*
X112537500Y-105600000D02*
X112062500Y-105600000D01*
X114300000Y-105568750D02*
X112568750Y-105568750D01*
X114950000Y-106218750D02*
X114300000Y-105568750D01*
G36*
X112585500Y-91211460D02*
G01*
X109104962Y-91211460D01*
X109067539Y-91207774D01*
X109030116Y-91211460D01*
X109030114Y-91211460D01*
X108918162Y-91222486D01*
X108774525Y-91266058D01*
X108642148Y-91336815D01*
X108526118Y-91432038D01*
X108502261Y-91461108D01*
X108015369Y-91948000D01*
X107124500Y-91948000D01*
X107124500Y-91860880D01*
X107593846Y-91391534D01*
X107622922Y-91367672D01*
X107683357Y-91294031D01*
X107718145Y-91251643D01*
X107740231Y-91210322D01*
X107781500Y-91210322D01*
X107905982Y-91198062D01*
X108025680Y-91161752D01*
X108135994Y-91102787D01*
X108232685Y-91023435D01*
X108312037Y-90926744D01*
X108368158Y-90821750D01*
X109577797Y-90821750D01*
X109664208Y-90927042D01*
X109797836Y-91036708D01*
X109950291Y-91118197D01*
X110115715Y-91168378D01*
X110287750Y-91185322D01*
X111200250Y-91185322D01*
X111372285Y-91168378D01*
X111537709Y-91118197D01*
X111690164Y-91036708D01*
X111823792Y-90927042D01*
X111933458Y-90793414D01*
X112014947Y-90640959D01*
X112065128Y-90475535D01*
X112082072Y-90303500D01*
X112082072Y-89816000D01*
X112065128Y-89643965D01*
X112014947Y-89478541D01*
X111933458Y-89326086D01*
X111823792Y-89192458D01*
X111817436Y-89187242D01*
X111895185Y-89123435D01*
X111974537Y-89026744D01*
X112033502Y-88916430D01*
X112069812Y-88796732D01*
X112082072Y-88672250D01*
X112079000Y-88470500D01*
X111920250Y-88311750D01*
X110871000Y-88311750D01*
X110871000Y-88331750D01*
X110617000Y-88331750D01*
X110617000Y-88311750D01*
X109567750Y-88311750D01*
X109409000Y-88470500D01*
X109405928Y-88672250D01*
X109418188Y-88796732D01*
X109454498Y-88916430D01*
X109513463Y-89026744D01*
X109592815Y-89123435D01*
X109670564Y-89187242D01*
X109664208Y-89192458D01*
X109577797Y-89297750D01*
X108412235Y-89297750D01*
X108407312Y-89247768D01*
X108371002Y-89128070D01*
X108367891Y-89122250D01*
X108371002Y-89116430D01*
X108407312Y-88996732D01*
X108419572Y-88872250D01*
X108416500Y-88558000D01*
X108257750Y-88399250D01*
X107208500Y-88399250D01*
X107208500Y-88419250D01*
X106954500Y-88419250D01*
X106954500Y-88399250D01*
X106934500Y-88399250D01*
X106934500Y-88145250D01*
X106954500Y-88145250D01*
X106954500Y-87196000D01*
X107208500Y-87196000D01*
X107208500Y-88145250D01*
X108257750Y-88145250D01*
X108416500Y-87986500D01*
X108419327Y-87697250D01*
X109405928Y-87697250D01*
X109409000Y-87899000D01*
X109567750Y-88057750D01*
X110617000Y-88057750D01*
X110617000Y-87221000D01*
X110871000Y-87221000D01*
X110871000Y-88057750D01*
X111920250Y-88057750D01*
X112079000Y-87899000D01*
X112082072Y-87697250D01*
X112069812Y-87572768D01*
X112033502Y-87453070D01*
X111974537Y-87342756D01*
X111895185Y-87246065D01*
X111798494Y-87166713D01*
X111688180Y-87107748D01*
X111568482Y-87071438D01*
X111444000Y-87059178D01*
X111029750Y-87062250D01*
X110871000Y-87221000D01*
X110617000Y-87221000D01*
X110458250Y-87062250D01*
X110044000Y-87059178D01*
X109919518Y-87071438D01*
X109799820Y-87107748D01*
X109689506Y-87166713D01*
X109592815Y-87246065D01*
X109513463Y-87342756D01*
X109454498Y-87453070D01*
X109418188Y-87572768D01*
X109405928Y-87697250D01*
X108419327Y-87697250D01*
X108419572Y-87672250D01*
X108407312Y-87547768D01*
X108371002Y-87428070D01*
X108312037Y-87317756D01*
X108232685Y-87221065D01*
X108135994Y-87141713D01*
X108025680Y-87082748D01*
X107905982Y-87046438D01*
X107781500Y-87034178D01*
X107367250Y-87037250D01*
X107208500Y-87196000D01*
X106954500Y-87196000D01*
X106795750Y-87037250D01*
X106381500Y-87034178D01*
X106257018Y-87046438D01*
X106137320Y-87082748D01*
X106027006Y-87141713D01*
X105981500Y-87179059D01*
X105935994Y-87141713D01*
X105825680Y-87082748D01*
X105705982Y-87046438D01*
X105581500Y-87034178D01*
X104181500Y-87034178D01*
X104057018Y-87046438D01*
X103937320Y-87082748D01*
X103827006Y-87141713D01*
X103730315Y-87221065D01*
X103650963Y-87317756D01*
X103594842Y-87422750D01*
X102385203Y-87422750D01*
X102298792Y-87317458D01*
X102165164Y-87207792D01*
X102012709Y-87126303D01*
X101847285Y-87076122D01*
X101675250Y-87059178D01*
X100762750Y-87059178D01*
X100590715Y-87076122D01*
X100425291Y-87126303D01*
X100272836Y-87207792D01*
X100139208Y-87317458D01*
X100029542Y-87451086D01*
X99948053Y-87603541D01*
X99897872Y-87768965D01*
X99880928Y-87941000D01*
X99880928Y-88428500D01*
X99897872Y-88600535D01*
X99948053Y-88765959D01*
X100029542Y-88918414D01*
X100139208Y-89052042D01*
X100145564Y-89057258D01*
X100067815Y-89121065D01*
X99988463Y-89217756D01*
X99929498Y-89328070D01*
X99893188Y-89447768D01*
X99880928Y-89572250D01*
X99884000Y-89774000D01*
X100042750Y-89932750D01*
X101092000Y-89932750D01*
X101092000Y-89912750D01*
X101346000Y-89912750D01*
X101346000Y-89932750D01*
X102395250Y-89932750D01*
X102554000Y-89774000D01*
X102557072Y-89572250D01*
X102544812Y-89447768D01*
X102508502Y-89328070D01*
X102449537Y-89217756D01*
X102370185Y-89121065D01*
X102292436Y-89057258D01*
X102298792Y-89052042D01*
X102385203Y-88946750D01*
X103107930Y-88946750D01*
X103103525Y-88961272D01*
X103092499Y-89073223D01*
X103088813Y-89110649D01*
X103092499Y-89148072D01*
X103092500Y-91925948D01*
X103090328Y-91948000D01*
X99345750Y-91948000D01*
X99345750Y-90547250D01*
X99880928Y-90547250D01*
X99893188Y-90671732D01*
X99929498Y-90791430D01*
X99988463Y-90901744D01*
X100067815Y-90998435D01*
X100164506Y-91077787D01*
X100274820Y-91136752D01*
X100394518Y-91173062D01*
X100519000Y-91185322D01*
X100933250Y-91182250D01*
X101092000Y-91023500D01*
X101092000Y-90186750D01*
X101346000Y-90186750D01*
X101346000Y-91023500D01*
X101504750Y-91182250D01*
X101919000Y-91185322D01*
X102043482Y-91173062D01*
X102163180Y-91136752D01*
X102273494Y-91077787D01*
X102370185Y-90998435D01*
X102449537Y-90901744D01*
X102508502Y-90791430D01*
X102544812Y-90671732D01*
X102557072Y-90547250D01*
X102554000Y-90345500D01*
X102395250Y-90186750D01*
X101346000Y-90186750D01*
X101092000Y-90186750D01*
X100042750Y-90186750D01*
X99884000Y-90345500D01*
X99880928Y-90547250D01*
X99345750Y-90547250D01*
X99345750Y-86645750D01*
X112585500Y-86645750D01*
X112585500Y-91211460D01*
X112585500Y-91211460D01*
G37*
X112585500Y-91211460D02*
X109104962Y-91211460D01*
X109067539Y-91207774D01*
X109030116Y-91211460D01*
X109030114Y-91211460D01*
X108918162Y-91222486D01*
X108774525Y-91266058D01*
X108642148Y-91336815D01*
X108526118Y-91432038D01*
X108502261Y-91461108D01*
X108015369Y-91948000D01*
X107124500Y-91948000D01*
X107124500Y-91860880D01*
X107593846Y-91391534D01*
X107622922Y-91367672D01*
X107683357Y-91294031D01*
X107718145Y-91251643D01*
X107740231Y-91210322D01*
X107781500Y-91210322D01*
X107905982Y-91198062D01*
X108025680Y-91161752D01*
X108135994Y-91102787D01*
X108232685Y-91023435D01*
X108312037Y-90926744D01*
X108368158Y-90821750D01*
X109577797Y-90821750D01*
X109664208Y-90927042D01*
X109797836Y-91036708D01*
X109950291Y-91118197D01*
X110115715Y-91168378D01*
X110287750Y-91185322D01*
X111200250Y-91185322D01*
X111372285Y-91168378D01*
X111537709Y-91118197D01*
X111690164Y-91036708D01*
X111823792Y-90927042D01*
X111933458Y-90793414D01*
X112014947Y-90640959D01*
X112065128Y-90475535D01*
X112082072Y-90303500D01*
X112082072Y-89816000D01*
X112065128Y-89643965D01*
X112014947Y-89478541D01*
X111933458Y-89326086D01*
X111823792Y-89192458D01*
X111817436Y-89187242D01*
X111895185Y-89123435D01*
X111974537Y-89026744D01*
X112033502Y-88916430D01*
X112069812Y-88796732D01*
X112082072Y-88672250D01*
X112079000Y-88470500D01*
X111920250Y-88311750D01*
X110871000Y-88311750D01*
X110871000Y-88331750D01*
X110617000Y-88331750D01*
X110617000Y-88311750D01*
X109567750Y-88311750D01*
X109409000Y-88470500D01*
X109405928Y-88672250D01*
X109418188Y-88796732D01*
X109454498Y-88916430D01*
X109513463Y-89026744D01*
X109592815Y-89123435D01*
X109670564Y-89187242D01*
X109664208Y-89192458D01*
X109577797Y-89297750D01*
X108412235Y-89297750D01*
X108407312Y-89247768D01*
X108371002Y-89128070D01*
X108367891Y-89122250D01*
X108371002Y-89116430D01*
X108407312Y-88996732D01*
X108419572Y-88872250D01*
X108416500Y-88558000D01*
X108257750Y-88399250D01*
X107208500Y-88399250D01*
X107208500Y-88419250D01*
X106954500Y-88419250D01*
X106954500Y-88399250D01*
X106934500Y-88399250D01*
X106934500Y-88145250D01*
X106954500Y-88145250D01*
X106954500Y-87196000D01*
X107208500Y-87196000D01*
X107208500Y-88145250D01*
X108257750Y-88145250D01*
X108416500Y-87986500D01*
X108419327Y-87697250D01*
X109405928Y-87697250D01*
X109409000Y-87899000D01*
X109567750Y-88057750D01*
X110617000Y-88057750D01*
X110617000Y-87221000D01*
X110871000Y-87221000D01*
X110871000Y-88057750D01*
X111920250Y-88057750D01*
X112079000Y-87899000D01*
X112082072Y-87697250D01*
X112069812Y-87572768D01*
X112033502Y-87453070D01*
X111974537Y-87342756D01*
X111895185Y-87246065D01*
X111798494Y-87166713D01*
X111688180Y-87107748D01*
X111568482Y-87071438D01*
X111444000Y-87059178D01*
X111029750Y-87062250D01*
X110871000Y-87221000D01*
X110617000Y-87221000D01*
X110458250Y-87062250D01*
X110044000Y-87059178D01*
X109919518Y-87071438D01*
X109799820Y-87107748D01*
X109689506Y-87166713D01*
X109592815Y-87246065D01*
X109513463Y-87342756D01*
X109454498Y-87453070D01*
X109418188Y-87572768D01*
X109405928Y-87697250D01*
X108419327Y-87697250D01*
X108419572Y-87672250D01*
X108407312Y-87547768D01*
X108371002Y-87428070D01*
X108312037Y-87317756D01*
X108232685Y-87221065D01*
X108135994Y-87141713D01*
X108025680Y-87082748D01*
X107905982Y-87046438D01*
X107781500Y-87034178D01*
X107367250Y-87037250D01*
X107208500Y-87196000D01*
X106954500Y-87196000D01*
X106795750Y-87037250D01*
X106381500Y-87034178D01*
X106257018Y-87046438D01*
X106137320Y-87082748D01*
X106027006Y-87141713D01*
X105981500Y-87179059D01*
X105935994Y-87141713D01*
X105825680Y-87082748D01*
X105705982Y-87046438D01*
X105581500Y-87034178D01*
X104181500Y-87034178D01*
X104057018Y-87046438D01*
X103937320Y-87082748D01*
X103827006Y-87141713D01*
X103730315Y-87221065D01*
X103650963Y-87317756D01*
X103594842Y-87422750D01*
X102385203Y-87422750D01*
X102298792Y-87317458D01*
X102165164Y-87207792D01*
X102012709Y-87126303D01*
X101847285Y-87076122D01*
X101675250Y-87059178D01*
X100762750Y-87059178D01*
X100590715Y-87076122D01*
X100425291Y-87126303D01*
X100272836Y-87207792D01*
X100139208Y-87317458D01*
X100029542Y-87451086D01*
X99948053Y-87603541D01*
X99897872Y-87768965D01*
X99880928Y-87941000D01*
X99880928Y-88428500D01*
X99897872Y-88600535D01*
X99948053Y-88765959D01*
X100029542Y-88918414D01*
X100139208Y-89052042D01*
X100145564Y-89057258D01*
X100067815Y-89121065D01*
X99988463Y-89217756D01*
X99929498Y-89328070D01*
X99893188Y-89447768D01*
X99880928Y-89572250D01*
X99884000Y-89774000D01*
X100042750Y-89932750D01*
X101092000Y-89932750D01*
X101092000Y-89912750D01*
X101346000Y-89912750D01*
X101346000Y-89932750D01*
X102395250Y-89932750D01*
X102554000Y-89774000D01*
X102557072Y-89572250D01*
X102544812Y-89447768D01*
X102508502Y-89328070D01*
X102449537Y-89217756D01*
X102370185Y-89121065D01*
X102292436Y-89057258D01*
X102298792Y-89052042D01*
X102385203Y-88946750D01*
X103107930Y-88946750D01*
X103103525Y-88961272D01*
X103092499Y-89073223D01*
X103088813Y-89110649D01*
X103092499Y-89148072D01*
X103092500Y-91925948D01*
X103090328Y-91948000D01*
X99345750Y-91948000D01*
X99345750Y-90547250D01*
X99880928Y-90547250D01*
X99893188Y-90671732D01*
X99929498Y-90791430D01*
X99988463Y-90901744D01*
X100067815Y-90998435D01*
X100164506Y-91077787D01*
X100274820Y-91136752D01*
X100394518Y-91173062D01*
X100519000Y-91185322D01*
X100933250Y-91182250D01*
X101092000Y-91023500D01*
X101092000Y-90186750D01*
X101346000Y-90186750D01*
X101346000Y-91023500D01*
X101504750Y-91182250D01*
X101919000Y-91185322D01*
X102043482Y-91173062D01*
X102163180Y-91136752D01*
X102273494Y-91077787D01*
X102370185Y-90998435D01*
X102449537Y-90901744D01*
X102508502Y-90791430D01*
X102544812Y-90671732D01*
X102557072Y-90547250D01*
X102554000Y-90345500D01*
X102395250Y-90186750D01*
X101346000Y-90186750D01*
X101092000Y-90186750D01*
X100042750Y-90186750D01*
X99884000Y-90345500D01*
X99880928Y-90547250D01*
X99345750Y-90547250D01*
X99345750Y-86645750D01*
X112585500Y-86645750D01*
X112585500Y-91211460D01*
G36*
X105008500Y-89845250D02*
G01*
X105028500Y-89845250D01*
X105028500Y-90099250D01*
X105008500Y-90099250D01*
X105008500Y-91048500D01*
X105167250Y-91207250D01*
X105581500Y-91210322D01*
X105682836Y-91200342D01*
X105655098Y-91252236D01*
X105611526Y-91395873D01*
X105600500Y-91507824D01*
X105596814Y-91545250D01*
X105600500Y-91582673D01*
X105600500Y-91948000D01*
X104916748Y-91948000D01*
X104616499Y-91647751D01*
X104616499Y-91186501D01*
X104754500Y-91048500D01*
X104754500Y-90099250D01*
X104734500Y-90099250D01*
X104734500Y-89845250D01*
X104754500Y-89845250D01*
X104754500Y-89825250D01*
X105008500Y-89825250D01*
X105008500Y-89845250D01*
X105008500Y-89845250D01*
G37*
X105008500Y-89845250D02*
X105028500Y-89845250D01*
X105028500Y-90099250D01*
X105008500Y-90099250D01*
X105008500Y-91048500D01*
X105167250Y-91207250D01*
X105581500Y-91210322D01*
X105682836Y-91200342D01*
X105655098Y-91252236D01*
X105611526Y-91395873D01*
X105600500Y-91507824D01*
X105596814Y-91545250D01*
X105600500Y-91582673D01*
X105600500Y-91948000D01*
X104916748Y-91948000D01*
X104616499Y-91647751D01*
X104616499Y-91186501D01*
X104754500Y-91048500D01*
X104754500Y-90099250D01*
X104734500Y-90099250D01*
X104734500Y-89845250D01*
X104754500Y-89845250D01*
X104754500Y-89825250D01*
X105008500Y-89825250D01*
X105008500Y-89845250D01*
G36*
X104836315Y-97101185D02*
G01*
X104933006Y-97180537D01*
X104956167Y-97192917D01*
X105048250Y-97285000D01*
X105161837Y-97275454D01*
X105163018Y-97275812D01*
X105287500Y-97288072D01*
X105837500Y-97288072D01*
X105961982Y-97275812D01*
X105962500Y-97275655D01*
X105963018Y-97275812D01*
X106087500Y-97288072D01*
X106637500Y-97288072D01*
X106761982Y-97275812D01*
X106762500Y-97275655D01*
X106763018Y-97275812D01*
X106887500Y-97288072D01*
X107437500Y-97288072D01*
X107561982Y-97275812D01*
X107562500Y-97275655D01*
X107563018Y-97275812D01*
X107687500Y-97288072D01*
X108237500Y-97288072D01*
X108361982Y-97275812D01*
X108362500Y-97275655D01*
X108363018Y-97275812D01*
X108487500Y-97288072D01*
X109037500Y-97288072D01*
X109161982Y-97275812D01*
X109162500Y-97275655D01*
X109163018Y-97275812D01*
X109287500Y-97288072D01*
X109837500Y-97288072D01*
X109961982Y-97275812D01*
X109962500Y-97275655D01*
X109963018Y-97275812D01*
X110087500Y-97288072D01*
X110637500Y-97288072D01*
X110680052Y-97283881D01*
X110677500Y-97314250D01*
X110836250Y-97473000D01*
X110998000Y-97473000D01*
X110998000Y-97573085D01*
X110958006Y-97594463D01*
X110861315Y-97673815D01*
X110781963Y-97770506D01*
X110769583Y-97793667D01*
X110677500Y-97885750D01*
X110687046Y-97999337D01*
X110686688Y-98000518D01*
X110674428Y-98125000D01*
X110674428Y-98675000D01*
X110686688Y-98799482D01*
X110686845Y-98800000D01*
X110686688Y-98800518D01*
X110674428Y-98925000D01*
X110674428Y-99475000D01*
X110686688Y-99599482D01*
X110686845Y-99600000D01*
X110686688Y-99600518D01*
X110674428Y-99725000D01*
X110674428Y-100275000D01*
X110686688Y-100399482D01*
X110686845Y-100400000D01*
X110686688Y-100400518D01*
X110674428Y-100525000D01*
X110674428Y-101075000D01*
X110686688Y-101199482D01*
X110686845Y-101200000D01*
X110686688Y-101200518D01*
X110674428Y-101325000D01*
X110674428Y-101875000D01*
X110686688Y-101999482D01*
X110686845Y-102000000D01*
X110686688Y-102000518D01*
X110674428Y-102125000D01*
X110674428Y-102675000D01*
X110686688Y-102799482D01*
X110686845Y-102800000D01*
X110686688Y-102800518D01*
X110674428Y-102925000D01*
X110674428Y-103475000D01*
X110686688Y-103599482D01*
X110686845Y-103600000D01*
X110686688Y-103600518D01*
X110674428Y-103725000D01*
X110674428Y-104275000D01*
X110686688Y-104399482D01*
X110686845Y-104400000D01*
X110686688Y-104400518D01*
X110674428Y-104525000D01*
X110674428Y-105075000D01*
X110686688Y-105199482D01*
X110686845Y-105200000D01*
X110686688Y-105200518D01*
X110674428Y-105325000D01*
X110674428Y-105875000D01*
X110678462Y-105915962D01*
X110637500Y-105911928D01*
X110087500Y-105911928D01*
X109963018Y-105924188D01*
X109961837Y-105924546D01*
X109848250Y-105915000D01*
X109756167Y-106007083D01*
X109733006Y-106019463D01*
X109636315Y-106098815D01*
X109562500Y-106188759D01*
X109488685Y-106098815D01*
X109391994Y-106019463D01*
X109368833Y-106007083D01*
X109276750Y-105915000D01*
X109163163Y-105924546D01*
X109161982Y-105924188D01*
X109037500Y-105911928D01*
X108487500Y-105911928D01*
X108363018Y-105924188D01*
X108362500Y-105924345D01*
X108361982Y-105924188D01*
X108237500Y-105911928D01*
X107687500Y-105911928D01*
X107563018Y-105924188D01*
X107562500Y-105924345D01*
X107561982Y-105924188D01*
X107437500Y-105911928D01*
X106887500Y-105911928D01*
X106763018Y-105924188D01*
X106762500Y-105924345D01*
X106761982Y-105924188D01*
X106637500Y-105911928D01*
X106087500Y-105911928D01*
X105963018Y-105924188D01*
X105962500Y-105924345D01*
X105961982Y-105924188D01*
X105837500Y-105911928D01*
X105287500Y-105911928D01*
X105163018Y-105924188D01*
X105162500Y-105924345D01*
X105161982Y-105924188D01*
X105037500Y-105911928D01*
X104487500Y-105911928D01*
X104363018Y-105924188D01*
X104362500Y-105924345D01*
X104361982Y-105924188D01*
X104237500Y-105911928D01*
X103687500Y-105911928D01*
X103563018Y-105924188D01*
X103561837Y-105924546D01*
X103448250Y-105915000D01*
X103356167Y-106007083D01*
X103333006Y-106019463D01*
X103236315Y-106098815D01*
X103162500Y-106188759D01*
X103088685Y-106098815D01*
X102991994Y-106019463D01*
X102968833Y-106007083D01*
X102876750Y-105915000D01*
X102763163Y-105924546D01*
X102761982Y-105924188D01*
X102637500Y-105911928D01*
X102087500Y-105911928D01*
X102046538Y-105915962D01*
X102050572Y-105875000D01*
X102050572Y-105325000D01*
X102038312Y-105200518D01*
X102038155Y-105200000D01*
X102038312Y-105199482D01*
X102050572Y-105075000D01*
X102050572Y-104525000D01*
X102038312Y-104400518D01*
X102038155Y-104400000D01*
X102038312Y-104399482D01*
X102050572Y-104275000D01*
X102050572Y-103725000D01*
X102038312Y-103600518D01*
X102038155Y-103600000D01*
X102038312Y-103599482D01*
X102050572Y-103475000D01*
X102050572Y-102925000D01*
X102038312Y-102800518D01*
X102037954Y-102799337D01*
X102047500Y-102685750D01*
X101955417Y-102593667D01*
X101943037Y-102570506D01*
X101863685Y-102473815D01*
X101773741Y-102400000D01*
X101863685Y-102326185D01*
X101943037Y-102229494D01*
X101955417Y-102206333D01*
X102047500Y-102114250D01*
X102037954Y-102000663D01*
X102038312Y-101999482D01*
X102050572Y-101875000D01*
X102050572Y-101325000D01*
X102038312Y-101200518D01*
X102038155Y-101200000D01*
X102038312Y-101199482D01*
X102050572Y-101075000D01*
X102050572Y-100525000D01*
X102038312Y-100400518D01*
X102038155Y-100400000D01*
X102038312Y-100399482D01*
X102050572Y-100275000D01*
X102050572Y-99725000D01*
X102038312Y-99600518D01*
X102038155Y-99600000D01*
X102038312Y-99599482D01*
X102050572Y-99475000D01*
X102050572Y-98925000D01*
X102038312Y-98800518D01*
X102038155Y-98800000D01*
X102038312Y-98799482D01*
X102050572Y-98675000D01*
X102050572Y-98125000D01*
X102038312Y-98000518D01*
X102038155Y-98000000D01*
X102038312Y-97999482D01*
X102050572Y-97875000D01*
X102050572Y-97325000D01*
X102046538Y-97284038D01*
X102087500Y-97288072D01*
X102637500Y-97288072D01*
X102761982Y-97275812D01*
X102762500Y-97275655D01*
X102763018Y-97275812D01*
X102887500Y-97288072D01*
X103437500Y-97288072D01*
X103561982Y-97275812D01*
X103562500Y-97275655D01*
X103563018Y-97275812D01*
X103687500Y-97288072D01*
X104237500Y-97288072D01*
X104361982Y-97275812D01*
X104363163Y-97275454D01*
X104476750Y-97285000D01*
X104568833Y-97192917D01*
X104591994Y-97180537D01*
X104688685Y-97101185D01*
X104762500Y-97011241D01*
X104836315Y-97101185D01*
X104836315Y-97101185D01*
G37*
X104836315Y-97101185D02*
X104933006Y-97180537D01*
X104956167Y-97192917D01*
X105048250Y-97285000D01*
X105161837Y-97275454D01*
X105163018Y-97275812D01*
X105287500Y-97288072D01*
X105837500Y-97288072D01*
X105961982Y-97275812D01*
X105962500Y-97275655D01*
X105963018Y-97275812D01*
X106087500Y-97288072D01*
X106637500Y-97288072D01*
X106761982Y-97275812D01*
X106762500Y-97275655D01*
X106763018Y-97275812D01*
X106887500Y-97288072D01*
X107437500Y-97288072D01*
X107561982Y-97275812D01*
X107562500Y-97275655D01*
X107563018Y-97275812D01*
X107687500Y-97288072D01*
X108237500Y-97288072D01*
X108361982Y-97275812D01*
X108362500Y-97275655D01*
X108363018Y-97275812D01*
X108487500Y-97288072D01*
X109037500Y-97288072D01*
X109161982Y-97275812D01*
X109162500Y-97275655D01*
X109163018Y-97275812D01*
X109287500Y-97288072D01*
X109837500Y-97288072D01*
X109961982Y-97275812D01*
X109962500Y-97275655D01*
X109963018Y-97275812D01*
X110087500Y-97288072D01*
X110637500Y-97288072D01*
X110680052Y-97283881D01*
X110677500Y-97314250D01*
X110836250Y-97473000D01*
X110998000Y-97473000D01*
X110998000Y-97573085D01*
X110958006Y-97594463D01*
X110861315Y-97673815D01*
X110781963Y-97770506D01*
X110769583Y-97793667D01*
X110677500Y-97885750D01*
X110687046Y-97999337D01*
X110686688Y-98000518D01*
X110674428Y-98125000D01*
X110674428Y-98675000D01*
X110686688Y-98799482D01*
X110686845Y-98800000D01*
X110686688Y-98800518D01*
X110674428Y-98925000D01*
X110674428Y-99475000D01*
X110686688Y-99599482D01*
X110686845Y-99600000D01*
X110686688Y-99600518D01*
X110674428Y-99725000D01*
X110674428Y-100275000D01*
X110686688Y-100399482D01*
X110686845Y-100400000D01*
X110686688Y-100400518D01*
X110674428Y-100525000D01*
X110674428Y-101075000D01*
X110686688Y-101199482D01*
X110686845Y-101200000D01*
X110686688Y-101200518D01*
X110674428Y-101325000D01*
X110674428Y-101875000D01*
X110686688Y-101999482D01*
X110686845Y-102000000D01*
X110686688Y-102000518D01*
X110674428Y-102125000D01*
X110674428Y-102675000D01*
X110686688Y-102799482D01*
X110686845Y-102800000D01*
X110686688Y-102800518D01*
X110674428Y-102925000D01*
X110674428Y-103475000D01*
X110686688Y-103599482D01*
X110686845Y-103600000D01*
X110686688Y-103600518D01*
X110674428Y-103725000D01*
X110674428Y-104275000D01*
X110686688Y-104399482D01*
X110686845Y-104400000D01*
X110686688Y-104400518D01*
X110674428Y-104525000D01*
X110674428Y-105075000D01*
X110686688Y-105199482D01*
X110686845Y-105200000D01*
X110686688Y-105200518D01*
X110674428Y-105325000D01*
X110674428Y-105875000D01*
X110678462Y-105915962D01*
X110637500Y-105911928D01*
X110087500Y-105911928D01*
X109963018Y-105924188D01*
X109961837Y-105924546D01*
X109848250Y-105915000D01*
X109756167Y-106007083D01*
X109733006Y-106019463D01*
X109636315Y-106098815D01*
X109562500Y-106188759D01*
X109488685Y-106098815D01*
X109391994Y-106019463D01*
X109368833Y-106007083D01*
X109276750Y-105915000D01*
X109163163Y-105924546D01*
X109161982Y-105924188D01*
X109037500Y-105911928D01*
X108487500Y-105911928D01*
X108363018Y-105924188D01*
X108362500Y-105924345D01*
X108361982Y-105924188D01*
X108237500Y-105911928D01*
X107687500Y-105911928D01*
X107563018Y-105924188D01*
X107562500Y-105924345D01*
X107561982Y-105924188D01*
X107437500Y-105911928D01*
X106887500Y-105911928D01*
X106763018Y-105924188D01*
X106762500Y-105924345D01*
X106761982Y-105924188D01*
X106637500Y-105911928D01*
X106087500Y-105911928D01*
X105963018Y-105924188D01*
X105962500Y-105924345D01*
X105961982Y-105924188D01*
X105837500Y-105911928D01*
X105287500Y-105911928D01*
X105163018Y-105924188D01*
X105162500Y-105924345D01*
X105161982Y-105924188D01*
X105037500Y-105911928D01*
X104487500Y-105911928D01*
X104363018Y-105924188D01*
X104362500Y-105924345D01*
X104361982Y-105924188D01*
X104237500Y-105911928D01*
X103687500Y-105911928D01*
X103563018Y-105924188D01*
X103561837Y-105924546D01*
X103448250Y-105915000D01*
X103356167Y-106007083D01*
X103333006Y-106019463D01*
X103236315Y-106098815D01*
X103162500Y-106188759D01*
X103088685Y-106098815D01*
X102991994Y-106019463D01*
X102968833Y-106007083D01*
X102876750Y-105915000D01*
X102763163Y-105924546D01*
X102761982Y-105924188D01*
X102637500Y-105911928D01*
X102087500Y-105911928D01*
X102046538Y-105915962D01*
X102050572Y-105875000D01*
X102050572Y-105325000D01*
X102038312Y-105200518D01*
X102038155Y-105200000D01*
X102038312Y-105199482D01*
X102050572Y-105075000D01*
X102050572Y-104525000D01*
X102038312Y-104400518D01*
X102038155Y-104400000D01*
X102038312Y-104399482D01*
X102050572Y-104275000D01*
X102050572Y-103725000D01*
X102038312Y-103600518D01*
X102038155Y-103600000D01*
X102038312Y-103599482D01*
X102050572Y-103475000D01*
X102050572Y-102925000D01*
X102038312Y-102800518D01*
X102037954Y-102799337D01*
X102047500Y-102685750D01*
X101955417Y-102593667D01*
X101943037Y-102570506D01*
X101863685Y-102473815D01*
X101773741Y-102400000D01*
X101863685Y-102326185D01*
X101943037Y-102229494D01*
X101955417Y-102206333D01*
X102047500Y-102114250D01*
X102037954Y-102000663D01*
X102038312Y-101999482D01*
X102050572Y-101875000D01*
X102050572Y-101325000D01*
X102038312Y-101200518D01*
X102038155Y-101200000D01*
X102038312Y-101199482D01*
X102050572Y-101075000D01*
X102050572Y-100525000D01*
X102038312Y-100400518D01*
X102038155Y-100400000D01*
X102038312Y-100399482D01*
X102050572Y-100275000D01*
X102050572Y-99725000D01*
X102038312Y-99600518D01*
X102038155Y-99600000D01*
X102038312Y-99599482D01*
X102050572Y-99475000D01*
X102050572Y-98925000D01*
X102038312Y-98800518D01*
X102038155Y-98800000D01*
X102038312Y-98799482D01*
X102050572Y-98675000D01*
X102050572Y-98125000D01*
X102038312Y-98000518D01*
X102038155Y-98000000D01*
X102038312Y-97999482D01*
X102050572Y-97875000D01*
X102050572Y-97325000D01*
X102046538Y-97284038D01*
X102087500Y-97288072D01*
X102637500Y-97288072D01*
X102761982Y-97275812D01*
X102762500Y-97275655D01*
X102763018Y-97275812D01*
X102887500Y-97288072D01*
X103437500Y-97288072D01*
X103561982Y-97275812D01*
X103562500Y-97275655D01*
X103563018Y-97275812D01*
X103687500Y-97288072D01*
X104237500Y-97288072D01*
X104361982Y-97275812D01*
X104363163Y-97275454D01*
X104476750Y-97285000D01*
X104568833Y-97192917D01*
X104591994Y-97180537D01*
X104688685Y-97101185D01*
X104762500Y-97011241D01*
X104836315Y-97101185D01*
G36*
X89477500Y-81535449D02*
G01*
X89498987Y-81753610D01*
X89583901Y-82033533D01*
X89721794Y-82291513D01*
X89907366Y-82517634D01*
X90133486Y-82703206D01*
X90391466Y-82841099D01*
X90671389Y-82926013D01*
X90962500Y-82954685D01*
X91154250Y-82935799D01*
X91154250Y-83489201D01*
X90962500Y-83470315D01*
X90671390Y-83498987D01*
X90391467Y-83583901D01*
X90133487Y-83721794D01*
X89907367Y-83907366D01*
X89752623Y-84095921D01*
X89696906Y-83988866D01*
X89618623Y-83891307D01*
X89522811Y-83810896D01*
X89413152Y-83750721D01*
X89293861Y-83713096D01*
X89194250Y-83702500D01*
X89035500Y-83861250D01*
X89035500Y-85335500D01*
X89059500Y-85335500D01*
X89059500Y-85589500D01*
X89035500Y-85589500D01*
X89035500Y-85609500D01*
X89000572Y-85609500D01*
X89000572Y-84337500D01*
X88988312Y-84213018D01*
X88952002Y-84093320D01*
X88893037Y-83983006D01*
X88813685Y-83886315D01*
X88789500Y-83866467D01*
X88789500Y-83861250D01*
X88630750Y-83702500D01*
X88531139Y-83713096D01*
X88511766Y-83719206D01*
X88486982Y-83711688D01*
X88362500Y-83699428D01*
X87862500Y-83699428D01*
X87738018Y-83711688D01*
X87712500Y-83719429D01*
X87686982Y-83711688D01*
X87562500Y-83699428D01*
X87062500Y-83699428D01*
X86938018Y-83711688D01*
X86912500Y-83719429D01*
X86886982Y-83711688D01*
X86762500Y-83699428D01*
X86262500Y-83699428D01*
X86138018Y-83711688D01*
X86112500Y-83719429D01*
X86086982Y-83711688D01*
X85962500Y-83699428D01*
X85462500Y-83699428D01*
X85338018Y-83711688D01*
X85218320Y-83747998D01*
X85108006Y-83806963D01*
X85011315Y-83886315D01*
X84931963Y-83983006D01*
X84872998Y-84093320D01*
X84872254Y-84095771D01*
X84717634Y-83907366D01*
X84491514Y-83721794D01*
X84233534Y-83583901D01*
X83953611Y-83498987D01*
X83662500Y-83470315D01*
X83470750Y-83489201D01*
X83470750Y-82935799D01*
X83662500Y-82954685D01*
X83953610Y-82926013D01*
X84233533Y-82841099D01*
X84491513Y-82703206D01*
X84717634Y-82517634D01*
X84903206Y-82291514D01*
X85041099Y-82033534D01*
X85126013Y-81753611D01*
X85147500Y-81535450D01*
X85147500Y-81089500D01*
X89477500Y-81089500D01*
X89477500Y-81535449D01*
X89477500Y-81535449D01*
G37*
X89477500Y-81535449D02*
X89498987Y-81753610D01*
X89583901Y-82033533D01*
X89721794Y-82291513D01*
X89907366Y-82517634D01*
X90133486Y-82703206D01*
X90391466Y-82841099D01*
X90671389Y-82926013D01*
X90962500Y-82954685D01*
X91154250Y-82935799D01*
X91154250Y-83489201D01*
X90962500Y-83470315D01*
X90671390Y-83498987D01*
X90391467Y-83583901D01*
X90133487Y-83721794D01*
X89907367Y-83907366D01*
X89752623Y-84095921D01*
X89696906Y-83988866D01*
X89618623Y-83891307D01*
X89522811Y-83810896D01*
X89413152Y-83750721D01*
X89293861Y-83713096D01*
X89194250Y-83702500D01*
X89035500Y-83861250D01*
X89035500Y-85335500D01*
X89059500Y-85335500D01*
X89059500Y-85589500D01*
X89035500Y-85589500D01*
X89035500Y-85609500D01*
X89000572Y-85609500D01*
X89000572Y-84337500D01*
X88988312Y-84213018D01*
X88952002Y-84093320D01*
X88893037Y-83983006D01*
X88813685Y-83886315D01*
X88789500Y-83866467D01*
X88789500Y-83861250D01*
X88630750Y-83702500D01*
X88531139Y-83713096D01*
X88511766Y-83719206D01*
X88486982Y-83711688D01*
X88362500Y-83699428D01*
X87862500Y-83699428D01*
X87738018Y-83711688D01*
X87712500Y-83719429D01*
X87686982Y-83711688D01*
X87562500Y-83699428D01*
X87062500Y-83699428D01*
X86938018Y-83711688D01*
X86912500Y-83719429D01*
X86886982Y-83711688D01*
X86762500Y-83699428D01*
X86262500Y-83699428D01*
X86138018Y-83711688D01*
X86112500Y-83719429D01*
X86086982Y-83711688D01*
X85962500Y-83699428D01*
X85462500Y-83699428D01*
X85338018Y-83711688D01*
X85218320Y-83747998D01*
X85108006Y-83806963D01*
X85011315Y-83886315D01*
X84931963Y-83983006D01*
X84872998Y-84093320D01*
X84872254Y-84095771D01*
X84717634Y-83907366D01*
X84491514Y-83721794D01*
X84233534Y-83583901D01*
X83953611Y-83498987D01*
X83662500Y-83470315D01*
X83470750Y-83489201D01*
X83470750Y-82935799D01*
X83662500Y-82954685D01*
X83953610Y-82926013D01*
X84233533Y-82841099D01*
X84491513Y-82703206D01*
X84717634Y-82517634D01*
X84903206Y-82291514D01*
X85041099Y-82033534D01*
X85126013Y-81753611D01*
X85147500Y-81535450D01*
X85147500Y-81089500D01*
X89477500Y-81089500D01*
X89477500Y-81535449D01*
M02*
