G04 #@! TF.GenerationSoftware,KiCad,Pcbnew,(5.1.4)-1*
G04 #@! TF.CreationDate,2021-08-06T17:52:11-05:00*
G04 #@! TF.ProjectId,keyboard,6b657962-6f61-4726-942e-6b696361645f,rev?*
G04 #@! TF.SameCoordinates,Original*
G04 #@! TF.FileFunction,Copper,L1,Top*
G04 #@! TF.FilePolarity,Positive*
%FSLAX46Y46*%
G04 Gerber Fmt 4.6, Leading zero omitted, Abs format (unit mm)*
G04 Created by KiCad (PCBNEW (5.1.4)-1) date 2021-08-06 17:52:11*
%MOMM*%
%LPD*%
G04 APERTURE LIST*
%ADD10O,1.700000X2.700000*%
%ADD11C,2.250000*%
%ADD12C,2.250000*%
%ADD13C,0.800000*%
%ADD14C,0.254000*%
%ADD15C,0.381000*%
G04 APERTURE END LIST*
D10*
X83662500Y-80962500D03*
X90962500Y-80962500D03*
X90962500Y-85462500D03*
X83662500Y-85462500D03*
D11*
X90368750Y-120618750D03*
X89713751Y-121348750D03*
D12*
X89058750Y-122078750D02*
X90368752Y-120618750D01*
D11*
X95388750Y-119828750D03*
D12*
X95368750Y-120118750D02*
X95408750Y-119538750D01*
D11*
X95408750Y-119538750D03*
X109418750Y-120618750D03*
X108763751Y-121348750D03*
D12*
X108108750Y-122078750D02*
X109418752Y-120618750D01*
D11*
X114438750Y-119828750D03*
D12*
X114418750Y-120118750D02*
X114458750Y-119538750D01*
D11*
X114458750Y-119538750D03*
X128468750Y-120618750D03*
X127813751Y-121348750D03*
D12*
X127158750Y-122078750D02*
X128468752Y-120618750D01*
D11*
X133488750Y-119828750D03*
D12*
X133468750Y-120118750D02*
X133508750Y-119538750D01*
D11*
X133508750Y-119538750D03*
X147518750Y-120618750D03*
X146863751Y-121348750D03*
D12*
X146208750Y-122078750D02*
X147518752Y-120618750D01*
D11*
X152538750Y-119828750D03*
D12*
X152518750Y-120118750D02*
X152558750Y-119538750D01*
D11*
X152558750Y-119538750D03*
X166568750Y-120618750D03*
X165913751Y-121348750D03*
D12*
X165258750Y-122078750D02*
X166568752Y-120618750D01*
D11*
X171588750Y-119828750D03*
D12*
X171568750Y-120118750D02*
X171608750Y-119538750D01*
D11*
X171608750Y-119538750D03*
X185618750Y-120618750D03*
X184963751Y-121348750D03*
D12*
X184308750Y-122078750D02*
X185618752Y-120618750D01*
D11*
X190638750Y-119828750D03*
D12*
X190618750Y-120118750D02*
X190658750Y-119538750D01*
D11*
X190658750Y-119538750D03*
X204668750Y-120618750D03*
X204013751Y-121348750D03*
D12*
X203358750Y-122078750D02*
X204668752Y-120618750D01*
D11*
X209688750Y-119828750D03*
D12*
X209668750Y-120118750D02*
X209708750Y-119538750D01*
D11*
X209708750Y-119538750D03*
X223718750Y-120618750D03*
X223063751Y-121348750D03*
D12*
X222408750Y-122078750D02*
X223718752Y-120618750D01*
D11*
X228738750Y-119828750D03*
D12*
X228718750Y-120118750D02*
X228758750Y-119538750D01*
D11*
X228758750Y-119538750D03*
X242768750Y-120618750D03*
X242113751Y-121348750D03*
D12*
X241458750Y-122078750D02*
X242768752Y-120618750D01*
D11*
X247788750Y-119828750D03*
D12*
X247768750Y-120118750D02*
X247808750Y-119538750D01*
D11*
X247808750Y-119538750D03*
X261818750Y-120618750D03*
X261163751Y-121348750D03*
D12*
X260508750Y-122078750D02*
X261818752Y-120618750D01*
D11*
X266838750Y-119828750D03*
D12*
X266818750Y-120118750D02*
X266858750Y-119538750D01*
D11*
X266858750Y-119538750D03*
X280868750Y-120618750D03*
X280213751Y-121348750D03*
D12*
X279558750Y-122078750D02*
X280868752Y-120618750D01*
D11*
X285888750Y-119828750D03*
D12*
X285868750Y-120118750D02*
X285908750Y-119538750D01*
D11*
X285908750Y-119538750D03*
X299918750Y-120618750D03*
X299263751Y-121348750D03*
D12*
X298608750Y-122078750D02*
X299918752Y-120618750D01*
D11*
X304938750Y-119828750D03*
D12*
X304918750Y-120118750D02*
X304958750Y-119538750D01*
D11*
X304958750Y-119538750D03*
X318968750Y-120618750D03*
X318313751Y-121348750D03*
D12*
X317658750Y-122078750D02*
X318968752Y-120618750D01*
D11*
X323988750Y-119828750D03*
D12*
X323968750Y-120118750D02*
X324008750Y-119538750D01*
D11*
X324008750Y-119538750D03*
X347543750Y-120618750D03*
X346888751Y-121348750D03*
D12*
X346233750Y-122078750D02*
X347543752Y-120618750D01*
D11*
X352563750Y-119828750D03*
D12*
X352543750Y-120118750D02*
X352583750Y-119538750D01*
D11*
X352583750Y-119538750D03*
X95131250Y-139668750D03*
X94476251Y-140398750D03*
D12*
X93821250Y-141128750D02*
X95131252Y-139668750D01*
D11*
X100151250Y-138878750D03*
D12*
X100131250Y-139168750D02*
X100171250Y-138588750D01*
D11*
X100171250Y-138588750D03*
X118943750Y-139668750D03*
X118288751Y-140398750D03*
D12*
X117633750Y-141128750D02*
X118943752Y-139668750D01*
D11*
X123963750Y-138878750D03*
D12*
X123943750Y-139168750D02*
X123983750Y-138588750D01*
D11*
X123983750Y-138588750D03*
X137993750Y-139668750D03*
X137338751Y-140398750D03*
D12*
X136683750Y-141128750D02*
X137993752Y-139668750D01*
D11*
X143013750Y-138878750D03*
D12*
X142993750Y-139168750D02*
X143033750Y-138588750D01*
D11*
X143033750Y-138588750D03*
X157043750Y-139668750D03*
X156388751Y-140398750D03*
D12*
X155733750Y-141128750D02*
X157043752Y-139668750D01*
D11*
X162063750Y-138878750D03*
D12*
X162043750Y-139168750D02*
X162083750Y-138588750D01*
D11*
X162083750Y-138588750D03*
X176093750Y-139668750D03*
X175438751Y-140398750D03*
D12*
X174783750Y-141128750D02*
X176093752Y-139668750D01*
D11*
X181113750Y-138878750D03*
D12*
X181093750Y-139168750D02*
X181133750Y-138588750D01*
D11*
X181133750Y-138588750D03*
X195143750Y-139668750D03*
X194488751Y-140398750D03*
D12*
X193833750Y-141128750D02*
X195143752Y-139668750D01*
D11*
X200163750Y-138878750D03*
D12*
X200143750Y-139168750D02*
X200183750Y-138588750D01*
D11*
X200183750Y-138588750D03*
X214193750Y-139668750D03*
X213538751Y-140398750D03*
D12*
X212883750Y-141128750D02*
X214193752Y-139668750D01*
D11*
X219213750Y-138878750D03*
D12*
X219193750Y-139168750D02*
X219233750Y-138588750D01*
D11*
X219233750Y-138588750D03*
X233243750Y-139668750D03*
X232588751Y-140398750D03*
D12*
X231933750Y-141128750D02*
X233243752Y-139668750D01*
D11*
X238263750Y-138878750D03*
D12*
X238243750Y-139168750D02*
X238283750Y-138588750D01*
D11*
X238283750Y-138588750D03*
X252293750Y-139668750D03*
X251638751Y-140398750D03*
D12*
X250983750Y-141128750D02*
X252293752Y-139668750D01*
D11*
X257313750Y-138878750D03*
D12*
X257293750Y-139168750D02*
X257333750Y-138588750D01*
D11*
X257333750Y-138588750D03*
X271343750Y-139668750D03*
X270688751Y-140398750D03*
D12*
X270033750Y-141128750D02*
X271343752Y-139668750D01*
D11*
X276363750Y-138878750D03*
D12*
X276343750Y-139168750D02*
X276383750Y-138588750D01*
D11*
X276383750Y-138588750D03*
X290393750Y-139668750D03*
X289738751Y-140398750D03*
D12*
X289083750Y-141128750D02*
X290393752Y-139668750D01*
D11*
X295413750Y-138878750D03*
D12*
X295393750Y-139168750D02*
X295433750Y-138588750D01*
D11*
X295433750Y-138588750D03*
X309443750Y-139668750D03*
X308788751Y-140398750D03*
D12*
X308133750Y-141128750D02*
X309443752Y-139668750D01*
D11*
X314463750Y-138878750D03*
D12*
X314443750Y-139168750D02*
X314483750Y-138588750D01*
D11*
X314483750Y-138588750D03*
X328493750Y-139668750D03*
X327838751Y-140398750D03*
D12*
X327183750Y-141128750D02*
X328493752Y-139668750D01*
D11*
X333513750Y-138878750D03*
D12*
X333493750Y-139168750D02*
X333533750Y-138588750D01*
D11*
X333533750Y-138588750D03*
X352306250Y-139668750D03*
X351651251Y-140398750D03*
D12*
X350996250Y-141128750D02*
X352306252Y-139668750D01*
D11*
X357326250Y-138878750D03*
D12*
X357306250Y-139168750D02*
X357346250Y-138588750D01*
D11*
X357346250Y-138588750D03*
X92750000Y-158718750D03*
X92095001Y-159448750D03*
D12*
X91440000Y-160178750D02*
X92750002Y-158718750D01*
D11*
X97770000Y-157928750D03*
D12*
X97750000Y-158218750D02*
X97790000Y-157638750D01*
D11*
X97790000Y-157638750D03*
X123706250Y-158718750D03*
X123051251Y-159448750D03*
D12*
X122396250Y-160178750D02*
X123706252Y-158718750D01*
D11*
X128726250Y-157928750D03*
D12*
X128706250Y-158218750D02*
X128746250Y-157638750D01*
D11*
X128746250Y-157638750D03*
X142756250Y-158718750D03*
X142101251Y-159448750D03*
D12*
X141446250Y-160178750D02*
X142756252Y-158718750D01*
D11*
X147776250Y-157928750D03*
D12*
X147756250Y-158218750D02*
X147796250Y-157638750D01*
D11*
X147796250Y-157638750D03*
X161806250Y-158718750D03*
X161151251Y-159448750D03*
D12*
X160496250Y-160178750D02*
X161806252Y-158718750D01*
D11*
X166826250Y-157928750D03*
D12*
X166806250Y-158218750D02*
X166846250Y-157638750D01*
D11*
X166846250Y-157638750D03*
X180856250Y-158718750D03*
X180201251Y-159448750D03*
D12*
X179546250Y-160178750D02*
X180856252Y-158718750D01*
D11*
X185876250Y-157928750D03*
D12*
X185856250Y-158218750D02*
X185896250Y-157638750D01*
D11*
X185896250Y-157638750D03*
X199906250Y-158718750D03*
X199251251Y-159448750D03*
D12*
X198596250Y-160178750D02*
X199906252Y-158718750D01*
D11*
X204926250Y-157928750D03*
D12*
X204906250Y-158218750D02*
X204946250Y-157638750D01*
D11*
X204946250Y-157638750D03*
X218956250Y-158718750D03*
X218301251Y-159448750D03*
D12*
X217646250Y-160178750D02*
X218956252Y-158718750D01*
D11*
X223976250Y-157928750D03*
D12*
X223956250Y-158218750D02*
X223996250Y-157638750D01*
D11*
X223996250Y-157638750D03*
X238006250Y-158718750D03*
X237351251Y-159448750D03*
D12*
X236696250Y-160178750D02*
X238006252Y-158718750D01*
D11*
X243026250Y-157928750D03*
D12*
X243006250Y-158218750D02*
X243046250Y-157638750D01*
D11*
X243046250Y-157638750D03*
X257056250Y-158718750D03*
X256401251Y-159448750D03*
D12*
X255746250Y-160178750D02*
X257056252Y-158718750D01*
D11*
X262076250Y-157928750D03*
D12*
X262056250Y-158218750D02*
X262096250Y-157638750D01*
D11*
X262096250Y-157638750D03*
X276106250Y-158718750D03*
X275451251Y-159448750D03*
D12*
X274796250Y-160178750D02*
X276106252Y-158718750D01*
D11*
X281126250Y-157928750D03*
D12*
X281106250Y-158218750D02*
X281146250Y-157638750D01*
D11*
X281146250Y-157638750D03*
X295156250Y-158718750D03*
X294501251Y-159448750D03*
D12*
X293846250Y-160178750D02*
X295156252Y-158718750D01*
D11*
X300176250Y-157928750D03*
D12*
X300156250Y-158218750D02*
X300196250Y-157638750D01*
D11*
X300196250Y-157638750D03*
X314206250Y-158718750D03*
X313551251Y-159448750D03*
D12*
X312896250Y-160178750D02*
X314206252Y-158718750D01*
D11*
X319226250Y-157928750D03*
D12*
X319206250Y-158218750D02*
X319246250Y-157638750D01*
D11*
X319246250Y-157638750D03*
X345162500Y-158718750D03*
X344507501Y-159448750D03*
D12*
X343852500Y-160178750D02*
X345162502Y-158718750D01*
D11*
X350182500Y-157928750D03*
D12*
X350162500Y-158218750D02*
X350202500Y-157638750D01*
D11*
X350202500Y-157638750D03*
X102275000Y-177768750D03*
X101620001Y-178498750D03*
D12*
X100965000Y-179228750D02*
X102275002Y-177768750D01*
D11*
X107295000Y-176978750D03*
D12*
X107275000Y-177268750D02*
X107315000Y-176688750D01*
D11*
X107315000Y-176688750D03*
X133231250Y-177768750D03*
X132576251Y-178498750D03*
D12*
X131921250Y-179228750D02*
X133231252Y-177768750D01*
D11*
X138251250Y-176978750D03*
D12*
X138231250Y-177268750D02*
X138271250Y-176688750D01*
D11*
X138271250Y-176688750D03*
X152281250Y-177768750D03*
X151626251Y-178498750D03*
D12*
X150971250Y-179228750D02*
X152281252Y-177768750D01*
D11*
X157301250Y-176978750D03*
D12*
X157281250Y-177268750D02*
X157321250Y-176688750D01*
D11*
X157321250Y-176688750D03*
X171331250Y-177768750D03*
X170676251Y-178498750D03*
D12*
X170021250Y-179228750D02*
X171331252Y-177768750D01*
D11*
X176351250Y-176978750D03*
D12*
X176331250Y-177268750D02*
X176371250Y-176688750D01*
D11*
X176371250Y-176688750D03*
X190381250Y-177768750D03*
X189726251Y-178498750D03*
D12*
X189071250Y-179228750D02*
X190381252Y-177768750D01*
D11*
X195401250Y-176978750D03*
D12*
X195381250Y-177268750D02*
X195421250Y-176688750D01*
D11*
X195421250Y-176688750D03*
X209431250Y-177768750D03*
X208776251Y-178498750D03*
D12*
X208121250Y-179228750D02*
X209431252Y-177768750D01*
D11*
X214451250Y-176978750D03*
D12*
X214431250Y-177268750D02*
X214471250Y-176688750D01*
D11*
X214471250Y-176688750D03*
X228481250Y-177768750D03*
X227826251Y-178498750D03*
D12*
X227171250Y-179228750D02*
X228481252Y-177768750D01*
D11*
X233501250Y-176978750D03*
D12*
X233481250Y-177268750D02*
X233521250Y-176688750D01*
D11*
X233521250Y-176688750D03*
X247531250Y-177768750D03*
X246876251Y-178498750D03*
D12*
X246221250Y-179228750D02*
X247531252Y-177768750D01*
D11*
X252551250Y-176978750D03*
D12*
X252531250Y-177268750D02*
X252571250Y-176688750D01*
D11*
X252571250Y-176688750D03*
X266581250Y-177768750D03*
X265926251Y-178498750D03*
D12*
X265271250Y-179228750D02*
X266581252Y-177768750D01*
D11*
X271601250Y-176978750D03*
D12*
X271581250Y-177268750D02*
X271621250Y-176688750D01*
D11*
X271621250Y-176688750D03*
X285631250Y-177768750D03*
X284976251Y-178498750D03*
D12*
X284321250Y-179228750D02*
X285631252Y-177768750D01*
D11*
X290651250Y-176978750D03*
D12*
X290631250Y-177268750D02*
X290671250Y-176688750D01*
D11*
X290671250Y-176688750D03*
X304681250Y-177768750D03*
X304026251Y-178498750D03*
D12*
X303371250Y-179228750D02*
X304681252Y-177768750D01*
D11*
X309701250Y-176978750D03*
D12*
X309681250Y-177268750D02*
X309721250Y-176688750D01*
D11*
X309721250Y-176688750D03*
X340400000Y-177768750D03*
X339745001Y-178498750D03*
D12*
X339090000Y-179228750D02*
X340400002Y-177768750D01*
D11*
X345420000Y-176978750D03*
D12*
X345400000Y-177268750D02*
X345440000Y-176688750D01*
D11*
X345440000Y-176688750D03*
X121325000Y-196818750D03*
X120670001Y-197548750D03*
D12*
X120015000Y-198278750D02*
X121325002Y-196818750D01*
D11*
X126345000Y-196028750D03*
D12*
X126325000Y-196318750D02*
X126365000Y-195738750D01*
D11*
X126365000Y-195738750D03*
X145137500Y-196818750D03*
X144482501Y-197548750D03*
D12*
X143827500Y-198278750D02*
X145137502Y-196818750D01*
D11*
X150157500Y-196028750D03*
D12*
X150137500Y-196318750D02*
X150177500Y-195738750D01*
D11*
X150177500Y-195738750D03*
X223718750Y-196818750D03*
X223063751Y-197548750D03*
D12*
X222408750Y-198278750D02*
X223718752Y-196818750D01*
D11*
X228738750Y-196028750D03*
D12*
X228718750Y-196318750D02*
X228758750Y-195738750D01*
D11*
X228758750Y-195738750D03*
X302300000Y-196818750D03*
X301645001Y-197548750D03*
D12*
X300990000Y-198278750D02*
X302300002Y-196818750D01*
D11*
X307320000Y-196028750D03*
D12*
X307300000Y-196318750D02*
X307340000Y-195738750D01*
D11*
X307340000Y-195738750D03*
X326112500Y-196818750D03*
X325457501Y-197548750D03*
D12*
X324802500Y-198278750D02*
X326112502Y-196818750D01*
D11*
X331132500Y-196028750D03*
D12*
X331112500Y-196318750D02*
X331152500Y-195738750D01*
D11*
X331152500Y-195738750D03*
D13*
X96964500Y-97729010D03*
X96202500Y-93281500D03*
X98742500Y-100012500D03*
X99123500Y-105854500D03*
X119189500Y-98615500D03*
X112367271Y-111083542D03*
X93662500Y-107632500D03*
X94062499Y-97872499D03*
D14*
X89058750Y-136366250D02*
X93821250Y-141128750D01*
X89058750Y-122078750D02*
X89058750Y-136366250D01*
X93874999Y-157743751D02*
X91440000Y-160178750D01*
X93874999Y-141182499D02*
X93874999Y-157743751D01*
X93821250Y-141128750D02*
X93874999Y-141182499D01*
X108108750Y-171935000D02*
X100965000Y-179078750D01*
X100965000Y-179078750D02*
X100965000Y-179228750D01*
X108108750Y-122078750D02*
X108108750Y-171935000D01*
X127158750Y-131453750D02*
X118943750Y-139668750D01*
X127158750Y-122078750D02*
X127158750Y-131453750D01*
X117633750Y-155416250D02*
X122396250Y-160178750D01*
X117633750Y-141128750D02*
X117633750Y-155416250D01*
X132106251Y-176643751D02*
X133231250Y-177768750D01*
X123885349Y-168422849D02*
X132106251Y-176643751D01*
X123885349Y-162779099D02*
X123885349Y-168422849D01*
X122396250Y-161290000D02*
X123885349Y-162779099D01*
X122396250Y-160178750D02*
X122396250Y-161290000D01*
X131921250Y-186222500D02*
X121325000Y-196818750D01*
X131921250Y-179228750D02*
X131921250Y-186222500D01*
X136683750Y-140978750D02*
X136683750Y-141128750D01*
X146208750Y-131453750D02*
X136683750Y-140978750D01*
X146208750Y-122078750D02*
X146208750Y-131453750D01*
X136683750Y-155416250D02*
X141446250Y-160178750D01*
X136683750Y-141128750D02*
X136683750Y-155416250D01*
X150971250Y-176458750D02*
X150971250Y-179228750D01*
X141446250Y-166933750D02*
X150971250Y-176458750D01*
X141446250Y-160178750D02*
X141446250Y-166933750D01*
X143827500Y-198128750D02*
X143827500Y-198278750D01*
X150971250Y-190985000D02*
X143827500Y-198128750D01*
X150971250Y-179228750D02*
X150971250Y-190985000D01*
X165258750Y-131603750D02*
X155733750Y-141128750D01*
X165258750Y-122078750D02*
X165258750Y-131603750D01*
X155733750Y-143510000D02*
X160496250Y-148272500D01*
X160496250Y-148272500D02*
X160496250Y-160178750D01*
X155733750Y-141128750D02*
X155733750Y-143510000D01*
X160496250Y-169703750D02*
X170021250Y-179228750D01*
X160496250Y-160178750D02*
X160496250Y-169703750D01*
X174783750Y-140978750D02*
X174783750Y-141128750D01*
X184308750Y-131453750D02*
X174783750Y-140978750D01*
X184308750Y-122078750D02*
X184308750Y-131453750D01*
X174783750Y-155416250D02*
X179546250Y-160178750D01*
X174783750Y-141128750D02*
X174783750Y-155416250D01*
X179546250Y-169703750D02*
X189071250Y-179228750D01*
X179546250Y-160178750D02*
X179546250Y-169703750D01*
X203358750Y-131603750D02*
X193833750Y-141128750D01*
X203358750Y-122078750D02*
X203358750Y-131603750D01*
X198596250Y-157408750D02*
X198596250Y-160178750D01*
X193833750Y-152646250D02*
X198596250Y-157408750D01*
X193833750Y-141128750D02*
X193833750Y-152646250D01*
X208121250Y-176458750D02*
X208121250Y-179228750D01*
X198596250Y-166933750D02*
X208121250Y-176458750D01*
X198596250Y-160178750D02*
X198596250Y-166933750D01*
X212883750Y-140978750D02*
X212883750Y-141128750D01*
X222408750Y-131453750D02*
X212883750Y-140978750D01*
X222408750Y-122078750D02*
X222408750Y-131453750D01*
X217646250Y-157408750D02*
X217646250Y-160178750D01*
X212883750Y-152646250D02*
X217646250Y-157408750D01*
X212883750Y-141128750D02*
X212883750Y-152646250D01*
X217646250Y-166933750D02*
X228481250Y-177768750D01*
X217646250Y-160178750D02*
X217646250Y-166933750D01*
X227171250Y-193366250D02*
X223718750Y-196818750D01*
X227171250Y-179228750D02*
X227171250Y-193366250D01*
X231933750Y-140978750D02*
X231933750Y-141128750D01*
X241458750Y-131453750D02*
X231933750Y-140978750D01*
X241458750Y-122078750D02*
X241458750Y-131453750D01*
X231933750Y-155416250D02*
X236696250Y-160178750D01*
X231933750Y-141128750D02*
X231933750Y-155416250D01*
X236696250Y-169703750D02*
X246221250Y-179228750D01*
X236696250Y-160178750D02*
X236696250Y-169703750D01*
X250983750Y-140978750D02*
X250983750Y-141128750D01*
X260508750Y-131453750D02*
X250983750Y-140978750D01*
X260508750Y-122078750D02*
X260508750Y-131453750D01*
X250983750Y-155416250D02*
X255746250Y-160178750D01*
X250983750Y-141128750D02*
X250983750Y-155416250D01*
X265271250Y-171868684D02*
X265271250Y-179228750D01*
X255746250Y-162343684D02*
X265271250Y-171868684D01*
X255746250Y-160178750D02*
X255746250Y-162343684D01*
X270033750Y-140978750D02*
X270033750Y-141128750D01*
X279558750Y-131453750D02*
X270033750Y-140978750D01*
X279558750Y-122078750D02*
X279558750Y-131453750D01*
X270033750Y-155416250D02*
X274796250Y-160178750D01*
X270033750Y-141128750D02*
X270033750Y-155416250D01*
X284321250Y-171868684D02*
X284321250Y-179228750D01*
X274796250Y-162343684D02*
X284321250Y-171868684D01*
X274796250Y-160178750D02*
X274796250Y-162343684D01*
X289083750Y-140978750D02*
X289083750Y-141128750D01*
X298608750Y-131453750D02*
X289083750Y-140978750D01*
X298608750Y-122078750D02*
X298608750Y-131453750D01*
X289083750Y-155416250D02*
X293846250Y-160178750D01*
X289083750Y-141128750D02*
X289083750Y-155416250D01*
X293846250Y-169703750D02*
X303371250Y-179228750D01*
X293846250Y-160178750D02*
X293846250Y-169703750D01*
X303424999Y-195843751D02*
X300990000Y-198278750D01*
X303424999Y-179282499D02*
X303424999Y-195843751D01*
X303371250Y-179228750D02*
X303424999Y-179282499D01*
X308133750Y-140978750D02*
X308133750Y-141128750D01*
X317658750Y-131453750D02*
X308133750Y-140978750D01*
X317658750Y-122078750D02*
X317658750Y-131453750D01*
X308133750Y-155416250D02*
X312896250Y-160178750D01*
X308133750Y-141128750D02*
X308133750Y-155416250D01*
X313463251Y-186939501D02*
X324802500Y-198278750D01*
X313463251Y-160745751D02*
X313463251Y-186939501D01*
X312896250Y-160178750D02*
X313463251Y-160745751D01*
X342908982Y-160178750D02*
X343852500Y-160178750D01*
X327183750Y-144453518D02*
X342908982Y-160178750D01*
X327183750Y-141128750D02*
X327183750Y-144453518D01*
X339090000Y-179078750D02*
X339090000Y-179228750D01*
X343852500Y-174316250D02*
X339090000Y-179078750D01*
X343852500Y-160178750D02*
X343852500Y-174316250D01*
X328493750Y-139818750D02*
X327183750Y-141128750D01*
X328493750Y-121874788D02*
X328493750Y-139818750D01*
X322401711Y-115782749D02*
X328493750Y-121874788D01*
X107754195Y-115782749D02*
X322401711Y-115782749D01*
X96964500Y-104993054D02*
X107754195Y-115782749D01*
X96964500Y-97729010D02*
X96964500Y-104993054D01*
X346233750Y-136366250D02*
X350996250Y-141128750D01*
X346233750Y-122078750D02*
X346233750Y-136366250D01*
D15*
X96202500Y-93847185D02*
X98742500Y-96387185D01*
X96202500Y-93281500D02*
X96202500Y-93847185D01*
X98742500Y-96387185D02*
X98742500Y-100012500D01*
X98742500Y-100578185D02*
X99123500Y-100959185D01*
X98742500Y-100012500D02*
X98742500Y-100578185D01*
X99123500Y-100959185D02*
X99123500Y-105854500D01*
X99123500Y-105854500D02*
X99123500Y-106420185D01*
X119189500Y-104344229D02*
X119189500Y-98615500D01*
X99123500Y-106420185D02*
X99276435Y-106420185D01*
X99276435Y-106420185D02*
X103981250Y-111125000D01*
X112408729Y-111125000D02*
X119189500Y-104344229D01*
X103981250Y-111125000D02*
X112408729Y-111125000D01*
D14*
X94062499Y-107232501D02*
X94062499Y-97872499D01*
X93662500Y-107632500D02*
X94062499Y-107232501D01*
M02*
