M48
; DRILL file {KiCad (5.1.4)-1} date 06/08/2021 15:59:54
; FORMAT={-:-/ absolute / inch / decimal}
; #@! TF.CreationDate,2021-08-06T15:59:54-05:00
; #@! TF.GenerationSoftware,Kicad,Pcbnew,(5.1.4)-1
; #@! TF.FileFunction,Plated,1,2,PTH
FMAT,2
INCH
T1C0.0157
T2C0.0276
T3C0.0579
%
G90
G05
T1
X3.6875Y-4.2375
X3.7032Y-3.8532
X3.7875Y-3.6725
X3.8175Y-3.8476
X3.8875Y-3.9375
X3.9025Y-4.1675
X4.4239Y-4.3734
X4.6925Y-3.8825
T3
X11.7562Y-4.8062
X11.8078Y-4.7488
X12.0047Y-4.7291
X12.0062Y-4.7062
X12.5062Y-4.8062
X12.5578Y-4.7488
X12.7547Y-4.7291
X12.7562Y-4.7062
X12.1312Y-5.5562
X12.1828Y-5.4988
X12.3797Y-5.4791
X12.3812Y-5.4562
X9.5062Y-4.8062
X9.5578Y-4.7488
X9.7547Y-4.7291
X9.7562Y-4.7062
X10.2562Y-4.8062
X10.3078Y-4.7488
X10.5047Y-4.7291
X10.5062Y-4.7062
X11.0062Y-4.8062
X11.0578Y-4.7488
X11.2547Y-4.7291
X11.2562Y-4.7062
X4.725Y-7.8062
X4.7766Y-7.7488
X4.9734Y-7.7291
X4.975Y-7.7062
X11.1937Y-7.0562
X11.2453Y-6.9988
X11.4422Y-6.9791
X11.4437Y-6.9562
X11.9437Y-7.0562
X11.9953Y-6.9988
X12.1922Y-6.9791
X12.1937Y-6.9562
X5.6625Y-7.8062
X5.7141Y-7.7488
X5.9109Y-7.7291
X5.9125Y-7.7062
X8.7562Y-7.8062
X8.8078Y-7.7488
X9.0047Y-7.7291
X9.0062Y-7.7062
X11.85Y-7.8062
X11.9016Y-7.7488
X12.0984Y-7.7291
X12.1Y-7.7062
X12.7875Y-7.8062
X12.8391Y-7.7488
X13.0359Y-7.7291
X13.0375Y-7.7062
X13.35Y-7.0562
X13.4016Y-6.9988
X13.5984Y-6.9791
X13.6Y-6.9562
X3.5063Y-4.8062
X3.5578Y-4.7488
X3.7547Y-4.7291
X3.7563Y-4.7062
X8.0062Y-4.8062
X8.0578Y-4.7488
X8.2547Y-4.7291
X8.2562Y-4.7062
X7.2562Y-4.8062
X7.3078Y-4.7488
X7.5047Y-4.7291
X7.5062Y-4.7062
X8.7562Y-4.8062
X8.8078Y-4.7488
X9.0047Y-4.7291
X9.0062Y-4.7062
X6.5062Y-4.8062
X6.5578Y-4.7488
X6.7547Y-4.7291
X6.7562Y-4.7062
X5.0062Y-4.8062
X5.0578Y-4.7488
X5.2547Y-4.7291
X5.2562Y-4.7062
X4.2562Y-4.8062
X4.3078Y-4.7488
X4.5047Y-4.7291
X4.5062Y-4.7062
X5.7562Y-4.8062
X5.8078Y-4.7488
X6.0047Y-4.7291
X6.0062Y-4.7062
X10.6312Y-5.5562
X10.6828Y-5.4988
X10.8797Y-5.4791
X10.8812Y-5.4562
X11.3812Y-5.5562
X11.4328Y-5.4988
X11.6297Y-5.4791
X11.6312Y-5.4562
X6.1312Y-5.5562
X6.1828Y-5.4988
X6.3797Y-5.4791
X6.3812Y-5.4562
X3.6938Y-5.5562
X3.7453Y-5.4988
X3.9422Y-5.4791
X3.9438Y-5.4562
X13.6312Y-4.8062
X13.6828Y-4.7488
X13.8797Y-4.7291
X13.8812Y-4.7062
X5.3812Y-5.5562
X5.4328Y-5.4988
X5.6297Y-5.4791
X5.6312Y-5.4562
X6.8812Y-5.5562
X6.9328Y-5.4988
X7.1297Y-5.4791
X7.1312Y-5.4562
X7.6312Y-5.5562
X7.6828Y-5.4988
X7.8797Y-5.4791
X7.8812Y-5.4562
X8.3812Y-5.5562
X8.4328Y-5.4988
X8.6297Y-5.4791
X8.6312Y-5.4562
X4.6312Y-5.5562
X4.6828Y-5.4988
X4.8797Y-5.4791
X4.8812Y-5.4562
X9.1312Y-5.5562
X9.1828Y-5.4988
X9.3797Y-5.4791
X9.3812Y-5.4562
X9.8812Y-5.5562
X9.9328Y-5.4988
X10.1297Y-5.4791
X10.1312Y-5.4562
X11.5687Y-6.3062
X11.6203Y-6.2488
X11.8172Y-6.2291
X11.8187Y-6.2062
X13.5375Y-6.3062
X13.5891Y-6.2488
X13.7859Y-6.2291
X13.7875Y-6.2062
X3.975Y-7.0562
X4.0266Y-6.9988
X4.2234Y-6.9791
X4.225Y-6.9562
X9.6937Y-7.0562
X9.7453Y-6.9988
X9.9422Y-6.9791
X9.9437Y-6.9562
X12.3187Y-6.3062
X12.3703Y-6.2488
X12.5672Y-6.2291
X12.5687Y-6.2062
X5.9437Y-7.0562
X5.9953Y-6.9988
X6.1922Y-6.9791
X6.1937Y-6.9562
X8.9437Y-7.0562
X8.9953Y-6.9988
X9.1922Y-6.9791
X9.1937Y-6.9562
X10.4437Y-7.0562
X10.4953Y-6.9988
X10.6922Y-6.9791
X10.6937Y-6.9562
X8.1937Y-7.0562
X8.2453Y-6.9988
X8.4422Y-6.9791
X8.4437Y-6.9562
X7.4437Y-7.0562
X7.4953Y-6.9988
X7.6922Y-6.9791
X7.6937Y-6.9562
X5.1937Y-7.0562
X5.2453Y-6.9988
X5.4422Y-6.9791
X5.4437Y-6.9562
X6.6937Y-7.0562
X6.7453Y-6.9988
X6.9422Y-6.9791
X6.9437Y-6.9562
X13.8187Y-5.5562
X13.8703Y-5.4988
X14.0672Y-5.4791
X14.0687Y-5.4562
X12.8812Y-5.5562
X12.9328Y-5.4988
X13.1297Y-5.4791
X13.1312Y-5.4562
X9.3187Y-6.3062
X9.3703Y-6.2488
X9.5672Y-6.2291
X9.5687Y-6.2062
X4.8187Y-6.3062
X4.8703Y-6.2488
X5.0672Y-6.2291
X5.0687Y-6.2062
X3.6Y-6.3062
X3.6516Y-6.2488
X3.8484Y-6.2291
X3.85Y-6.2062
X7.0687Y-6.3062
X7.1203Y-6.2488
X7.3172Y-6.2291
X7.3187Y-6.2062
X10.0687Y-6.3062
X10.1203Y-6.2488
X10.3172Y-6.2291
X10.3187Y-6.2062
X5.5687Y-6.3062
X5.6203Y-6.2488
X5.8172Y-6.2291
X5.8187Y-6.2062
X7.8187Y-6.3062
X7.8703Y-6.2488
X8.0672Y-6.2291
X8.0687Y-6.2062
X6.3187Y-6.3062
X6.3703Y-6.2488
X6.5672Y-6.2291
X6.5687Y-6.2062
X10.8187Y-6.3062
X10.8703Y-6.2488
X11.0672Y-6.2291
X11.0687Y-6.2062
X8.5687Y-6.3062
X8.6203Y-6.2488
X8.8172Y-6.2291
X8.8187Y-6.2062
T2
G00X3.2938Y-3.1639
M15
G01X3.2938Y-3.2111
M16
G05
G00X3.2938Y-3.341
M15
G01X3.2938Y-3.3883
M16
G05
G00X3.5812Y-3.1639
M15
G01X3.5812Y-3.2111
M16
G05
G00X3.5812Y-3.341
M15
G01X3.5812Y-3.3883
M16
G05
T0
M30
