G04 #@! TF.GenerationSoftware,KiCad,Pcbnew,(5.1.4)-1*
G04 #@! TF.CreationDate,2021-08-06T17:52:11-05:00*
G04 #@! TF.ProjectId,keyboard,6b657962-6f61-4726-942e-6b696361645f,rev?*
G04 #@! TF.SameCoordinates,Original*
G04 #@! TF.FileFunction,Soldermask,Top*
G04 #@! TF.FilePolarity,Negative*
%FSLAX46Y46*%
G04 Gerber Fmt 4.6, Leading zero omitted, Abs format (unit mm)*
G04 Created by KiCad (PCBNEW (5.1.4)-1) date 2021-08-06 17:52:11*
%MOMM*%
%LPD*%
G04 APERTURE LIST*
%ADD10O,1.700000X2.700000*%
%ADD11C,3.987800*%
%ADD12C,1.750000*%
%ADD13C,3.048000*%
G04 APERTURE END LIST*
D10*
X83662500Y-80962500D03*
X90962500Y-80962500D03*
X90962500Y-85462500D03*
X83662500Y-85462500D03*
D11*
X92868750Y-124618750D03*
D12*
X87788750Y-124618750D03*
X97948750Y-124618750D03*
D11*
X111918750Y-124618750D03*
D12*
X106838750Y-124618750D03*
X116998750Y-124618750D03*
D11*
X130968750Y-124618750D03*
D12*
X125888750Y-124618750D03*
X136048750Y-124618750D03*
D11*
X150018750Y-124618750D03*
D12*
X144938750Y-124618750D03*
X155098750Y-124618750D03*
D11*
X169068750Y-124618750D03*
D12*
X163988750Y-124618750D03*
X174148750Y-124618750D03*
D11*
X188118750Y-124618750D03*
D12*
X183038750Y-124618750D03*
X193198750Y-124618750D03*
D11*
X207168750Y-124618750D03*
D12*
X202088750Y-124618750D03*
X212248750Y-124618750D03*
D11*
X226218750Y-124618750D03*
D12*
X221138750Y-124618750D03*
X231298750Y-124618750D03*
D11*
X245268750Y-124618750D03*
D12*
X240188750Y-124618750D03*
X250348750Y-124618750D03*
D11*
X264318750Y-124618750D03*
D12*
X259238750Y-124618750D03*
X269398750Y-124618750D03*
D11*
X283368750Y-124618750D03*
D12*
X278288750Y-124618750D03*
X288448750Y-124618750D03*
D11*
X302418750Y-124618750D03*
D12*
X297338750Y-124618750D03*
X307498750Y-124618750D03*
D11*
X321468750Y-124618750D03*
D12*
X316388750Y-124618750D03*
X326548750Y-124618750D03*
D11*
X350043750Y-124618750D03*
D12*
X344963750Y-124618750D03*
X355123750Y-124618750D03*
D13*
X338105750Y-117633750D03*
X361981750Y-117633750D03*
D11*
X338105750Y-132873750D03*
X361981750Y-132873750D03*
X97631250Y-143668750D03*
D12*
X92551250Y-143668750D03*
X102711250Y-143668750D03*
D11*
X121443750Y-143668750D03*
D12*
X116363750Y-143668750D03*
X126523750Y-143668750D03*
D11*
X140493750Y-143668750D03*
D12*
X135413750Y-143668750D03*
X145573750Y-143668750D03*
D11*
X159543750Y-143668750D03*
D12*
X154463750Y-143668750D03*
X164623750Y-143668750D03*
D11*
X178593750Y-143668750D03*
D12*
X173513750Y-143668750D03*
X183673750Y-143668750D03*
D11*
X197643750Y-143668750D03*
D12*
X192563750Y-143668750D03*
X202723750Y-143668750D03*
D11*
X216693750Y-143668750D03*
D12*
X211613750Y-143668750D03*
X221773750Y-143668750D03*
D11*
X235743750Y-143668750D03*
D12*
X230663750Y-143668750D03*
X240823750Y-143668750D03*
D11*
X254793750Y-143668750D03*
D12*
X249713750Y-143668750D03*
X259873750Y-143668750D03*
D11*
X273843750Y-143668750D03*
D12*
X268763750Y-143668750D03*
X278923750Y-143668750D03*
D11*
X292893750Y-143668750D03*
D12*
X287813750Y-143668750D03*
X297973750Y-143668750D03*
D11*
X311943750Y-143668750D03*
D12*
X306863750Y-143668750D03*
X317023750Y-143668750D03*
D11*
X330993750Y-143668750D03*
D12*
X325913750Y-143668750D03*
X336073750Y-143668750D03*
D11*
X354806250Y-143668750D03*
D12*
X349726250Y-143668750D03*
X359886250Y-143668750D03*
D11*
X95250000Y-162718750D03*
D12*
X90170000Y-162718750D03*
X100330000Y-162718750D03*
D11*
X126206250Y-162718750D03*
D12*
X121126250Y-162718750D03*
X131286250Y-162718750D03*
D11*
X145256250Y-162718750D03*
D12*
X140176250Y-162718750D03*
X150336250Y-162718750D03*
D11*
X164306250Y-162718750D03*
D12*
X159226250Y-162718750D03*
X169386250Y-162718750D03*
D11*
X183356250Y-162718750D03*
D12*
X178276250Y-162718750D03*
X188436250Y-162718750D03*
D11*
X202406250Y-162718750D03*
D12*
X197326250Y-162718750D03*
X207486250Y-162718750D03*
D11*
X221456250Y-162718750D03*
D12*
X216376250Y-162718750D03*
X226536250Y-162718750D03*
D11*
X240506250Y-162718750D03*
D12*
X235426250Y-162718750D03*
X245586250Y-162718750D03*
D11*
X259556250Y-162718750D03*
D12*
X254476250Y-162718750D03*
X264636250Y-162718750D03*
D11*
X278606250Y-162718750D03*
D12*
X273526250Y-162718750D03*
X283686250Y-162718750D03*
D11*
X297656250Y-162718750D03*
D12*
X292576250Y-162718750D03*
X302736250Y-162718750D03*
D11*
X316706250Y-162718750D03*
D12*
X311626250Y-162718750D03*
X321786250Y-162718750D03*
D11*
X347662500Y-162718750D03*
D12*
X342582500Y-162718750D03*
X352742500Y-162718750D03*
D13*
X335724500Y-155733750D03*
X359600500Y-155733750D03*
D11*
X335724500Y-170973750D03*
X359600500Y-170973750D03*
X104775000Y-181768750D03*
D12*
X99695000Y-181768750D03*
X109855000Y-181768750D03*
D13*
X92837000Y-174783750D03*
X116713000Y-174783750D03*
D11*
X92837000Y-190023750D03*
X116713000Y-190023750D03*
X135731250Y-181768750D03*
D12*
X130651250Y-181768750D03*
X140811250Y-181768750D03*
D11*
X154781250Y-181768750D03*
D12*
X149701250Y-181768750D03*
X159861250Y-181768750D03*
D11*
X173831250Y-181768750D03*
D12*
X168751250Y-181768750D03*
X178911250Y-181768750D03*
D11*
X192881250Y-181768750D03*
D12*
X187801250Y-181768750D03*
X197961250Y-181768750D03*
D11*
X211931250Y-181768750D03*
D12*
X206851250Y-181768750D03*
X217011250Y-181768750D03*
D11*
X230981250Y-181768750D03*
D12*
X225901250Y-181768750D03*
X236061250Y-181768750D03*
D11*
X250031250Y-181768750D03*
D12*
X244951250Y-181768750D03*
X255111250Y-181768750D03*
D11*
X269081250Y-181768750D03*
D12*
X264001250Y-181768750D03*
X274161250Y-181768750D03*
D11*
X288131250Y-181768750D03*
D12*
X283051250Y-181768750D03*
X293211250Y-181768750D03*
D11*
X307181250Y-181768750D03*
D12*
X302101250Y-181768750D03*
X312261250Y-181768750D03*
D11*
X342900000Y-181768750D03*
D12*
X337820000Y-181768750D03*
X347980000Y-181768750D03*
D13*
X330962000Y-174783750D03*
X354838000Y-174783750D03*
D11*
X330962000Y-190023750D03*
X354838000Y-190023750D03*
X123825000Y-200818750D03*
D12*
X118745000Y-200818750D03*
X128905000Y-200818750D03*
D11*
X147637500Y-200818750D03*
D12*
X142557500Y-200818750D03*
X152717500Y-200818750D03*
D11*
X226218750Y-200818750D03*
D12*
X221138750Y-200818750D03*
X231298750Y-200818750D03*
D13*
X169068750Y-193833750D03*
X283368750Y-193833750D03*
D11*
X169068750Y-209073750D03*
X283368750Y-209073750D03*
X304800000Y-200818750D03*
D12*
X299720000Y-200818750D03*
X309880000Y-200818750D03*
D11*
X328612500Y-200818750D03*
D12*
X323532500Y-200818750D03*
X333692500Y-200818750D03*
M02*
