<?xml version="1.0" encoding="UTF-8"?>
<!-- Generated by SVGo -->
<svg width="309.752mm" height="119.251mm" viewBox="0.000 0.000 309.752 119.251" xmlns="http://www.w3.org/2000/svg" xmlns:xlink="http://www.w3.org/1999/xlink">
<polygon points="302.752,5.001 302.908,5.007 303.064,5.025 303.218,5.056 303.370,5.098 303.517,5.153 303.659,5.218 303.796,5.295 303.927,5.382 304.050,5.480 304.166,5.586 304.272,5.702 304.370,5.825 304.457,5.956 304.534,6.093 304.599,6.235 304.654,6.382 304.696,6.534 304.727,6.688 304.745,6.844 304.752,7.001 304.752,112.251 304.745,112.408 304.727,112.564 304.696,112.718 304.654,112.870 304.599,113.017 304.534,113.159 304.457,113.296 304.370,113.427 304.272,113.550 304.166,113.666 304.050,113.772 303.927,113.870 303.796,113.957 303.659,114.034 303.517,114.099 303.370,114.154 303.218,114.196 303.064,114.227 302.908,114.245 302.752,114.251 7.001,114.251 6.844,114.245 6.688,114.227 6.534,114.196 6.382,114.154 6.235,114.099 6.093,114.034 5.956,113.957 5.825,113.870 5.702,113.772 5.586,113.666 5.480,113.550 5.382,113.427 5.295,113.296 5.218,113.159 5.153,113.017 5.098,112.870 5.056,112.718 5.025,112.564 5.007,112.408 5.000,112.252 5.001,7.001 5.007,6.844 5.025,6.688 5.056,6.534 5.098,6.382 5.153,6.235 5.218,6.093 5.295,5.956 5.382,5.825 5.480,5.702 5.586,5.586 5.702,5.480 5.825,5.382 5.956,5.295 6.093,5.218 6.235,5.153 6.382,5.098 6.534,5.056 6.688,5.025 6.844,5.007 7.001,5.000" style="fill:none;stroke-width:0.050000mm;stroke:black"/>
<polygon points="12.001,12.001 12.001,107.251 297.752,107.251 297.752,12.001" style="fill:none;stroke-width:0.050000mm;stroke:black"/>
</svg>